<?xml version="1.0" encoding="utf-8" standalone="no"?>
<!DOCTYPE svg PUBLIC "-//W3C//DTD SVG 1.1//EN"
  "http://www.w3.org/Graphics/SVG/1.1/DTD/svg11.dtd">
<svg height="288pt" version="1.1" viewBox="0 0 432 288" width="432pt" xmlns="http://www.w3.org/2000/svg" xmlns:xlink="http://www.w3.org/1999/xlink">
 <metadata>
  <rdf:RDF xmlns:cc="http://creativecommons.org/ns#" xmlns:dc="http://purl.org/dc/elements/1.1/" xmlns:rdf="http://www.w3.org/1999/02/22-rdf-syntax-ns#">
   <cc:Work>
    <dc:type rdf:resource="http://purl.org/dc/dcmitype/StillImage"/>
    <dc:date>2022-05-30T09:25:40.579664</dc:date>
    <dc:format>image/svg+xml</dc:format>
    <dc:creator>
     <cc:Agent>
      <dc:title>Matplotlib v3.4.3, https://matplotlib.org/</dc:title>
     </cc:Agent>
    </dc:creator>
   </cc:Work>
  </rdf:RDF>
 </metadata>
 <defs>
  <style type="text/css">*{stroke-linecap:butt;stroke-linejoin:round;}</style>
 </defs>
 <g id="figure_1">
  <g id="patch_1">
   <path d="M 0 288 
L 432 288 
L 432 0 
L 0 0 
z
" style="fill:none;"/>
  </g>
  <g id="axes_1">
   <g id="patch_2">
    <path d="M 54 252 
L 388.8 252 
L 388.8 34.56 
L 54 34.56 
z
" style="fill:#ffffff;"/>
   </g>
   <g id="matplotlib.axis_1">
    <g id="xtick_1">
     <g id="line2d_1">
      <path clip-path="url(#p166b18f4bd)" d="M 69.218182 252 
L 69.218182 34.56 
" style="fill:none;stroke:#b0b0b0;stroke-linecap:square;stroke-width:0.8;"/>
     </g>
     <g id="line2d_2">
      <defs>
       <path d="M 0 0 
L 0 3.5 
" id="mc27aafe160" style="stroke:#000000;stroke-width:0.8;"/>
      </defs>
      <g>
       <use style="stroke:#000000;stroke-width:0.8;" x="69.218182" xlink:href="#mc27aafe160" y="252"/>
      </g>
     </g>
     <g id="text_1">
      <!-- 0 -->
      <g transform="translate(66.036932 266.598437)scale(0.1 -0.1)">
       <defs>
        <path d="M 2034 4250 
Q 1547 4250 1301 3770 
Q 1056 3291 1056 2328 
Q 1056 1369 1301 889 
Q 1547 409 2034 409 
Q 2525 409 2770 889 
Q 3016 1369 3016 2328 
Q 3016 3291 2770 3770 
Q 2525 4250 2034 4250 
z
M 2034 4750 
Q 2819 4750 3233 4129 
Q 3647 3509 3647 2328 
Q 3647 1150 3233 529 
Q 2819 -91 2034 -91 
Q 1250 -91 836 529 
Q 422 1150 422 2328 
Q 422 3509 836 4129 
Q 1250 4750 2034 4750 
z
" id="DejaVuSans-30" transform="scale(0.015625)"/>
       </defs>
       <use xlink:href="#DejaVuSans-30"/>
      </g>
     </g>
    </g>
    <g id="xtick_2">
     <g id="line2d_3">
      <path clip-path="url(#p166b18f4bd)" d="M 130.705785 252 
L 130.705785 34.56 
" style="fill:none;stroke:#b0b0b0;stroke-linecap:square;stroke-width:0.8;"/>
     </g>
     <g id="line2d_4">
      <g>
       <use style="stroke:#000000;stroke-width:0.8;" x="130.705785" xlink:href="#mc27aafe160" y="252"/>
      </g>
     </g>
     <g id="text_2">
      <!-- 20 -->
      <g transform="translate(124.343285 266.598437)scale(0.1 -0.1)">
       <defs>
        <path d="M 1228 531 
L 3431 531 
L 3431 0 
L 469 0 
L 469 531 
Q 828 903 1448 1529 
Q 2069 2156 2228 2338 
Q 2531 2678 2651 2914 
Q 2772 3150 2772 3378 
Q 2772 3750 2511 3984 
Q 2250 4219 1831 4219 
Q 1534 4219 1204 4116 
Q 875 4013 500 3803 
L 500 4441 
Q 881 4594 1212 4672 
Q 1544 4750 1819 4750 
Q 2544 4750 2975 4387 
Q 3406 4025 3406 3419 
Q 3406 3131 3298 2873 
Q 3191 2616 2906 2266 
Q 2828 2175 2409 1742 
Q 1991 1309 1228 531 
z
" id="DejaVuSans-32" transform="scale(0.015625)"/>
       </defs>
       <use xlink:href="#DejaVuSans-32"/>
       <use x="63.623047" xlink:href="#DejaVuSans-30"/>
      </g>
     </g>
    </g>
    <g id="xtick_3">
     <g id="line2d_5">
      <path clip-path="url(#p166b18f4bd)" d="M 192.193388 252 
L 192.193388 34.56 
" style="fill:none;stroke:#b0b0b0;stroke-linecap:square;stroke-width:0.8;"/>
     </g>
     <g id="line2d_6">
      <g>
       <use style="stroke:#000000;stroke-width:0.8;" x="192.193388" xlink:href="#mc27aafe160" y="252"/>
      </g>
     </g>
     <g id="text_3">
      <!-- 40 -->
      <g transform="translate(185.830888 266.598437)scale(0.1 -0.1)">
       <defs>
        <path d="M 2419 4116 
L 825 1625 
L 2419 1625 
L 2419 4116 
z
M 2253 4666 
L 3047 4666 
L 3047 1625 
L 3713 1625 
L 3713 1100 
L 3047 1100 
L 3047 0 
L 2419 0 
L 2419 1100 
L 313 1100 
L 313 1709 
L 2253 4666 
z
" id="DejaVuSans-34" transform="scale(0.015625)"/>
       </defs>
       <use xlink:href="#DejaVuSans-34"/>
       <use x="63.623047" xlink:href="#DejaVuSans-30"/>
      </g>
     </g>
    </g>
    <g id="xtick_4">
     <g id="line2d_7">
      <path clip-path="url(#p166b18f4bd)" d="M 253.680992 252 
L 253.680992 34.56 
" style="fill:none;stroke:#b0b0b0;stroke-linecap:square;stroke-width:0.8;"/>
     </g>
     <g id="line2d_8">
      <g>
       <use style="stroke:#000000;stroke-width:0.8;" x="253.680992" xlink:href="#mc27aafe160" y="252"/>
      </g>
     </g>
     <g id="text_4">
      <!-- 60 -->
      <g transform="translate(247.318492 266.598437)scale(0.1 -0.1)">
       <defs>
        <path d="M 2113 2584 
Q 1688 2584 1439 2293 
Q 1191 2003 1191 1497 
Q 1191 994 1439 701 
Q 1688 409 2113 409 
Q 2538 409 2786 701 
Q 3034 994 3034 1497 
Q 3034 2003 2786 2293 
Q 2538 2584 2113 2584 
z
M 3366 4563 
L 3366 3988 
Q 3128 4100 2886 4159 
Q 2644 4219 2406 4219 
Q 1781 4219 1451 3797 
Q 1122 3375 1075 2522 
Q 1259 2794 1537 2939 
Q 1816 3084 2150 3084 
Q 2853 3084 3261 2657 
Q 3669 2231 3669 1497 
Q 3669 778 3244 343 
Q 2819 -91 2113 -91 
Q 1303 -91 875 529 
Q 447 1150 447 2328 
Q 447 3434 972 4092 
Q 1497 4750 2381 4750 
Q 2619 4750 2861 4703 
Q 3103 4656 3366 4563 
z
" id="DejaVuSans-36" transform="scale(0.015625)"/>
       </defs>
       <use xlink:href="#DejaVuSans-36"/>
       <use x="63.623047" xlink:href="#DejaVuSans-30"/>
      </g>
     </g>
    </g>
    <g id="xtick_5">
     <g id="line2d_9">
      <path clip-path="url(#p166b18f4bd)" d="M 315.168595 252 
L 315.168595 34.56 
" style="fill:none;stroke:#b0b0b0;stroke-linecap:square;stroke-width:0.8;"/>
     </g>
     <g id="line2d_10">
      <g>
       <use style="stroke:#000000;stroke-width:0.8;" x="315.168595" xlink:href="#mc27aafe160" y="252"/>
      </g>
     </g>
     <g id="text_5">
      <!-- 80 -->
      <g transform="translate(308.806095 266.598437)scale(0.1 -0.1)">
       <defs>
        <path d="M 2034 2216 
Q 1584 2216 1326 1975 
Q 1069 1734 1069 1313 
Q 1069 891 1326 650 
Q 1584 409 2034 409 
Q 2484 409 2743 651 
Q 3003 894 3003 1313 
Q 3003 1734 2745 1975 
Q 2488 2216 2034 2216 
z
M 1403 2484 
Q 997 2584 770 2862 
Q 544 3141 544 3541 
Q 544 4100 942 4425 
Q 1341 4750 2034 4750 
Q 2731 4750 3128 4425 
Q 3525 4100 3525 3541 
Q 3525 3141 3298 2862 
Q 3072 2584 2669 2484 
Q 3125 2378 3379 2068 
Q 3634 1759 3634 1313 
Q 3634 634 3220 271 
Q 2806 -91 2034 -91 
Q 1263 -91 848 271 
Q 434 634 434 1313 
Q 434 1759 690 2068 
Q 947 2378 1403 2484 
z
M 1172 3481 
Q 1172 3119 1398 2916 
Q 1625 2713 2034 2713 
Q 2441 2713 2670 2916 
Q 2900 3119 2900 3481 
Q 2900 3844 2670 4047 
Q 2441 4250 2034 4250 
Q 1625 4250 1398 4047 
Q 1172 3844 1172 3481 
z
" id="DejaVuSans-38" transform="scale(0.015625)"/>
       </defs>
       <use xlink:href="#DejaVuSans-38"/>
       <use x="63.623047" xlink:href="#DejaVuSans-30"/>
      </g>
     </g>
    </g>
    <g id="xtick_6">
     <g id="line2d_11">
      <path clip-path="url(#p166b18f4bd)" d="M 376.656198 252 
L 376.656198 34.56 
" style="fill:none;stroke:#b0b0b0;stroke-linecap:square;stroke-width:0.8;"/>
     </g>
     <g id="line2d_12">
      <g>
       <use style="stroke:#000000;stroke-width:0.8;" x="376.656198" xlink:href="#mc27aafe160" y="252"/>
      </g>
     </g>
     <g id="text_6">
      <!-- 100 -->
      <g transform="translate(367.112448 266.598437)scale(0.1 -0.1)">
       <defs>
        <path d="M 794 531 
L 1825 531 
L 1825 4091 
L 703 3866 
L 703 4441 
L 1819 4666 
L 2450 4666 
L 2450 531 
L 3481 531 
L 3481 0 
L 794 0 
L 794 531 
z
" id="DejaVuSans-31" transform="scale(0.015625)"/>
       </defs>
       <use xlink:href="#DejaVuSans-31"/>
       <use x="63.623047" xlink:href="#DejaVuSans-30"/>
       <use x="127.246094" xlink:href="#DejaVuSans-30"/>
      </g>
     </g>
    </g>
    <g id="text_7">
     <!-- value -->
     <g transform="translate(205.010625 281.79625)scale(0.12 -0.12)">
      <defs>
       <path d="M 191 3500 
L 800 3500 
L 1894 563 
L 2988 3500 
L 3597 3500 
L 2284 0 
L 1503 0 
L 191 3500 
z
" id="DejaVuSans-76" transform="scale(0.015625)"/>
       <path d="M 2194 1759 
Q 1497 1759 1228 1600 
Q 959 1441 959 1056 
Q 959 750 1161 570 
Q 1363 391 1709 391 
Q 2188 391 2477 730 
Q 2766 1069 2766 1631 
L 2766 1759 
L 2194 1759 
z
M 3341 1997 
L 3341 0 
L 2766 0 
L 2766 531 
Q 2569 213 2275 61 
Q 1981 -91 1556 -91 
Q 1019 -91 701 211 
Q 384 513 384 1019 
Q 384 1609 779 1909 
Q 1175 2209 1959 2209 
L 2766 2209 
L 2766 2266 
Q 2766 2663 2505 2880 
Q 2244 3097 1772 3097 
Q 1472 3097 1187 3025 
Q 903 2953 641 2809 
L 641 3341 
Q 956 3463 1253 3523 
Q 1550 3584 1831 3584 
Q 2591 3584 2966 3190 
Q 3341 2797 3341 1997 
z
" id="DejaVuSans-61" transform="scale(0.015625)"/>
       <path d="M 603 4863 
L 1178 4863 
L 1178 0 
L 603 0 
L 603 4863 
z
" id="DejaVuSans-6c" transform="scale(0.015625)"/>
       <path d="M 544 1381 
L 544 3500 
L 1119 3500 
L 1119 1403 
Q 1119 906 1312 657 
Q 1506 409 1894 409 
Q 2359 409 2629 706 
Q 2900 1003 2900 1516 
L 2900 3500 
L 3475 3500 
L 3475 0 
L 2900 0 
L 2900 538 
Q 2691 219 2414 64 
Q 2138 -91 1772 -91 
Q 1169 -91 856 284 
Q 544 659 544 1381 
z
M 1991 3584 
L 1991 3584 
z
" id="DejaVuSans-75" transform="scale(0.015625)"/>
       <path d="M 3597 1894 
L 3597 1613 
L 953 1613 
Q 991 1019 1311 708 
Q 1631 397 2203 397 
Q 2534 397 2845 478 
Q 3156 559 3463 722 
L 3463 178 
Q 3153 47 2828 -22 
Q 2503 -91 2169 -91 
Q 1331 -91 842 396 
Q 353 884 353 1716 
Q 353 2575 817 3079 
Q 1281 3584 2069 3584 
Q 2775 3584 3186 3129 
Q 3597 2675 3597 1894 
z
M 3022 2063 
Q 3016 2534 2758 2815 
Q 2500 3097 2075 3097 
Q 1594 3097 1305 2825 
Q 1016 2553 972 2059 
L 3022 2063 
z
" id="DejaVuSans-65" transform="scale(0.015625)"/>
      </defs>
      <use xlink:href="#DejaVuSans-76"/>
      <use x="59.179688" xlink:href="#DejaVuSans-61"/>
      <use x="120.458984" xlink:href="#DejaVuSans-6c"/>
      <use x="148.242188" xlink:href="#DejaVuSans-75"/>
      <use x="211.621094" xlink:href="#DejaVuSans-65"/>
     </g>
    </g>
   </g>
   <g id="matplotlib.axis_2">
    <g id="ytick_1">
     <g id="line2d_13">
      <path clip-path="url(#p166b18f4bd)" d="M 54 242.116364 
L 388.8 242.116364 
" style="fill:none;stroke:#b0b0b0;stroke-linecap:square;stroke-width:0.8;"/>
     </g>
     <g id="line2d_14">
      <defs>
       <path d="M 0 0 
L -3.5 0 
" id="mb7e7dd9aa6" style="stroke:#000000;stroke-width:0.8;"/>
      </defs>
      <g>
       <use style="stroke:#000000;stroke-width:0.8;" x="54" xlink:href="#mb7e7dd9aa6" y="242.116364"/>
      </g>
     </g>
     <g id="text_8">
      <!-- 0.00 -->
      <g transform="translate(24.734375 245.915582)scale(0.1 -0.1)">
       <defs>
        <path d="M 684 794 
L 1344 794 
L 1344 0 
L 684 0 
L 684 794 
z
" id="DejaVuSans-2e" transform="scale(0.015625)"/>
       </defs>
       <use xlink:href="#DejaVuSans-30"/>
       <use x="63.623047" xlink:href="#DejaVuSans-2e"/>
       <use x="95.410156" xlink:href="#DejaVuSans-30"/>
       <use x="159.033203" xlink:href="#DejaVuSans-30"/>
      </g>
     </g>
    </g>
    <g id="ytick_2">
     <g id="line2d_15">
      <path clip-path="url(#p166b18f4bd)" d="M 54 212.135367 
L 388.8 212.135367 
" style="fill:none;stroke:#b0b0b0;stroke-linecap:square;stroke-width:0.8;"/>
     </g>
     <g id="line2d_16">
      <g>
       <use style="stroke:#000000;stroke-width:0.8;" x="54" xlink:href="#mb7e7dd9aa6" y="212.135367"/>
      </g>
     </g>
     <g id="text_9">
      <!-- 0.02 -->
      <g transform="translate(24.734375 215.934586)scale(0.1 -0.1)">
       <use xlink:href="#DejaVuSans-30"/>
       <use x="63.623047" xlink:href="#DejaVuSans-2e"/>
       <use x="95.410156" xlink:href="#DejaVuSans-30"/>
       <use x="159.033203" xlink:href="#DejaVuSans-32"/>
      </g>
     </g>
    </g>
    <g id="ytick_3">
     <g id="line2d_17">
      <path clip-path="url(#p166b18f4bd)" d="M 54 182.15437 
L 388.8 182.15437 
" style="fill:none;stroke:#b0b0b0;stroke-linecap:square;stroke-width:0.8;"/>
     </g>
     <g id="line2d_18">
      <g>
       <use style="stroke:#000000;stroke-width:0.8;" x="54" xlink:href="#mb7e7dd9aa6" y="182.15437"/>
      </g>
     </g>
     <g id="text_10">
      <!-- 0.04 -->
      <g transform="translate(24.734375 185.953589)scale(0.1 -0.1)">
       <use xlink:href="#DejaVuSans-30"/>
       <use x="63.623047" xlink:href="#DejaVuSans-2e"/>
       <use x="95.410156" xlink:href="#DejaVuSans-30"/>
       <use x="159.033203" xlink:href="#DejaVuSans-34"/>
      </g>
     </g>
    </g>
    <g id="ytick_4">
     <g id="line2d_19">
      <path clip-path="url(#p166b18f4bd)" d="M 54 152.173373 
L 388.8 152.173373 
" style="fill:none;stroke:#b0b0b0;stroke-linecap:square;stroke-width:0.8;"/>
     </g>
     <g id="line2d_20">
      <g>
       <use style="stroke:#000000;stroke-width:0.8;" x="54" xlink:href="#mb7e7dd9aa6" y="152.173373"/>
      </g>
     </g>
     <g id="text_11">
      <!-- 0.06 -->
      <g transform="translate(24.734375 155.972592)scale(0.1 -0.1)">
       <use xlink:href="#DejaVuSans-30"/>
       <use x="63.623047" xlink:href="#DejaVuSans-2e"/>
       <use x="95.410156" xlink:href="#DejaVuSans-30"/>
       <use x="159.033203" xlink:href="#DejaVuSans-36"/>
      </g>
     </g>
    </g>
    <g id="ytick_5">
     <g id="line2d_21">
      <path clip-path="url(#p166b18f4bd)" d="M 54 122.192376 
L 388.8 122.192376 
" style="fill:none;stroke:#b0b0b0;stroke-linecap:square;stroke-width:0.8;"/>
     </g>
     <g id="line2d_22">
      <g>
       <use style="stroke:#000000;stroke-width:0.8;" x="54" xlink:href="#mb7e7dd9aa6" y="122.192376"/>
      </g>
     </g>
     <g id="text_12">
      <!-- 0.08 -->
      <g transform="translate(24.734375 125.991595)scale(0.1 -0.1)">
       <use xlink:href="#DejaVuSans-30"/>
       <use x="63.623047" xlink:href="#DejaVuSans-2e"/>
       <use x="95.410156" xlink:href="#DejaVuSans-30"/>
       <use x="159.033203" xlink:href="#DejaVuSans-38"/>
      </g>
     </g>
    </g>
    <g id="ytick_6">
     <g id="line2d_23">
      <path clip-path="url(#p166b18f4bd)" d="M 54 92.211379 
L 388.8 92.211379 
" style="fill:none;stroke:#b0b0b0;stroke-linecap:square;stroke-width:0.8;"/>
     </g>
     <g id="line2d_24">
      <g>
       <use style="stroke:#000000;stroke-width:0.8;" x="54" xlink:href="#mb7e7dd9aa6" y="92.211379"/>
      </g>
     </g>
     <g id="text_13">
      <!-- 0.10 -->
      <g transform="translate(24.734375 96.010598)scale(0.1 -0.1)">
       <use xlink:href="#DejaVuSans-30"/>
       <use x="63.623047" xlink:href="#DejaVuSans-2e"/>
       <use x="95.410156" xlink:href="#DejaVuSans-31"/>
       <use x="159.033203" xlink:href="#DejaVuSans-30"/>
      </g>
     </g>
    </g>
    <g id="ytick_7">
     <g id="line2d_25">
      <path clip-path="url(#p166b18f4bd)" d="M 54 62.230383 
L 388.8 62.230383 
" style="fill:none;stroke:#b0b0b0;stroke-linecap:square;stroke-width:0.8;"/>
     </g>
     <g id="line2d_26">
      <g>
       <use style="stroke:#000000;stroke-width:0.8;" x="54" xlink:href="#mb7e7dd9aa6" y="62.230383"/>
      </g>
     </g>
     <g id="text_14">
      <!-- 0.12 -->
      <g transform="translate(24.734375 66.029601)scale(0.1 -0.1)">
       <use xlink:href="#DejaVuSans-30"/>
       <use x="63.623047" xlink:href="#DejaVuSans-2e"/>
       <use x="95.410156" xlink:href="#DejaVuSans-31"/>
       <use x="159.033203" xlink:href="#DejaVuSans-32"/>
      </g>
     </g>
    </g>
    <g id="text_15">
     <!-- probability -->
     <g transform="translate(18.23875 175.290937)rotate(-90)scale(0.12 -0.12)">
      <defs>
       <path d="M 1159 525 
L 1159 -1331 
L 581 -1331 
L 581 3500 
L 1159 3500 
L 1159 2969 
Q 1341 3281 1617 3432 
Q 1894 3584 2278 3584 
Q 2916 3584 3314 3078 
Q 3713 2572 3713 1747 
Q 3713 922 3314 415 
Q 2916 -91 2278 -91 
Q 1894 -91 1617 61 
Q 1341 213 1159 525 
z
M 3116 1747 
Q 3116 2381 2855 2742 
Q 2594 3103 2138 3103 
Q 1681 3103 1420 2742 
Q 1159 2381 1159 1747 
Q 1159 1113 1420 752 
Q 1681 391 2138 391 
Q 2594 391 2855 752 
Q 3116 1113 3116 1747 
z
" id="DejaVuSans-70" transform="scale(0.015625)"/>
       <path d="M 2631 2963 
Q 2534 3019 2420 3045 
Q 2306 3072 2169 3072 
Q 1681 3072 1420 2755 
Q 1159 2438 1159 1844 
L 1159 0 
L 581 0 
L 581 3500 
L 1159 3500 
L 1159 2956 
Q 1341 3275 1631 3429 
Q 1922 3584 2338 3584 
Q 2397 3584 2469 3576 
Q 2541 3569 2628 3553 
L 2631 2963 
z
" id="DejaVuSans-72" transform="scale(0.015625)"/>
       <path d="M 1959 3097 
Q 1497 3097 1228 2736 
Q 959 2375 959 1747 
Q 959 1119 1226 758 
Q 1494 397 1959 397 
Q 2419 397 2687 759 
Q 2956 1122 2956 1747 
Q 2956 2369 2687 2733 
Q 2419 3097 1959 3097 
z
M 1959 3584 
Q 2709 3584 3137 3096 
Q 3566 2609 3566 1747 
Q 3566 888 3137 398 
Q 2709 -91 1959 -91 
Q 1206 -91 779 398 
Q 353 888 353 1747 
Q 353 2609 779 3096 
Q 1206 3584 1959 3584 
z
" id="DejaVuSans-6f" transform="scale(0.015625)"/>
       <path d="M 3116 1747 
Q 3116 2381 2855 2742 
Q 2594 3103 2138 3103 
Q 1681 3103 1420 2742 
Q 1159 2381 1159 1747 
Q 1159 1113 1420 752 
Q 1681 391 2138 391 
Q 2594 391 2855 752 
Q 3116 1113 3116 1747 
z
M 1159 2969 
Q 1341 3281 1617 3432 
Q 1894 3584 2278 3584 
Q 2916 3584 3314 3078 
Q 3713 2572 3713 1747 
Q 3713 922 3314 415 
Q 2916 -91 2278 -91 
Q 1894 -91 1617 61 
Q 1341 213 1159 525 
L 1159 0 
L 581 0 
L 581 4863 
L 1159 4863 
L 1159 2969 
z
" id="DejaVuSans-62" transform="scale(0.015625)"/>
       <path d="M 603 3500 
L 1178 3500 
L 1178 0 
L 603 0 
L 603 3500 
z
M 603 4863 
L 1178 4863 
L 1178 4134 
L 603 4134 
L 603 4863 
z
" id="DejaVuSans-69" transform="scale(0.015625)"/>
       <path d="M 1172 4494 
L 1172 3500 
L 2356 3500 
L 2356 3053 
L 1172 3053 
L 1172 1153 
Q 1172 725 1289 603 
Q 1406 481 1766 481 
L 2356 481 
L 2356 0 
L 1766 0 
Q 1100 0 847 248 
Q 594 497 594 1153 
L 594 3053 
L 172 3053 
L 172 3500 
L 594 3500 
L 594 4494 
L 1172 4494 
z
" id="DejaVuSans-74" transform="scale(0.015625)"/>
       <path d="M 2059 -325 
Q 1816 -950 1584 -1140 
Q 1353 -1331 966 -1331 
L 506 -1331 
L 506 -850 
L 844 -850 
Q 1081 -850 1212 -737 
Q 1344 -625 1503 -206 
L 1606 56 
L 191 3500 
L 800 3500 
L 1894 763 
L 2988 3500 
L 3597 3500 
L 2059 -325 
z
" id="DejaVuSans-79" transform="scale(0.015625)"/>
      </defs>
      <use xlink:href="#DejaVuSans-70"/>
      <use x="63.476562" xlink:href="#DejaVuSans-72"/>
      <use x="102.339844" xlink:href="#DejaVuSans-6f"/>
      <use x="163.521484" xlink:href="#DejaVuSans-62"/>
      <use x="226.998047" xlink:href="#DejaVuSans-61"/>
      <use x="288.277344" xlink:href="#DejaVuSans-62"/>
      <use x="351.753906" xlink:href="#DejaVuSans-69"/>
      <use x="379.537109" xlink:href="#DejaVuSans-6c"/>
      <use x="407.320312" xlink:href="#DejaVuSans-69"/>
      <use x="435.103516" xlink:href="#DejaVuSans-74"/>
      <use x="474.3125" xlink:href="#DejaVuSans-79"/>
     </g>
    </g>
   </g>
   <g id="line2d_27">
    <path clip-path="url(#p166b18f4bd)" d="M 69.218182 242.076547 
L 72.292562 241.673954 
L 75.366942 239.683111 
L 78.441322 233.284558 
L 81.515702 218.319554 
L 84.590083 191.349836 
L 87.664463 152.804879 
L 90.738843 108.857959 
L 93.813223 69.990924 
L 96.887603 46.615864 
L 99.961983 44.443636 
L 103.036364 62.413884 
L 106.110744 94.028209 
L 109.185124 130.73382 
L 112.259504 165.209369 
L 115.333884 193.12376 
L 118.408264 213.197118 
L 121.482645 226.239131 
L 124.557025 233.981732 
L 127.631405 238.215546 
L 130.705785 240.360996 
L 133.780165 241.373351 
L 136.854545 241.819909 
L 139.928926 242.004656 
L 143.003306 242.076542 
L 146.077686 242.102913 
L 149.152066 242.112052 
L 152.226446 242.115051 
L 155.300826 242.115983 
L 158.375207 242.116259 
L 161.449587 242.116336 
L 164.523967 242.116357 
L 167.598347 242.116362 
L 170.672727 242.116363 
L 173.747107 242.116364 
L 176.821488 242.116364 
L 179.895868 242.116364 
L 182.970248 242.116364 
L 186.044628 242.116364 
L 189.119008 242.116364 
L 192.193388 242.116364 
L 195.267769 242.116364 
L 198.342149 242.116364 
L 201.416529 242.116364 
L 204.490909 242.116364 
L 207.565289 242.116364 
L 210.639669 242.116364 
L 213.71405 242.116364 
L 216.78843 242.116364 
L 219.86281 242.116364 
L 222.93719 242.116364 
L 226.01157 242.116364 
L 229.08595 242.116364 
L 232.160331 242.116364 
L 235.234711 242.116364 
L 238.309091 242.116364 
L 241.383471 242.116364 
L 244.457851 242.116364 
L 247.532231 242.116364 
L 250.606612 242.116364 
L 253.680992 242.116364 
L 256.755372 242.116364 
L 259.829752 242.116364 
L 262.904132 242.116364 
L 265.978512 242.116364 
L 269.052893 242.116364 
L 272.127273 242.116364 
L 275.201653 242.116364 
L 278.276033 242.116364 
L 281.350413 242.116364 
L 284.424793 242.116364 
L 287.499174 242.116364 
L 290.573554 242.116364 
L 293.647934 242.116364 
L 296.722314 242.116364 
L 299.796694 242.116364 
L 302.871074 242.116364 
L 305.945455 242.116364 
L 309.019835 242.116364 
L 312.094215 242.116364 
L 315.168595 242.116364 
L 318.242975 242.116364 
L 321.317355 242.116364 
L 324.391736 242.116364 
L 327.466116 242.116364 
L 330.540496 242.116364 
L 333.614876 242.116364 
L 336.689256 242.116364 
L 339.763636 242.116364 
L 342.838017 242.116364 
L 345.912397 242.116364 
L 348.986777 242.116364 
L 352.061157 242.116364 
L 355.135537 242.116364 
L 358.209917 242.116364 
L 361.284298 242.116364 
L 364.358678 242.116364 
L 367.433058 242.116364 
L 370.507438 242.116364 
L 373.581818 242.116364 
" style="fill:none;stroke:#1f77b4;stroke-linecap:square;stroke-width:1.5;"/>
    <defs>
     <path d="M 0 1.5 
C 0.397805 1.5 0.77937 1.341951 1.06066 1.06066 
C 1.341951 0.77937 1.5 0.397805 1.5 0 
C 1.5 -0.397805 1.341951 -0.77937 1.06066 -1.06066 
C 0.77937 -1.341951 0.397805 -1.5 0 -1.5 
C -0.397805 -1.5 -0.77937 -1.341951 -1.06066 -1.06066 
C -1.341951 -0.77937 -1.5 -0.397805 -1.5 0 
C -1.5 0.397805 -1.341951 0.77937 -1.06066 1.06066 
C -0.77937 1.341951 -0.397805 1.5 0 1.5 
z
" id="mcceb6127f6" style="stroke:#1f77b4;"/>
    </defs>
    <g clip-path="url(#p166b18f4bd)">
     <use style="fill:#1f77b4;stroke:#1f77b4;" x="69.218182" xlink:href="#mcceb6127f6" y="242.076547"/>
     <use style="fill:#1f77b4;stroke:#1f77b4;" x="72.292562" xlink:href="#mcceb6127f6" y="241.673954"/>
     <use style="fill:#1f77b4;stroke:#1f77b4;" x="75.366942" xlink:href="#mcceb6127f6" y="239.683111"/>
     <use style="fill:#1f77b4;stroke:#1f77b4;" x="78.441322" xlink:href="#mcceb6127f6" y="233.284558"/>
     <use style="fill:#1f77b4;stroke:#1f77b4;" x="81.515702" xlink:href="#mcceb6127f6" y="218.319554"/>
     <use style="fill:#1f77b4;stroke:#1f77b4;" x="84.590083" xlink:href="#mcceb6127f6" y="191.349836"/>
     <use style="fill:#1f77b4;stroke:#1f77b4;" x="87.664463" xlink:href="#mcceb6127f6" y="152.804879"/>
     <use style="fill:#1f77b4;stroke:#1f77b4;" x="90.738843" xlink:href="#mcceb6127f6" y="108.857959"/>
     <use style="fill:#1f77b4;stroke:#1f77b4;" x="93.813223" xlink:href="#mcceb6127f6" y="69.990924"/>
     <use style="fill:#1f77b4;stroke:#1f77b4;" x="96.887603" xlink:href="#mcceb6127f6" y="46.615864"/>
     <use style="fill:#1f77b4;stroke:#1f77b4;" x="99.961983" xlink:href="#mcceb6127f6" y="44.443636"/>
     <use style="fill:#1f77b4;stroke:#1f77b4;" x="103.036364" xlink:href="#mcceb6127f6" y="62.413884"/>
     <use style="fill:#1f77b4;stroke:#1f77b4;" x="106.110744" xlink:href="#mcceb6127f6" y="94.028209"/>
     <use style="fill:#1f77b4;stroke:#1f77b4;" x="109.185124" xlink:href="#mcceb6127f6" y="130.73382"/>
     <use style="fill:#1f77b4;stroke:#1f77b4;" x="112.259504" xlink:href="#mcceb6127f6" y="165.209369"/>
     <use style="fill:#1f77b4;stroke:#1f77b4;" x="115.333884" xlink:href="#mcceb6127f6" y="193.12376"/>
     <use style="fill:#1f77b4;stroke:#1f77b4;" x="118.408264" xlink:href="#mcceb6127f6" y="213.197118"/>
     <use style="fill:#1f77b4;stroke:#1f77b4;" x="121.482645" xlink:href="#mcceb6127f6" y="226.239131"/>
     <use style="fill:#1f77b4;stroke:#1f77b4;" x="124.557025" xlink:href="#mcceb6127f6" y="233.981732"/>
     <use style="fill:#1f77b4;stroke:#1f77b4;" x="127.631405" xlink:href="#mcceb6127f6" y="238.215546"/>
     <use style="fill:#1f77b4;stroke:#1f77b4;" x="130.705785" xlink:href="#mcceb6127f6" y="240.360996"/>
     <use style="fill:#1f77b4;stroke:#1f77b4;" x="133.780165" xlink:href="#mcceb6127f6" y="241.373351"/>
     <use style="fill:#1f77b4;stroke:#1f77b4;" x="136.854545" xlink:href="#mcceb6127f6" y="241.819909"/>
     <use style="fill:#1f77b4;stroke:#1f77b4;" x="139.928926" xlink:href="#mcceb6127f6" y="242.004656"/>
     <use style="fill:#1f77b4;stroke:#1f77b4;" x="143.003306" xlink:href="#mcceb6127f6" y="242.076542"/>
     <use style="fill:#1f77b4;stroke:#1f77b4;" x="146.077686" xlink:href="#mcceb6127f6" y="242.102913"/>
     <use style="fill:#1f77b4;stroke:#1f77b4;" x="149.152066" xlink:href="#mcceb6127f6" y="242.112052"/>
     <use style="fill:#1f77b4;stroke:#1f77b4;" x="152.226446" xlink:href="#mcceb6127f6" y="242.115051"/>
     <use style="fill:#1f77b4;stroke:#1f77b4;" x="155.300826" xlink:href="#mcceb6127f6" y="242.115983"/>
     <use style="fill:#1f77b4;stroke:#1f77b4;" x="158.375207" xlink:href="#mcceb6127f6" y="242.116259"/>
     <use style="fill:#1f77b4;stroke:#1f77b4;" x="161.449587" xlink:href="#mcceb6127f6" y="242.116336"/>
     <use style="fill:#1f77b4;stroke:#1f77b4;" x="164.523967" xlink:href="#mcceb6127f6" y="242.116357"/>
     <use style="fill:#1f77b4;stroke:#1f77b4;" x="167.598347" xlink:href="#mcceb6127f6" y="242.116362"/>
     <use style="fill:#1f77b4;stroke:#1f77b4;" x="170.672727" xlink:href="#mcceb6127f6" y="242.116363"/>
     <use style="fill:#1f77b4;stroke:#1f77b4;" x="173.747107" xlink:href="#mcceb6127f6" y="242.116364"/>
     <use style="fill:#1f77b4;stroke:#1f77b4;" x="176.821488" xlink:href="#mcceb6127f6" y="242.116364"/>
     <use style="fill:#1f77b4;stroke:#1f77b4;" x="179.895868" xlink:href="#mcceb6127f6" y="242.116364"/>
     <use style="fill:#1f77b4;stroke:#1f77b4;" x="182.970248" xlink:href="#mcceb6127f6" y="242.116364"/>
     <use style="fill:#1f77b4;stroke:#1f77b4;" x="186.044628" xlink:href="#mcceb6127f6" y="242.116364"/>
     <use style="fill:#1f77b4;stroke:#1f77b4;" x="189.119008" xlink:href="#mcceb6127f6" y="242.116364"/>
     <use style="fill:#1f77b4;stroke:#1f77b4;" x="192.193388" xlink:href="#mcceb6127f6" y="242.116364"/>
     <use style="fill:#1f77b4;stroke:#1f77b4;" x="195.267769" xlink:href="#mcceb6127f6" y="242.116364"/>
     <use style="fill:#1f77b4;stroke:#1f77b4;" x="198.342149" xlink:href="#mcceb6127f6" y="242.116364"/>
     <use style="fill:#1f77b4;stroke:#1f77b4;" x="201.416529" xlink:href="#mcceb6127f6" y="242.116364"/>
     <use style="fill:#1f77b4;stroke:#1f77b4;" x="204.490909" xlink:href="#mcceb6127f6" y="242.116364"/>
     <use style="fill:#1f77b4;stroke:#1f77b4;" x="207.565289" xlink:href="#mcceb6127f6" y="242.116364"/>
     <use style="fill:#1f77b4;stroke:#1f77b4;" x="210.639669" xlink:href="#mcceb6127f6" y="242.116364"/>
     <use style="fill:#1f77b4;stroke:#1f77b4;" x="213.71405" xlink:href="#mcceb6127f6" y="242.116364"/>
     <use style="fill:#1f77b4;stroke:#1f77b4;" x="216.78843" xlink:href="#mcceb6127f6" y="242.116364"/>
     <use style="fill:#1f77b4;stroke:#1f77b4;" x="219.86281" xlink:href="#mcceb6127f6" y="242.116364"/>
     <use style="fill:#1f77b4;stroke:#1f77b4;" x="222.93719" xlink:href="#mcceb6127f6" y="242.116364"/>
     <use style="fill:#1f77b4;stroke:#1f77b4;" x="226.01157" xlink:href="#mcceb6127f6" y="242.116364"/>
     <use style="fill:#1f77b4;stroke:#1f77b4;" x="229.08595" xlink:href="#mcceb6127f6" y="242.116364"/>
     <use style="fill:#1f77b4;stroke:#1f77b4;" x="232.160331" xlink:href="#mcceb6127f6" y="242.116364"/>
     <use style="fill:#1f77b4;stroke:#1f77b4;" x="235.234711" xlink:href="#mcceb6127f6" y="242.116364"/>
     <use style="fill:#1f77b4;stroke:#1f77b4;" x="238.309091" xlink:href="#mcceb6127f6" y="242.116364"/>
     <use style="fill:#1f77b4;stroke:#1f77b4;" x="241.383471" xlink:href="#mcceb6127f6" y="242.116364"/>
     <use style="fill:#1f77b4;stroke:#1f77b4;" x="244.457851" xlink:href="#mcceb6127f6" y="242.116364"/>
     <use style="fill:#1f77b4;stroke:#1f77b4;" x="247.532231" xlink:href="#mcceb6127f6" y="242.116364"/>
     <use style="fill:#1f77b4;stroke:#1f77b4;" x="250.606612" xlink:href="#mcceb6127f6" y="242.116364"/>
     <use style="fill:#1f77b4;stroke:#1f77b4;" x="253.680992" xlink:href="#mcceb6127f6" y="242.116364"/>
     <use style="fill:#1f77b4;stroke:#1f77b4;" x="256.755372" xlink:href="#mcceb6127f6" y="242.116364"/>
     <use style="fill:#1f77b4;stroke:#1f77b4;" x="259.829752" xlink:href="#mcceb6127f6" y="242.116364"/>
     <use style="fill:#1f77b4;stroke:#1f77b4;" x="262.904132" xlink:href="#mcceb6127f6" y="242.116364"/>
     <use style="fill:#1f77b4;stroke:#1f77b4;" x="265.978512" xlink:href="#mcceb6127f6" y="242.116364"/>
     <use style="fill:#1f77b4;stroke:#1f77b4;" x="269.052893" xlink:href="#mcceb6127f6" y="242.116364"/>
     <use style="fill:#1f77b4;stroke:#1f77b4;" x="272.127273" xlink:href="#mcceb6127f6" y="242.116364"/>
     <use style="fill:#1f77b4;stroke:#1f77b4;" x="275.201653" xlink:href="#mcceb6127f6" y="242.116364"/>
     <use style="fill:#1f77b4;stroke:#1f77b4;" x="278.276033" xlink:href="#mcceb6127f6" y="242.116364"/>
     <use style="fill:#1f77b4;stroke:#1f77b4;" x="281.350413" xlink:href="#mcceb6127f6" y="242.116364"/>
     <use style="fill:#1f77b4;stroke:#1f77b4;" x="284.424793" xlink:href="#mcceb6127f6" y="242.116364"/>
     <use style="fill:#1f77b4;stroke:#1f77b4;" x="287.499174" xlink:href="#mcceb6127f6" y="242.116364"/>
     <use style="fill:#1f77b4;stroke:#1f77b4;" x="290.573554" xlink:href="#mcceb6127f6" y="242.116364"/>
     <use style="fill:#1f77b4;stroke:#1f77b4;" x="293.647934" xlink:href="#mcceb6127f6" y="242.116364"/>
     <use style="fill:#1f77b4;stroke:#1f77b4;" x="296.722314" xlink:href="#mcceb6127f6" y="242.116364"/>
     <use style="fill:#1f77b4;stroke:#1f77b4;" x="299.796694" xlink:href="#mcceb6127f6" y="242.116364"/>
     <use style="fill:#1f77b4;stroke:#1f77b4;" x="302.871074" xlink:href="#mcceb6127f6" y="242.116364"/>
     <use style="fill:#1f77b4;stroke:#1f77b4;" x="305.945455" xlink:href="#mcceb6127f6" y="242.116364"/>
     <use style="fill:#1f77b4;stroke:#1f77b4;" x="309.019835" xlink:href="#mcceb6127f6" y="242.116364"/>
     <use style="fill:#1f77b4;stroke:#1f77b4;" x="312.094215" xlink:href="#mcceb6127f6" y="242.116364"/>
     <use style="fill:#1f77b4;stroke:#1f77b4;" x="315.168595" xlink:href="#mcceb6127f6" y="242.116364"/>
     <use style="fill:#1f77b4;stroke:#1f77b4;" x="318.242975" xlink:href="#mcceb6127f6" y="242.116364"/>
     <use style="fill:#1f77b4;stroke:#1f77b4;" x="321.317355" xlink:href="#mcceb6127f6" y="242.116364"/>
     <use style="fill:#1f77b4;stroke:#1f77b4;" x="324.391736" xlink:href="#mcceb6127f6" y="242.116364"/>
     <use style="fill:#1f77b4;stroke:#1f77b4;" x="327.466116" xlink:href="#mcceb6127f6" y="242.116364"/>
     <use style="fill:#1f77b4;stroke:#1f77b4;" x="330.540496" xlink:href="#mcceb6127f6" y="242.116364"/>
     <use style="fill:#1f77b4;stroke:#1f77b4;" x="333.614876" xlink:href="#mcceb6127f6" y="242.116364"/>
     <use style="fill:#1f77b4;stroke:#1f77b4;" x="336.689256" xlink:href="#mcceb6127f6" y="242.116364"/>
     <use style="fill:#1f77b4;stroke:#1f77b4;" x="339.763636" xlink:href="#mcceb6127f6" y="242.116364"/>
     <use style="fill:#1f77b4;stroke:#1f77b4;" x="342.838017" xlink:href="#mcceb6127f6" y="242.116364"/>
     <use style="fill:#1f77b4;stroke:#1f77b4;" x="345.912397" xlink:href="#mcceb6127f6" y="242.116364"/>
     <use style="fill:#1f77b4;stroke:#1f77b4;" x="348.986777" xlink:href="#mcceb6127f6" y="242.116364"/>
     <use style="fill:#1f77b4;stroke:#1f77b4;" x="352.061157" xlink:href="#mcceb6127f6" y="242.116364"/>
     <use style="fill:#1f77b4;stroke:#1f77b4;" x="355.135537" xlink:href="#mcceb6127f6" y="242.116364"/>
     <use style="fill:#1f77b4;stroke:#1f77b4;" x="358.209917" xlink:href="#mcceb6127f6" y="242.116364"/>
     <use style="fill:#1f77b4;stroke:#1f77b4;" x="361.284298" xlink:href="#mcceb6127f6" y="242.116364"/>
     <use style="fill:#1f77b4;stroke:#1f77b4;" x="364.358678" xlink:href="#mcceb6127f6" y="242.116364"/>
     <use style="fill:#1f77b4;stroke:#1f77b4;" x="367.433058" xlink:href="#mcceb6127f6" y="242.116364"/>
     <use style="fill:#1f77b4;stroke:#1f77b4;" x="370.507438" xlink:href="#mcceb6127f6" y="242.116364"/>
     <use style="fill:#1f77b4;stroke:#1f77b4;" x="373.581818" xlink:href="#mcceb6127f6" y="242.116364"/>
    </g>
   </g>
   <g id="line2d_28">
    <path clip-path="url(#p166b18f4bd)" d="M 69.218182 242.116364 
L 72.292562 242.116364 
L 75.366942 242.116364 
L 78.441322 242.116364 
L 81.515702 242.116364 
L 84.590083 242.116364 
L 87.664463 242.116364 
L 90.738843 242.116364 
L 93.813223 242.116364 
L 96.887603 242.116364 
L 99.961983 242.116364 
L 103.036364 242.116364 
L 106.110744 242.116364 
L 109.185124 242.116364 
L 112.259504 242.116364 
L 115.333884 242.116364 
L 118.408264 242.116364 
L 121.482645 242.116364 
L 124.557025 242.116364 
L 127.631405 242.116364 
L 130.705785 242.116364 
L 133.780165 242.116364 
L 136.854545 242.116364 
L 139.928926 242.116364 
L 143.003306 242.116364 
L 146.077686 242.116364 
L 149.152066 242.116364 
L 152.226446 242.116364 
L 155.300826 242.116364 
L 158.375207 242.116364 
L 161.449587 242.116364 
L 164.523967 242.116364 
L 167.598347 242.116364 
L 170.672727 242.116364 
L 173.747107 242.116364 
L 176.821488 242.116364 
L 179.895868 242.116364 
L 182.970248 242.116364 
L 186.044628 242.116364 
L 189.119008 242.116364 
L 192.193388 242.116364 
L 195.267769 242.116364 
L 198.342149 242.116364 
L 201.416529 242.116364 
L 204.490909 242.116364 
L 207.565289 242.116364 
L 210.639669 242.116364 
L 213.71405 242.116364 
L 216.78843 242.116364 
L 219.86281 242.116364 
L 222.93719 242.116364 
L 226.01157 242.116364 
L 229.08595 242.116363 
L 232.160331 242.116362 
L 235.234711 242.116359 
L 238.309091 242.116348 
L 241.383471 242.116315 
L 244.457851 242.116213 
L 247.532231 242.115918 
L 250.606612 242.115093 
L 253.680992 242.112891 
L 256.755372 242.107256 
L 259.829752 242.093449 
L 262.904132 242.061076 
L 265.978512 241.988512 
L 269.052893 241.833123 
L 272.127273 241.51555 
L 275.201653 240.896801 
L 278.276033 239.748978 
L 281.350413 237.724691 
L 284.424793 234.33683 
L 287.499174 228.967856 
L 290.573554 220.932656 
L 293.647934 209.615333 
L 296.722314 194.682427 
L 299.796694 176.341305 
L 302.871074 155.570234 
L 305.945455 134.214696 
L 309.019835 114.84773 
L 312.094215 100.348772 
L 315.168595 93.260392 
L 318.242975 95.09812 
L 321.317355 105.855553 
L 324.391736 123.914215 
L 327.466116 146.42891 
L 330.540496 170.069339 
L 333.614876 191.850998 
L 336.689256 209.761645 
L 339.763636 222.997667 
L 342.838017 231.805156 
L 345.912397 237.075329 
L 348.986777 239.900524 
L 352.061157 241.249296 
L 355.135537 241.818018 
L 358.209917 242.027495 
L 361.284298 242.093913 
L 364.358678 242.111686 
L 367.433058 242.115592 
L 370.507438 242.116269 
L 373.581818 242.116356 
" style="fill:none;stroke:#ff7f0e;stroke-linecap:square;stroke-width:1.5;"/>
    <defs>
     <path d="M 0 1.5 
C 0.397805 1.5 0.77937 1.341951 1.06066 1.06066 
C 1.341951 0.77937 1.5 0.397805 1.5 0 
C 1.5 -0.397805 1.341951 -0.77937 1.06066 -1.06066 
C 0.77937 -1.341951 0.397805 -1.5 0 -1.5 
C -0.397805 -1.5 -0.77937 -1.341951 -1.06066 -1.06066 
C -1.341951 -0.77937 -1.5 -0.397805 -1.5 0 
C -1.5 0.397805 -1.341951 0.77937 -1.06066 1.06066 
C -0.77937 1.341951 -0.397805 1.5 0 1.5 
z
" id="ma17cf76d65" style="stroke:#ff7f0e;"/>
    </defs>
    <g clip-path="url(#p166b18f4bd)">
     <use style="fill:#ff7f0e;stroke:#ff7f0e;" x="69.218182" xlink:href="#ma17cf76d65" y="242.116364"/>
     <use style="fill:#ff7f0e;stroke:#ff7f0e;" x="72.292562" xlink:href="#ma17cf76d65" y="242.116364"/>
     <use style="fill:#ff7f0e;stroke:#ff7f0e;" x="75.366942" xlink:href="#ma17cf76d65" y="242.116364"/>
     <use style="fill:#ff7f0e;stroke:#ff7f0e;" x="78.441322" xlink:href="#ma17cf76d65" y="242.116364"/>
     <use style="fill:#ff7f0e;stroke:#ff7f0e;" x="81.515702" xlink:href="#ma17cf76d65" y="242.116364"/>
     <use style="fill:#ff7f0e;stroke:#ff7f0e;" x="84.590083" xlink:href="#ma17cf76d65" y="242.116364"/>
     <use style="fill:#ff7f0e;stroke:#ff7f0e;" x="87.664463" xlink:href="#ma17cf76d65" y="242.116364"/>
     <use style="fill:#ff7f0e;stroke:#ff7f0e;" x="90.738843" xlink:href="#ma17cf76d65" y="242.116364"/>
     <use style="fill:#ff7f0e;stroke:#ff7f0e;" x="93.813223" xlink:href="#ma17cf76d65" y="242.116364"/>
     <use style="fill:#ff7f0e;stroke:#ff7f0e;" x="96.887603" xlink:href="#ma17cf76d65" y="242.116364"/>
     <use style="fill:#ff7f0e;stroke:#ff7f0e;" x="99.961983" xlink:href="#ma17cf76d65" y="242.116364"/>
     <use style="fill:#ff7f0e;stroke:#ff7f0e;" x="103.036364" xlink:href="#ma17cf76d65" y="242.116364"/>
     <use style="fill:#ff7f0e;stroke:#ff7f0e;" x="106.110744" xlink:href="#ma17cf76d65" y="242.116364"/>
     <use style="fill:#ff7f0e;stroke:#ff7f0e;" x="109.185124" xlink:href="#ma17cf76d65" y="242.116364"/>
     <use style="fill:#ff7f0e;stroke:#ff7f0e;" x="112.259504" xlink:href="#ma17cf76d65" y="242.116364"/>
     <use style="fill:#ff7f0e;stroke:#ff7f0e;" x="115.333884" xlink:href="#ma17cf76d65" y="242.116364"/>
     <use style="fill:#ff7f0e;stroke:#ff7f0e;" x="118.408264" xlink:href="#ma17cf76d65" y="242.116364"/>
     <use style="fill:#ff7f0e;stroke:#ff7f0e;" x="121.482645" xlink:href="#ma17cf76d65" y="242.116364"/>
     <use style="fill:#ff7f0e;stroke:#ff7f0e;" x="124.557025" xlink:href="#ma17cf76d65" y="242.116364"/>
     <use style="fill:#ff7f0e;stroke:#ff7f0e;" x="127.631405" xlink:href="#ma17cf76d65" y="242.116364"/>
     <use style="fill:#ff7f0e;stroke:#ff7f0e;" x="130.705785" xlink:href="#ma17cf76d65" y="242.116364"/>
     <use style="fill:#ff7f0e;stroke:#ff7f0e;" x="133.780165" xlink:href="#ma17cf76d65" y="242.116364"/>
     <use style="fill:#ff7f0e;stroke:#ff7f0e;" x="136.854545" xlink:href="#ma17cf76d65" y="242.116364"/>
     <use style="fill:#ff7f0e;stroke:#ff7f0e;" x="139.928926" xlink:href="#ma17cf76d65" y="242.116364"/>
     <use style="fill:#ff7f0e;stroke:#ff7f0e;" x="143.003306" xlink:href="#ma17cf76d65" y="242.116364"/>
     <use style="fill:#ff7f0e;stroke:#ff7f0e;" x="146.077686" xlink:href="#ma17cf76d65" y="242.116364"/>
     <use style="fill:#ff7f0e;stroke:#ff7f0e;" x="149.152066" xlink:href="#ma17cf76d65" y="242.116364"/>
     <use style="fill:#ff7f0e;stroke:#ff7f0e;" x="152.226446" xlink:href="#ma17cf76d65" y="242.116364"/>
     <use style="fill:#ff7f0e;stroke:#ff7f0e;" x="155.300826" xlink:href="#ma17cf76d65" y="242.116364"/>
     <use style="fill:#ff7f0e;stroke:#ff7f0e;" x="158.375207" xlink:href="#ma17cf76d65" y="242.116364"/>
     <use style="fill:#ff7f0e;stroke:#ff7f0e;" x="161.449587" xlink:href="#ma17cf76d65" y="242.116364"/>
     <use style="fill:#ff7f0e;stroke:#ff7f0e;" x="164.523967" xlink:href="#ma17cf76d65" y="242.116364"/>
     <use style="fill:#ff7f0e;stroke:#ff7f0e;" x="167.598347" xlink:href="#ma17cf76d65" y="242.116364"/>
     <use style="fill:#ff7f0e;stroke:#ff7f0e;" x="170.672727" xlink:href="#ma17cf76d65" y="242.116364"/>
     <use style="fill:#ff7f0e;stroke:#ff7f0e;" x="173.747107" xlink:href="#ma17cf76d65" y="242.116364"/>
     <use style="fill:#ff7f0e;stroke:#ff7f0e;" x="176.821488" xlink:href="#ma17cf76d65" y="242.116364"/>
     <use style="fill:#ff7f0e;stroke:#ff7f0e;" x="179.895868" xlink:href="#ma17cf76d65" y="242.116364"/>
     <use style="fill:#ff7f0e;stroke:#ff7f0e;" x="182.970248" xlink:href="#ma17cf76d65" y="242.116364"/>
     <use style="fill:#ff7f0e;stroke:#ff7f0e;" x="186.044628" xlink:href="#ma17cf76d65" y="242.116364"/>
     <use style="fill:#ff7f0e;stroke:#ff7f0e;" x="189.119008" xlink:href="#ma17cf76d65" y="242.116364"/>
     <use style="fill:#ff7f0e;stroke:#ff7f0e;" x="192.193388" xlink:href="#ma17cf76d65" y="242.116364"/>
     <use style="fill:#ff7f0e;stroke:#ff7f0e;" x="195.267769" xlink:href="#ma17cf76d65" y="242.116364"/>
     <use style="fill:#ff7f0e;stroke:#ff7f0e;" x="198.342149" xlink:href="#ma17cf76d65" y="242.116364"/>
     <use style="fill:#ff7f0e;stroke:#ff7f0e;" x="201.416529" xlink:href="#ma17cf76d65" y="242.116364"/>
     <use style="fill:#ff7f0e;stroke:#ff7f0e;" x="204.490909" xlink:href="#ma17cf76d65" y="242.116364"/>
     <use style="fill:#ff7f0e;stroke:#ff7f0e;" x="207.565289" xlink:href="#ma17cf76d65" y="242.116364"/>
     <use style="fill:#ff7f0e;stroke:#ff7f0e;" x="210.639669" xlink:href="#ma17cf76d65" y="242.116364"/>
     <use style="fill:#ff7f0e;stroke:#ff7f0e;" x="213.71405" xlink:href="#ma17cf76d65" y="242.116364"/>
     <use style="fill:#ff7f0e;stroke:#ff7f0e;" x="216.78843" xlink:href="#ma17cf76d65" y="242.116364"/>
     <use style="fill:#ff7f0e;stroke:#ff7f0e;" x="219.86281" xlink:href="#ma17cf76d65" y="242.116364"/>
     <use style="fill:#ff7f0e;stroke:#ff7f0e;" x="222.93719" xlink:href="#ma17cf76d65" y="242.116364"/>
     <use style="fill:#ff7f0e;stroke:#ff7f0e;" x="226.01157" xlink:href="#ma17cf76d65" y="242.116364"/>
     <use style="fill:#ff7f0e;stroke:#ff7f0e;" x="229.08595" xlink:href="#ma17cf76d65" y="242.116363"/>
     <use style="fill:#ff7f0e;stroke:#ff7f0e;" x="232.160331" xlink:href="#ma17cf76d65" y="242.116362"/>
     <use style="fill:#ff7f0e;stroke:#ff7f0e;" x="235.234711" xlink:href="#ma17cf76d65" y="242.116359"/>
     <use style="fill:#ff7f0e;stroke:#ff7f0e;" x="238.309091" xlink:href="#ma17cf76d65" y="242.116348"/>
     <use style="fill:#ff7f0e;stroke:#ff7f0e;" x="241.383471" xlink:href="#ma17cf76d65" y="242.116315"/>
     <use style="fill:#ff7f0e;stroke:#ff7f0e;" x="244.457851" xlink:href="#ma17cf76d65" y="242.116213"/>
     <use style="fill:#ff7f0e;stroke:#ff7f0e;" x="247.532231" xlink:href="#ma17cf76d65" y="242.115918"/>
     <use style="fill:#ff7f0e;stroke:#ff7f0e;" x="250.606612" xlink:href="#ma17cf76d65" y="242.115093"/>
     <use style="fill:#ff7f0e;stroke:#ff7f0e;" x="253.680992" xlink:href="#ma17cf76d65" y="242.112891"/>
     <use style="fill:#ff7f0e;stroke:#ff7f0e;" x="256.755372" xlink:href="#ma17cf76d65" y="242.107256"/>
     <use style="fill:#ff7f0e;stroke:#ff7f0e;" x="259.829752" xlink:href="#ma17cf76d65" y="242.093449"/>
     <use style="fill:#ff7f0e;stroke:#ff7f0e;" x="262.904132" xlink:href="#ma17cf76d65" y="242.061076"/>
     <use style="fill:#ff7f0e;stroke:#ff7f0e;" x="265.978512" xlink:href="#ma17cf76d65" y="241.988512"/>
     <use style="fill:#ff7f0e;stroke:#ff7f0e;" x="269.052893" xlink:href="#ma17cf76d65" y="241.833123"/>
     <use style="fill:#ff7f0e;stroke:#ff7f0e;" x="272.127273" xlink:href="#ma17cf76d65" y="241.51555"/>
     <use style="fill:#ff7f0e;stroke:#ff7f0e;" x="275.201653" xlink:href="#ma17cf76d65" y="240.896801"/>
     <use style="fill:#ff7f0e;stroke:#ff7f0e;" x="278.276033" xlink:href="#ma17cf76d65" y="239.748978"/>
     <use style="fill:#ff7f0e;stroke:#ff7f0e;" x="281.350413" xlink:href="#ma17cf76d65" y="237.724691"/>
     <use style="fill:#ff7f0e;stroke:#ff7f0e;" x="284.424793" xlink:href="#ma17cf76d65" y="234.33683"/>
     <use style="fill:#ff7f0e;stroke:#ff7f0e;" x="287.499174" xlink:href="#ma17cf76d65" y="228.967856"/>
     <use style="fill:#ff7f0e;stroke:#ff7f0e;" x="290.573554" xlink:href="#ma17cf76d65" y="220.932656"/>
     <use style="fill:#ff7f0e;stroke:#ff7f0e;" x="293.647934" xlink:href="#ma17cf76d65" y="209.615333"/>
     <use style="fill:#ff7f0e;stroke:#ff7f0e;" x="296.722314" xlink:href="#ma17cf76d65" y="194.682427"/>
     <use style="fill:#ff7f0e;stroke:#ff7f0e;" x="299.796694" xlink:href="#ma17cf76d65" y="176.341305"/>
     <use style="fill:#ff7f0e;stroke:#ff7f0e;" x="302.871074" xlink:href="#ma17cf76d65" y="155.570234"/>
     <use style="fill:#ff7f0e;stroke:#ff7f0e;" x="305.945455" xlink:href="#ma17cf76d65" y="134.214696"/>
     <use style="fill:#ff7f0e;stroke:#ff7f0e;" x="309.019835" xlink:href="#ma17cf76d65" y="114.84773"/>
     <use style="fill:#ff7f0e;stroke:#ff7f0e;" x="312.094215" xlink:href="#ma17cf76d65" y="100.348772"/>
     <use style="fill:#ff7f0e;stroke:#ff7f0e;" x="315.168595" xlink:href="#ma17cf76d65" y="93.260392"/>
     <use style="fill:#ff7f0e;stroke:#ff7f0e;" x="318.242975" xlink:href="#ma17cf76d65" y="95.09812"/>
     <use style="fill:#ff7f0e;stroke:#ff7f0e;" x="321.317355" xlink:href="#ma17cf76d65" y="105.855553"/>
     <use style="fill:#ff7f0e;stroke:#ff7f0e;" x="324.391736" xlink:href="#ma17cf76d65" y="123.914215"/>
     <use style="fill:#ff7f0e;stroke:#ff7f0e;" x="327.466116" xlink:href="#ma17cf76d65" y="146.42891"/>
     <use style="fill:#ff7f0e;stroke:#ff7f0e;" x="330.540496" xlink:href="#ma17cf76d65" y="170.069339"/>
     <use style="fill:#ff7f0e;stroke:#ff7f0e;" x="333.614876" xlink:href="#ma17cf76d65" y="191.850998"/>
     <use style="fill:#ff7f0e;stroke:#ff7f0e;" x="336.689256" xlink:href="#ma17cf76d65" y="209.761645"/>
     <use style="fill:#ff7f0e;stroke:#ff7f0e;" x="339.763636" xlink:href="#ma17cf76d65" y="222.997667"/>
     <use style="fill:#ff7f0e;stroke:#ff7f0e;" x="342.838017" xlink:href="#ma17cf76d65" y="231.805156"/>
     <use style="fill:#ff7f0e;stroke:#ff7f0e;" x="345.912397" xlink:href="#ma17cf76d65" y="237.075329"/>
     <use style="fill:#ff7f0e;stroke:#ff7f0e;" x="348.986777" xlink:href="#ma17cf76d65" y="239.900524"/>
     <use style="fill:#ff7f0e;stroke:#ff7f0e;" x="352.061157" xlink:href="#ma17cf76d65" y="241.249296"/>
     <use style="fill:#ff7f0e;stroke:#ff7f0e;" x="355.135537" xlink:href="#ma17cf76d65" y="241.818018"/>
     <use style="fill:#ff7f0e;stroke:#ff7f0e;" x="358.209917" xlink:href="#ma17cf76d65" y="242.027495"/>
     <use style="fill:#ff7f0e;stroke:#ff7f0e;" x="361.284298" xlink:href="#ma17cf76d65" y="242.093913"/>
     <use style="fill:#ff7f0e;stroke:#ff7f0e;" x="364.358678" xlink:href="#ma17cf76d65" y="242.111686"/>
     <use style="fill:#ff7f0e;stroke:#ff7f0e;" x="367.433058" xlink:href="#ma17cf76d65" y="242.115592"/>
     <use style="fill:#ff7f0e;stroke:#ff7f0e;" x="370.507438" xlink:href="#ma17cf76d65" y="242.116269"/>
     <use style="fill:#ff7f0e;stroke:#ff7f0e;" x="373.581818" xlink:href="#ma17cf76d65" y="242.116356"/>
    </g>
   </g>
   <g id="line2d_29">
    <path clip-path="url(#p166b18f4bd)" d="M 69.218182 242.116337 
L 72.292562 242.115786 
L 75.366942 242.110298 
L 78.441322 242.074768 
L 81.515702 241.906902 
L 84.590083 241.290486 
L 87.664463 239.461756 
L 90.738843 234.965175 
L 93.813223 225.64309 
L 96.887603 209.169815 
L 99.961983 184.224572 
L 103.036364 151.895389 
L 106.110744 116.451435 
L 109.185124 84.68997 
L 112.259504 63.806877 
L 115.333884 58.71232 
L 118.408264 70.175073 
L 121.482645 94.738114 
L 124.557025 126.319168 
L 127.631405 158.533425 
L 130.705785 186.593412 
L 133.780165 208.12272 
L 136.854545 222.912162 
L 139.928926 232.09678 
L 143.003306 237.285493 
L 146.077686 239.963176 
L 149.152066 241.229061 
L 152.226446 241.778344 
L 155.300826 241.997367 
L 158.375207 242.077675 
L 161.449587 242.104757 
L 164.523967 242.113154 
L 167.598347 242.115547 
L 170.672727 242.116173 
L 173.747107 242.116323 
L 176.821488 242.116356 
L 179.895868 242.116362 
L 182.970248 242.116363 
L 186.044628 242.116364 
L 189.119008 242.116364 
L 192.193388 242.116364 
L 195.267769 242.116364 
L 198.342149 242.116364 
L 201.416529 242.116364 
L 204.490909 242.116364 
L 207.565289 242.116364 
L 210.639669 242.116364 
L 213.71405 242.116364 
L 216.78843 242.116364 
L 219.86281 242.116364 
" style="fill:none;stroke:#2ca02c;stroke-linecap:square;stroke-width:1.5;"/>
    <defs>
     <path d="M 0 1.5 
C 0.397805 1.5 0.77937 1.341951 1.06066 1.06066 
C 1.341951 0.77937 1.5 0.397805 1.5 0 
C 1.5 -0.397805 1.341951 -0.77937 1.06066 -1.06066 
C 0.77937 -1.341951 0.397805 -1.5 0 -1.5 
C -0.397805 -1.5 -0.77937 -1.341951 -1.06066 -1.06066 
C -1.341951 -0.77937 -1.5 -0.397805 -1.5 0 
C -1.5 0.397805 -1.341951 0.77937 -1.06066 1.06066 
C -0.77937 1.341951 -0.397805 1.5 0 1.5 
z
" id="m0c2d1b84b8" style="stroke:#2ca02c;"/>
    </defs>
    <g clip-path="url(#p166b18f4bd)">
     <use style="fill:#2ca02c;stroke:#2ca02c;" x="69.218182" xlink:href="#m0c2d1b84b8" y="242.116337"/>
     <use style="fill:#2ca02c;stroke:#2ca02c;" x="72.292562" xlink:href="#m0c2d1b84b8" y="242.115786"/>
     <use style="fill:#2ca02c;stroke:#2ca02c;" x="75.366942" xlink:href="#m0c2d1b84b8" y="242.110298"/>
     <use style="fill:#2ca02c;stroke:#2ca02c;" x="78.441322" xlink:href="#m0c2d1b84b8" y="242.074768"/>
     <use style="fill:#2ca02c;stroke:#2ca02c;" x="81.515702" xlink:href="#m0c2d1b84b8" y="241.906902"/>
     <use style="fill:#2ca02c;stroke:#2ca02c;" x="84.590083" xlink:href="#m0c2d1b84b8" y="241.290486"/>
     <use style="fill:#2ca02c;stroke:#2ca02c;" x="87.664463" xlink:href="#m0c2d1b84b8" y="239.461756"/>
     <use style="fill:#2ca02c;stroke:#2ca02c;" x="90.738843" xlink:href="#m0c2d1b84b8" y="234.965175"/>
     <use style="fill:#2ca02c;stroke:#2ca02c;" x="93.813223" xlink:href="#m0c2d1b84b8" y="225.64309"/>
     <use style="fill:#2ca02c;stroke:#2ca02c;" x="96.887603" xlink:href="#m0c2d1b84b8" y="209.169815"/>
     <use style="fill:#2ca02c;stroke:#2ca02c;" x="99.961983" xlink:href="#m0c2d1b84b8" y="184.224572"/>
     <use style="fill:#2ca02c;stroke:#2ca02c;" x="103.036364" xlink:href="#m0c2d1b84b8" y="151.895389"/>
     <use style="fill:#2ca02c;stroke:#2ca02c;" x="106.110744" xlink:href="#m0c2d1b84b8" y="116.451435"/>
     <use style="fill:#2ca02c;stroke:#2ca02c;" x="109.185124" xlink:href="#m0c2d1b84b8" y="84.68997"/>
     <use style="fill:#2ca02c;stroke:#2ca02c;" x="112.259504" xlink:href="#m0c2d1b84b8" y="63.806877"/>
     <use style="fill:#2ca02c;stroke:#2ca02c;" x="115.333884" xlink:href="#m0c2d1b84b8" y="58.71232"/>
     <use style="fill:#2ca02c;stroke:#2ca02c;" x="118.408264" xlink:href="#m0c2d1b84b8" y="70.175073"/>
     <use style="fill:#2ca02c;stroke:#2ca02c;" x="121.482645" xlink:href="#m0c2d1b84b8" y="94.738114"/>
     <use style="fill:#2ca02c;stroke:#2ca02c;" x="124.557025" xlink:href="#m0c2d1b84b8" y="126.319168"/>
     <use style="fill:#2ca02c;stroke:#2ca02c;" x="127.631405" xlink:href="#m0c2d1b84b8" y="158.533425"/>
     <use style="fill:#2ca02c;stroke:#2ca02c;" x="130.705785" xlink:href="#m0c2d1b84b8" y="186.593412"/>
     <use style="fill:#2ca02c;stroke:#2ca02c;" x="133.780165" xlink:href="#m0c2d1b84b8" y="208.12272"/>
     <use style="fill:#2ca02c;stroke:#2ca02c;" x="136.854545" xlink:href="#m0c2d1b84b8" y="222.912162"/>
     <use style="fill:#2ca02c;stroke:#2ca02c;" x="139.928926" xlink:href="#m0c2d1b84b8" y="232.09678"/>
     <use style="fill:#2ca02c;stroke:#2ca02c;" x="143.003306" xlink:href="#m0c2d1b84b8" y="237.285493"/>
     <use style="fill:#2ca02c;stroke:#2ca02c;" x="146.077686" xlink:href="#m0c2d1b84b8" y="239.963176"/>
     <use style="fill:#2ca02c;stroke:#2ca02c;" x="149.152066" xlink:href="#m0c2d1b84b8" y="241.229061"/>
     <use style="fill:#2ca02c;stroke:#2ca02c;" x="152.226446" xlink:href="#m0c2d1b84b8" y="241.778344"/>
     <use style="fill:#2ca02c;stroke:#2ca02c;" x="155.300826" xlink:href="#m0c2d1b84b8" y="241.997367"/>
     <use style="fill:#2ca02c;stroke:#2ca02c;" x="158.375207" xlink:href="#m0c2d1b84b8" y="242.077675"/>
     <use style="fill:#2ca02c;stroke:#2ca02c;" x="161.449587" xlink:href="#m0c2d1b84b8" y="242.104757"/>
     <use style="fill:#2ca02c;stroke:#2ca02c;" x="164.523967" xlink:href="#m0c2d1b84b8" y="242.113154"/>
     <use style="fill:#2ca02c;stroke:#2ca02c;" x="167.598347" xlink:href="#m0c2d1b84b8" y="242.115547"/>
     <use style="fill:#2ca02c;stroke:#2ca02c;" x="170.672727" xlink:href="#m0c2d1b84b8" y="242.116173"/>
     <use style="fill:#2ca02c;stroke:#2ca02c;" x="173.747107" xlink:href="#m0c2d1b84b8" y="242.116323"/>
     <use style="fill:#2ca02c;stroke:#2ca02c;" x="176.821488" xlink:href="#m0c2d1b84b8" y="242.116356"/>
     <use style="fill:#2ca02c;stroke:#2ca02c;" x="179.895868" xlink:href="#m0c2d1b84b8" y="242.116362"/>
     <use style="fill:#2ca02c;stroke:#2ca02c;" x="182.970248" xlink:href="#m0c2d1b84b8" y="242.116363"/>
     <use style="fill:#2ca02c;stroke:#2ca02c;" x="186.044628" xlink:href="#m0c2d1b84b8" y="242.116364"/>
     <use style="fill:#2ca02c;stroke:#2ca02c;" x="189.119008" xlink:href="#m0c2d1b84b8" y="242.116364"/>
     <use style="fill:#2ca02c;stroke:#2ca02c;" x="192.193388" xlink:href="#m0c2d1b84b8" y="242.116364"/>
     <use style="fill:#2ca02c;stroke:#2ca02c;" x="195.267769" xlink:href="#m0c2d1b84b8" y="242.116364"/>
     <use style="fill:#2ca02c;stroke:#2ca02c;" x="198.342149" xlink:href="#m0c2d1b84b8" y="242.116364"/>
     <use style="fill:#2ca02c;stroke:#2ca02c;" x="201.416529" xlink:href="#m0c2d1b84b8" y="242.116364"/>
     <use style="fill:#2ca02c;stroke:#2ca02c;" x="204.490909" xlink:href="#m0c2d1b84b8" y="242.116364"/>
     <use style="fill:#2ca02c;stroke:#2ca02c;" x="207.565289" xlink:href="#m0c2d1b84b8" y="242.116364"/>
     <use style="fill:#2ca02c;stroke:#2ca02c;" x="210.639669" xlink:href="#m0c2d1b84b8" y="242.116364"/>
     <use style="fill:#2ca02c;stroke:#2ca02c;" x="213.71405" xlink:href="#m0c2d1b84b8" y="242.116364"/>
     <use style="fill:#2ca02c;stroke:#2ca02c;" x="216.78843" xlink:href="#m0c2d1b84b8" y="242.116364"/>
     <use style="fill:#2ca02c;stroke:#2ca02c;" x="219.86281" xlink:href="#m0c2d1b84b8" y="242.116364"/>
    </g>
   </g>
   <g id="patch_3">
    <path d="M 54 252 
L 54 34.56 
" style="fill:none;stroke:#000000;stroke-linecap:square;stroke-linejoin:miter;stroke-width:0.8;"/>
   </g>
   <g id="patch_4">
    <path d="M 388.8 252 
L 388.8 34.56 
" style="fill:none;stroke:#000000;stroke-linecap:square;stroke-linejoin:miter;stroke-width:0.8;"/>
   </g>
   <g id="patch_5">
    <path d="M 54 252 
L 388.8 252 
" style="fill:none;stroke:#000000;stroke-linecap:square;stroke-linejoin:miter;stroke-width:0.8;"/>
   </g>
   <g id="patch_6">
    <path d="M 54 34.56 
L 388.8 34.56 
" style="fill:none;stroke:#000000;stroke-linecap:square;stroke-linejoin:miter;stroke-width:0.8;"/>
   </g>
   <g id="text_16">
    <!-- Binomial Distribution -->
    <g transform="translate(147.874844 28.56)scale(0.14 -0.14)">
     <defs>
      <path d="M 1259 2228 
L 1259 519 
L 2272 519 
Q 2781 519 3026 730 
Q 3272 941 3272 1375 
Q 3272 1813 3026 2020 
Q 2781 2228 2272 2228 
L 1259 2228 
z
M 1259 4147 
L 1259 2741 
L 2194 2741 
Q 2656 2741 2882 2914 
Q 3109 3088 3109 3444 
Q 3109 3797 2882 3972 
Q 2656 4147 2194 4147 
L 1259 4147 
z
M 628 4666 
L 2241 4666 
Q 2963 4666 3353 4366 
Q 3744 4066 3744 3513 
Q 3744 3084 3544 2831 
Q 3344 2578 2956 2516 
Q 3422 2416 3680 2098 
Q 3938 1781 3938 1306 
Q 3938 681 3513 340 
Q 3088 0 2303 0 
L 628 0 
L 628 4666 
z
" id="DejaVuSans-42" transform="scale(0.015625)"/>
      <path d="M 3513 2113 
L 3513 0 
L 2938 0 
L 2938 2094 
Q 2938 2591 2744 2837 
Q 2550 3084 2163 3084 
Q 1697 3084 1428 2787 
Q 1159 2491 1159 1978 
L 1159 0 
L 581 0 
L 581 3500 
L 1159 3500 
L 1159 2956 
Q 1366 3272 1645 3428 
Q 1925 3584 2291 3584 
Q 2894 3584 3203 3211 
Q 3513 2838 3513 2113 
z
" id="DejaVuSans-6e" transform="scale(0.015625)"/>
      <path d="M 3328 2828 
Q 3544 3216 3844 3400 
Q 4144 3584 4550 3584 
Q 5097 3584 5394 3201 
Q 5691 2819 5691 2113 
L 5691 0 
L 5113 0 
L 5113 2094 
Q 5113 2597 4934 2840 
Q 4756 3084 4391 3084 
Q 3944 3084 3684 2787 
Q 3425 2491 3425 1978 
L 3425 0 
L 2847 0 
L 2847 2094 
Q 2847 2600 2669 2842 
Q 2491 3084 2119 3084 
Q 1678 3084 1418 2786 
Q 1159 2488 1159 1978 
L 1159 0 
L 581 0 
L 581 3500 
L 1159 3500 
L 1159 2956 
Q 1356 3278 1631 3431 
Q 1906 3584 2284 3584 
Q 2666 3584 2933 3390 
Q 3200 3197 3328 2828 
z
" id="DejaVuSans-6d" transform="scale(0.015625)"/>
      <path id="DejaVuSans-20" transform="scale(0.015625)"/>
      <path d="M 1259 4147 
L 1259 519 
L 2022 519 
Q 2988 519 3436 956 
Q 3884 1394 3884 2338 
Q 3884 3275 3436 3711 
Q 2988 4147 2022 4147 
L 1259 4147 
z
M 628 4666 
L 1925 4666 
Q 3281 4666 3915 4102 
Q 4550 3538 4550 2338 
Q 4550 1131 3912 565 
Q 3275 0 1925 0 
L 628 0 
L 628 4666 
z
" id="DejaVuSans-44" transform="scale(0.015625)"/>
      <path d="M 2834 3397 
L 2834 2853 
Q 2591 2978 2328 3040 
Q 2066 3103 1784 3103 
Q 1356 3103 1142 2972 
Q 928 2841 928 2578 
Q 928 2378 1081 2264 
Q 1234 2150 1697 2047 
L 1894 2003 
Q 2506 1872 2764 1633 
Q 3022 1394 3022 966 
Q 3022 478 2636 193 
Q 2250 -91 1575 -91 
Q 1294 -91 989 -36 
Q 684 19 347 128 
L 347 722 
Q 666 556 975 473 
Q 1284 391 1588 391 
Q 1994 391 2212 530 
Q 2431 669 2431 922 
Q 2431 1156 2273 1281 
Q 2116 1406 1581 1522 
L 1381 1569 
Q 847 1681 609 1914 
Q 372 2147 372 2553 
Q 372 3047 722 3315 
Q 1072 3584 1716 3584 
Q 2034 3584 2315 3537 
Q 2597 3491 2834 3397 
z
" id="DejaVuSans-73" transform="scale(0.015625)"/>
     </defs>
     <use xlink:href="#DejaVuSans-42"/>
     <use x="68.603516" xlink:href="#DejaVuSans-69"/>
     <use x="96.386719" xlink:href="#DejaVuSans-6e"/>
     <use x="159.765625" xlink:href="#DejaVuSans-6f"/>
     <use x="220.947266" xlink:href="#DejaVuSans-6d"/>
     <use x="318.359375" xlink:href="#DejaVuSans-69"/>
     <use x="346.142578" xlink:href="#DejaVuSans-61"/>
     <use x="407.421875" xlink:href="#DejaVuSans-6c"/>
     <use x="435.205078" xlink:href="#DejaVuSans-20"/>
     <use x="466.992188" xlink:href="#DejaVuSans-44"/>
     <use x="543.994141" xlink:href="#DejaVuSans-69"/>
     <use x="571.777344" xlink:href="#DejaVuSans-73"/>
     <use x="623.876953" xlink:href="#DejaVuSans-74"/>
     <use x="663.085938" xlink:href="#DejaVuSans-72"/>
     <use x="704.199219" xlink:href="#DejaVuSans-69"/>
     <use x="731.982422" xlink:href="#DejaVuSans-62"/>
     <use x="795.458984" xlink:href="#DejaVuSans-75"/>
     <use x="858.837891" xlink:href="#DejaVuSans-74"/>
     <use x="898.046875" xlink:href="#DejaVuSans-69"/>
     <use x="925.830078" xlink:href="#DejaVuSans-6f"/>
     <use x="987.011719" xlink:href="#DejaVuSans-6e"/>
    </g>
   </g>
   <g id="legend_1">
    <g id="patch_7">
     <path d="M 207.178125 86.594375 
L 381.8 86.594375 
Q 383.8 86.594375 383.8 84.594375 
L 383.8 41.56 
Q 383.8 39.56 381.8 39.56 
L 207.178125 39.56 
Q 205.178125 39.56 205.178125 41.56 
L 205.178125 84.594375 
Q 205.178125 86.594375 207.178125 86.594375 
z
" style="fill:#ffffff;opacity:0.8;stroke:#cccccc;stroke-linejoin:miter;"/>
    </g>
    <g id="line2d_30">
     <path d="M 209.178125 47.658438 
L 229.178125 47.658438 
" style="fill:none;stroke:#1f77b4;stroke-linecap:square;stroke-width:1.5;"/>
    </g>
    <g id="line2d_31">
     <g>
      <use style="fill:#1f77b4;stroke:#1f77b4;" x="219.178125" xlink:href="#mcceb6127f6" y="47.658438"/>
     </g>
    </g>
    <g id="text_17">
     <!-- 100 samples  0.1 probability -->
     <g transform="translate(237.178125 51.158438)scale(0.1 -0.1)">
      <use xlink:href="#DejaVuSans-31"/>
      <use x="63.623047" xlink:href="#DejaVuSans-30"/>
      <use x="127.246094" xlink:href="#DejaVuSans-30"/>
      <use x="190.869141" xlink:href="#DejaVuSans-20"/>
      <use x="222.65625" xlink:href="#DejaVuSans-73"/>
      <use x="274.755859" xlink:href="#DejaVuSans-61"/>
      <use x="336.035156" xlink:href="#DejaVuSans-6d"/>
      <use x="433.447266" xlink:href="#DejaVuSans-70"/>
      <use x="496.923828" xlink:href="#DejaVuSans-6c"/>
      <use x="524.707031" xlink:href="#DejaVuSans-65"/>
      <use x="586.230469" xlink:href="#DejaVuSans-73"/>
      <use x="638.330078" xlink:href="#DejaVuSans-20"/>
      <use x="670.117188" xlink:href="#DejaVuSans-20"/>
      <use x="701.904297" xlink:href="#DejaVuSans-30"/>
      <use x="765.527344" xlink:href="#DejaVuSans-2e"/>
      <use x="797.314453" xlink:href="#DejaVuSans-31"/>
      <use x="860.9375" xlink:href="#DejaVuSans-20"/>
      <use x="892.724609" xlink:href="#DejaVuSans-70"/>
      <use x="956.201172" xlink:href="#DejaVuSans-72"/>
      <use x="995.064453" xlink:href="#DejaVuSans-6f"/>
      <use x="1056.246094" xlink:href="#DejaVuSans-62"/>
      <use x="1119.722656" xlink:href="#DejaVuSans-61"/>
      <use x="1181.001953" xlink:href="#DejaVuSans-62"/>
      <use x="1244.478516" xlink:href="#DejaVuSans-69"/>
      <use x="1272.261719" xlink:href="#DejaVuSans-6c"/>
      <use x="1300.044922" xlink:href="#DejaVuSans-69"/>
      <use x="1327.828125" xlink:href="#DejaVuSans-74"/>
      <use x="1367.037109" xlink:href="#DejaVuSans-79"/>
     </g>
    </g>
    <g id="line2d_32">
     <path d="M 209.178125 62.336563 
L 229.178125 62.336563 
" style="fill:none;stroke:#ff7f0e;stroke-linecap:square;stroke-width:1.5;"/>
    </g>
    <g id="line2d_33">
     <g>
      <use style="fill:#ff7f0e;stroke:#ff7f0e;" x="219.178125" xlink:href="#ma17cf76d65" y="62.336563"/>
     </g>
    </g>
    <g id="text_18">
     <!-- 100 samples  0.8 probability -->
     <g transform="translate(237.178125 65.836563)scale(0.1 -0.1)">
      <use xlink:href="#DejaVuSans-31"/>
      <use x="63.623047" xlink:href="#DejaVuSans-30"/>
      <use x="127.246094" xlink:href="#DejaVuSans-30"/>
      <use x="190.869141" xlink:href="#DejaVuSans-20"/>
      <use x="222.65625" xlink:href="#DejaVuSans-73"/>
      <use x="274.755859" xlink:href="#DejaVuSans-61"/>
      <use x="336.035156" xlink:href="#DejaVuSans-6d"/>
      <use x="433.447266" xlink:href="#DejaVuSans-70"/>
      <use x="496.923828" xlink:href="#DejaVuSans-6c"/>
      <use x="524.707031" xlink:href="#DejaVuSans-65"/>
      <use x="586.230469" xlink:href="#DejaVuSans-73"/>
      <use x="638.330078" xlink:href="#DejaVuSans-20"/>
      <use x="670.117188" xlink:href="#DejaVuSans-20"/>
      <use x="701.904297" xlink:href="#DejaVuSans-30"/>
      <use x="765.527344" xlink:href="#DejaVuSans-2e"/>
      <use x="797.314453" xlink:href="#DejaVuSans-38"/>
      <use x="860.9375" xlink:href="#DejaVuSans-20"/>
      <use x="892.724609" xlink:href="#DejaVuSans-70"/>
      <use x="956.201172" xlink:href="#DejaVuSans-72"/>
      <use x="995.064453" xlink:href="#DejaVuSans-6f"/>
      <use x="1056.246094" xlink:href="#DejaVuSans-62"/>
      <use x="1119.722656" xlink:href="#DejaVuSans-61"/>
      <use x="1181.001953" xlink:href="#DejaVuSans-62"/>
      <use x="1244.478516" xlink:href="#DejaVuSans-69"/>
      <use x="1272.261719" xlink:href="#DejaVuSans-6c"/>
      <use x="1300.044922" xlink:href="#DejaVuSans-69"/>
      <use x="1327.828125" xlink:href="#DejaVuSans-74"/>
      <use x="1367.037109" xlink:href="#DejaVuSans-79"/>
     </g>
    </g>
    <g id="line2d_34">
     <path d="M 209.178125 77.014688 
L 229.178125 77.014688 
" style="fill:none;stroke:#2ca02c;stroke-linecap:square;stroke-width:1.5;"/>
    </g>
    <g id="line2d_35">
     <g>
      <use style="fill:#2ca02c;stroke:#2ca02c;" x="219.178125" xlink:href="#m0c2d1b84b8" y="77.014688"/>
     </g>
    </g>
    <g id="text_19">
     <!-- 50 samples  0.3 probability -->
     <g transform="translate(237.178125 80.514688)scale(0.1 -0.1)">
      <defs>
       <path d="M 691 4666 
L 3169 4666 
L 3169 4134 
L 1269 4134 
L 1269 2991 
Q 1406 3038 1543 3061 
Q 1681 3084 1819 3084 
Q 2600 3084 3056 2656 
Q 3513 2228 3513 1497 
Q 3513 744 3044 326 
Q 2575 -91 1722 -91 
Q 1428 -91 1123 -41 
Q 819 9 494 109 
L 494 744 
Q 775 591 1075 516 
Q 1375 441 1709 441 
Q 2250 441 2565 725 
Q 2881 1009 2881 1497 
Q 2881 1984 2565 2268 
Q 2250 2553 1709 2553 
Q 1456 2553 1204 2497 
Q 953 2441 691 2322 
L 691 4666 
z
" id="DejaVuSans-35" transform="scale(0.015625)"/>
       <path d="M 2597 2516 
Q 3050 2419 3304 2112 
Q 3559 1806 3559 1356 
Q 3559 666 3084 287 
Q 2609 -91 1734 -91 
Q 1441 -91 1130 -33 
Q 819 25 488 141 
L 488 750 
Q 750 597 1062 519 
Q 1375 441 1716 441 
Q 2309 441 2620 675 
Q 2931 909 2931 1356 
Q 2931 1769 2642 2001 
Q 2353 2234 1838 2234 
L 1294 2234 
L 1294 2753 
L 1863 2753 
Q 2328 2753 2575 2939 
Q 2822 3125 2822 3475 
Q 2822 3834 2567 4026 
Q 2313 4219 1838 4219 
Q 1578 4219 1281 4162 
Q 984 4106 628 3988 
L 628 4550 
Q 988 4650 1302 4700 
Q 1616 4750 1894 4750 
Q 2613 4750 3031 4423 
Q 3450 4097 3450 3541 
Q 3450 3153 3228 2886 
Q 3006 2619 2597 2516 
z
" id="DejaVuSans-33" transform="scale(0.015625)"/>
      </defs>
      <use xlink:href="#DejaVuSans-35"/>
      <use x="63.623047" xlink:href="#DejaVuSans-30"/>
      <use x="127.246094" xlink:href="#DejaVuSans-20"/>
      <use x="159.033203" xlink:href="#DejaVuSans-73"/>
      <use x="211.132812" xlink:href="#DejaVuSans-61"/>
      <use x="272.412109" xlink:href="#DejaVuSans-6d"/>
      <use x="369.824219" xlink:href="#DejaVuSans-70"/>
      <use x="433.300781" xlink:href="#DejaVuSans-6c"/>
      <use x="461.083984" xlink:href="#DejaVuSans-65"/>
      <use x="522.607422" xlink:href="#DejaVuSans-73"/>
      <use x="574.707031" xlink:href="#DejaVuSans-20"/>
      <use x="606.494141" xlink:href="#DejaVuSans-20"/>
      <use x="638.28125" xlink:href="#DejaVuSans-30"/>
      <use x="701.904297" xlink:href="#DejaVuSans-2e"/>
      <use x="733.691406" xlink:href="#DejaVuSans-33"/>
      <use x="797.314453" xlink:href="#DejaVuSans-20"/>
      <use x="829.101562" xlink:href="#DejaVuSans-70"/>
      <use x="892.578125" xlink:href="#DejaVuSans-72"/>
      <use x="931.441406" xlink:href="#DejaVuSans-6f"/>
      <use x="992.623047" xlink:href="#DejaVuSans-62"/>
      <use x="1056.099609" xlink:href="#DejaVuSans-61"/>
      <use x="1117.378906" xlink:href="#DejaVuSans-62"/>
      <use x="1180.855469" xlink:href="#DejaVuSans-69"/>
      <use x="1208.638672" xlink:href="#DejaVuSans-6c"/>
      <use x="1236.421875" xlink:href="#DejaVuSans-69"/>
      <use x="1264.205078" xlink:href="#DejaVuSans-74"/>
      <use x="1303.414062" xlink:href="#DejaVuSans-79"/>
     </g>
    </g>
   </g>
  </g>
 </g>
 <defs>
  <clipPath id="p166b18f4bd">
   <rect height="217.44" width="334.8" x="54" y="34.56"/>
  </clipPath>
 </defs>
</svg>
