<?xml version="1.0" encoding="utf-8" standalone="no"?>
<!DOCTYPE svg PUBLIC "-//W3C//DTD SVG 1.1//EN"
  "http://www.w3.org/Graphics/SVG/1.1/DTD/svg11.dtd">
<svg height="576pt" version="1.1" viewBox="0 0 432 576" width="432pt" xmlns="http://www.w3.org/2000/svg" xmlns:xlink="http://www.w3.org/1999/xlink">
 <metadata>
  <rdf:RDF xmlns:cc="http://creativecommons.org/ns#" xmlns:dc="http://purl.org/dc/elements/1.1/" xmlns:rdf="http://www.w3.org/1999/02/22-rdf-syntax-ns#">
   <cc:Work>
    <dc:type rdf:resource="http://purl.org/dc/dcmitype/StillImage"/>
    <dc:date>2022-06-03T16:32:00.881580</dc:date>
    <dc:format>image/svg+xml</dc:format>
    <dc:creator>
     <cc:Agent>
      <dc:title>Matplotlib v3.4.3, https://matplotlib.org/</dc:title>
     </cc:Agent>
    </dc:creator>
   </cc:Work>
  </rdf:RDF>
 </metadata>
 <defs>
  <style type="text/css">*{stroke-linecap:butt;stroke-linejoin:round;}</style>
 </defs>
 <g id="figure_1">
  <g id="patch_1">
   <path d="M 0 576 
L 432 576 
L 432 0 
L 0 0 
z
" style="fill:none;"/>
  </g>
  <g id="axes_1">
   <g id="patch_2">
    <path d="M 60.3 239.9 
L 421.2 239.9 
L 421.2 28.8 
L 60.3 28.8 
z
" style="fill:#ffffff;"/>
   </g>
   <g id="patch_3">
    <path clip-path="url(#p7c0db5d23b)" d="M 76.704545 239.9 
L 83.266364 239.9 
L 83.266364 238.917683 
L 76.704545 238.917683 
z
" style="fill:#1f77b4;"/>
   </g>
   <g id="patch_4">
    <path clip-path="url(#p7c0db5d23b)" d="M 83.266364 239.9 
L 89.828182 239.9 
L 89.828182 239.572561 
L 83.266364 239.572561 
z
" style="fill:#1f77b4;"/>
   </g>
   <g id="patch_5">
    <path clip-path="url(#p7c0db5d23b)" d="M 89.828182 239.9 
L 96.39 239.9 
L 96.39 238.917683 
L 89.828182 238.917683 
z
" style="fill:#1f77b4;"/>
   </g>
   <g id="patch_6">
    <path clip-path="url(#p7c0db5d23b)" d="M 96.39 239.9 
L 102.951818 239.9 
L 102.951818 239.245122 
L 96.39 239.245122 
z
" style="fill:#1f77b4;"/>
   </g>
   <g id="patch_7">
    <path clip-path="url(#p7c0db5d23b)" d="M 102.951818 239.9 
L 109.513636 239.9 
L 109.513636 238.262804 
L 102.951818 238.262804 
z
" style="fill:#1f77b4;"/>
   </g>
   <g id="patch_8">
    <path clip-path="url(#p7c0db5d23b)" d="M 109.513636 239.9 
L 116.075455 239.9 
L 116.075455 236.625609 
L 109.513636 236.625609 
z
" style="fill:#1f77b4;"/>
   </g>
   <g id="patch_9">
    <path clip-path="url(#p7c0db5d23b)" d="M 116.075455 239.9 
L 122.637273 239.9 
L 122.637273 236.625609 
L 116.075455 236.625609 
z
" style="fill:#1f77b4;"/>
   </g>
   <g id="patch_10">
    <path clip-path="url(#p7c0db5d23b)" d="M 122.637273 239.9 
L 129.199091 239.9 
L 129.199091 233.351218 
L 122.637273 233.351218 
z
" style="fill:#1f77b4;"/>
   </g>
   <g id="patch_11">
    <path clip-path="url(#p7c0db5d23b)" d="M 129.199091 239.9 
L 135.760909 239.9 
L 135.760909 229.421948 
L 129.199091 229.421948 
z
" style="fill:#1f77b4;"/>
   </g>
   <g id="patch_12">
    <path clip-path="url(#p7c0db5d23b)" d="M 135.760909 239.9 
L 142.322727 239.9 
L 142.322727 227.129874 
L 135.760909 227.129874 
z
" style="fill:#1f77b4;"/>
   </g>
   <g id="patch_13">
    <path clip-path="url(#p7c0db5d23b)" d="M 142.322727 239.9 
L 148.884545 239.9 
L 148.884545 222.545727 
L 142.322727 222.545727 
z
" style="fill:#1f77b4;"/>
   </g>
   <g id="patch_14">
    <path clip-path="url(#p7c0db5d23b)" d="M 148.884545 239.9 
L 155.446364 239.9 
L 155.446364 212.722553 
L 148.884545 212.722553 
z
" style="fill:#1f77b4;"/>
   </g>
   <g id="patch_15">
    <path clip-path="url(#p7c0db5d23b)" d="M 155.446364 239.9 
L 162.008182 239.9 
L 162.008182 213.70487 
L 155.446364 213.70487 
z
" style="fill:#1f77b4;"/>
   </g>
   <g id="patch_16">
    <path clip-path="url(#p7c0db5d23b)" d="M 162.008182 239.9 
L 168.57 239.9 
L 168.57 199.297549 
L 162.008182 199.297549 
z
" style="fill:#1f77b4;"/>
   </g>
   <g id="patch_17">
    <path clip-path="url(#p7c0db5d23b)" d="M 168.57 239.9 
L 175.131818 239.9 
L 175.131818 180.633519 
L 168.57 180.633519 
z
" style="fill:#1f77b4;"/>
   </g>
   <g id="patch_18">
    <path clip-path="url(#p7c0db5d23b)" d="M 175.131818 239.9 
L 181.693636 239.9 
L 181.693636 166.226198 
L 175.131818 166.226198 
z
" style="fill:#1f77b4;"/>
   </g>
   <g id="patch_19">
    <path clip-path="url(#p7c0db5d23b)" d="M 181.693636 239.9 
L 188.255455 239.9 
L 188.255455 145.270095 
L 181.693636 145.270095 
z
" style="fill:#1f77b4;"/>
   </g>
   <g id="patch_20">
    <path clip-path="url(#p7c0db5d23b)" d="M 188.255455 239.9 
L 194.817273 239.9 
L 194.817273 130.862773 
L 188.255455 130.862773 
z
" style="fill:#1f77b4;"/>
   </g>
   <g id="patch_21">
    <path clip-path="url(#p7c0db5d23b)" d="M 194.817273 239.9 
L 201.379091 239.9 
L 201.379091 128.5707 
L 194.817273 128.5707 
z
" style="fill:#1f77b4;"/>
   </g>
   <g id="patch_22">
    <path clip-path="url(#p7c0db5d23b)" d="M 201.379091 239.9 
L 207.940909 239.9 
L 207.940909 93.862153 
L 201.379091 93.862153 
z
" style="fill:#1f77b4;"/>
   </g>
   <g id="patch_23">
    <path clip-path="url(#p7c0db5d23b)" d="M 207.940909 239.9 
L 214.502727 239.9 
L 214.502727 80.764588 
L 207.940909 80.764588 
z
" style="fill:#1f77b4;"/>
   </g>
   <g id="patch_24">
    <path clip-path="url(#p7c0db5d23b)" d="M 214.502727 239.9 
L 221.064545 239.9 
L 221.064545 60.790802 
L 214.502727 60.790802 
z
" style="fill:#1f77b4;"/>
   </g>
   <g id="patch_25">
    <path clip-path="url(#p7c0db5d23b)" d="M 221.064545 239.9 
L 227.626364 239.9 
L 227.626364 45.073724 
L 221.064545 45.073724 
z
" style="fill:#1f77b4;"/>
   </g>
   <g id="patch_26">
    <path clip-path="url(#p7c0db5d23b)" d="M 227.626364 239.9 
L 234.188182 239.9 
L 234.188182 44.746285 
L 227.626364 44.746285 
z
" style="fill:#1f77b4;"/>
   </g>
   <g id="patch_27">
    <path clip-path="url(#p7c0db5d23b)" d="M 234.188182 239.9 
L 240.75 239.9 
L 240.75 40.489577 
L 234.188182 40.489577 
z
" style="fill:#1f77b4;"/>
   </g>
   <g id="patch_28">
    <path clip-path="url(#p7c0db5d23b)" d="M 240.75 239.9 
L 247.311818 239.9 
L 247.311818 38.852381 
L 240.75 38.852381 
z
" style="fill:#1f77b4;"/>
   </g>
   <g id="patch_29">
    <path clip-path="url(#p7c0db5d23b)" d="M 247.311818 239.9 
L 253.873636 239.9 
L 253.873636 48.020676 
L 247.311818 48.020676 
z
" style="fill:#1f77b4;"/>
   </g>
   <g id="patch_30">
    <path clip-path="url(#p7c0db5d23b)" d="M 253.873636 239.9 
L 260.435455 239.9 
L 260.435455 65.04751 
L 253.873636 65.04751 
z
" style="fill:#1f77b4;"/>
   </g>
   <g id="patch_31">
    <path clip-path="url(#p7c0db5d23b)" d="M 260.435455 239.9 
L 266.997273 239.9 
L 266.997273 72.57861 
L 260.435455 72.57861 
z
" style="fill:#1f77b4;"/>
   </g>
   <g id="patch_32">
    <path clip-path="url(#p7c0db5d23b)" d="M 266.997273 239.9 
L 273.559091 239.9 
L 273.559091 74.870684 
L 266.997273 74.870684 
z
" style="fill:#1f77b4;"/>
   </g>
   <g id="patch_33">
    <path clip-path="url(#p7c0db5d23b)" d="M 273.559091 239.9 
L 280.120909 239.9 
L 280.120909 91.570079 
L 273.559091 91.570079 
z
" style="fill:#1f77b4;"/>
   </g>
   <g id="patch_34">
    <path clip-path="url(#p7c0db5d23b)" d="M 280.120909 239.9 
L 286.682727 239.9 
L 286.682727 122.676795 
L 280.120909 122.676795 
z
" style="fill:#1f77b4;"/>
   </g>
   <g id="patch_35">
    <path clip-path="url(#p7c0db5d23b)" d="M 286.682727 239.9 
L 293.244545 239.9 
L 293.244545 141.340825 
L 286.682727 141.340825 
z
" style="fill:#1f77b4;"/>
   </g>
   <g id="patch_36">
    <path clip-path="url(#p7c0db5d23b)" d="M 293.244545 239.9 
L 299.806364 239.9 
L 299.806364 149.199364 
L 293.244545 149.199364 
z
" style="fill:#1f77b4;"/>
   </g>
   <g id="patch_37">
    <path clip-path="url(#p7c0db5d23b)" d="M 299.806364 239.9 
L 306.368182 239.9 
L 306.368182 172.447541 
L 299.806364 172.447541 
z
" style="fill:#1f77b4;"/>
   </g>
   <g id="patch_38">
    <path clip-path="url(#p7c0db5d23b)" d="M 306.368182 239.9 
L 312.93 239.9 
L 312.93 191.111571 
L 306.368182 191.111571 
z
" style="fill:#1f77b4;"/>
   </g>
   <g id="patch_39">
    <path clip-path="url(#p7c0db5d23b)" d="M 312.93 239.9 
L 319.491818 239.9 
L 319.491818 199.297549 
L 312.93 199.297549 
z
" style="fill:#1f77b4;"/>
   </g>
   <g id="patch_40">
    <path clip-path="url(#p7c0db5d23b)" d="M 319.491818 239.9 
L 326.053636 239.9 
L 326.053636 216.979262 
L 319.491818 216.979262 
z
" style="fill:#1f77b4;"/>
   </g>
   <g id="patch_41">
    <path clip-path="url(#p7c0db5d23b)" d="M 326.053636 239.9 
L 332.615455 239.9 
L 332.615455 223.200605 
L 326.053636 223.200605 
z
" style="fill:#1f77b4;"/>
   </g>
   <g id="patch_42">
    <path clip-path="url(#p7c0db5d23b)" d="M 332.615455 239.9 
L 339.177273 239.9 
L 339.177273 220.253653 
L 332.615455 220.253653 
z
" style="fill:#1f77b4;"/>
   </g>
   <g id="patch_43">
    <path clip-path="url(#p7c0db5d23b)" d="M 339.177273 239.9 
L 345.739091 239.9 
L 345.739091 229.094509 
L 339.177273 229.094509 
z
" style="fill:#1f77b4;"/>
   </g>
   <g id="patch_44">
    <path clip-path="url(#p7c0db5d23b)" d="M 345.739091 239.9 
L 352.300909 239.9 
L 352.300909 231.714022 
L 345.739091 231.714022 
z
" style="fill:#1f77b4;"/>
   </g>
   <g id="patch_45">
    <path clip-path="url(#p7c0db5d23b)" d="M 352.300909 239.9 
L 358.862727 239.9 
L 358.862727 236.29817 
L 352.300909 236.29817 
z
" style="fill:#1f77b4;"/>
   </g>
   <g id="patch_46">
    <path clip-path="url(#p7c0db5d23b)" d="M 358.862727 239.9 
L 365.424545 239.9 
L 365.424545 236.953048 
L 358.862727 236.953048 
z
" style="fill:#1f77b4;"/>
   </g>
   <g id="patch_47">
    <path clip-path="url(#p7c0db5d23b)" d="M 365.424545 239.9 
L 371.986364 239.9 
L 371.986364 239.245122 
L 365.424545 239.245122 
z
" style="fill:#1f77b4;"/>
   </g>
   <g id="patch_48">
    <path clip-path="url(#p7c0db5d23b)" d="M 371.986364 239.9 
L 378.548182 239.9 
L 378.548182 238.590244 
L 371.986364 238.590244 
z
" style="fill:#1f77b4;"/>
   </g>
   <g id="patch_49">
    <path clip-path="url(#p7c0db5d23b)" d="M 378.548182 239.9 
L 385.11 239.9 
L 385.11 238.917683 
L 378.548182 238.917683 
z
" style="fill:#1f77b4;"/>
   </g>
   <g id="patch_50">
    <path clip-path="url(#p7c0db5d23b)" d="M 385.11 239.9 
L 391.671818 239.9 
L 391.671818 239.572561 
L 385.11 239.572561 
z
" style="fill:#1f77b4;"/>
   </g>
   <g id="patch_51">
    <path clip-path="url(#p7c0db5d23b)" d="M 391.671818 239.9 
L 398.233636 239.9 
L 398.233636 239.9 
L 391.671818 239.9 
z
" style="fill:#1f77b4;"/>
   </g>
   <g id="patch_52">
    <path clip-path="url(#p7c0db5d23b)" d="M 398.233636 239.9 
L 404.795455 239.9 
L 404.795455 239.245122 
L 398.233636 239.245122 
z
" style="fill:#1f77b4;"/>
   </g>
   <g id="matplotlib.axis_1">
    <g id="xtick_1">
     <g id="line2d_1">
      <path clip-path="url(#p7c0db5d23b)" d="M 70.860032 239.9 
L 70.860032 28.8 
" style="fill:none;stroke:#b0b0b0;stroke-linecap:square;stroke-width:0.8;"/>
     </g>
     <g id="line2d_2">
      <defs>
       <path d="M 0 0 
L 0 3.5 
" id="mad7f1d12c7" style="stroke:#000000;stroke-width:0.8;"/>
      </defs>
      <g>
       <use style="stroke:#000000;stroke-width:0.8;" x="70.860032" xlink:href="#mad7f1d12c7" y="239.9"/>
      </g>
     </g>
     <g id="text_1">
      <!-- 3.0 -->
      <g transform="translate(62.90847 254.498437)scale(0.1 -0.1)">
       <defs>
        <path d="M 2597 2516 
Q 3050 2419 3304 2112 
Q 3559 1806 3559 1356 
Q 3559 666 3084 287 
Q 2609 -91 1734 -91 
Q 1441 -91 1130 -33 
Q 819 25 488 141 
L 488 750 
Q 750 597 1062 519 
Q 1375 441 1716 441 
Q 2309 441 2620 675 
Q 2931 909 2931 1356 
Q 2931 1769 2642 2001 
Q 2353 2234 1838 2234 
L 1294 2234 
L 1294 2753 
L 1863 2753 
Q 2328 2753 2575 2939 
Q 2822 3125 2822 3475 
Q 2822 3834 2567 4026 
Q 2313 4219 1838 4219 
Q 1578 4219 1281 4162 
Q 984 4106 628 3988 
L 628 4550 
Q 988 4650 1302 4700 
Q 1616 4750 1894 4750 
Q 2613 4750 3031 4423 
Q 3450 4097 3450 3541 
Q 3450 3153 3228 2886 
Q 3006 2619 2597 2516 
z
" id="DejaVuSans-33" transform="scale(0.015625)"/>
        <path d="M 684 794 
L 1344 794 
L 1344 0 
L 684 0 
L 684 794 
z
" id="DejaVuSans-2e" transform="scale(0.015625)"/>
        <path d="M 2034 4250 
Q 1547 4250 1301 3770 
Q 1056 3291 1056 2328 
Q 1056 1369 1301 889 
Q 1547 409 2034 409 
Q 2525 409 2770 889 
Q 3016 1369 3016 2328 
Q 3016 3291 2770 3770 
Q 2525 4250 2034 4250 
z
M 2034 4750 
Q 2819 4750 3233 4129 
Q 3647 3509 3647 2328 
Q 3647 1150 3233 529 
Q 2819 -91 2034 -91 
Q 1250 -91 836 529 
Q 422 1150 422 2328 
Q 422 3509 836 4129 
Q 1250 4750 2034 4750 
z
" id="DejaVuSans-30" transform="scale(0.015625)"/>
       </defs>
       <use xlink:href="#DejaVuSans-33"/>
       <use x="63.623047" xlink:href="#DejaVuSans-2e"/>
       <use x="95.410156" xlink:href="#DejaVuSans-30"/>
      </g>
     </g>
    </g>
    <g id="xtick_2">
     <g id="line2d_3">
      <path clip-path="url(#p7c0db5d23b)" d="M 112.997807 239.9 
L 112.997807 28.8 
" style="fill:none;stroke:#b0b0b0;stroke-linecap:square;stroke-width:0.8;"/>
     </g>
     <g id="line2d_4">
      <g>
       <use style="stroke:#000000;stroke-width:0.8;" x="112.997807" xlink:href="#mad7f1d12c7" y="239.9"/>
      </g>
     </g>
     <g id="text_2">
      <!-- 3.5 -->
      <g transform="translate(105.046244 254.498437)scale(0.1 -0.1)">
       <defs>
        <path d="M 691 4666 
L 3169 4666 
L 3169 4134 
L 1269 4134 
L 1269 2991 
Q 1406 3038 1543 3061 
Q 1681 3084 1819 3084 
Q 2600 3084 3056 2656 
Q 3513 2228 3513 1497 
Q 3513 744 3044 326 
Q 2575 -91 1722 -91 
Q 1428 -91 1123 -41 
Q 819 9 494 109 
L 494 744 
Q 775 591 1075 516 
Q 1375 441 1709 441 
Q 2250 441 2565 725 
Q 2881 1009 2881 1497 
Q 2881 1984 2565 2268 
Q 2250 2553 1709 2553 
Q 1456 2553 1204 2497 
Q 953 2441 691 2322 
L 691 4666 
z
" id="DejaVuSans-35" transform="scale(0.015625)"/>
       </defs>
       <use xlink:href="#DejaVuSans-33"/>
       <use x="63.623047" xlink:href="#DejaVuSans-2e"/>
       <use x="95.410156" xlink:href="#DejaVuSans-35"/>
      </g>
     </g>
    </g>
    <g id="xtick_3">
     <g id="line2d_5">
      <path clip-path="url(#p7c0db5d23b)" d="M 155.135581 239.9 
L 155.135581 28.8 
" style="fill:none;stroke:#b0b0b0;stroke-linecap:square;stroke-width:0.8;"/>
     </g>
     <g id="line2d_6">
      <g>
       <use style="stroke:#000000;stroke-width:0.8;" x="155.135581" xlink:href="#mad7f1d12c7" y="239.9"/>
      </g>
     </g>
     <g id="text_3">
      <!-- 4.0 -->
      <g transform="translate(147.184019 254.498437)scale(0.1 -0.1)">
       <defs>
        <path d="M 2419 4116 
L 825 1625 
L 2419 1625 
L 2419 4116 
z
M 2253 4666 
L 3047 4666 
L 3047 1625 
L 3713 1625 
L 3713 1100 
L 3047 1100 
L 3047 0 
L 2419 0 
L 2419 1100 
L 313 1100 
L 313 1709 
L 2253 4666 
z
" id="DejaVuSans-34" transform="scale(0.015625)"/>
       </defs>
       <use xlink:href="#DejaVuSans-34"/>
       <use x="63.623047" xlink:href="#DejaVuSans-2e"/>
       <use x="95.410156" xlink:href="#DejaVuSans-30"/>
      </g>
     </g>
    </g>
    <g id="xtick_4">
     <g id="line2d_7">
      <path clip-path="url(#p7c0db5d23b)" d="M 197.273356 239.9 
L 197.273356 28.8 
" style="fill:none;stroke:#b0b0b0;stroke-linecap:square;stroke-width:0.8;"/>
     </g>
     <g id="line2d_8">
      <g>
       <use style="stroke:#000000;stroke-width:0.8;" x="197.273356" xlink:href="#mad7f1d12c7" y="239.9"/>
      </g>
     </g>
     <g id="text_4">
      <!-- 4.5 -->
      <g transform="translate(189.321793 254.498437)scale(0.1 -0.1)">
       <use xlink:href="#DejaVuSans-34"/>
       <use x="63.623047" xlink:href="#DejaVuSans-2e"/>
       <use x="95.410156" xlink:href="#DejaVuSans-35"/>
      </g>
     </g>
    </g>
    <g id="xtick_5">
     <g id="line2d_9">
      <path clip-path="url(#p7c0db5d23b)" d="M 239.411131 239.9 
L 239.411131 28.8 
" style="fill:none;stroke:#b0b0b0;stroke-linecap:square;stroke-width:0.8;"/>
     </g>
     <g id="line2d_10">
      <g>
       <use style="stroke:#000000;stroke-width:0.8;" x="239.411131" xlink:href="#mad7f1d12c7" y="239.9"/>
      </g>
     </g>
     <g id="text_5">
      <!-- 5.0 -->
      <g transform="translate(231.459568 254.498437)scale(0.1 -0.1)">
       <use xlink:href="#DejaVuSans-35"/>
       <use x="63.623047" xlink:href="#DejaVuSans-2e"/>
       <use x="95.410156" xlink:href="#DejaVuSans-30"/>
      </g>
     </g>
    </g>
    <g id="xtick_6">
     <g id="line2d_11">
      <path clip-path="url(#p7c0db5d23b)" d="M 281.548905 239.9 
L 281.548905 28.8 
" style="fill:none;stroke:#b0b0b0;stroke-linecap:square;stroke-width:0.8;"/>
     </g>
     <g id="line2d_12">
      <g>
       <use style="stroke:#000000;stroke-width:0.8;" x="281.548905" xlink:href="#mad7f1d12c7" y="239.9"/>
      </g>
     </g>
     <g id="text_6">
      <!-- 5.5 -->
      <g transform="translate(273.597343 254.498437)scale(0.1 -0.1)">
       <use xlink:href="#DejaVuSans-35"/>
       <use x="63.623047" xlink:href="#DejaVuSans-2e"/>
       <use x="95.410156" xlink:href="#DejaVuSans-35"/>
      </g>
     </g>
    </g>
    <g id="xtick_7">
     <g id="line2d_13">
      <path clip-path="url(#p7c0db5d23b)" d="M 323.68668 239.9 
L 323.68668 28.8 
" style="fill:none;stroke:#b0b0b0;stroke-linecap:square;stroke-width:0.8;"/>
     </g>
     <g id="line2d_14">
      <g>
       <use style="stroke:#000000;stroke-width:0.8;" x="323.68668" xlink:href="#mad7f1d12c7" y="239.9"/>
      </g>
     </g>
     <g id="text_7">
      <!-- 6.0 -->
      <g transform="translate(315.735117 254.498437)scale(0.1 -0.1)">
       <defs>
        <path d="M 2113 2584 
Q 1688 2584 1439 2293 
Q 1191 2003 1191 1497 
Q 1191 994 1439 701 
Q 1688 409 2113 409 
Q 2538 409 2786 701 
Q 3034 994 3034 1497 
Q 3034 2003 2786 2293 
Q 2538 2584 2113 2584 
z
M 3366 4563 
L 3366 3988 
Q 3128 4100 2886 4159 
Q 2644 4219 2406 4219 
Q 1781 4219 1451 3797 
Q 1122 3375 1075 2522 
Q 1259 2794 1537 2939 
Q 1816 3084 2150 3084 
Q 2853 3084 3261 2657 
Q 3669 2231 3669 1497 
Q 3669 778 3244 343 
Q 2819 -91 2113 -91 
Q 1303 -91 875 529 
Q 447 1150 447 2328 
Q 447 3434 972 4092 
Q 1497 4750 2381 4750 
Q 2619 4750 2861 4703 
Q 3103 4656 3366 4563 
z
" id="DejaVuSans-36" transform="scale(0.015625)"/>
       </defs>
       <use xlink:href="#DejaVuSans-36"/>
       <use x="63.623047" xlink:href="#DejaVuSans-2e"/>
       <use x="95.410156" xlink:href="#DejaVuSans-30"/>
      </g>
     </g>
    </g>
    <g id="xtick_8">
     <g id="line2d_15">
      <path clip-path="url(#p7c0db5d23b)" d="M 365.824454 239.9 
L 365.824454 28.8 
" style="fill:none;stroke:#b0b0b0;stroke-linecap:square;stroke-width:0.8;"/>
     </g>
     <g id="line2d_16">
      <g>
       <use style="stroke:#000000;stroke-width:0.8;" x="365.824454" xlink:href="#mad7f1d12c7" y="239.9"/>
      </g>
     </g>
     <g id="text_8">
      <!-- 6.5 -->
      <g transform="translate(357.872892 254.498437)scale(0.1 -0.1)">
       <use xlink:href="#DejaVuSans-36"/>
       <use x="63.623047" xlink:href="#DejaVuSans-2e"/>
       <use x="95.410156" xlink:href="#DejaVuSans-35"/>
      </g>
     </g>
    </g>
    <g id="xtick_9">
     <g id="line2d_17">
      <path clip-path="url(#p7c0db5d23b)" d="M 407.962229 239.9 
L 407.962229 28.8 
" style="fill:none;stroke:#b0b0b0;stroke-linecap:square;stroke-width:0.8;"/>
     </g>
     <g id="line2d_18">
      <g>
       <use style="stroke:#000000;stroke-width:0.8;" x="407.962229" xlink:href="#mad7f1d12c7" y="239.9"/>
      </g>
     </g>
     <g id="text_9">
      <!-- 7.0 -->
      <g transform="translate(400.010666 254.498437)scale(0.1 -0.1)">
       <defs>
        <path d="M 525 4666 
L 3525 4666 
L 3525 4397 
L 1831 0 
L 1172 0 
L 2766 4134 
L 525 4134 
L 525 4666 
z
" id="DejaVuSans-37" transform="scale(0.015625)"/>
       </defs>
       <use xlink:href="#DejaVuSans-37"/>
       <use x="63.623047" xlink:href="#DejaVuSans-2e"/>
       <use x="95.410156" xlink:href="#DejaVuSans-30"/>
      </g>
     </g>
    </g>
    <g id="text_10">
     <!-- value -->
     <g transform="translate(224.360625 269.69625)scale(0.12 -0.12)">
      <defs>
       <path d="M 191 3500 
L 800 3500 
L 1894 563 
L 2988 3500 
L 3597 3500 
L 2284 0 
L 1503 0 
L 191 3500 
z
" id="DejaVuSans-76" transform="scale(0.015625)"/>
       <path d="M 2194 1759 
Q 1497 1759 1228 1600 
Q 959 1441 959 1056 
Q 959 750 1161 570 
Q 1363 391 1709 391 
Q 2188 391 2477 730 
Q 2766 1069 2766 1631 
L 2766 1759 
L 2194 1759 
z
M 3341 1997 
L 3341 0 
L 2766 0 
L 2766 531 
Q 2569 213 2275 61 
Q 1981 -91 1556 -91 
Q 1019 -91 701 211 
Q 384 513 384 1019 
Q 384 1609 779 1909 
Q 1175 2209 1959 2209 
L 2766 2209 
L 2766 2266 
Q 2766 2663 2505 2880 
Q 2244 3097 1772 3097 
Q 1472 3097 1187 3025 
Q 903 2953 641 2809 
L 641 3341 
Q 956 3463 1253 3523 
Q 1550 3584 1831 3584 
Q 2591 3584 2966 3190 
Q 3341 2797 3341 1997 
z
" id="DejaVuSans-61" transform="scale(0.015625)"/>
       <path d="M 603 4863 
L 1178 4863 
L 1178 0 
L 603 0 
L 603 4863 
z
" id="DejaVuSans-6c" transform="scale(0.015625)"/>
       <path d="M 544 1381 
L 544 3500 
L 1119 3500 
L 1119 1403 
Q 1119 906 1312 657 
Q 1506 409 1894 409 
Q 2359 409 2629 706 
Q 2900 1003 2900 1516 
L 2900 3500 
L 3475 3500 
L 3475 0 
L 2900 0 
L 2900 538 
Q 2691 219 2414 64 
Q 2138 -91 1772 -91 
Q 1169 -91 856 284 
Q 544 659 544 1381 
z
M 1991 3584 
L 1991 3584 
z
" id="DejaVuSans-75" transform="scale(0.015625)"/>
       <path d="M 3597 1894 
L 3597 1613 
L 953 1613 
Q 991 1019 1311 708 
Q 1631 397 2203 397 
Q 2534 397 2845 478 
Q 3156 559 3463 722 
L 3463 178 
Q 3153 47 2828 -22 
Q 2503 -91 2169 -91 
Q 1331 -91 842 396 
Q 353 884 353 1716 
Q 353 2575 817 3079 
Q 1281 3584 2069 3584 
Q 2775 3584 3186 3129 
Q 3597 2675 3597 1894 
z
M 3022 2063 
Q 3016 2534 2758 2815 
Q 2500 3097 2075 3097 
Q 1594 3097 1305 2825 
Q 1016 2553 972 2059 
L 3022 2063 
z
" id="DejaVuSans-65" transform="scale(0.015625)"/>
      </defs>
      <use xlink:href="#DejaVuSans-76"/>
      <use x="59.179688" xlink:href="#DejaVuSans-61"/>
      <use x="120.458984" xlink:href="#DejaVuSans-6c"/>
      <use x="148.242188" xlink:href="#DejaVuSans-75"/>
      <use x="211.621094" xlink:href="#DejaVuSans-65"/>
     </g>
    </g>
   </g>
   <g id="matplotlib.axis_2">
    <g id="ytick_1">
     <g id="line2d_19">
      <path clip-path="url(#p7c0db5d23b)" d="M 60.3 239.9 
L 421.2 239.9 
" style="fill:none;stroke:#b0b0b0;stroke-linecap:square;stroke-width:0.8;"/>
     </g>
     <g id="line2d_20">
      <defs>
       <path d="M 0 0 
L -3.5 0 
" id="m95245f59ce" style="stroke:#000000;stroke-width:0.8;"/>
      </defs>
      <g>
       <use style="stroke:#000000;stroke-width:0.8;" x="60.3" xlink:href="#m95245f59ce" y="239.9"/>
      </g>
     </g>
     <g id="text_11">
      <!-- 0 -->
      <g transform="translate(46.9375 243.699219)scale(0.1 -0.1)">
       <use xlink:href="#DejaVuSans-30"/>
      </g>
     </g>
    </g>
    <g id="ytick_2">
     <g id="line2d_21">
      <path clip-path="url(#p7c0db5d23b)" d="M 60.3 207.156088 
L 421.2 207.156088 
" style="fill:none;stroke:#b0b0b0;stroke-linecap:square;stroke-width:0.8;"/>
     </g>
     <g id="line2d_22">
      <g>
       <use style="stroke:#000000;stroke-width:0.8;" x="60.3" xlink:href="#m95245f59ce" y="207.156088"/>
      </g>
     </g>
     <g id="text_12">
      <!-- 100 -->
      <g transform="translate(34.2125 210.955307)scale(0.1 -0.1)">
       <defs>
        <path d="M 794 531 
L 1825 531 
L 1825 4091 
L 703 3866 
L 703 4441 
L 1819 4666 
L 2450 4666 
L 2450 531 
L 3481 531 
L 3481 0 
L 794 0 
L 794 531 
z
" id="DejaVuSans-31" transform="scale(0.015625)"/>
       </defs>
       <use xlink:href="#DejaVuSans-31"/>
       <use x="63.623047" xlink:href="#DejaVuSans-30"/>
       <use x="127.246094" xlink:href="#DejaVuSans-30"/>
      </g>
     </g>
    </g>
    <g id="ytick_3">
     <g id="line2d_23">
      <path clip-path="url(#p7c0db5d23b)" d="M 60.3 174.412176 
L 421.2 174.412176 
" style="fill:none;stroke:#b0b0b0;stroke-linecap:square;stroke-width:0.8;"/>
     </g>
     <g id="line2d_24">
      <g>
       <use style="stroke:#000000;stroke-width:0.8;" x="60.3" xlink:href="#m95245f59ce" y="174.412176"/>
      </g>
     </g>
     <g id="text_13">
      <!-- 200 -->
      <g transform="translate(34.2125 178.211395)scale(0.1 -0.1)">
       <defs>
        <path d="M 1228 531 
L 3431 531 
L 3431 0 
L 469 0 
L 469 531 
Q 828 903 1448 1529 
Q 2069 2156 2228 2338 
Q 2531 2678 2651 2914 
Q 2772 3150 2772 3378 
Q 2772 3750 2511 3984 
Q 2250 4219 1831 4219 
Q 1534 4219 1204 4116 
Q 875 4013 500 3803 
L 500 4441 
Q 881 4594 1212 4672 
Q 1544 4750 1819 4750 
Q 2544 4750 2975 4387 
Q 3406 4025 3406 3419 
Q 3406 3131 3298 2873 
Q 3191 2616 2906 2266 
Q 2828 2175 2409 1742 
Q 1991 1309 1228 531 
z
" id="DejaVuSans-32" transform="scale(0.015625)"/>
       </defs>
       <use xlink:href="#DejaVuSans-32"/>
       <use x="63.623047" xlink:href="#DejaVuSans-30"/>
       <use x="127.246094" xlink:href="#DejaVuSans-30"/>
      </g>
     </g>
    </g>
    <g id="ytick_4">
     <g id="line2d_25">
      <path clip-path="url(#p7c0db5d23b)" d="M 60.3 141.668264 
L 421.2 141.668264 
" style="fill:none;stroke:#b0b0b0;stroke-linecap:square;stroke-width:0.8;"/>
     </g>
     <g id="line2d_26">
      <g>
       <use style="stroke:#000000;stroke-width:0.8;" x="60.3" xlink:href="#m95245f59ce" y="141.668264"/>
      </g>
     </g>
     <g id="text_14">
      <!-- 300 -->
      <g transform="translate(34.2125 145.467483)scale(0.1 -0.1)">
       <use xlink:href="#DejaVuSans-33"/>
       <use x="63.623047" xlink:href="#DejaVuSans-30"/>
       <use x="127.246094" xlink:href="#DejaVuSans-30"/>
      </g>
     </g>
    </g>
    <g id="ytick_5">
     <g id="line2d_27">
      <path clip-path="url(#p7c0db5d23b)" d="M 60.3 108.924352 
L 421.2 108.924352 
" style="fill:none;stroke:#b0b0b0;stroke-linecap:square;stroke-width:0.8;"/>
     </g>
     <g id="line2d_28">
      <g>
       <use style="stroke:#000000;stroke-width:0.8;" x="60.3" xlink:href="#m95245f59ce" y="108.924352"/>
      </g>
     </g>
     <g id="text_15">
      <!-- 400 -->
      <g transform="translate(34.2125 112.723571)scale(0.1 -0.1)">
       <use xlink:href="#DejaVuSans-34"/>
       <use x="63.623047" xlink:href="#DejaVuSans-30"/>
       <use x="127.246094" xlink:href="#DejaVuSans-30"/>
      </g>
     </g>
    </g>
    <g id="ytick_6">
     <g id="line2d_29">
      <path clip-path="url(#p7c0db5d23b)" d="M 60.3 76.180441 
L 421.2 76.180441 
" style="fill:none;stroke:#b0b0b0;stroke-linecap:square;stroke-width:0.8;"/>
     </g>
     <g id="line2d_30">
      <g>
       <use style="stroke:#000000;stroke-width:0.8;" x="60.3" xlink:href="#m95245f59ce" y="76.180441"/>
      </g>
     </g>
     <g id="text_16">
      <!-- 500 -->
      <g transform="translate(34.2125 79.979659)scale(0.1 -0.1)">
       <use xlink:href="#DejaVuSans-35"/>
       <use x="63.623047" xlink:href="#DejaVuSans-30"/>
       <use x="127.246094" xlink:href="#DejaVuSans-30"/>
      </g>
     </g>
    </g>
    <g id="ytick_7">
     <g id="line2d_31">
      <path clip-path="url(#p7c0db5d23b)" d="M 60.3 43.436529 
L 421.2 43.436529 
" style="fill:none;stroke:#b0b0b0;stroke-linecap:square;stroke-width:0.8;"/>
     </g>
     <g id="line2d_32">
      <g>
       <use style="stroke:#000000;stroke-width:0.8;" x="60.3" xlink:href="#m95245f59ce" y="43.436529"/>
      </g>
     </g>
     <g id="text_17">
      <!-- 600 -->
      <g transform="translate(34.2125 47.235747)scale(0.1 -0.1)">
       <use xlink:href="#DejaVuSans-36"/>
       <use x="63.623047" xlink:href="#DejaVuSans-30"/>
       <use x="127.246094" xlink:href="#DejaVuSans-30"/>
      </g>
     </g>
    </g>
    <g id="text_18">
     <!-- number of occurences -->
     <g transform="translate(27.716875 201.378437)rotate(-90)scale(0.12 -0.12)">
      <defs>
       <path d="M 3513 2113 
L 3513 0 
L 2938 0 
L 2938 2094 
Q 2938 2591 2744 2837 
Q 2550 3084 2163 3084 
Q 1697 3084 1428 2787 
Q 1159 2491 1159 1978 
L 1159 0 
L 581 0 
L 581 3500 
L 1159 3500 
L 1159 2956 
Q 1366 3272 1645 3428 
Q 1925 3584 2291 3584 
Q 2894 3584 3203 3211 
Q 3513 2838 3513 2113 
z
" id="DejaVuSans-6e" transform="scale(0.015625)"/>
       <path d="M 3328 2828 
Q 3544 3216 3844 3400 
Q 4144 3584 4550 3584 
Q 5097 3584 5394 3201 
Q 5691 2819 5691 2113 
L 5691 0 
L 5113 0 
L 5113 2094 
Q 5113 2597 4934 2840 
Q 4756 3084 4391 3084 
Q 3944 3084 3684 2787 
Q 3425 2491 3425 1978 
L 3425 0 
L 2847 0 
L 2847 2094 
Q 2847 2600 2669 2842 
Q 2491 3084 2119 3084 
Q 1678 3084 1418 2786 
Q 1159 2488 1159 1978 
L 1159 0 
L 581 0 
L 581 3500 
L 1159 3500 
L 1159 2956 
Q 1356 3278 1631 3431 
Q 1906 3584 2284 3584 
Q 2666 3584 2933 3390 
Q 3200 3197 3328 2828 
z
" id="DejaVuSans-6d" transform="scale(0.015625)"/>
       <path d="M 3116 1747 
Q 3116 2381 2855 2742 
Q 2594 3103 2138 3103 
Q 1681 3103 1420 2742 
Q 1159 2381 1159 1747 
Q 1159 1113 1420 752 
Q 1681 391 2138 391 
Q 2594 391 2855 752 
Q 3116 1113 3116 1747 
z
M 1159 2969 
Q 1341 3281 1617 3432 
Q 1894 3584 2278 3584 
Q 2916 3584 3314 3078 
Q 3713 2572 3713 1747 
Q 3713 922 3314 415 
Q 2916 -91 2278 -91 
Q 1894 -91 1617 61 
Q 1341 213 1159 525 
L 1159 0 
L 581 0 
L 581 4863 
L 1159 4863 
L 1159 2969 
z
" id="DejaVuSans-62" transform="scale(0.015625)"/>
       <path d="M 2631 2963 
Q 2534 3019 2420 3045 
Q 2306 3072 2169 3072 
Q 1681 3072 1420 2755 
Q 1159 2438 1159 1844 
L 1159 0 
L 581 0 
L 581 3500 
L 1159 3500 
L 1159 2956 
Q 1341 3275 1631 3429 
Q 1922 3584 2338 3584 
Q 2397 3584 2469 3576 
Q 2541 3569 2628 3553 
L 2631 2963 
z
" id="DejaVuSans-72" transform="scale(0.015625)"/>
       <path id="DejaVuSans-20" transform="scale(0.015625)"/>
       <path d="M 1959 3097 
Q 1497 3097 1228 2736 
Q 959 2375 959 1747 
Q 959 1119 1226 758 
Q 1494 397 1959 397 
Q 2419 397 2687 759 
Q 2956 1122 2956 1747 
Q 2956 2369 2687 2733 
Q 2419 3097 1959 3097 
z
M 1959 3584 
Q 2709 3584 3137 3096 
Q 3566 2609 3566 1747 
Q 3566 888 3137 398 
Q 2709 -91 1959 -91 
Q 1206 -91 779 398 
Q 353 888 353 1747 
Q 353 2609 779 3096 
Q 1206 3584 1959 3584 
z
" id="DejaVuSans-6f" transform="scale(0.015625)"/>
       <path d="M 2375 4863 
L 2375 4384 
L 1825 4384 
Q 1516 4384 1395 4259 
Q 1275 4134 1275 3809 
L 1275 3500 
L 2222 3500 
L 2222 3053 
L 1275 3053 
L 1275 0 
L 697 0 
L 697 3053 
L 147 3053 
L 147 3500 
L 697 3500 
L 697 3744 
Q 697 4328 969 4595 
Q 1241 4863 1831 4863 
L 2375 4863 
z
" id="DejaVuSans-66" transform="scale(0.015625)"/>
       <path d="M 3122 3366 
L 3122 2828 
Q 2878 2963 2633 3030 
Q 2388 3097 2138 3097 
Q 1578 3097 1268 2742 
Q 959 2388 959 1747 
Q 959 1106 1268 751 
Q 1578 397 2138 397 
Q 2388 397 2633 464 
Q 2878 531 3122 666 
L 3122 134 
Q 2881 22 2623 -34 
Q 2366 -91 2075 -91 
Q 1284 -91 818 406 
Q 353 903 353 1747 
Q 353 2603 823 3093 
Q 1294 3584 2113 3584 
Q 2378 3584 2631 3529 
Q 2884 3475 3122 3366 
z
" id="DejaVuSans-63" transform="scale(0.015625)"/>
       <path d="M 2834 3397 
L 2834 2853 
Q 2591 2978 2328 3040 
Q 2066 3103 1784 3103 
Q 1356 3103 1142 2972 
Q 928 2841 928 2578 
Q 928 2378 1081 2264 
Q 1234 2150 1697 2047 
L 1894 2003 
Q 2506 1872 2764 1633 
Q 3022 1394 3022 966 
Q 3022 478 2636 193 
Q 2250 -91 1575 -91 
Q 1294 -91 989 -36 
Q 684 19 347 128 
L 347 722 
Q 666 556 975 473 
Q 1284 391 1588 391 
Q 1994 391 2212 530 
Q 2431 669 2431 922 
Q 2431 1156 2273 1281 
Q 2116 1406 1581 1522 
L 1381 1569 
Q 847 1681 609 1914 
Q 372 2147 372 2553 
Q 372 3047 722 3315 
Q 1072 3584 1716 3584 
Q 2034 3584 2315 3537 
Q 2597 3491 2834 3397 
z
" id="DejaVuSans-73" transform="scale(0.015625)"/>
      </defs>
      <use xlink:href="#DejaVuSans-6e"/>
      <use x="63.378906" xlink:href="#DejaVuSans-75"/>
      <use x="126.757812" xlink:href="#DejaVuSans-6d"/>
      <use x="224.169922" xlink:href="#DejaVuSans-62"/>
      <use x="287.646484" xlink:href="#DejaVuSans-65"/>
      <use x="349.169922" xlink:href="#DejaVuSans-72"/>
      <use x="390.283203" xlink:href="#DejaVuSans-20"/>
      <use x="422.070312" xlink:href="#DejaVuSans-6f"/>
      <use x="483.251953" xlink:href="#DejaVuSans-66"/>
      <use x="518.457031" xlink:href="#DejaVuSans-20"/>
      <use x="550.244141" xlink:href="#DejaVuSans-6f"/>
      <use x="611.425781" xlink:href="#DejaVuSans-63"/>
      <use x="666.40625" xlink:href="#DejaVuSans-63"/>
      <use x="721.386719" xlink:href="#DejaVuSans-75"/>
      <use x="784.765625" xlink:href="#DejaVuSans-72"/>
      <use x="823.628906" xlink:href="#DejaVuSans-65"/>
      <use x="885.152344" xlink:href="#DejaVuSans-6e"/>
      <use x="948.53125" xlink:href="#DejaVuSans-63"/>
      <use x="1003.511719" xlink:href="#DejaVuSans-65"/>
      <use x="1065.035156" xlink:href="#DejaVuSans-73"/>
     </g>
    </g>
   </g>
   <g id="patch_53">
    <path d="M 60.3 239.9 
L 60.3 28.8 
" style="fill:none;stroke:#000000;stroke-linecap:square;stroke-linejoin:miter;stroke-width:0.8;"/>
   </g>
   <g id="patch_54">
    <path d="M 421.2 239.9 
L 421.2 28.8 
" style="fill:none;stroke:#000000;stroke-linecap:square;stroke-linejoin:miter;stroke-width:0.8;"/>
   </g>
   <g id="patch_55">
    <path d="M 60.3 239.9 
L 421.2 239.9 
" style="fill:none;stroke:#000000;stroke-linecap:square;stroke-linejoin:miter;stroke-width:0.8;"/>
   </g>
   <g id="patch_56">
    <path d="M 60.3 28.8 
L 421.2 28.8 
" style="fill:none;stroke:#000000;stroke-linecap:square;stroke-linejoin:miter;stroke-width:0.8;"/>
   </g>
   <g id="text_19">
    <!-- Normal Distribution  10000 samples -->
    <g transform="translate(105.290625 22.8)scale(0.15 -0.15)">
     <defs>
      <path d="M 628 4666 
L 1478 4666 
L 3547 763 
L 3547 4666 
L 4159 4666 
L 4159 0 
L 3309 0 
L 1241 3903 
L 1241 0 
L 628 0 
L 628 4666 
z
" id="DejaVuSans-4e" transform="scale(0.015625)"/>
      <path d="M 1259 4147 
L 1259 519 
L 2022 519 
Q 2988 519 3436 956 
Q 3884 1394 3884 2338 
Q 3884 3275 3436 3711 
Q 2988 4147 2022 4147 
L 1259 4147 
z
M 628 4666 
L 1925 4666 
Q 3281 4666 3915 4102 
Q 4550 3538 4550 2338 
Q 4550 1131 3912 565 
Q 3275 0 1925 0 
L 628 0 
L 628 4666 
z
" id="DejaVuSans-44" transform="scale(0.015625)"/>
      <path d="M 603 3500 
L 1178 3500 
L 1178 0 
L 603 0 
L 603 3500 
z
M 603 4863 
L 1178 4863 
L 1178 4134 
L 603 4134 
L 603 4863 
z
" id="DejaVuSans-69" transform="scale(0.015625)"/>
      <path d="M 1172 4494 
L 1172 3500 
L 2356 3500 
L 2356 3053 
L 1172 3053 
L 1172 1153 
Q 1172 725 1289 603 
Q 1406 481 1766 481 
L 2356 481 
L 2356 0 
L 1766 0 
Q 1100 0 847 248 
Q 594 497 594 1153 
L 594 3053 
L 172 3053 
L 172 3500 
L 594 3500 
L 594 4494 
L 1172 4494 
z
" id="DejaVuSans-74" transform="scale(0.015625)"/>
      <path d="M 1159 525 
L 1159 -1331 
L 581 -1331 
L 581 3500 
L 1159 3500 
L 1159 2969 
Q 1341 3281 1617 3432 
Q 1894 3584 2278 3584 
Q 2916 3584 3314 3078 
Q 3713 2572 3713 1747 
Q 3713 922 3314 415 
Q 2916 -91 2278 -91 
Q 1894 -91 1617 61 
Q 1341 213 1159 525 
z
M 3116 1747 
Q 3116 2381 2855 2742 
Q 2594 3103 2138 3103 
Q 1681 3103 1420 2742 
Q 1159 2381 1159 1747 
Q 1159 1113 1420 752 
Q 1681 391 2138 391 
Q 2594 391 2855 752 
Q 3116 1113 3116 1747 
z
" id="DejaVuSans-70" transform="scale(0.015625)"/>
     </defs>
     <use xlink:href="#DejaVuSans-4e"/>
     <use x="74.804688" xlink:href="#DejaVuSans-6f"/>
     <use x="135.986328" xlink:href="#DejaVuSans-72"/>
     <use x="175.349609" xlink:href="#DejaVuSans-6d"/>
     <use x="272.761719" xlink:href="#DejaVuSans-61"/>
     <use x="334.041016" xlink:href="#DejaVuSans-6c"/>
     <use x="361.824219" xlink:href="#DejaVuSans-20"/>
     <use x="393.611328" xlink:href="#DejaVuSans-44"/>
     <use x="470.613281" xlink:href="#DejaVuSans-69"/>
     <use x="498.396484" xlink:href="#DejaVuSans-73"/>
     <use x="550.496094" xlink:href="#DejaVuSans-74"/>
     <use x="589.705078" xlink:href="#DejaVuSans-72"/>
     <use x="630.818359" xlink:href="#DejaVuSans-69"/>
     <use x="658.601562" xlink:href="#DejaVuSans-62"/>
     <use x="722.078125" xlink:href="#DejaVuSans-75"/>
     <use x="785.457031" xlink:href="#DejaVuSans-74"/>
     <use x="824.666016" xlink:href="#DejaVuSans-69"/>
     <use x="852.449219" xlink:href="#DejaVuSans-6f"/>
     <use x="913.630859" xlink:href="#DejaVuSans-6e"/>
     <use x="977.009766" xlink:href="#DejaVuSans-20"/>
     <use x="1008.796875" xlink:href="#DejaVuSans-20"/>
     <use x="1040.583984" xlink:href="#DejaVuSans-31"/>
     <use x="1104.207031" xlink:href="#DejaVuSans-30"/>
     <use x="1167.830078" xlink:href="#DejaVuSans-30"/>
     <use x="1231.453125" xlink:href="#DejaVuSans-30"/>
     <use x="1295.076172" xlink:href="#DejaVuSans-30"/>
     <use x="1358.699219" xlink:href="#DejaVuSans-20"/>
     <use x="1390.486328" xlink:href="#DejaVuSans-73"/>
     <use x="1442.585938" xlink:href="#DejaVuSans-61"/>
     <use x="1503.865234" xlink:href="#DejaVuSans-6d"/>
     <use x="1601.277344" xlink:href="#DejaVuSans-70"/>
     <use x="1664.753906" xlink:href="#DejaVuSans-6c"/>
     <use x="1692.537109" xlink:href="#DejaVuSans-65"/>
     <use x="1754.060547" xlink:href="#DejaVuSans-73"/>
    </g>
   </g>
   <g id="legend_1">
    <g id="patch_57">
     <path d="M 314.996875 77.354062 
L 414.2 77.354062 
Q 416.2 77.354062 416.2 75.354062 
L 416.2 35.8 
Q 416.2 33.8 414.2 33.8 
L 314.996875 33.8 
Q 312.996875 33.8 312.996875 35.8 
L 312.996875 75.354062 
Q 312.996875 77.354062 314.996875 77.354062 
z
" style="fill:#ffffff;opacity:0.8;stroke:#cccccc;stroke-linejoin:miter;"/>
    </g>
    <g id="text_20">
     <!-- normal distribution -->
     <g transform="translate(316.996875 45.398438)scale(0.1 -0.1)">
      <defs>
       <path d="M 2906 2969 
L 2906 4863 
L 3481 4863 
L 3481 0 
L 2906 0 
L 2906 525 
Q 2725 213 2448 61 
Q 2172 -91 1784 -91 
Q 1150 -91 751 415 
Q 353 922 353 1747 
Q 353 2572 751 3078 
Q 1150 3584 1784 3584 
Q 2172 3584 2448 3432 
Q 2725 3281 2906 2969 
z
M 947 1747 
Q 947 1113 1208 752 
Q 1469 391 1925 391 
Q 2381 391 2643 752 
Q 2906 1113 2906 1747 
Q 2906 2381 2643 2742 
Q 2381 3103 1925 3103 
Q 1469 3103 1208 2742 
Q 947 2381 947 1747 
z
" id="DejaVuSans-64" transform="scale(0.015625)"/>
      </defs>
      <use xlink:href="#DejaVuSans-6e"/>
      <use x="63.378906" xlink:href="#DejaVuSans-6f"/>
      <use x="124.560547" xlink:href="#DejaVuSans-72"/>
      <use x="163.923828" xlink:href="#DejaVuSans-6d"/>
      <use x="261.335938" xlink:href="#DejaVuSans-61"/>
      <use x="322.615234" xlink:href="#DejaVuSans-6c"/>
      <use x="350.398438" xlink:href="#DejaVuSans-20"/>
      <use x="382.185547" xlink:href="#DejaVuSans-64"/>
      <use x="445.662109" xlink:href="#DejaVuSans-69"/>
      <use x="473.445312" xlink:href="#DejaVuSans-73"/>
      <use x="525.544922" xlink:href="#DejaVuSans-74"/>
      <use x="564.753906" xlink:href="#DejaVuSans-72"/>
      <use x="605.867188" xlink:href="#DejaVuSans-69"/>
      <use x="633.650391" xlink:href="#DejaVuSans-62"/>
      <use x="697.126953" xlink:href="#DejaVuSans-75"/>
      <use x="760.505859" xlink:href="#DejaVuSans-74"/>
      <use x="799.714844" xlink:href="#DejaVuSans-69"/>
      <use x="827.498047" xlink:href="#DejaVuSans-6f"/>
      <use x="888.679688" xlink:href="#DejaVuSans-6e"/>
     </g>
    </g>
    <g id="patch_58">
     <path d="M 324.271094 66.715312 
L 344.271094 66.715312 
L 344.271094 59.715312 
L 324.271094 59.715312 
z
" style="fill:#1f77b4;"/>
    </g>
    <g id="text_21">
     <!-- mu: 5 -->
     <g transform="translate(352.271094 60.076562)scale(0.1 -0.1)">
      <defs>
       <path d="M 750 794 
L 1409 794 
L 1409 0 
L 750 0 
L 750 794 
z
M 750 3309 
L 1409 3309 
L 1409 2516 
L 750 2516 
L 750 3309 
z
" id="DejaVuSans-3a" transform="scale(0.015625)"/>
      </defs>
      <use xlink:href="#DejaVuSans-6d"/>
      <use x="97.412109" xlink:href="#DejaVuSans-75"/>
      <use x="160.791016" xlink:href="#DejaVuSans-3a"/>
      <use x="194.482422" xlink:href="#DejaVuSans-20"/>
      <use x="226.269531" xlink:href="#DejaVuSans-35"/>
     </g>
     <!-- sigma: 0.5 -->
     <g transform="translate(352.271094 71.274375)scale(0.1 -0.1)">
      <defs>
       <path d="M 2906 1791 
Q 2906 2416 2648 2759 
Q 2391 3103 1925 3103 
Q 1463 3103 1205 2759 
Q 947 2416 947 1791 
Q 947 1169 1205 825 
Q 1463 481 1925 481 
Q 2391 481 2648 825 
Q 2906 1169 2906 1791 
z
M 3481 434 
Q 3481 -459 3084 -895 
Q 2688 -1331 1869 -1331 
Q 1566 -1331 1297 -1286 
Q 1028 -1241 775 -1147 
L 775 -588 
Q 1028 -725 1275 -790 
Q 1522 -856 1778 -856 
Q 2344 -856 2625 -561 
Q 2906 -266 2906 331 
L 2906 616 
Q 2728 306 2450 153 
Q 2172 0 1784 0 
Q 1141 0 747 490 
Q 353 981 353 1791 
Q 353 2603 747 3093 
Q 1141 3584 1784 3584 
Q 2172 3584 2450 3431 
Q 2728 3278 2906 2969 
L 2906 3500 
L 3481 3500 
L 3481 434 
z
" id="DejaVuSans-67" transform="scale(0.015625)"/>
      </defs>
      <use xlink:href="#DejaVuSans-73"/>
      <use x="52.099609" xlink:href="#DejaVuSans-69"/>
      <use x="79.882812" xlink:href="#DejaVuSans-67"/>
      <use x="143.359375" xlink:href="#DejaVuSans-6d"/>
      <use x="240.771484" xlink:href="#DejaVuSans-61"/>
      <use x="302.050781" xlink:href="#DejaVuSans-3a"/>
      <use x="335.742188" xlink:href="#DejaVuSans-20"/>
      <use x="367.529297" xlink:href="#DejaVuSans-30"/>
      <use x="431.152344" xlink:href="#DejaVuSans-2e"/>
      <use x="462.939453" xlink:href="#DejaVuSans-35"/>
     </g>
    </g>
   </g>
  </g>
  <g id="axes_2">
   <g id="patch_59">
    <path d="M 60.3 531.2 
L 421.2 531.2 
L 421.2 320.1 
L 60.3 320.1 
z
" style="fill:#ffffff;"/>
   </g>
   <g id="patch_60">
    <path clip-path="url(#pb482585de6)" d="M 76.704545 531.2 
L 83.266364 531.2 
L 83.266364 518.531697 
L 76.704545 518.531697 
z
" style="fill:#1f77b4;"/>
   </g>
   <g id="patch_61">
    <path clip-path="url(#pb482585de6)" d="M 83.266364 531.2 
L 89.828182 531.2 
L 89.828182 471.313475 
L 83.266364 471.313475 
z
" style="fill:#1f77b4;"/>
   </g>
   <g id="patch_62">
    <path clip-path="url(#pb482585de6)" d="M 89.828182 531.2 
L 96.39 531.2 
L 96.39 390.861523 
L 89.828182 390.861523 
z
" style="fill:#1f77b4;"/>
   </g>
   <g id="patch_63">
    <path clip-path="url(#pb482585de6)" d="M 96.39 531.2 
L 102.951818 531.2 
L 102.951818 343.972348 
L 96.39 343.972348 
z
" style="fill:#1f77b4;"/>
   </g>
   <g id="patch_64">
    <path clip-path="url(#pb482585de6)" d="M 102.951818 531.2 
L 109.513636 531.2 
L 109.513636 330.152381 
L 102.951818 330.152381 
z
" style="fill:#1f77b4;"/>
   </g>
   <g id="patch_65">
    <path clip-path="url(#pb482585de6)" d="M 109.513636 531.2 
L 116.075455 531.2 
L 116.075455 337.555935 
L 109.513636 337.555935 
z
" style="fill:#1f77b4;"/>
   </g>
   <g id="patch_66">
    <path clip-path="url(#pb482585de6)" d="M 116.075455 531.2 
L 122.637273 531.2 
L 122.637273 357.298745 
L 116.075455 357.298745 
z
" style="fill:#1f77b4;"/>
   </g>
   <g id="patch_67">
    <path clip-path="url(#pb482585de6)" d="M 122.637273 531.2 
L 129.199091 531.2 
L 129.199091 393.987468 
L 122.637273 393.987468 
z
" style="fill:#1f77b4;"/>
   </g>
   <g id="patch_68">
    <path clip-path="url(#pb482585de6)" d="M 129.199091 531.2 
L 135.760909 531.2 
L 135.760909 415.704559 
L 129.199091 415.704559 
z
" style="fill:#1f77b4;"/>
   </g>
   <g id="patch_69">
    <path clip-path="url(#pb482585de6)" d="M 135.760909 531.2 
L 142.322727 531.2 
L 142.322727 432.979518 
L 135.760909 432.979518 
z
" style="fill:#1f77b4;"/>
   </g>
   <g id="patch_70">
    <path clip-path="url(#pb482585de6)" d="M 142.322727 531.2 
L 148.884545 531.2 
L 148.884545 455.025657 
L 142.322727 455.025657 
z
" style="fill:#1f77b4;"/>
   </g>
   <g id="patch_71">
    <path clip-path="url(#pb482585de6)" d="M 148.884545 531.2 
L 155.446364 531.2 
L 155.446364 476.907271 
L 148.884545 476.907271 
z
" style="fill:#1f77b4;"/>
   </g>
   <g id="patch_72">
    <path clip-path="url(#pb482585de6)" d="M 155.446364 531.2 
L 162.008182 531.2 
L 162.008182 485.297966 
L 155.446364 485.297966 
z
" style="fill:#1f77b4;"/>
   </g>
   <g id="patch_73">
    <path clip-path="url(#pb482585de6)" d="M 162.008182 531.2 
L 168.57 531.2 
L 168.57 493.68866 
L 162.008182 493.68866 
z
" style="fill:#1f77b4;"/>
   </g>
   <g id="patch_74">
    <path clip-path="url(#pb482585de6)" d="M 168.57 531.2 
L 175.131818 531.2 
L 175.131818 505.040776 
L 168.57 505.040776 
z
" style="fill:#1f77b4;"/>
   </g>
   <g id="patch_75">
    <path clip-path="url(#pb482585de6)" d="M 175.131818 531.2 
L 181.693636 531.2 
L 181.693636 513.266947 
L 175.131818 513.266947 
z
" style="fill:#1f77b4;"/>
   </g>
   <g id="patch_76">
    <path clip-path="url(#pb482585de6)" d="M 181.693636 531.2 
L 188.255455 531.2 
L 188.255455 515.076705 
L 181.693636 515.076705 
z
" style="fill:#1f77b4;"/>
   </g>
   <g id="patch_77">
    <path clip-path="url(#pb482585de6)" d="M 188.255455 531.2 
L 194.817273 531.2 
L 194.817273 519.354314 
L 188.255455 519.354314 
z
" style="fill:#1f77b4;"/>
   </g>
   <g id="patch_78">
    <path clip-path="url(#pb482585de6)" d="M 194.817273 531.2 
L 201.379091 531.2 
L 201.379091 524.94811 
L 194.817273 524.94811 
z
" style="fill:#1f77b4;"/>
   </g>
   <g id="patch_79">
    <path clip-path="url(#pb482585de6)" d="M 201.379091 531.2 
L 207.940909 531.2 
L 207.940909 527.086915 
L 201.379091 527.086915 
z
" style="fill:#1f77b4;"/>
   </g>
   <g id="patch_80">
    <path clip-path="url(#pb482585de6)" d="M 207.940909 531.2 
L 214.502727 531.2 
L 214.502727 523.96097 
L 207.940909 523.96097 
z
" style="fill:#1f77b4;"/>
   </g>
   <g id="patch_81">
    <path clip-path="url(#pb482585de6)" d="M 214.502727 531.2 
L 221.064545 531.2 
L 221.064545 525.277157 
L 214.502727 525.277157 
z
" style="fill:#1f77b4;"/>
   </g>
   <g id="patch_82">
    <path clip-path="url(#pb482585de6)" d="M 221.064545 531.2 
L 227.626364 531.2 
L 227.626364 527.580485 
L 221.064545 527.580485 
z
" style="fill:#1f77b4;"/>
   </g>
   <g id="patch_83">
    <path clip-path="url(#pb482585de6)" d="M 227.626364 531.2 
L 234.188182 531.2 
L 234.188182 528.732149 
L 227.626364 528.732149 
z
" style="fill:#1f77b4;"/>
   </g>
   <g id="patch_84">
    <path clip-path="url(#pb482585de6)" d="M 234.188182 531.2 
L 240.75 531.2 
L 240.75 528.896672 
L 234.188182 528.896672 
z
" style="fill:#1f77b4;"/>
   </g>
   <g id="patch_85">
    <path clip-path="url(#pb482585de6)" d="M 240.75 531.2 
L 247.311818 531.2 
L 247.311818 529.390242 
L 240.75 529.390242 
z
" style="fill:#1f77b4;"/>
   </g>
   <g id="patch_86">
    <path clip-path="url(#pb482585de6)" d="M 247.311818 531.2 
L 253.873636 531.2 
L 253.873636 529.883813 
L 247.311818 529.883813 
z
" style="fill:#1f77b4;"/>
   </g>
   <g id="patch_87">
    <path clip-path="url(#pb482585de6)" d="M 253.873636 531.2 
L 260.435455 531.2 
L 260.435455 530.870953 
L 253.873636 530.870953 
z
" style="fill:#1f77b4;"/>
   </g>
   <g id="patch_88">
    <path clip-path="url(#pb482585de6)" d="M 260.435455 531.2 
L 266.997273 531.2 
L 266.997273 529.883813 
L 260.435455 529.883813 
z
" style="fill:#1f77b4;"/>
   </g>
   <g id="patch_89">
    <path clip-path="url(#pb482585de6)" d="M 266.997273 531.2 
L 273.559091 531.2 
L 273.559091 530.70643 
L 266.997273 530.70643 
z
" style="fill:#1f77b4;"/>
   </g>
   <g id="patch_90">
    <path clip-path="url(#pb482585de6)" d="M 273.559091 531.2 
L 280.120909 531.2 
L 280.120909 530.70643 
L 273.559091 530.70643 
z
" style="fill:#1f77b4;"/>
   </g>
   <g id="patch_91">
    <path clip-path="url(#pb482585de6)" d="M 280.120909 531.2 
L 286.682727 531.2 
L 286.682727 531.2 
L 280.120909 531.2 
z
" style="fill:#1f77b4;"/>
   </g>
   <g id="patch_92">
    <path clip-path="url(#pb482585de6)" d="M 286.682727 531.2 
L 293.244545 531.2 
L 293.244545 531.035477 
L 286.682727 531.035477 
z
" style="fill:#1f77b4;"/>
   </g>
   <g id="patch_93">
    <path clip-path="url(#pb482585de6)" d="M 293.244545 531.2 
L 299.806364 531.2 
L 299.806364 531.035477 
L 293.244545 531.035477 
z
" style="fill:#1f77b4;"/>
   </g>
   <g id="patch_94">
    <path clip-path="url(#pb482585de6)" d="M 299.806364 531.2 
L 306.368182 531.2 
L 306.368182 530.70643 
L 299.806364 530.70643 
z
" style="fill:#1f77b4;"/>
   </g>
   <g id="patch_95">
    <path clip-path="url(#pb482585de6)" d="M 306.368182 531.2 
L 312.93 531.2 
L 312.93 531.035477 
L 306.368182 531.035477 
z
" style="fill:#1f77b4;"/>
   </g>
   <g id="patch_96">
    <path clip-path="url(#pb482585de6)" d="M 312.93 531.2 
L 319.491818 531.2 
L 319.491818 531.035477 
L 312.93 531.035477 
z
" style="fill:#1f77b4;"/>
   </g>
   <g id="patch_97">
    <path clip-path="url(#pb482585de6)" d="M 319.491818 531.2 
L 326.053636 531.2 
L 326.053636 531.035477 
L 319.491818 531.035477 
z
" style="fill:#1f77b4;"/>
   </g>
   <g id="patch_98">
    <path clip-path="url(#pb482585de6)" d="M 326.053636 531.2 
L 332.615455 531.2 
L 332.615455 531.2 
L 326.053636 531.2 
z
" style="fill:#1f77b4;"/>
   </g>
   <g id="patch_99">
    <path clip-path="url(#pb482585de6)" d="M 332.615455 531.2 
L 339.177273 531.2 
L 339.177273 531.035477 
L 332.615455 531.035477 
z
" style="fill:#1f77b4;"/>
   </g>
   <g id="patch_100">
    <path clip-path="url(#pb482585de6)" d="M 339.177273 531.2 
L 345.739091 531.2 
L 345.739091 531.2 
L 339.177273 531.2 
z
" style="fill:#1f77b4;"/>
   </g>
   <g id="patch_101">
    <path clip-path="url(#pb482585de6)" d="M 345.739091 531.2 
L 352.300909 531.2 
L 352.300909 531.035477 
L 345.739091 531.035477 
z
" style="fill:#1f77b4;"/>
   </g>
   <g id="patch_102">
    <path clip-path="url(#pb482585de6)" d="M 352.300909 531.2 
L 358.862727 531.2 
L 358.862727 531.2 
L 352.300909 531.2 
z
" style="fill:#1f77b4;"/>
   </g>
   <g id="patch_103">
    <path clip-path="url(#pb482585de6)" d="M 358.862727 531.2 
L 365.424545 531.2 
L 365.424545 531.2 
L 358.862727 531.2 
z
" style="fill:#1f77b4;"/>
   </g>
   <g id="patch_104">
    <path clip-path="url(#pb482585de6)" d="M 365.424545 531.2 
L 371.986364 531.2 
L 371.986364 531.2 
L 365.424545 531.2 
z
" style="fill:#1f77b4;"/>
   </g>
   <g id="patch_105">
    <path clip-path="url(#pb482585de6)" d="M 371.986364 531.2 
L 378.548182 531.2 
L 378.548182 531.2 
L 371.986364 531.2 
z
" style="fill:#1f77b4;"/>
   </g>
   <g id="patch_106">
    <path clip-path="url(#pb482585de6)" d="M 378.548182 531.2 
L 385.11 531.2 
L 385.11 531.2 
L 378.548182 531.2 
z
" style="fill:#1f77b4;"/>
   </g>
   <g id="patch_107">
    <path clip-path="url(#pb482585de6)" d="M 385.11 531.2 
L 391.671818 531.2 
L 391.671818 531.2 
L 385.11 531.2 
z
" style="fill:#1f77b4;"/>
   </g>
   <g id="patch_108">
    <path clip-path="url(#pb482585de6)" d="M 391.671818 531.2 
L 398.233636 531.2 
L 398.233636 531.2 
L 391.671818 531.2 
z
" style="fill:#1f77b4;"/>
   </g>
   <g id="patch_109">
    <path clip-path="url(#pb482585de6)" d="M 398.233636 531.2 
L 404.795455 531.2 
L 404.795455 530.870953 
L 398.233636 530.870953 
z
" style="fill:#1f77b4;"/>
   </g>
   <g id="matplotlib.axis_3">
    <g id="xtick_10">
     <g id="line2d_33">
      <path clip-path="url(#pb482585de6)" d="M 69.878057 531.2 
L 69.878057 320.1 
" style="fill:none;stroke:#b0b0b0;stroke-linecap:square;stroke-width:0.8;"/>
     </g>
     <g id="line2d_34">
      <g>
       <use style="stroke:#000000;stroke-width:0.8;" x="69.878057" xlink:href="#mad7f1d12c7" y="531.2"/>
      </g>
     </g>
     <g id="text_22">
      <!-- 0 -->
      <g transform="translate(66.696807 545.798437)scale(0.1 -0.1)">
       <use xlink:href="#DejaVuSans-30"/>
      </g>
     </g>
    </g>
    <g id="xtick_11">
     <g id="line2d_35">
      <path clip-path="url(#pb482585de6)" d="M 133.297959 531.2 
L 133.297959 320.1 
" style="fill:none;stroke:#b0b0b0;stroke-linecap:square;stroke-width:0.8;"/>
     </g>
     <g id="line2d_36">
      <g>
       <use style="stroke:#000000;stroke-width:0.8;" x="133.297959" xlink:href="#mad7f1d12c7" y="531.2"/>
      </g>
     </g>
     <g id="text_23">
      <!-- 200 -->
      <g transform="translate(123.754209 545.798437)scale(0.1 -0.1)">
       <use xlink:href="#DejaVuSans-32"/>
       <use x="63.623047" xlink:href="#DejaVuSans-30"/>
       <use x="127.246094" xlink:href="#DejaVuSans-30"/>
      </g>
     </g>
    </g>
    <g id="xtick_12">
     <g id="line2d_37">
      <path clip-path="url(#pb482585de6)" d="M 196.717861 531.2 
L 196.717861 320.1 
" style="fill:none;stroke:#b0b0b0;stroke-linecap:square;stroke-width:0.8;"/>
     </g>
     <g id="line2d_38">
      <g>
       <use style="stroke:#000000;stroke-width:0.8;" x="196.717861" xlink:href="#mad7f1d12c7" y="531.2"/>
      </g>
     </g>
     <g id="text_24">
      <!-- 400 -->
      <g transform="translate(187.174111 545.798437)scale(0.1 -0.1)">
       <use xlink:href="#DejaVuSans-34"/>
       <use x="63.623047" xlink:href="#DejaVuSans-30"/>
       <use x="127.246094" xlink:href="#DejaVuSans-30"/>
      </g>
     </g>
    </g>
    <g id="xtick_13">
     <g id="line2d_39">
      <path clip-path="url(#pb482585de6)" d="M 260.137763 531.2 
L 260.137763 320.1 
" style="fill:none;stroke:#b0b0b0;stroke-linecap:square;stroke-width:0.8;"/>
     </g>
     <g id="line2d_40">
      <g>
       <use style="stroke:#000000;stroke-width:0.8;" x="260.137763" xlink:href="#mad7f1d12c7" y="531.2"/>
      </g>
     </g>
     <g id="text_25">
      <!-- 600 -->
      <g transform="translate(250.594013 545.798437)scale(0.1 -0.1)">
       <use xlink:href="#DejaVuSans-36"/>
       <use x="63.623047" xlink:href="#DejaVuSans-30"/>
       <use x="127.246094" xlink:href="#DejaVuSans-30"/>
      </g>
     </g>
    </g>
    <g id="xtick_14">
     <g id="line2d_41">
      <path clip-path="url(#pb482585de6)" d="M 323.557664 531.2 
L 323.557664 320.1 
" style="fill:none;stroke:#b0b0b0;stroke-linecap:square;stroke-width:0.8;"/>
     </g>
     <g id="line2d_42">
      <g>
       <use style="stroke:#000000;stroke-width:0.8;" x="323.557664" xlink:href="#mad7f1d12c7" y="531.2"/>
      </g>
     </g>
     <g id="text_26">
      <!-- 800 -->
      <g transform="translate(314.013914 545.798437)scale(0.1 -0.1)">
       <defs>
        <path d="M 2034 2216 
Q 1584 2216 1326 1975 
Q 1069 1734 1069 1313 
Q 1069 891 1326 650 
Q 1584 409 2034 409 
Q 2484 409 2743 651 
Q 3003 894 3003 1313 
Q 3003 1734 2745 1975 
Q 2488 2216 2034 2216 
z
M 1403 2484 
Q 997 2584 770 2862 
Q 544 3141 544 3541 
Q 544 4100 942 4425 
Q 1341 4750 2034 4750 
Q 2731 4750 3128 4425 
Q 3525 4100 3525 3541 
Q 3525 3141 3298 2862 
Q 3072 2584 2669 2484 
Q 3125 2378 3379 2068 
Q 3634 1759 3634 1313 
Q 3634 634 3220 271 
Q 2806 -91 2034 -91 
Q 1263 -91 848 271 
Q 434 634 434 1313 
Q 434 1759 690 2068 
Q 947 2378 1403 2484 
z
M 1172 3481 
Q 1172 3119 1398 2916 
Q 1625 2713 2034 2713 
Q 2441 2713 2670 2916 
Q 2900 3119 2900 3481 
Q 2900 3844 2670 4047 
Q 2441 4250 2034 4250 
Q 1625 4250 1398 4047 
Q 1172 3844 1172 3481 
z
" id="DejaVuSans-38" transform="scale(0.015625)"/>
       </defs>
       <use xlink:href="#DejaVuSans-38"/>
       <use x="63.623047" xlink:href="#DejaVuSans-30"/>
       <use x="127.246094" xlink:href="#DejaVuSans-30"/>
      </g>
     </g>
    </g>
    <g id="xtick_15">
     <g id="line2d_43">
      <path clip-path="url(#pb482585de6)" d="M 386.977566 531.2 
L 386.977566 320.1 
" style="fill:none;stroke:#b0b0b0;stroke-linecap:square;stroke-width:0.8;"/>
     </g>
     <g id="line2d_44">
      <g>
       <use style="stroke:#000000;stroke-width:0.8;" x="386.977566" xlink:href="#mad7f1d12c7" y="531.2"/>
      </g>
     </g>
     <g id="text_27">
      <!-- 1000 -->
      <g transform="translate(374.252566 545.798437)scale(0.1 -0.1)">
       <use xlink:href="#DejaVuSans-31"/>
       <use x="63.623047" xlink:href="#DejaVuSans-30"/>
       <use x="127.246094" xlink:href="#DejaVuSans-30"/>
       <use x="190.869141" xlink:href="#DejaVuSans-30"/>
      </g>
     </g>
    </g>
    <g id="text_28">
     <!-- value -->
     <g transform="translate(224.360625 560.99625)scale(0.12 -0.12)">
      <use xlink:href="#DejaVuSans-76"/>
      <use x="59.179688" xlink:href="#DejaVuSans-61"/>
      <use x="120.458984" xlink:href="#DejaVuSans-6c"/>
      <use x="148.242188" xlink:href="#DejaVuSans-75"/>
      <use x="211.621094" xlink:href="#DejaVuSans-65"/>
     </g>
    </g>
   </g>
   <g id="matplotlib.axis_4">
    <g id="ytick_8">
     <g id="line2d_45">
      <path clip-path="url(#pb482585de6)" d="M 60.3 531.2 
L 421.2 531.2 
" style="fill:none;stroke:#b0b0b0;stroke-linecap:square;stroke-width:0.8;"/>
     </g>
     <g id="line2d_46">
      <g>
       <use style="stroke:#000000;stroke-width:0.8;" x="60.3" xlink:href="#m95245f59ce" y="531.2"/>
      </g>
     </g>
     <g id="text_29">
      <!-- 0 -->
      <g transform="translate(46.9375 534.999219)scale(0.1 -0.1)">
       <use xlink:href="#DejaVuSans-30"/>
      </g>
     </g>
    </g>
    <g id="ytick_9">
     <g id="line2d_47">
      <path clip-path="url(#pb482585de6)" d="M 60.3 498.295316 
L 421.2 498.295316 
" style="fill:none;stroke:#b0b0b0;stroke-linecap:square;stroke-width:0.8;"/>
     </g>
     <g id="line2d_48">
      <g>
       <use style="stroke:#000000;stroke-width:0.8;" x="60.3" xlink:href="#m95245f59ce" y="498.295316"/>
      </g>
     </g>
     <g id="text_30">
      <!-- 200 -->
      <g transform="translate(34.2125 502.094535)scale(0.1 -0.1)">
       <use xlink:href="#DejaVuSans-32"/>
       <use x="63.623047" xlink:href="#DejaVuSans-30"/>
       <use x="127.246094" xlink:href="#DejaVuSans-30"/>
      </g>
     </g>
    </g>
    <g id="ytick_10">
     <g id="line2d_49">
      <path clip-path="url(#pb482585de6)" d="M 60.3 465.390632 
L 421.2 465.390632 
" style="fill:none;stroke:#b0b0b0;stroke-linecap:square;stroke-width:0.8;"/>
     </g>
     <g id="line2d_50">
      <g>
       <use style="stroke:#000000;stroke-width:0.8;" x="60.3" xlink:href="#m95245f59ce" y="465.390632"/>
      </g>
     </g>
     <g id="text_31">
      <!-- 400 -->
      <g transform="translate(34.2125 469.189851)scale(0.1 -0.1)">
       <use xlink:href="#DejaVuSans-34"/>
       <use x="63.623047" xlink:href="#DejaVuSans-30"/>
       <use x="127.246094" xlink:href="#DejaVuSans-30"/>
      </g>
     </g>
    </g>
    <g id="ytick_11">
     <g id="line2d_51">
      <path clip-path="url(#pb482585de6)" d="M 60.3 432.485948 
L 421.2 432.485948 
" style="fill:none;stroke:#b0b0b0;stroke-linecap:square;stroke-width:0.8;"/>
     </g>
     <g id="line2d_52">
      <g>
       <use style="stroke:#000000;stroke-width:0.8;" x="60.3" xlink:href="#m95245f59ce" y="432.485948"/>
      </g>
     </g>
     <g id="text_32">
      <!-- 600 -->
      <g transform="translate(34.2125 436.285167)scale(0.1 -0.1)">
       <use xlink:href="#DejaVuSans-36"/>
       <use x="63.623047" xlink:href="#DejaVuSans-30"/>
       <use x="127.246094" xlink:href="#DejaVuSans-30"/>
      </g>
     </g>
    </g>
    <g id="ytick_12">
     <g id="line2d_53">
      <path clip-path="url(#pb482585de6)" d="M 60.3 399.581264 
L 421.2 399.581264 
" style="fill:none;stroke:#b0b0b0;stroke-linecap:square;stroke-width:0.8;"/>
     </g>
     <g id="line2d_54">
      <g>
       <use style="stroke:#000000;stroke-width:0.8;" x="60.3" xlink:href="#m95245f59ce" y="399.581264"/>
      </g>
     </g>
     <g id="text_33">
      <!-- 800 -->
      <g transform="translate(34.2125 403.380483)scale(0.1 -0.1)">
       <use xlink:href="#DejaVuSans-38"/>
       <use x="63.623047" xlink:href="#DejaVuSans-30"/>
       <use x="127.246094" xlink:href="#DejaVuSans-30"/>
      </g>
     </g>
    </g>
    <g id="ytick_13">
     <g id="line2d_55">
      <path clip-path="url(#pb482585de6)" d="M 60.3 366.67658 
L 421.2 366.67658 
" style="fill:none;stroke:#b0b0b0;stroke-linecap:square;stroke-width:0.8;"/>
     </g>
     <g id="line2d_56">
      <g>
       <use style="stroke:#000000;stroke-width:0.8;" x="60.3" xlink:href="#m95245f59ce" y="366.67658"/>
      </g>
     </g>
     <g id="text_34">
      <!-- 1000 -->
      <g transform="translate(27.85 370.475799)scale(0.1 -0.1)">
       <use xlink:href="#DejaVuSans-31"/>
       <use x="63.623047" xlink:href="#DejaVuSans-30"/>
       <use x="127.246094" xlink:href="#DejaVuSans-30"/>
       <use x="190.869141" xlink:href="#DejaVuSans-30"/>
      </g>
     </g>
    </g>
    <g id="ytick_14">
     <g id="line2d_57">
      <path clip-path="url(#pb482585de6)" d="M 60.3 333.771896 
L 421.2 333.771896 
" style="fill:none;stroke:#b0b0b0;stroke-linecap:square;stroke-width:0.8;"/>
     </g>
     <g id="line2d_58">
      <g>
       <use style="stroke:#000000;stroke-width:0.8;" x="60.3" xlink:href="#m95245f59ce" y="333.771896"/>
      </g>
     </g>
     <g id="text_35">
      <!-- 1200 -->
      <g transform="translate(27.85 337.571115)scale(0.1 -0.1)">
       <use xlink:href="#DejaVuSans-31"/>
       <use x="63.623047" xlink:href="#DejaVuSans-32"/>
       <use x="127.246094" xlink:href="#DejaVuSans-30"/>
       <use x="190.869141" xlink:href="#DejaVuSans-30"/>
      </g>
     </g>
    </g>
    <g id="text_36">
     <!-- number of occurences -->
     <g transform="translate(21.354375 492.678437)rotate(-90)scale(0.12 -0.12)">
      <use xlink:href="#DejaVuSans-6e"/>
      <use x="63.378906" xlink:href="#DejaVuSans-75"/>
      <use x="126.757812" xlink:href="#DejaVuSans-6d"/>
      <use x="224.169922" xlink:href="#DejaVuSans-62"/>
      <use x="287.646484" xlink:href="#DejaVuSans-65"/>
      <use x="349.169922" xlink:href="#DejaVuSans-72"/>
      <use x="390.283203" xlink:href="#DejaVuSans-20"/>
      <use x="422.070312" xlink:href="#DejaVuSans-6f"/>
      <use x="483.251953" xlink:href="#DejaVuSans-66"/>
      <use x="518.457031" xlink:href="#DejaVuSans-20"/>
      <use x="550.244141" xlink:href="#DejaVuSans-6f"/>
      <use x="611.425781" xlink:href="#DejaVuSans-63"/>
      <use x="666.40625" xlink:href="#DejaVuSans-63"/>
      <use x="721.386719" xlink:href="#DejaVuSans-75"/>
      <use x="784.765625" xlink:href="#DejaVuSans-72"/>
      <use x="823.628906" xlink:href="#DejaVuSans-65"/>
      <use x="885.152344" xlink:href="#DejaVuSans-6e"/>
      <use x="948.53125" xlink:href="#DejaVuSans-63"/>
      <use x="1003.511719" xlink:href="#DejaVuSans-65"/>
      <use x="1065.035156" xlink:href="#DejaVuSans-73"/>
     </g>
    </g>
   </g>
   <g id="patch_110">
    <path d="M 60.3 531.2 
L 60.3 320.1 
" style="fill:none;stroke:#000000;stroke-linecap:square;stroke-linejoin:miter;stroke-width:0.8;"/>
   </g>
   <g id="patch_111">
    <path d="M 421.2 531.2 
L 421.2 320.1 
" style="fill:none;stroke:#000000;stroke-linecap:square;stroke-linejoin:miter;stroke-width:0.8;"/>
   </g>
   <g id="patch_112">
    <path d="M 60.3 531.2 
L 421.2 531.2 
" style="fill:none;stroke:#000000;stroke-linecap:square;stroke-linejoin:miter;stroke-width:0.8;"/>
   </g>
   <g id="patch_113">
    <path d="M 60.3 320.1 
L 421.2 320.1 
" style="fill:none;stroke:#000000;stroke-linecap:square;stroke-linejoin:miter;stroke-width:0.8;"/>
   </g>
   <g id="text_37">
    <!-- exp(distribution)  10000 samples -->
    <g transform="translate(116.288672 297.303281)scale(0.15 -0.15)">
     <defs>
      <path d="M 3513 3500 
L 2247 1797 
L 3578 0 
L 2900 0 
L 1881 1375 
L 863 0 
L 184 0 
L 1544 1831 
L 300 3500 
L 978 3500 
L 1906 2253 
L 2834 3500 
L 3513 3500 
z
" id="DejaVuSans-78" transform="scale(0.015625)"/>
      <path d="M 1984 4856 
Q 1566 4138 1362 3434 
Q 1159 2731 1159 2009 
Q 1159 1288 1364 580 
Q 1569 -128 1984 -844 
L 1484 -844 
Q 1016 -109 783 600 
Q 550 1309 550 2009 
Q 550 2706 781 3412 
Q 1013 4119 1484 4856 
L 1984 4856 
z
" id="DejaVuSans-28" transform="scale(0.015625)"/>
      <path d="M 513 4856 
L 1013 4856 
Q 1481 4119 1714 3412 
Q 1947 2706 1947 2009 
Q 1947 1309 1714 600 
Q 1481 -109 1013 -844 
L 513 -844 
Q 928 -128 1133 580 
Q 1338 1288 1338 2009 
Q 1338 2731 1133 3434 
Q 928 4138 513 4856 
z
" id="DejaVuSans-29" transform="scale(0.015625)"/>
     </defs>
     <use xlink:href="#DejaVuSans-65"/>
     <use x="59.773438" xlink:href="#DejaVuSans-78"/>
     <use x="118.953125" xlink:href="#DejaVuSans-70"/>
     <use x="182.429688" xlink:href="#DejaVuSans-28"/>
     <use x="221.443359" xlink:href="#DejaVuSans-64"/>
     <use x="284.919922" xlink:href="#DejaVuSans-69"/>
     <use x="312.703125" xlink:href="#DejaVuSans-73"/>
     <use x="364.802734" xlink:href="#DejaVuSans-74"/>
     <use x="404.011719" xlink:href="#DejaVuSans-72"/>
     <use x="445.125" xlink:href="#DejaVuSans-69"/>
     <use x="472.908203" xlink:href="#DejaVuSans-62"/>
     <use x="536.384766" xlink:href="#DejaVuSans-75"/>
     <use x="599.763672" xlink:href="#DejaVuSans-74"/>
     <use x="638.972656" xlink:href="#DejaVuSans-69"/>
     <use x="666.755859" xlink:href="#DejaVuSans-6f"/>
     <use x="727.9375" xlink:href="#DejaVuSans-6e"/>
     <use x="791.316406" xlink:href="#DejaVuSans-29"/>
     <use x="830.330078" xlink:href="#DejaVuSans-20"/>
     <use x="862.117188" xlink:href="#DejaVuSans-20"/>
     <use x="893.904297" xlink:href="#DejaVuSans-31"/>
     <use x="957.527344" xlink:href="#DejaVuSans-30"/>
     <use x="1021.150391" xlink:href="#DejaVuSans-30"/>
     <use x="1084.773438" xlink:href="#DejaVuSans-30"/>
     <use x="1148.396484" xlink:href="#DejaVuSans-30"/>
     <use x="1212.019531" xlink:href="#DejaVuSans-20"/>
     <use x="1243.806641" xlink:href="#DejaVuSans-73"/>
     <use x="1295.90625" xlink:href="#DejaVuSans-61"/>
     <use x="1357.185547" xlink:href="#DejaVuSans-6d"/>
     <use x="1454.597656" xlink:href="#DejaVuSans-70"/>
     <use x="1518.074219" xlink:href="#DejaVuSans-6c"/>
     <use x="1545.857422" xlink:href="#DejaVuSans-65"/>
     <use x="1607.380859" xlink:href="#DejaVuSans-73"/>
    </g>
    <!-- Lognormal Distribution -->
    <g transform="translate(154.935938 314.1)scale(0.15 -0.15)">
     <defs>
      <path d="M 628 4666 
L 1259 4666 
L 1259 531 
L 3531 531 
L 3531 0 
L 628 0 
L 628 4666 
z
" id="DejaVuSans-4c" transform="scale(0.015625)"/>
     </defs>
     <use xlink:href="#DejaVuSans-4c"/>
     <use x="53.962891" xlink:href="#DejaVuSans-6f"/>
     <use x="115.144531" xlink:href="#DejaVuSans-67"/>
     <use x="178.621094" xlink:href="#DejaVuSans-6e"/>
     <use x="242" xlink:href="#DejaVuSans-6f"/>
     <use x="303.181641" xlink:href="#DejaVuSans-72"/>
     <use x="342.544922" xlink:href="#DejaVuSans-6d"/>
     <use x="439.957031" xlink:href="#DejaVuSans-61"/>
     <use x="501.236328" xlink:href="#DejaVuSans-6c"/>
     <use x="529.019531" xlink:href="#DejaVuSans-20"/>
     <use x="560.806641" xlink:href="#DejaVuSans-44"/>
     <use x="637.808594" xlink:href="#DejaVuSans-69"/>
     <use x="665.591797" xlink:href="#DejaVuSans-73"/>
     <use x="717.691406" xlink:href="#DejaVuSans-74"/>
     <use x="756.900391" xlink:href="#DejaVuSans-72"/>
     <use x="798.013672" xlink:href="#DejaVuSans-69"/>
     <use x="825.796875" xlink:href="#DejaVuSans-62"/>
     <use x="889.273438" xlink:href="#DejaVuSans-75"/>
     <use x="952.652344" xlink:href="#DejaVuSans-74"/>
     <use x="991.861328" xlink:href="#DejaVuSans-69"/>
     <use x="1019.644531" xlink:href="#DejaVuSans-6f"/>
     <use x="1080.826172" xlink:href="#DejaVuSans-6e"/>
    </g>
   </g>
   <g id="legend_2">
    <g id="patch_114">
     <path d="M 294.615625 391.049687 
L 414.2 391.049687 
Q 416.2 391.049687 416.2 389.049687 
L 416.2 327.1 
Q 416.2 325.1 414.2 325.1 
L 294.615625 325.1 
Q 292.615625 325.1 292.615625 327.1 
L 292.615625 389.049687 
Q 292.615625 391.049687 294.615625 391.049687 
z
" style="fill:#ffffff;opacity:0.8;stroke:#cccccc;stroke-linejoin:miter;"/>
    </g>
    <g id="text_38">
     <!-- lognormal distribution -->
     <g transform="translate(299.183594 336.698437)scale(0.1 -0.1)">
      <use xlink:href="#DejaVuSans-6c"/>
      <use x="27.783203" xlink:href="#DejaVuSans-6f"/>
      <use x="88.964844" xlink:href="#DejaVuSans-67"/>
      <use x="152.441406" xlink:href="#DejaVuSans-6e"/>
      <use x="215.820312" xlink:href="#DejaVuSans-6f"/>
      <use x="277.001953" xlink:href="#DejaVuSans-72"/>
      <use x="316.365234" xlink:href="#DejaVuSans-6d"/>
      <use x="413.777344" xlink:href="#DejaVuSans-61"/>
      <use x="475.056641" xlink:href="#DejaVuSans-6c"/>
      <use x="502.839844" xlink:href="#DejaVuSans-20"/>
      <use x="534.626953" xlink:href="#DejaVuSans-64"/>
      <use x="598.103516" xlink:href="#DejaVuSans-69"/>
      <use x="625.886719" xlink:href="#DejaVuSans-73"/>
      <use x="677.986328" xlink:href="#DejaVuSans-74"/>
      <use x="717.195312" xlink:href="#DejaVuSans-72"/>
      <use x="758.308594" xlink:href="#DejaVuSans-69"/>
      <use x="786.091797" xlink:href="#DejaVuSans-62"/>
      <use x="849.568359" xlink:href="#DejaVuSans-75"/>
      <use x="912.947266" xlink:href="#DejaVuSans-74"/>
      <use x="952.15625" xlink:href="#DejaVuSans-69"/>
      <use x="979.939453" xlink:href="#DejaVuSans-6f"/>
      <use x="1041.121094" xlink:href="#DejaVuSans-6e"/>
     </g>
    </g>
    <g id="patch_115">
     <path d="M 296.615625 369.213125 
L 316.615625 369.213125 
L 316.615625 362.213125 
L 296.615625 362.213125 
z
" style="fill:#1f77b4;"/>
    </g>
    <g id="text_39">
     <!-- mu: 5 -->
     <g transform="translate(324.615625 351.376562)scale(0.1 -0.1)">
      <use xlink:href="#DejaVuSans-6d"/>
      <use x="97.412109" xlink:href="#DejaVuSans-75"/>
      <use x="160.791016" xlink:href="#DejaVuSans-3a"/>
      <use x="194.482422" xlink:href="#DejaVuSans-20"/>
      <use x="226.269531" xlink:href="#DejaVuSans-35"/>
     </g>
     <!-- sigma: 0.5 -->
     <g transform="translate(324.615625 362.574375)scale(0.1 -0.1)">
      <use xlink:href="#DejaVuSans-73"/>
      <use x="52.099609" xlink:href="#DejaVuSans-69"/>
      <use x="79.882812" xlink:href="#DejaVuSans-67"/>
      <use x="143.359375" xlink:href="#DejaVuSans-6d"/>
      <use x="240.771484" xlink:href="#DejaVuSans-61"/>
      <use x="302.050781" xlink:href="#DejaVuSans-3a"/>
      <use x="335.742188" xlink:href="#DejaVuSans-20"/>
      <use x="367.529297" xlink:href="#DejaVuSans-30"/>
      <use x="431.152344" xlink:href="#DejaVuSans-2e"/>
      <use x="462.939453" xlink:href="#DejaVuSans-35"/>
     </g>
     <!-- mean 168.47 -->
     <g transform="translate(324.615625 373.772187)scale(0.1 -0.1)">
      <use xlink:href="#DejaVuSans-6d"/>
      <use x="97.412109" xlink:href="#DejaVuSans-65"/>
      <use x="158.935547" xlink:href="#DejaVuSans-61"/>
      <use x="220.214844" xlink:href="#DejaVuSans-6e"/>
      <use x="283.59375" xlink:href="#DejaVuSans-20"/>
      <use x="315.380859" xlink:href="#DejaVuSans-31"/>
      <use x="379.003906" xlink:href="#DejaVuSans-36"/>
      <use x="442.626953" xlink:href="#DejaVuSans-38"/>
      <use x="506.25" xlink:href="#DejaVuSans-2e"/>
      <use x="538.037109" xlink:href="#DejaVuSans-34"/>
      <use x="601.660156" xlink:href="#DejaVuSans-37"/>
     </g>
     <!-- variance 8090.79 -->
     <g transform="translate(324.615625 384.97)scale(0.1 -0.1)">
      <defs>
       <path d="M 703 97 
L 703 672 
Q 941 559 1184 500 
Q 1428 441 1663 441 
Q 2288 441 2617 861 
Q 2947 1281 2994 2138 
Q 2813 1869 2534 1725 
Q 2256 1581 1919 1581 
Q 1219 1581 811 2004 
Q 403 2428 403 3163 
Q 403 3881 828 4315 
Q 1253 4750 1959 4750 
Q 2769 4750 3195 4129 
Q 3622 3509 3622 2328 
Q 3622 1225 3098 567 
Q 2575 -91 1691 -91 
Q 1453 -91 1209 -44 
Q 966 3 703 97 
z
M 1959 2075 
Q 2384 2075 2632 2365 
Q 2881 2656 2881 3163 
Q 2881 3666 2632 3958 
Q 2384 4250 1959 4250 
Q 1534 4250 1286 3958 
Q 1038 3666 1038 3163 
Q 1038 2656 1286 2365 
Q 1534 2075 1959 2075 
z
" id="DejaVuSans-39" transform="scale(0.015625)"/>
      </defs>
      <use xlink:href="#DejaVuSans-76"/>
      <use x="59.179688" xlink:href="#DejaVuSans-61"/>
      <use x="120.458984" xlink:href="#DejaVuSans-72"/>
      <use x="161.572266" xlink:href="#DejaVuSans-69"/>
      <use x="189.355469" xlink:href="#DejaVuSans-61"/>
      <use x="250.634766" xlink:href="#DejaVuSans-6e"/>
      <use x="314.013672" xlink:href="#DejaVuSans-63"/>
      <use x="368.994141" xlink:href="#DejaVuSans-65"/>
      <use x="430.517578" xlink:href="#DejaVuSans-20"/>
      <use x="462.304688" xlink:href="#DejaVuSans-38"/>
      <use x="525.927734" xlink:href="#DejaVuSans-30"/>
      <use x="589.550781" xlink:href="#DejaVuSans-39"/>
      <use x="653.173828" xlink:href="#DejaVuSans-30"/>
      <use x="716.796875" xlink:href="#DejaVuSans-2e"/>
      <use x="748.583984" xlink:href="#DejaVuSans-37"/>
      <use x="812.207031" xlink:href="#DejaVuSans-39"/>
     </g>
    </g>
   </g>
  </g>
 </g>
 <defs>
  <clipPath id="p7c0db5d23b">
   <rect height="211.1" width="360.9" x="60.3" y="28.8"/>
  </clipPath>
  <clipPath id="pb482585de6">
   <rect height="211.1" width="360.9" x="60.3" y="320.1"/>
  </clipPath>
 </defs>
</svg>
