<?xml version="1.0" encoding="utf-8" standalone="no"?>
<!DOCTYPE svg PUBLIC "-//W3C//DTD SVG 1.1//EN"
  "http://www.w3.org/Graphics/SVG/1.1/DTD/svg11.dtd">
<svg height="576pt" version="1.1" viewBox="0 0 432 576" width="432pt" xmlns="http://www.w3.org/2000/svg" xmlns:xlink="http://www.w3.org/1999/xlink">
 <metadata>
  <rdf:RDF xmlns:cc="http://creativecommons.org/ns#" xmlns:dc="http://purl.org/dc/elements/1.1/" xmlns:rdf="http://www.w3.org/1999/02/22-rdf-syntax-ns#">
   <cc:Work>
    <dc:type rdf:resource="http://purl.org/dc/dcmitype/StillImage"/>
    <dc:date>2022-06-03T16:32:00.432677</dc:date>
    <dc:format>image/svg+xml</dc:format>
    <dc:creator>
     <cc:Agent>
      <dc:title>Matplotlib v3.4.3, https://matplotlib.org/</dc:title>
     </cc:Agent>
    </dc:creator>
   </cc:Work>
  </rdf:RDF>
 </metadata>
 <defs>
  <style type="text/css">*{stroke-linecap:butt;stroke-linejoin:round;}</style>
 </defs>
 <g id="figure_1">
  <g id="patch_1">
   <path d="M 0 576 
L 432 576 
L 432 0 
L 0 0 
z
" style="fill:none;"/>
  </g>
  <g id="axes_1">
   <g id="patch_2">
    <path d="M 53.925 257.3 
L 421.2 257.3 
L 421.2 46.2 
L 53.925 46.2 
z
" style="fill:#ffffff;"/>
   </g>
   <g id="patch_3">
    <path clip-path="url(#p5addd5b74d)" d="M 70.619318 257.3 
L 77.297045 257.3 
L 77.297045 253.559579 
L 70.619318 253.559579 
z
" style="fill:#1f77b4;"/>
   </g>
   <g id="patch_4">
    <path clip-path="url(#p5addd5b74d)" d="M 77.297045 257.3 
L 83.974773 257.3 
L 83.974773 231.117054 
L 77.297045 231.117054 
z
" style="fill:#1f77b4;"/>
   </g>
   <g id="patch_5">
    <path clip-path="url(#p5addd5b74d)" d="M 83.974773 257.3 
L 90.6525 257.3 
L 90.6525 188.803544 
L 83.974773 188.803544 
z
" style="fill:#1f77b4;"/>
   </g>
   <g id="patch_6">
    <path clip-path="url(#p5addd5b74d)" d="M 90.6525 257.3 
L 97.330227 257.3 
L 97.330227 145.788704 
L 90.6525 145.788704 
z
" style="fill:#1f77b4;"/>
   </g>
   <g id="patch_7">
    <path clip-path="url(#p5addd5b74d)" d="M 97.330227 257.3 
L 104.007955 257.3 
L 104.007955 104.877852 
L 97.330227 104.877852 
z
" style="fill:#1f77b4;"/>
   </g>
   <g id="patch_8">
    <path clip-path="url(#p5addd5b74d)" d="M 104.007955 257.3 
L 110.685682 257.3 
L 110.685682 71.214064 
L 104.007955 71.214064 
z
" style="fill:#1f77b4;"/>
   </g>
   <g id="patch_9">
    <path clip-path="url(#p5addd5b74d)" d="M 110.685682 257.3 
L 117.363409 257.3 
L 117.363409 64.902104 
L 110.685682 64.902104 
z
" style="fill:#1f77b4;"/>
   </g>
   <g id="patch_10">
    <path clip-path="url(#p5addd5b74d)" d="M 117.363409 257.3 
L 124.041136 257.3 
L 124.041136 56.252381 
L 117.363409 56.252381 
z
" style="fill:#1f77b4;"/>
   </g>
   <g id="patch_11">
    <path clip-path="url(#p5addd5b74d)" d="M 124.041136 257.3 
L 130.718864 257.3 
L 130.718864 62.798117 
L 124.041136 62.798117 
z
" style="fill:#1f77b4;"/>
   </g>
   <g id="patch_12">
    <path clip-path="url(#p5addd5b74d)" d="M 130.718864 257.3 
L 137.396591 257.3 
L 137.396591 88.513511 
L 130.718864 88.513511 
z
" style="fill:#1f77b4;"/>
   </g>
   <g id="patch_13">
    <path clip-path="url(#p5addd5b74d)" d="M 137.396591 257.3 
L 144.074318 257.3 
L 144.074318 97.39701 
L 137.396591 97.39701 
z
" style="fill:#1f77b4;"/>
   </g>
   <g id="patch_14">
    <path clip-path="url(#p5addd5b74d)" d="M 144.074318 257.3 
L 150.752045 257.3 
L 150.752045 113.060022 
L 144.074318 113.060022 
z
" style="fill:#1f77b4;"/>
   </g>
   <g id="patch_15">
    <path clip-path="url(#p5addd5b74d)" d="M 150.752045 257.3 
L 157.429773 257.3 
L 157.429773 141.580731 
L 150.752045 141.580731 
z
" style="fill:#1f77b4;"/>
   </g>
   <g id="patch_16">
    <path clip-path="url(#p5addd5b74d)" d="M 157.429773 257.3 
L 164.1075 257.3 
L 164.1075 153.503322 
L 157.429773 153.503322 
z
" style="fill:#1f77b4;"/>
   </g>
   <g id="patch_17">
    <path clip-path="url(#p5addd5b74d)" d="M 164.1075 257.3 
L 170.785227 257.3 
L 170.785227 175.478295 
L 164.1075 175.478295 
z
" style="fill:#1f77b4;"/>
   </g>
   <g id="patch_18">
    <path clip-path="url(#p5addd5b74d)" d="M 170.785227 257.3 
L 177.462955 257.3 
L 177.462955 186.699557 
L 170.785227 186.699557 
z
" style="fill:#1f77b4;"/>
   </g>
   <g id="patch_19">
    <path clip-path="url(#p5addd5b74d)" d="M 177.462955 257.3 
L 184.140682 257.3 
L 184.140682 192.076412 
L 177.462955 192.076412 
z
" style="fill:#1f77b4;"/>
   </g>
   <g id="patch_20">
    <path clip-path="url(#p5addd5b74d)" d="M 184.140682 257.3 
L 190.818409 257.3 
L 190.818409 200.959911 
L 184.140682 200.959911 
z
" style="fill:#1f77b4;"/>
   </g>
   <g id="patch_21">
    <path clip-path="url(#p5addd5b74d)" d="M 190.818409 257.3 
L 197.496136 257.3 
L 197.496136 212.648726 
L 190.818409 212.648726 
z
" style="fill:#1f77b4;"/>
   </g>
   <g id="patch_22">
    <path clip-path="url(#p5addd5b74d)" d="M 197.496136 257.3 
L 204.173864 257.3 
L 204.173864 222.934884 
L 197.496136 222.934884 
z
" style="fill:#1f77b4;"/>
   </g>
   <g id="patch_23">
    <path clip-path="url(#p5addd5b74d)" d="M 204.173864 257.3 
L 210.851591 257.3 
L 210.851591 225.506423 
L 204.173864 225.506423 
z
" style="fill:#1f77b4;"/>
   </g>
   <g id="patch_24">
    <path clip-path="url(#p5addd5b74d)" d="M 210.851591 257.3 
L 217.529318 257.3 
L 217.529318 230.883278 
L 210.851591 230.883278 
z
" style="fill:#1f77b4;"/>
   </g>
   <g id="patch_25">
    <path clip-path="url(#p5addd5b74d)" d="M 217.529318 257.3 
L 224.207045 257.3 
L 224.207045 240.935659 
L 217.529318 240.935659 
z
" style="fill:#1f77b4;"/>
   </g>
   <g id="patch_26">
    <path clip-path="url(#p5addd5b74d)" d="M 224.207045 257.3 
L 230.884773 257.3 
L 230.884773 242.338317 
L 224.207045 242.338317 
z
" style="fill:#1f77b4;"/>
   </g>
   <g id="patch_27">
    <path clip-path="url(#p5addd5b74d)" d="M 230.884773 257.3 
L 237.5625 257.3 
L 237.5625 242.572093 
L 230.884773 242.572093 
z
" style="fill:#1f77b4;"/>
   </g>
   <g id="patch_28">
    <path clip-path="url(#p5addd5b74d)" d="M 237.5625 257.3 
L 244.240227 257.3 
L 244.240227 246.078738 
L 237.5625 246.078738 
z
" style="fill:#1f77b4;"/>
   </g>
   <g id="patch_29">
    <path clip-path="url(#p5addd5b74d)" d="M 244.240227 257.3 
L 250.917955 257.3 
L 250.917955 250.754264 
L 244.240227 250.754264 
z
" style="fill:#1f77b4;"/>
   </g>
   <g id="patch_30">
    <path clip-path="url(#p5addd5b74d)" d="M 250.917955 257.3 
L 257.595682 257.3 
L 257.595682 252.390698 
L 250.917955 252.390698 
z
" style="fill:#1f77b4;"/>
   </g>
   <g id="patch_31">
    <path clip-path="url(#p5addd5b74d)" d="M 257.595682 257.3 
L 264.273409 257.3 
L 264.273409 251.923145 
L 257.595682 251.923145 
z
" style="fill:#1f77b4;"/>
   </g>
   <g id="patch_32">
    <path clip-path="url(#p5addd5b74d)" d="M 264.273409 257.3 
L 270.951136 257.3 
L 270.951136 253.092027 
L 264.273409 253.092027 
z
" style="fill:#1f77b4;"/>
   </g>
   <g id="patch_33">
    <path clip-path="url(#p5addd5b74d)" d="M 270.951136 257.3 
L 277.628864 257.3 
L 277.628864 252.390698 
L 270.951136 252.390698 
z
" style="fill:#1f77b4;"/>
   </g>
   <g id="patch_34">
    <path clip-path="url(#p5addd5b74d)" d="M 277.628864 257.3 
L 284.306591 257.3 
L 284.306591 254.962237 
L 277.628864 254.962237 
z
" style="fill:#1f77b4;"/>
   </g>
   <g id="patch_35">
    <path clip-path="url(#p5addd5b74d)" d="M 284.306591 257.3 
L 290.984318 257.3 
L 290.984318 255.897342 
L 284.306591 255.897342 
z
" style="fill:#1f77b4;"/>
   </g>
   <g id="patch_36">
    <path clip-path="url(#p5addd5b74d)" d="M 290.984318 257.3 
L 297.662045 257.3 
L 297.662045 255.897342 
L 290.984318 255.897342 
z
" style="fill:#1f77b4;"/>
   </g>
   <g id="patch_37">
    <path clip-path="url(#p5addd5b74d)" d="M 297.662045 257.3 
L 304.339773 257.3 
L 304.339773 255.663566 
L 297.662045 255.663566 
z
" style="fill:#1f77b4;"/>
   </g>
   <g id="patch_38">
    <path clip-path="url(#p5addd5b74d)" d="M 304.339773 257.3 
L 311.0175 257.3 
L 311.0175 255.897342 
L 304.339773 255.897342 
z
" style="fill:#1f77b4;"/>
   </g>
   <g id="patch_39">
    <path clip-path="url(#p5addd5b74d)" d="M 311.0175 257.3 
L 317.695227 257.3 
L 317.695227 256.364895 
L 311.0175 256.364895 
z
" style="fill:#1f77b4;"/>
   </g>
   <g id="patch_40">
    <path clip-path="url(#p5addd5b74d)" d="M 317.695227 257.3 
L 324.372955 257.3 
L 324.372955 256.364895 
L 317.695227 256.364895 
z
" style="fill:#1f77b4;"/>
   </g>
   <g id="patch_41">
    <path clip-path="url(#p5addd5b74d)" d="M 324.372955 257.3 
L 331.050682 257.3 
L 331.050682 257.3 
L 324.372955 257.3 
z
" style="fill:#1f77b4;"/>
   </g>
   <g id="patch_42">
    <path clip-path="url(#p5addd5b74d)" d="M 331.050682 257.3 
L 337.728409 257.3 
L 337.728409 256.832447 
L 331.050682 256.832447 
z
" style="fill:#1f77b4;"/>
   </g>
   <g id="patch_43">
    <path clip-path="url(#p5addd5b74d)" d="M 337.728409 257.3 
L 344.406136 257.3 
L 344.406136 257.066224 
L 337.728409 257.066224 
z
" style="fill:#1f77b4;"/>
   </g>
   <g id="patch_44">
    <path clip-path="url(#p5addd5b74d)" d="M 344.406136 257.3 
L 351.083864 257.3 
L 351.083864 256.364895 
L 344.406136 256.364895 
z
" style="fill:#1f77b4;"/>
   </g>
   <g id="patch_45">
    <path clip-path="url(#p5addd5b74d)" d="M 351.083864 257.3 
L 357.761591 257.3 
L 357.761591 256.598671 
L 351.083864 256.598671 
z
" style="fill:#1f77b4;"/>
   </g>
   <g id="patch_46">
    <path clip-path="url(#p5addd5b74d)" d="M 357.761591 257.3 
L 364.439318 257.3 
L 364.439318 256.832447 
L 357.761591 256.832447 
z
" style="fill:#1f77b4;"/>
   </g>
   <g id="patch_47">
    <path clip-path="url(#p5addd5b74d)" d="M 364.439318 257.3 
L 371.117045 257.3 
L 371.117045 256.832447 
L 364.439318 256.832447 
z
" style="fill:#1f77b4;"/>
   </g>
   <g id="patch_48">
    <path clip-path="url(#p5addd5b74d)" d="M 371.117045 257.3 
L 377.794773 257.3 
L 377.794773 257.3 
L 371.117045 257.3 
z
" style="fill:#1f77b4;"/>
   </g>
   <g id="patch_49">
    <path clip-path="url(#p5addd5b74d)" d="M 377.794773 257.3 
L 384.4725 257.3 
L 384.4725 256.832447 
L 377.794773 256.832447 
z
" style="fill:#1f77b4;"/>
   </g>
   <g id="patch_50">
    <path clip-path="url(#p5addd5b74d)" d="M 384.4725 257.3 
L 391.150227 257.3 
L 391.150227 257.3 
L 384.4725 257.3 
z
" style="fill:#1f77b4;"/>
   </g>
   <g id="patch_51">
    <path clip-path="url(#p5addd5b74d)" d="M 391.150227 257.3 
L 397.827955 257.3 
L 397.827955 257.066224 
L 391.150227 257.066224 
z
" style="fill:#1f77b4;"/>
   </g>
   <g id="patch_52">
    <path clip-path="url(#p5addd5b74d)" d="M 397.827955 257.3 
L 404.505682 257.3 
L 404.505682 256.832447 
L 397.827955 256.832447 
z
" style="fill:#1f77b4;"/>
   </g>
   <g id="matplotlib.axis_1">
    <g id="xtick_1">
     <g id="line2d_1">
      <path clip-path="url(#p5addd5b74d)" d="M 57.091979 257.3 
L 57.091979 46.2 
" style="fill:none;stroke:#b0b0b0;stroke-linecap:square;stroke-width:0.8;"/>
     </g>
     <g id="line2d_2">
      <defs>
       <path d="M 0 0 
L 0 3.5 
" id="mbda5ff3c60" style="stroke:#000000;stroke-width:0.8;"/>
      </defs>
      <g>
       <use style="stroke:#000000;stroke-width:0.8;" x="57.091979" xlink:href="#mbda5ff3c60" y="257.3"/>
      </g>
     </g>
     <g id="text_1">
      <!-- 0.0 -->
      <g transform="translate(49.140416 271.898438)scale(0.1 -0.1)">
       <defs>
        <path d="M 2034 4250 
Q 1547 4250 1301 3770 
Q 1056 3291 1056 2328 
Q 1056 1369 1301 889 
Q 1547 409 2034 409 
Q 2525 409 2770 889 
Q 3016 1369 3016 2328 
Q 3016 3291 2770 3770 
Q 2525 4250 2034 4250 
z
M 2034 4750 
Q 2819 4750 3233 4129 
Q 3647 3509 3647 2328 
Q 3647 1150 3233 529 
Q 2819 -91 2034 -91 
Q 1250 -91 836 529 
Q 422 1150 422 2328 
Q 422 3509 836 4129 
Q 1250 4750 2034 4750 
z
" id="DejaVuSans-30" transform="scale(0.015625)"/>
        <path d="M 684 794 
L 1344 794 
L 1344 0 
L 684 0 
L 684 794 
z
" id="DejaVuSans-2e" transform="scale(0.015625)"/>
       </defs>
       <use xlink:href="#DejaVuSans-30"/>
       <use x="63.623047" xlink:href="#DejaVuSans-2e"/>
       <use x="95.410156" xlink:href="#DejaVuSans-30"/>
      </g>
     </g>
    </g>
    <g id="xtick_2">
     <g id="line2d_3">
      <path clip-path="url(#p5addd5b74d)" d="M 98.642508 257.3 
L 98.642508 46.2 
" style="fill:none;stroke:#b0b0b0;stroke-linecap:square;stroke-width:0.8;"/>
     </g>
     <g id="line2d_4">
      <g>
       <use style="stroke:#000000;stroke-width:0.8;" x="98.642508" xlink:href="#mbda5ff3c60" y="257.3"/>
      </g>
     </g>
     <g id="text_2">
      <!-- 0.5 -->
      <g transform="translate(90.690945 271.898438)scale(0.1 -0.1)">
       <defs>
        <path d="M 691 4666 
L 3169 4666 
L 3169 4134 
L 1269 4134 
L 1269 2991 
Q 1406 3038 1543 3061 
Q 1681 3084 1819 3084 
Q 2600 3084 3056 2656 
Q 3513 2228 3513 1497 
Q 3513 744 3044 326 
Q 2575 -91 1722 -91 
Q 1428 -91 1123 -41 
Q 819 9 494 109 
L 494 744 
Q 775 591 1075 516 
Q 1375 441 1709 441 
Q 2250 441 2565 725 
Q 2881 1009 2881 1497 
Q 2881 1984 2565 2268 
Q 2250 2553 1709 2553 
Q 1456 2553 1204 2497 
Q 953 2441 691 2322 
L 691 4666 
z
" id="DejaVuSans-35" transform="scale(0.015625)"/>
       </defs>
       <use xlink:href="#DejaVuSans-30"/>
       <use x="63.623047" xlink:href="#DejaVuSans-2e"/>
       <use x="95.410156" xlink:href="#DejaVuSans-35"/>
      </g>
     </g>
    </g>
    <g id="xtick_3">
     <g id="line2d_5">
      <path clip-path="url(#p5addd5b74d)" d="M 140.193036 257.3 
L 140.193036 46.2 
" style="fill:none;stroke:#b0b0b0;stroke-linecap:square;stroke-width:0.8;"/>
     </g>
     <g id="line2d_6">
      <g>
       <use style="stroke:#000000;stroke-width:0.8;" x="140.193036" xlink:href="#mbda5ff3c60" y="257.3"/>
      </g>
     </g>
     <g id="text_3">
      <!-- 1.0 -->
      <g transform="translate(132.241474 271.898438)scale(0.1 -0.1)">
       <defs>
        <path d="M 794 531 
L 1825 531 
L 1825 4091 
L 703 3866 
L 703 4441 
L 1819 4666 
L 2450 4666 
L 2450 531 
L 3481 531 
L 3481 0 
L 794 0 
L 794 531 
z
" id="DejaVuSans-31" transform="scale(0.015625)"/>
       </defs>
       <use xlink:href="#DejaVuSans-31"/>
       <use x="63.623047" xlink:href="#DejaVuSans-2e"/>
       <use x="95.410156" xlink:href="#DejaVuSans-30"/>
      </g>
     </g>
    </g>
    <g id="xtick_4">
     <g id="line2d_7">
      <path clip-path="url(#p5addd5b74d)" d="M 181.743565 257.3 
L 181.743565 46.2 
" style="fill:none;stroke:#b0b0b0;stroke-linecap:square;stroke-width:0.8;"/>
     </g>
     <g id="line2d_8">
      <g>
       <use style="stroke:#000000;stroke-width:0.8;" x="181.743565" xlink:href="#mbda5ff3c60" y="257.3"/>
      </g>
     </g>
     <g id="text_4">
      <!-- 1.5 -->
      <g transform="translate(173.792003 271.898438)scale(0.1 -0.1)">
       <use xlink:href="#DejaVuSans-31"/>
       <use x="63.623047" xlink:href="#DejaVuSans-2e"/>
       <use x="95.410156" xlink:href="#DejaVuSans-35"/>
      </g>
     </g>
    </g>
    <g id="xtick_5">
     <g id="line2d_9">
      <path clip-path="url(#p5addd5b74d)" d="M 223.294094 257.3 
L 223.294094 46.2 
" style="fill:none;stroke:#b0b0b0;stroke-linecap:square;stroke-width:0.8;"/>
     </g>
     <g id="line2d_10">
      <g>
       <use style="stroke:#000000;stroke-width:0.8;" x="223.294094" xlink:href="#mbda5ff3c60" y="257.3"/>
      </g>
     </g>
     <g id="text_5">
      <!-- 2.0 -->
      <g transform="translate(215.342532 271.898438)scale(0.1 -0.1)">
       <defs>
        <path d="M 1228 531 
L 3431 531 
L 3431 0 
L 469 0 
L 469 531 
Q 828 903 1448 1529 
Q 2069 2156 2228 2338 
Q 2531 2678 2651 2914 
Q 2772 3150 2772 3378 
Q 2772 3750 2511 3984 
Q 2250 4219 1831 4219 
Q 1534 4219 1204 4116 
Q 875 4013 500 3803 
L 500 4441 
Q 881 4594 1212 4672 
Q 1544 4750 1819 4750 
Q 2544 4750 2975 4387 
Q 3406 4025 3406 3419 
Q 3406 3131 3298 2873 
Q 3191 2616 2906 2266 
Q 2828 2175 2409 1742 
Q 1991 1309 1228 531 
z
" id="DejaVuSans-32" transform="scale(0.015625)"/>
       </defs>
       <use xlink:href="#DejaVuSans-32"/>
       <use x="63.623047" xlink:href="#DejaVuSans-2e"/>
       <use x="95.410156" xlink:href="#DejaVuSans-30"/>
      </g>
     </g>
    </g>
    <g id="xtick_6">
     <g id="line2d_11">
      <path clip-path="url(#p5addd5b74d)" d="M 264.844623 257.3 
L 264.844623 46.2 
" style="fill:none;stroke:#b0b0b0;stroke-linecap:square;stroke-width:0.8;"/>
     </g>
     <g id="line2d_12">
      <g>
       <use style="stroke:#000000;stroke-width:0.8;" x="264.844623" xlink:href="#mbda5ff3c60" y="257.3"/>
      </g>
     </g>
     <g id="text_6">
      <!-- 2.5 -->
      <g transform="translate(256.893061 271.898438)scale(0.1 -0.1)">
       <use xlink:href="#DejaVuSans-32"/>
       <use x="63.623047" xlink:href="#DejaVuSans-2e"/>
       <use x="95.410156" xlink:href="#DejaVuSans-35"/>
      </g>
     </g>
    </g>
    <g id="xtick_7">
     <g id="line2d_13">
      <path clip-path="url(#p5addd5b74d)" d="M 306.395152 257.3 
L 306.395152 46.2 
" style="fill:none;stroke:#b0b0b0;stroke-linecap:square;stroke-width:0.8;"/>
     </g>
     <g id="line2d_14">
      <g>
       <use style="stroke:#000000;stroke-width:0.8;" x="306.395152" xlink:href="#mbda5ff3c60" y="257.3"/>
      </g>
     </g>
     <g id="text_7">
      <!-- 3.0 -->
      <g transform="translate(298.44359 271.898438)scale(0.1 -0.1)">
       <defs>
        <path d="M 2597 2516 
Q 3050 2419 3304 2112 
Q 3559 1806 3559 1356 
Q 3559 666 3084 287 
Q 2609 -91 1734 -91 
Q 1441 -91 1130 -33 
Q 819 25 488 141 
L 488 750 
Q 750 597 1062 519 
Q 1375 441 1716 441 
Q 2309 441 2620 675 
Q 2931 909 2931 1356 
Q 2931 1769 2642 2001 
Q 2353 2234 1838 2234 
L 1294 2234 
L 1294 2753 
L 1863 2753 
Q 2328 2753 2575 2939 
Q 2822 3125 2822 3475 
Q 2822 3834 2567 4026 
Q 2313 4219 1838 4219 
Q 1578 4219 1281 4162 
Q 984 4106 628 3988 
L 628 4550 
Q 988 4650 1302 4700 
Q 1616 4750 1894 4750 
Q 2613 4750 3031 4423 
Q 3450 4097 3450 3541 
Q 3450 3153 3228 2886 
Q 3006 2619 2597 2516 
z
" id="DejaVuSans-33" transform="scale(0.015625)"/>
       </defs>
       <use xlink:href="#DejaVuSans-33"/>
       <use x="63.623047" xlink:href="#DejaVuSans-2e"/>
       <use x="95.410156" xlink:href="#DejaVuSans-30"/>
      </g>
     </g>
    </g>
    <g id="xtick_8">
     <g id="line2d_15">
      <path clip-path="url(#p5addd5b74d)" d="M 347.945681 257.3 
L 347.945681 46.2 
" style="fill:none;stroke:#b0b0b0;stroke-linecap:square;stroke-width:0.8;"/>
     </g>
     <g id="line2d_16">
      <g>
       <use style="stroke:#000000;stroke-width:0.8;" x="347.945681" xlink:href="#mbda5ff3c60" y="257.3"/>
      </g>
     </g>
     <g id="text_8">
      <!-- 3.5 -->
      <g transform="translate(339.994119 271.898438)scale(0.1 -0.1)">
       <use xlink:href="#DejaVuSans-33"/>
       <use x="63.623047" xlink:href="#DejaVuSans-2e"/>
       <use x="95.410156" xlink:href="#DejaVuSans-35"/>
      </g>
     </g>
    </g>
    <g id="xtick_9">
     <g id="line2d_17">
      <path clip-path="url(#p5addd5b74d)" d="M 389.49621 257.3 
L 389.49621 46.2 
" style="fill:none;stroke:#b0b0b0;stroke-linecap:square;stroke-width:0.8;"/>
     </g>
     <g id="line2d_18">
      <g>
       <use style="stroke:#000000;stroke-width:0.8;" x="389.49621" xlink:href="#mbda5ff3c60" y="257.3"/>
      </g>
     </g>
     <g id="text_9">
      <!-- 4.0 -->
      <g transform="translate(381.544648 271.898438)scale(0.1 -0.1)">
       <defs>
        <path d="M 2419 4116 
L 825 1625 
L 2419 1625 
L 2419 4116 
z
M 2253 4666 
L 3047 4666 
L 3047 1625 
L 3713 1625 
L 3713 1100 
L 3047 1100 
L 3047 0 
L 2419 0 
L 2419 1100 
L 313 1100 
L 313 1709 
L 2253 4666 
z
" id="DejaVuSans-34" transform="scale(0.015625)"/>
       </defs>
       <use xlink:href="#DejaVuSans-34"/>
       <use x="63.623047" xlink:href="#DejaVuSans-2e"/>
       <use x="95.410156" xlink:href="#DejaVuSans-30"/>
      </g>
     </g>
    </g>
    <g id="text_10">
     <!-- product -->
     <g transform="translate(214.487812 287.09625)scale(0.12 -0.12)">
      <defs>
       <path d="M 1159 525 
L 1159 -1331 
L 581 -1331 
L 581 3500 
L 1159 3500 
L 1159 2969 
Q 1341 3281 1617 3432 
Q 1894 3584 2278 3584 
Q 2916 3584 3314 3078 
Q 3713 2572 3713 1747 
Q 3713 922 3314 415 
Q 2916 -91 2278 -91 
Q 1894 -91 1617 61 
Q 1341 213 1159 525 
z
M 3116 1747 
Q 3116 2381 2855 2742 
Q 2594 3103 2138 3103 
Q 1681 3103 1420 2742 
Q 1159 2381 1159 1747 
Q 1159 1113 1420 752 
Q 1681 391 2138 391 
Q 2594 391 2855 752 
Q 3116 1113 3116 1747 
z
" id="DejaVuSans-70" transform="scale(0.015625)"/>
       <path d="M 2631 2963 
Q 2534 3019 2420 3045 
Q 2306 3072 2169 3072 
Q 1681 3072 1420 2755 
Q 1159 2438 1159 1844 
L 1159 0 
L 581 0 
L 581 3500 
L 1159 3500 
L 1159 2956 
Q 1341 3275 1631 3429 
Q 1922 3584 2338 3584 
Q 2397 3584 2469 3576 
Q 2541 3569 2628 3553 
L 2631 2963 
z
" id="DejaVuSans-72" transform="scale(0.015625)"/>
       <path d="M 1959 3097 
Q 1497 3097 1228 2736 
Q 959 2375 959 1747 
Q 959 1119 1226 758 
Q 1494 397 1959 397 
Q 2419 397 2687 759 
Q 2956 1122 2956 1747 
Q 2956 2369 2687 2733 
Q 2419 3097 1959 3097 
z
M 1959 3584 
Q 2709 3584 3137 3096 
Q 3566 2609 3566 1747 
Q 3566 888 3137 398 
Q 2709 -91 1959 -91 
Q 1206 -91 779 398 
Q 353 888 353 1747 
Q 353 2609 779 3096 
Q 1206 3584 1959 3584 
z
" id="DejaVuSans-6f" transform="scale(0.015625)"/>
       <path d="M 2906 2969 
L 2906 4863 
L 3481 4863 
L 3481 0 
L 2906 0 
L 2906 525 
Q 2725 213 2448 61 
Q 2172 -91 1784 -91 
Q 1150 -91 751 415 
Q 353 922 353 1747 
Q 353 2572 751 3078 
Q 1150 3584 1784 3584 
Q 2172 3584 2448 3432 
Q 2725 3281 2906 2969 
z
M 947 1747 
Q 947 1113 1208 752 
Q 1469 391 1925 391 
Q 2381 391 2643 752 
Q 2906 1113 2906 1747 
Q 2906 2381 2643 2742 
Q 2381 3103 1925 3103 
Q 1469 3103 1208 2742 
Q 947 2381 947 1747 
z
" id="DejaVuSans-64" transform="scale(0.015625)"/>
       <path d="M 544 1381 
L 544 3500 
L 1119 3500 
L 1119 1403 
Q 1119 906 1312 657 
Q 1506 409 1894 409 
Q 2359 409 2629 706 
Q 2900 1003 2900 1516 
L 2900 3500 
L 3475 3500 
L 3475 0 
L 2900 0 
L 2900 538 
Q 2691 219 2414 64 
Q 2138 -91 1772 -91 
Q 1169 -91 856 284 
Q 544 659 544 1381 
z
M 1991 3584 
L 1991 3584 
z
" id="DejaVuSans-75" transform="scale(0.015625)"/>
       <path d="M 3122 3366 
L 3122 2828 
Q 2878 2963 2633 3030 
Q 2388 3097 2138 3097 
Q 1578 3097 1268 2742 
Q 959 2388 959 1747 
Q 959 1106 1268 751 
Q 1578 397 2138 397 
Q 2388 397 2633 464 
Q 2878 531 3122 666 
L 3122 134 
Q 2881 22 2623 -34 
Q 2366 -91 2075 -91 
Q 1284 -91 818 406 
Q 353 903 353 1747 
Q 353 2603 823 3093 
Q 1294 3584 2113 3584 
Q 2378 3584 2631 3529 
Q 2884 3475 3122 3366 
z
" id="DejaVuSans-63" transform="scale(0.015625)"/>
       <path d="M 1172 4494 
L 1172 3500 
L 2356 3500 
L 2356 3053 
L 1172 3053 
L 1172 1153 
Q 1172 725 1289 603 
Q 1406 481 1766 481 
L 2356 481 
L 2356 0 
L 1766 0 
Q 1100 0 847 248 
Q 594 497 594 1153 
L 594 3053 
L 172 3053 
L 172 3500 
L 594 3500 
L 594 4494 
L 1172 4494 
z
" id="DejaVuSans-74" transform="scale(0.015625)"/>
      </defs>
      <use xlink:href="#DejaVuSans-70"/>
      <use x="63.476562" xlink:href="#DejaVuSans-72"/>
      <use x="102.339844" xlink:href="#DejaVuSans-6f"/>
      <use x="163.521484" xlink:href="#DejaVuSans-64"/>
      <use x="226.998047" xlink:href="#DejaVuSans-75"/>
      <use x="290.376953" xlink:href="#DejaVuSans-63"/>
      <use x="345.357422" xlink:href="#DejaVuSans-74"/>
     </g>
    </g>
    <g id="text_11">
     <!-- 1e20 -->
     <g transform="translate(395.959375 284.576563)scale(0.1 -0.1)">
      <defs>
       <path d="M 3597 1894 
L 3597 1613 
L 953 1613 
Q 991 1019 1311 708 
Q 1631 397 2203 397 
Q 2534 397 2845 478 
Q 3156 559 3463 722 
L 3463 178 
Q 3153 47 2828 -22 
Q 2503 -91 2169 -91 
Q 1331 -91 842 396 
Q 353 884 353 1716 
Q 353 2575 817 3079 
Q 1281 3584 2069 3584 
Q 2775 3584 3186 3129 
Q 3597 2675 3597 1894 
z
M 3022 2063 
Q 3016 2534 2758 2815 
Q 2500 3097 2075 3097 
Q 1594 3097 1305 2825 
Q 1016 2553 972 2059 
L 3022 2063 
z
" id="DejaVuSans-65" transform="scale(0.015625)"/>
      </defs>
      <use xlink:href="#DejaVuSans-31"/>
      <use x="63.623047" xlink:href="#DejaVuSans-65"/>
      <use x="125.146484" xlink:href="#DejaVuSans-32"/>
      <use x="188.769531" xlink:href="#DejaVuSans-30"/>
     </g>
    </g>
   </g>
   <g id="matplotlib.axis_2">
    <g id="ytick_1">
     <g id="line2d_19">
      <path clip-path="url(#p5addd5b74d)" d="M 53.925 257.3 
L 421.2 257.3 
" style="fill:none;stroke:#b0b0b0;stroke-linecap:square;stroke-width:0.8;"/>
     </g>
     <g id="line2d_20">
      <defs>
       <path d="M 0 0 
L -3.5 0 
" id="mfacf653e85" style="stroke:#000000;stroke-width:0.8;"/>
      </defs>
      <g>
       <use style="stroke:#000000;stroke-width:0.8;" x="53.925" xlink:href="#mfacf653e85" y="257.3"/>
      </g>
     </g>
     <g id="text_12">
      <!-- 0 -->
      <g transform="translate(40.5625 261.099219)scale(0.1 -0.1)">
       <use xlink:href="#DejaVuSans-30"/>
      </g>
     </g>
    </g>
    <g id="ytick_2">
     <g id="line2d_21">
      <path clip-path="url(#p5addd5b74d)" d="M 53.925 210.54474 
L 421.2 210.54474 
" style="fill:none;stroke:#b0b0b0;stroke-linecap:square;stroke-width:0.8;"/>
     </g>
     <g id="line2d_22">
      <g>
       <use style="stroke:#000000;stroke-width:0.8;" x="53.925" xlink:href="#mfacf653e85" y="210.54474"/>
      </g>
     </g>
     <g id="text_13">
      <!-- 200 -->
      <g transform="translate(27.8375 214.343959)scale(0.1 -0.1)">
       <use xlink:href="#DejaVuSans-32"/>
       <use x="63.623047" xlink:href="#DejaVuSans-30"/>
       <use x="127.246094" xlink:href="#DejaVuSans-30"/>
      </g>
     </g>
    </g>
    <g id="ytick_3">
     <g id="line2d_23">
      <path clip-path="url(#p5addd5b74d)" d="M 53.925 163.78948 
L 421.2 163.78948 
" style="fill:none;stroke:#b0b0b0;stroke-linecap:square;stroke-width:0.8;"/>
     </g>
     <g id="line2d_24">
      <g>
       <use style="stroke:#000000;stroke-width:0.8;" x="53.925" xlink:href="#mfacf653e85" y="163.78948"/>
      </g>
     </g>
     <g id="text_14">
      <!-- 400 -->
      <g transform="translate(27.8375 167.588698)scale(0.1 -0.1)">
       <use xlink:href="#DejaVuSans-34"/>
       <use x="63.623047" xlink:href="#DejaVuSans-30"/>
       <use x="127.246094" xlink:href="#DejaVuSans-30"/>
      </g>
     </g>
    </g>
    <g id="ytick_4">
     <g id="line2d_25">
      <path clip-path="url(#p5addd5b74d)" d="M 53.925 117.034219 
L 421.2 117.034219 
" style="fill:none;stroke:#b0b0b0;stroke-linecap:square;stroke-width:0.8;"/>
     </g>
     <g id="line2d_26">
      <g>
       <use style="stroke:#000000;stroke-width:0.8;" x="53.925" xlink:href="#mfacf653e85" y="117.034219"/>
      </g>
     </g>
     <g id="text_15">
      <!-- 600 -->
      <g transform="translate(27.8375 120.833438)scale(0.1 -0.1)">
       <defs>
        <path d="M 2113 2584 
Q 1688 2584 1439 2293 
Q 1191 2003 1191 1497 
Q 1191 994 1439 701 
Q 1688 409 2113 409 
Q 2538 409 2786 701 
Q 3034 994 3034 1497 
Q 3034 2003 2786 2293 
Q 2538 2584 2113 2584 
z
M 3366 4563 
L 3366 3988 
Q 3128 4100 2886 4159 
Q 2644 4219 2406 4219 
Q 1781 4219 1451 3797 
Q 1122 3375 1075 2522 
Q 1259 2794 1537 2939 
Q 1816 3084 2150 3084 
Q 2853 3084 3261 2657 
Q 3669 2231 3669 1497 
Q 3669 778 3244 343 
Q 2819 -91 2113 -91 
Q 1303 -91 875 529 
Q 447 1150 447 2328 
Q 447 3434 972 4092 
Q 1497 4750 2381 4750 
Q 2619 4750 2861 4703 
Q 3103 4656 3366 4563 
z
" id="DejaVuSans-36" transform="scale(0.015625)"/>
       </defs>
       <use xlink:href="#DejaVuSans-36"/>
       <use x="63.623047" xlink:href="#DejaVuSans-30"/>
       <use x="127.246094" xlink:href="#DejaVuSans-30"/>
      </g>
     </g>
    </g>
    <g id="ytick_5">
     <g id="line2d_27">
      <path clip-path="url(#p5addd5b74d)" d="M 53.925 70.278959 
L 421.2 70.278959 
" style="fill:none;stroke:#b0b0b0;stroke-linecap:square;stroke-width:0.8;"/>
     </g>
     <g id="line2d_28">
      <g>
       <use style="stroke:#000000;stroke-width:0.8;" x="53.925" xlink:href="#mfacf653e85" y="70.278959"/>
      </g>
     </g>
     <g id="text_16">
      <!-- 800 -->
      <g transform="translate(27.8375 74.078178)scale(0.1 -0.1)">
       <defs>
        <path d="M 2034 2216 
Q 1584 2216 1326 1975 
Q 1069 1734 1069 1313 
Q 1069 891 1326 650 
Q 1584 409 2034 409 
Q 2484 409 2743 651 
Q 3003 894 3003 1313 
Q 3003 1734 2745 1975 
Q 2488 2216 2034 2216 
z
M 1403 2484 
Q 997 2584 770 2862 
Q 544 3141 544 3541 
Q 544 4100 942 4425 
Q 1341 4750 2034 4750 
Q 2731 4750 3128 4425 
Q 3525 4100 3525 3541 
Q 3525 3141 3298 2862 
Q 3072 2584 2669 2484 
Q 3125 2378 3379 2068 
Q 3634 1759 3634 1313 
Q 3634 634 3220 271 
Q 2806 -91 2034 -91 
Q 1263 -91 848 271 
Q 434 634 434 1313 
Q 434 1759 690 2068 
Q 947 2378 1403 2484 
z
M 1172 3481 
Q 1172 3119 1398 2916 
Q 1625 2713 2034 2713 
Q 2441 2713 2670 2916 
Q 2900 3119 2900 3481 
Q 2900 3844 2670 4047 
Q 2441 4250 2034 4250 
Q 1625 4250 1398 4047 
Q 1172 3844 1172 3481 
z
" id="DejaVuSans-38" transform="scale(0.015625)"/>
       </defs>
       <use xlink:href="#DejaVuSans-38"/>
       <use x="63.623047" xlink:href="#DejaVuSans-30"/>
       <use x="127.246094" xlink:href="#DejaVuSans-30"/>
      </g>
     </g>
    </g>
    <g id="text_17">
     <!-- number of occurences -->
     <g transform="translate(21.341875 218.778437)rotate(-90)scale(0.12 -0.12)">
      <defs>
       <path d="M 3513 2113 
L 3513 0 
L 2938 0 
L 2938 2094 
Q 2938 2591 2744 2837 
Q 2550 3084 2163 3084 
Q 1697 3084 1428 2787 
Q 1159 2491 1159 1978 
L 1159 0 
L 581 0 
L 581 3500 
L 1159 3500 
L 1159 2956 
Q 1366 3272 1645 3428 
Q 1925 3584 2291 3584 
Q 2894 3584 3203 3211 
Q 3513 2838 3513 2113 
z
" id="DejaVuSans-6e" transform="scale(0.015625)"/>
       <path d="M 3328 2828 
Q 3544 3216 3844 3400 
Q 4144 3584 4550 3584 
Q 5097 3584 5394 3201 
Q 5691 2819 5691 2113 
L 5691 0 
L 5113 0 
L 5113 2094 
Q 5113 2597 4934 2840 
Q 4756 3084 4391 3084 
Q 3944 3084 3684 2787 
Q 3425 2491 3425 1978 
L 3425 0 
L 2847 0 
L 2847 2094 
Q 2847 2600 2669 2842 
Q 2491 3084 2119 3084 
Q 1678 3084 1418 2786 
Q 1159 2488 1159 1978 
L 1159 0 
L 581 0 
L 581 3500 
L 1159 3500 
L 1159 2956 
Q 1356 3278 1631 3431 
Q 1906 3584 2284 3584 
Q 2666 3584 2933 3390 
Q 3200 3197 3328 2828 
z
" id="DejaVuSans-6d" transform="scale(0.015625)"/>
       <path d="M 3116 1747 
Q 3116 2381 2855 2742 
Q 2594 3103 2138 3103 
Q 1681 3103 1420 2742 
Q 1159 2381 1159 1747 
Q 1159 1113 1420 752 
Q 1681 391 2138 391 
Q 2594 391 2855 752 
Q 3116 1113 3116 1747 
z
M 1159 2969 
Q 1341 3281 1617 3432 
Q 1894 3584 2278 3584 
Q 2916 3584 3314 3078 
Q 3713 2572 3713 1747 
Q 3713 922 3314 415 
Q 2916 -91 2278 -91 
Q 1894 -91 1617 61 
Q 1341 213 1159 525 
L 1159 0 
L 581 0 
L 581 4863 
L 1159 4863 
L 1159 2969 
z
" id="DejaVuSans-62" transform="scale(0.015625)"/>
       <path id="DejaVuSans-20" transform="scale(0.015625)"/>
       <path d="M 2375 4863 
L 2375 4384 
L 1825 4384 
Q 1516 4384 1395 4259 
Q 1275 4134 1275 3809 
L 1275 3500 
L 2222 3500 
L 2222 3053 
L 1275 3053 
L 1275 0 
L 697 0 
L 697 3053 
L 147 3053 
L 147 3500 
L 697 3500 
L 697 3744 
Q 697 4328 969 4595 
Q 1241 4863 1831 4863 
L 2375 4863 
z
" id="DejaVuSans-66" transform="scale(0.015625)"/>
       <path d="M 2834 3397 
L 2834 2853 
Q 2591 2978 2328 3040 
Q 2066 3103 1784 3103 
Q 1356 3103 1142 2972 
Q 928 2841 928 2578 
Q 928 2378 1081 2264 
Q 1234 2150 1697 2047 
L 1894 2003 
Q 2506 1872 2764 1633 
Q 3022 1394 3022 966 
Q 3022 478 2636 193 
Q 2250 -91 1575 -91 
Q 1294 -91 989 -36 
Q 684 19 347 128 
L 347 722 
Q 666 556 975 473 
Q 1284 391 1588 391 
Q 1994 391 2212 530 
Q 2431 669 2431 922 
Q 2431 1156 2273 1281 
Q 2116 1406 1581 1522 
L 1381 1569 
Q 847 1681 609 1914 
Q 372 2147 372 2553 
Q 372 3047 722 3315 
Q 1072 3584 1716 3584 
Q 2034 3584 2315 3537 
Q 2597 3491 2834 3397 
z
" id="DejaVuSans-73" transform="scale(0.015625)"/>
      </defs>
      <use xlink:href="#DejaVuSans-6e"/>
      <use x="63.378906" xlink:href="#DejaVuSans-75"/>
      <use x="126.757812" xlink:href="#DejaVuSans-6d"/>
      <use x="224.169922" xlink:href="#DejaVuSans-62"/>
      <use x="287.646484" xlink:href="#DejaVuSans-65"/>
      <use x="349.169922" xlink:href="#DejaVuSans-72"/>
      <use x="390.283203" xlink:href="#DejaVuSans-20"/>
      <use x="422.070312" xlink:href="#DejaVuSans-6f"/>
      <use x="483.251953" xlink:href="#DejaVuSans-66"/>
      <use x="518.457031" xlink:href="#DejaVuSans-20"/>
      <use x="550.244141" xlink:href="#DejaVuSans-6f"/>
      <use x="611.425781" xlink:href="#DejaVuSans-63"/>
      <use x="666.40625" xlink:href="#DejaVuSans-63"/>
      <use x="721.386719" xlink:href="#DejaVuSans-75"/>
      <use x="784.765625" xlink:href="#DejaVuSans-72"/>
      <use x="823.628906" xlink:href="#DejaVuSans-65"/>
      <use x="885.152344" xlink:href="#DejaVuSans-6e"/>
      <use x="948.53125" xlink:href="#DejaVuSans-63"/>
      <use x="1003.511719" xlink:href="#DejaVuSans-65"/>
      <use x="1065.035156" xlink:href="#DejaVuSans-73"/>
     </g>
    </g>
   </g>
   <g id="patch_53">
    <path d="M 53.925 257.3 
L 53.925 46.2 
" style="fill:none;stroke:#000000;stroke-linecap:square;stroke-linejoin:miter;stroke-width:0.8;"/>
   </g>
   <g id="patch_54">
    <path d="M 421.2 257.3 
L 421.2 46.2 
" style="fill:none;stroke:#000000;stroke-linecap:square;stroke-linejoin:miter;stroke-width:0.8;"/>
   </g>
   <g id="patch_55">
    <path d="M 53.925 257.3 
L 421.2 257.3 
" style="fill:none;stroke:#000000;stroke-linecap:square;stroke-linejoin:miter;stroke-width:0.8;"/>
   </g>
   <g id="patch_56">
    <path d="M 53.925 46.2 
L 421.2 46.2 
" style="fill:none;stroke:#000000;stroke-linecap:square;stroke-linejoin:miter;stroke-width:0.8;"/>
   </g>
   <g id="text_18">
    <!-- Multiplied 10000 samples * 20 times -->
    <g transform="translate(99.828516 23.403281)scale(0.15 -0.15)">
     <defs>
      <path d="M 628 4666 
L 1569 4666 
L 2759 1491 
L 3956 4666 
L 4897 4666 
L 4897 0 
L 4281 0 
L 4281 4097 
L 3078 897 
L 2444 897 
L 1241 4097 
L 1241 0 
L 628 0 
L 628 4666 
z
" id="DejaVuSans-4d" transform="scale(0.015625)"/>
      <path d="M 603 4863 
L 1178 4863 
L 1178 0 
L 603 0 
L 603 4863 
z
" id="DejaVuSans-6c" transform="scale(0.015625)"/>
      <path d="M 603 3500 
L 1178 3500 
L 1178 0 
L 603 0 
L 603 3500 
z
M 603 4863 
L 1178 4863 
L 1178 4134 
L 603 4134 
L 603 4863 
z
" id="DejaVuSans-69" transform="scale(0.015625)"/>
      <path d="M 2194 1759 
Q 1497 1759 1228 1600 
Q 959 1441 959 1056 
Q 959 750 1161 570 
Q 1363 391 1709 391 
Q 2188 391 2477 730 
Q 2766 1069 2766 1631 
L 2766 1759 
L 2194 1759 
z
M 3341 1997 
L 3341 0 
L 2766 0 
L 2766 531 
Q 2569 213 2275 61 
Q 1981 -91 1556 -91 
Q 1019 -91 701 211 
Q 384 513 384 1019 
Q 384 1609 779 1909 
Q 1175 2209 1959 2209 
L 2766 2209 
L 2766 2266 
Q 2766 2663 2505 2880 
Q 2244 3097 1772 3097 
Q 1472 3097 1187 3025 
Q 903 2953 641 2809 
L 641 3341 
Q 956 3463 1253 3523 
Q 1550 3584 1831 3584 
Q 2591 3584 2966 3190 
Q 3341 2797 3341 1997 
z
" id="DejaVuSans-61" transform="scale(0.015625)"/>
      <path d="M 3009 3897 
L 1888 3291 
L 3009 2681 
L 2828 2375 
L 1778 3009 
L 1778 1831 
L 1422 1831 
L 1422 3009 
L 372 2375 
L 191 2681 
L 1313 3291 
L 191 3897 
L 372 4206 
L 1422 3572 
L 1422 4750 
L 1778 4750 
L 1778 3572 
L 2828 4206 
L 3009 3897 
z
" id="DejaVuSans-2a" transform="scale(0.015625)"/>
     </defs>
     <use xlink:href="#DejaVuSans-4d"/>
     <use x="86.279297" xlink:href="#DejaVuSans-75"/>
     <use x="149.658203" xlink:href="#DejaVuSans-6c"/>
     <use x="177.441406" xlink:href="#DejaVuSans-74"/>
     <use x="216.650391" xlink:href="#DejaVuSans-69"/>
     <use x="244.433594" xlink:href="#DejaVuSans-70"/>
     <use x="307.910156" xlink:href="#DejaVuSans-6c"/>
     <use x="335.693359" xlink:href="#DejaVuSans-69"/>
     <use x="363.476562" xlink:href="#DejaVuSans-65"/>
     <use x="425" xlink:href="#DejaVuSans-64"/>
     <use x="488.476562" xlink:href="#DejaVuSans-20"/>
     <use x="520.263672" xlink:href="#DejaVuSans-31"/>
     <use x="583.886719" xlink:href="#DejaVuSans-30"/>
     <use x="647.509766" xlink:href="#DejaVuSans-30"/>
     <use x="711.132812" xlink:href="#DejaVuSans-30"/>
     <use x="774.755859" xlink:href="#DejaVuSans-30"/>
     <use x="838.378906" xlink:href="#DejaVuSans-20"/>
     <use x="870.166016" xlink:href="#DejaVuSans-73"/>
     <use x="922.265625" xlink:href="#DejaVuSans-61"/>
     <use x="983.544922" xlink:href="#DejaVuSans-6d"/>
     <use x="1080.957031" xlink:href="#DejaVuSans-70"/>
     <use x="1144.433594" xlink:href="#DejaVuSans-6c"/>
     <use x="1172.216797" xlink:href="#DejaVuSans-65"/>
     <use x="1233.740234" xlink:href="#DejaVuSans-73"/>
     <use x="1285.839844" xlink:href="#DejaVuSans-20"/>
     <use x="1317.626953" xlink:href="#DejaVuSans-2a"/>
     <use x="1367.626953" xlink:href="#DejaVuSans-20"/>
     <use x="1399.414062" xlink:href="#DejaVuSans-32"/>
     <use x="1463.037109" xlink:href="#DejaVuSans-30"/>
     <use x="1526.660156" xlink:href="#DejaVuSans-20"/>
     <use x="1558.447266" xlink:href="#DejaVuSans-74"/>
     <use x="1597.65625" xlink:href="#DejaVuSans-69"/>
     <use x="1625.439453" xlink:href="#DejaVuSans-6d"/>
     <use x="1722.851562" xlink:href="#DejaVuSans-65"/>
     <use x="1784.375" xlink:href="#DejaVuSans-73"/>
    </g>
    <!-- Calculated Distribution -->
    <g transform="translate(151.635937 40.2)scale(0.15 -0.15)">
     <defs>
      <path d="M 4122 4306 
L 4122 3641 
Q 3803 3938 3442 4084 
Q 3081 4231 2675 4231 
Q 1875 4231 1450 3742 
Q 1025 3253 1025 2328 
Q 1025 1406 1450 917 
Q 1875 428 2675 428 
Q 3081 428 3442 575 
Q 3803 722 4122 1019 
L 4122 359 
Q 3791 134 3420 21 
Q 3050 -91 2638 -91 
Q 1578 -91 968 557 
Q 359 1206 359 2328 
Q 359 3453 968 4101 
Q 1578 4750 2638 4750 
Q 3056 4750 3426 4639 
Q 3797 4528 4122 4306 
z
" id="DejaVuSans-43" transform="scale(0.015625)"/>
      <path d="M 1259 4147 
L 1259 519 
L 2022 519 
Q 2988 519 3436 956 
Q 3884 1394 3884 2338 
Q 3884 3275 3436 3711 
Q 2988 4147 2022 4147 
L 1259 4147 
z
M 628 4666 
L 1925 4666 
Q 3281 4666 3915 4102 
Q 4550 3538 4550 2338 
Q 4550 1131 3912 565 
Q 3275 0 1925 0 
L 628 0 
L 628 4666 
z
" id="DejaVuSans-44" transform="scale(0.015625)"/>
     </defs>
     <use xlink:href="#DejaVuSans-43"/>
     <use x="69.824219" xlink:href="#DejaVuSans-61"/>
     <use x="131.103516" xlink:href="#DejaVuSans-6c"/>
     <use x="158.886719" xlink:href="#DejaVuSans-63"/>
     <use x="213.867188" xlink:href="#DejaVuSans-75"/>
     <use x="277.246094" xlink:href="#DejaVuSans-6c"/>
     <use x="305.029297" xlink:href="#DejaVuSans-61"/>
     <use x="366.308594" xlink:href="#DejaVuSans-74"/>
     <use x="405.517578" xlink:href="#DejaVuSans-65"/>
     <use x="467.041016" xlink:href="#DejaVuSans-64"/>
     <use x="530.517578" xlink:href="#DejaVuSans-20"/>
     <use x="562.304688" xlink:href="#DejaVuSans-44"/>
     <use x="639.306641" xlink:href="#DejaVuSans-69"/>
     <use x="667.089844" xlink:href="#DejaVuSans-73"/>
     <use x="719.189453" xlink:href="#DejaVuSans-74"/>
     <use x="758.398438" xlink:href="#DejaVuSans-72"/>
     <use x="799.511719" xlink:href="#DejaVuSans-69"/>
     <use x="827.294922" xlink:href="#DejaVuSans-62"/>
     <use x="890.771484" xlink:href="#DejaVuSans-75"/>
     <use x="954.150391" xlink:href="#DejaVuSans-74"/>
     <use x="993.359375" xlink:href="#DejaVuSans-69"/>
     <use x="1021.142578" xlink:href="#DejaVuSans-6f"/>
     <use x="1082.324219" xlink:href="#DejaVuSans-6e"/>
    </g>
   </g>
   <g id="legend_1">
    <g id="patch_57">
     <path d="M 312.657812 94.754063 
L 414.2 94.754063 
Q 416.2 94.754063 416.2 92.754063 
L 416.2 53.2 
Q 416.2 51.2 414.2 51.2 
L 312.657812 51.2 
Q 310.657812 51.2 310.657812 53.2 
L 310.657812 92.754063 
Q 310.657812 94.754063 312.657812 94.754063 
z
" style="fill:#ffffff;opacity:0.8;stroke:#cccccc;stroke-linejoin:miter;"/>
    </g>
    <g id="text_19">
     <!-- original distribution -->
     <g transform="translate(314.657812 62.798438)scale(0.1 -0.1)">
      <defs>
       <path d="M 2906 1791 
Q 2906 2416 2648 2759 
Q 2391 3103 1925 3103 
Q 1463 3103 1205 2759 
Q 947 2416 947 1791 
Q 947 1169 1205 825 
Q 1463 481 1925 481 
Q 2391 481 2648 825 
Q 2906 1169 2906 1791 
z
M 3481 434 
Q 3481 -459 3084 -895 
Q 2688 -1331 1869 -1331 
Q 1566 -1331 1297 -1286 
Q 1028 -1241 775 -1147 
L 775 -588 
Q 1028 -725 1275 -790 
Q 1522 -856 1778 -856 
Q 2344 -856 2625 -561 
Q 2906 -266 2906 331 
L 2906 616 
Q 2728 306 2450 153 
Q 2172 0 1784 0 
Q 1141 0 747 490 
Q 353 981 353 1791 
Q 353 2603 747 3093 
Q 1141 3584 1784 3584 
Q 2172 3584 2450 3431 
Q 2728 3278 2906 2969 
L 2906 3500 
L 3481 3500 
L 3481 434 
z
" id="DejaVuSans-67" transform="scale(0.015625)"/>
      </defs>
      <use xlink:href="#DejaVuSans-6f"/>
      <use x="61.181641" xlink:href="#DejaVuSans-72"/>
      <use x="102.294922" xlink:href="#DejaVuSans-69"/>
      <use x="130.078125" xlink:href="#DejaVuSans-67"/>
      <use x="193.554688" xlink:href="#DejaVuSans-69"/>
      <use x="221.337891" xlink:href="#DejaVuSans-6e"/>
      <use x="284.716797" xlink:href="#DejaVuSans-61"/>
      <use x="345.996094" xlink:href="#DejaVuSans-6c"/>
      <use x="373.779297" xlink:href="#DejaVuSans-20"/>
      <use x="405.566406" xlink:href="#DejaVuSans-64"/>
      <use x="469.042969" xlink:href="#DejaVuSans-69"/>
      <use x="496.826172" xlink:href="#DejaVuSans-73"/>
      <use x="548.925781" xlink:href="#DejaVuSans-74"/>
      <use x="588.134766" xlink:href="#DejaVuSans-72"/>
      <use x="629.248047" xlink:href="#DejaVuSans-69"/>
      <use x="657.03125" xlink:href="#DejaVuSans-62"/>
      <use x="720.507812" xlink:href="#DejaVuSans-75"/>
      <use x="783.886719" xlink:href="#DejaVuSans-74"/>
      <use x="823.095703" xlink:href="#DejaVuSans-69"/>
      <use x="850.878906" xlink:href="#DejaVuSans-6f"/>
      <use x="912.060547" xlink:href="#DejaVuSans-6e"/>
     </g>
    </g>
    <g id="patch_58">
     <path d="M 327.871875 84.115313 
L 347.871875 84.115313 
L 347.871875 77.115313 
L 327.871875 77.115313 
z
" style="fill:#1f77b4;"/>
    </g>
    <g id="text_20">
     <!-- mu: 10 -->
     <g transform="translate(355.871875 77.476563)scale(0.1 -0.1)">
      <defs>
       <path d="M 750 794 
L 1409 794 
L 1409 0 
L 750 0 
L 750 794 
z
M 750 3309 
L 1409 3309 
L 1409 2516 
L 750 2516 
L 750 3309 
z
" id="DejaVuSans-3a" transform="scale(0.015625)"/>
      </defs>
      <use xlink:href="#DejaVuSans-6d"/>
      <use x="97.412109" xlink:href="#DejaVuSans-75"/>
      <use x="160.791016" xlink:href="#DejaVuSans-3a"/>
      <use x="194.482422" xlink:href="#DejaVuSans-20"/>
      <use x="226.269531" xlink:href="#DejaVuSans-31"/>
      <use x="289.892578" xlink:href="#DejaVuSans-30"/>
     </g>
     <!-- sigma: 1 -->
     <g transform="translate(355.871875 88.674375)scale(0.1 -0.1)">
      <use xlink:href="#DejaVuSans-73"/>
      <use x="52.099609" xlink:href="#DejaVuSans-69"/>
      <use x="79.882812" xlink:href="#DejaVuSans-67"/>
      <use x="143.359375" xlink:href="#DejaVuSans-6d"/>
      <use x="240.771484" xlink:href="#DejaVuSans-61"/>
      <use x="302.050781" xlink:href="#DejaVuSans-3a"/>
      <use x="335.742188" xlink:href="#DejaVuSans-20"/>
      <use x="367.529297" xlink:href="#DejaVuSans-31"/>
     </g>
    </g>
   </g>
  </g>
  <g id="axes_2">
   <g id="patch_59">
    <path d="M 53.925 531.2 
L 421.2 531.2 
L 421.2 320.1 
L 53.925 320.1 
z
" style="fill:#ffffff;"/>
   </g>
   <g id="patch_60">
    <path clip-path="url(#p1728facf6d)" d="M 70.619318 531.2 
L 77.297045 531.2 
L 77.297045 530.505535 
L 70.619318 530.505535 
z
" style="fill:#1f77b4;"/>
   </g>
   <g id="patch_61">
    <path clip-path="url(#p1728facf6d)" d="M 77.297045 531.2 
L 83.974773 531.2 
L 83.974773 530.505535 
L 77.297045 530.505535 
z
" style="fill:#1f77b4;"/>
   </g>
   <g id="patch_62">
    <path clip-path="url(#p1728facf6d)" d="M 83.974773 531.2 
L 90.6525 531.2 
L 90.6525 530.158302 
L 83.974773 530.158302 
z
" style="fill:#1f77b4;"/>
   </g>
   <g id="patch_63">
    <path clip-path="url(#p1728facf6d)" d="M 90.6525 531.2 
L 97.330227 531.2 
L 97.330227 530.505535 
L 90.6525 530.505535 
z
" style="fill:#1f77b4;"/>
   </g>
   <g id="patch_64">
    <path clip-path="url(#p1728facf6d)" d="M 97.330227 531.2 
L 104.007955 531.2 
L 104.007955 530.852767 
L 97.330227 530.852767 
z
" style="fill:#1f77b4;"/>
   </g>
   <g id="patch_65">
    <path clip-path="url(#p1728facf6d)" d="M 104.007955 531.2 
L 110.685682 531.2 
L 110.685682 529.116605 
L 104.007955 529.116605 
z
" style="fill:#1f77b4;"/>
   </g>
   <g id="patch_66">
    <path clip-path="url(#p1728facf6d)" d="M 110.685682 531.2 
L 117.363409 531.2 
L 117.363409 526.338745 
L 110.685682 526.338745 
z
" style="fill:#1f77b4;"/>
   </g>
   <g id="patch_67">
    <path clip-path="url(#p1728facf6d)" d="M 117.363409 531.2 
L 124.041136 531.2 
L 124.041136 525.64428 
L 117.363409 525.64428 
z
" style="fill:#1f77b4;"/>
   </g>
   <g id="patch_68">
    <path clip-path="url(#p1728facf6d)" d="M 124.041136 531.2 
L 130.718864 531.2 
L 130.718864 521.47749 
L 124.041136 521.47749 
z
" style="fill:#1f77b4;"/>
   </g>
   <g id="patch_69">
    <path clip-path="url(#p1728facf6d)" d="M 130.718864 531.2 
L 137.396591 531.2 
L 137.396591 520.783025 
L 130.718864 520.783025 
z
" style="fill:#1f77b4;"/>
   </g>
   <g id="patch_70">
    <path clip-path="url(#p1728facf6d)" d="M 137.396591 531.2 
L 144.074318 531.2 
L 144.074318 515.92177 
L 137.396591 515.92177 
z
" style="fill:#1f77b4;"/>
   </g>
   <g id="patch_71">
    <path clip-path="url(#p1728facf6d)" d="M 144.074318 531.2 
L 150.752045 531.2 
L 150.752045 506.893725 
L 144.074318 506.893725 
z
" style="fill:#1f77b4;"/>
   </g>
   <g id="patch_72">
    <path clip-path="url(#p1728facf6d)" d="M 150.752045 531.2 
L 157.429773 531.2 
L 157.429773 500.990772 
L 150.752045 500.990772 
z
" style="fill:#1f77b4;"/>
   </g>
   <g id="patch_73">
    <path clip-path="url(#p1728facf6d)" d="M 157.429773 531.2 
L 164.1075 531.2 
L 164.1075 490.92103 
L 157.429773 490.92103 
z
" style="fill:#1f77b4;"/>
   </g>
   <g id="patch_74">
    <path clip-path="url(#p1728facf6d)" d="M 164.1075 531.2 
L 170.785227 531.2 
L 170.785227 484.670845 
L 164.1075 484.670845 
z
" style="fill:#1f77b4;"/>
   </g>
   <g id="patch_75">
    <path clip-path="url(#p1728facf6d)" d="M 170.785227 531.2 
L 177.462955 531.2 
L 177.462955 471.823242 
L 170.785227 471.823242 
z
" style="fill:#1f77b4;"/>
   </g>
   <g id="patch_76">
    <path clip-path="url(#p1728facf6d)" d="M 177.462955 531.2 
L 184.140682 531.2 
L 184.140682 458.628407 
L 177.462955 458.628407 
z
" style="fill:#1f77b4;"/>
   </g>
   <g id="patch_77">
    <path clip-path="url(#p1728facf6d)" d="M 184.140682 531.2 
L 190.818409 531.2 
L 190.818409 443.002944 
L 184.140682 443.002944 
z
" style="fill:#1f77b4;"/>
   </g>
   <g id="patch_78">
    <path clip-path="url(#p1728facf6d)" d="M 190.818409 531.2 
L 197.496136 531.2 
L 197.496136 423.905157 
L 190.818409 423.905157 
z
" style="fill:#1f77b4;"/>
   </g>
   <g id="patch_79">
    <path clip-path="url(#p1728facf6d)" d="M 197.496136 531.2 
L 204.173864 531.2 
L 204.173864 408.279694 
L 197.496136 408.279694 
z
" style="fill:#1f77b4;"/>
   </g>
   <g id="patch_80">
    <path clip-path="url(#p1728facf6d)" d="M 204.173864 531.2 
L 210.851591 531.2 
L 210.851591 391.612534 
L 204.173864 391.612534 
z
" style="fill:#1f77b4;"/>
   </g>
   <g id="patch_81">
    <path clip-path="url(#p1728facf6d)" d="M 210.851591 531.2 
L 217.529318 531.2 
L 217.529318 375.292606 
L 210.851591 375.292606 
z
" style="fill:#1f77b4;"/>
   </g>
   <g id="patch_82">
    <path clip-path="url(#p1728facf6d)" d="M 217.529318 531.2 
L 224.207045 531.2 
L 224.207045 371.820281 
L 217.529318 371.820281 
z
" style="fill:#1f77b4;"/>
   </g>
   <g id="patch_83">
    <path clip-path="url(#p1728facf6d)" d="M 224.207045 531.2 
L 230.884773 531.2 
L 230.884773 358.625446 
L 224.207045 358.625446 
z
" style="fill:#1f77b4;"/>
   </g>
   <g id="patch_84">
    <path clip-path="url(#p1728facf6d)" d="M 230.884773 531.2 
L 237.5625 531.2 
L 237.5625 332.930241 
L 230.884773 332.930241 
z
" style="fill:#1f77b4;"/>
   </g>
   <g id="patch_85">
    <path clip-path="url(#p1728facf6d)" d="M 237.5625 531.2 
L 244.240227 531.2 
L 244.240227 330.152381 
L 237.5625 330.152381 
z
" style="fill:#1f77b4;"/>
   </g>
   <g id="patch_86">
    <path clip-path="url(#p1728facf6d)" d="M 244.240227 531.2 
L 250.917955 531.2 
L 250.917955 336.749799 
L 244.240227 336.749799 
z
" style="fill:#1f77b4;"/>
   </g>
   <g id="patch_87">
    <path clip-path="url(#p1728facf6d)" d="M 250.917955 531.2 
L 257.595682 531.2 
L 257.595682 351.680796 
L 250.917955 351.680796 
z
" style="fill:#1f77b4;"/>
   </g>
   <g id="patch_88">
    <path clip-path="url(#p1728facf6d)" d="M 257.595682 531.2 
L 264.273409 531.2 
L 264.273409 339.527659 
L 257.595682 339.527659 
z
" style="fill:#1f77b4;"/>
   </g>
   <g id="patch_89">
    <path clip-path="url(#p1728facf6d)" d="M 264.273409 531.2 
L 270.951136 531.2 
L 270.951136 345.083379 
L 264.273409 345.083379 
z
" style="fill:#1f77b4;"/>
   </g>
   <g id="patch_90">
    <path clip-path="url(#p1728facf6d)" d="M 270.951136 531.2 
L 277.628864 531.2 
L 277.628864 368.347956 
L 270.951136 368.347956 
z
" style="fill:#1f77b4;"/>
   </g>
   <g id="patch_91">
    <path clip-path="url(#p1728facf6d)" d="M 277.628864 531.2 
L 284.306591 531.2 
L 284.306591 378.070466 
L 277.628864 378.070466 
z
" style="fill:#1f77b4;"/>
   </g>
   <g id="patch_92">
    <path clip-path="url(#p1728facf6d)" d="M 284.306591 531.2 
L 290.984318 531.2 
L 290.984318 403.765672 
L 284.306591 403.765672 
z
" style="fill:#1f77b4;"/>
   </g>
   <g id="patch_93">
    <path clip-path="url(#p1728facf6d)" d="M 290.984318 531.2 
L 297.662045 531.2 
L 297.662045 415.571577 
L 290.984318 415.571577 
z
" style="fill:#1f77b4;"/>
   </g>
   <g id="patch_94">
    <path clip-path="url(#p1728facf6d)" d="M 297.662045 531.2 
L 304.339773 531.2 
L 304.339773 412.099252 
L 297.662045 412.099252 
z
" style="fill:#1f77b4;"/>
   </g>
   <g id="patch_95">
    <path clip-path="url(#p1728facf6d)" d="M 304.339773 531.2 
L 311.0175 531.2 
L 311.0175 446.475269 
L 304.339773 446.475269 
z
" style="fill:#1f77b4;"/>
   </g>
   <g id="patch_96">
    <path clip-path="url(#p1728facf6d)" d="M 311.0175 531.2 
L 317.695227 531.2 
L 317.695227 455.156082 
L 311.0175 455.156082 
z
" style="fill:#1f77b4;"/>
   </g>
   <g id="patch_97">
    <path clip-path="url(#p1728facf6d)" d="M 317.695227 531.2 
L 324.372955 531.2 
L 324.372955 469.739847 
L 317.695227 469.739847 
z
" style="fill:#1f77b4;"/>
   </g>
   <g id="patch_98">
    <path clip-path="url(#p1728facf6d)" d="M 324.372955 531.2 
L 331.050682 531.2 
L 331.050682 491.268262 
L 324.372955 491.268262 
z
" style="fill:#1f77b4;"/>
   </g>
   <g id="patch_99">
    <path clip-path="url(#p1728facf6d)" d="M 331.050682 531.2 
L 337.728409 531.2 
L 337.728409 495.435052 
L 331.050682 495.435052 
z
" style="fill:#1f77b4;"/>
   </g>
   <g id="patch_100">
    <path clip-path="url(#p1728facf6d)" d="M 337.728409 531.2 
L 344.406136 531.2 
L 344.406136 507.240957 
L 337.728409 507.240957 
z
" style="fill:#1f77b4;"/>
   </g>
   <g id="patch_101">
    <path clip-path="url(#p1728facf6d)" d="M 344.406136 531.2 
L 351.083864 531.2 
L 351.083864 516.269002 
L 344.406136 516.269002 
z
" style="fill:#1f77b4;"/>
   </g>
   <g id="patch_102">
    <path clip-path="url(#p1728facf6d)" d="M 351.083864 531.2 
L 357.761591 531.2 
L 357.761591 516.963467 
L 351.083864 516.963467 
z
" style="fill:#1f77b4;"/>
   </g>
   <g id="patch_103">
    <path clip-path="url(#p1728facf6d)" d="M 357.761591 531.2 
L 364.439318 531.2 
L 364.439318 524.949815 
L 357.761591 524.949815 
z
" style="fill:#1f77b4;"/>
   </g>
   <g id="patch_104">
    <path clip-path="url(#p1728facf6d)" d="M 364.439318 531.2 
L 371.117045 531.2 
L 371.117045 525.991512 
L 364.439318 525.991512 
z
" style="fill:#1f77b4;"/>
   </g>
   <g id="patch_105">
    <path clip-path="url(#p1728facf6d)" d="M 371.117045 531.2 
L 377.794773 531.2 
L 377.794773 527.727675 
L 371.117045 527.727675 
z
" style="fill:#1f77b4;"/>
   </g>
   <g id="patch_106">
    <path clip-path="url(#p1728facf6d)" d="M 377.794773 531.2 
L 384.4725 531.2 
L 384.4725 530.158302 
L 377.794773 530.158302 
z
" style="fill:#1f77b4;"/>
   </g>
   <g id="patch_107">
    <path clip-path="url(#p1728facf6d)" d="M 384.4725 531.2 
L 391.150227 531.2 
L 391.150227 528.769372 
L 384.4725 528.769372 
z
" style="fill:#1f77b4;"/>
   </g>
   <g id="patch_108">
    <path clip-path="url(#p1728facf6d)" d="M 391.150227 531.2 
L 397.827955 531.2 
L 397.827955 529.463837 
L 391.150227 529.463837 
z
" style="fill:#1f77b4;"/>
   </g>
   <g id="patch_109">
    <path clip-path="url(#p1728facf6d)" d="M 397.827955 531.2 
L 404.505682 531.2 
L 404.505682 529.81107 
L 397.827955 529.81107 
z
" style="fill:#1f77b4;"/>
   </g>
   <g id="matplotlib.axis_3">
    <g id="xtick_10">
     <g id="line2d_29">
      <path clip-path="url(#p1728facf6d)" d="M 97.739484 531.2 
L 97.739484 320.1 
" style="fill:none;stroke:#b0b0b0;stroke-linecap:square;stroke-width:0.8;"/>
     </g>
     <g id="line2d_30">
      <g>
       <use style="stroke:#000000;stroke-width:0.8;" x="97.739484" xlink:href="#mbda5ff3c60" y="531.2"/>
      </g>
     </g>
     <g id="text_21">
      <!-- 44.5 -->
      <g transform="translate(86.606671 545.798437)scale(0.1 -0.1)">
       <use xlink:href="#DejaVuSans-34"/>
       <use x="63.623047" xlink:href="#DejaVuSans-34"/>
       <use x="127.246094" xlink:href="#DejaVuSans-2e"/>
       <use x="159.033203" xlink:href="#DejaVuSans-35"/>
      </g>
     </g>
    </g>
    <g id="xtick_11">
     <g id="line2d_31">
      <path clip-path="url(#p1728facf6d)" d="M 149.173029 531.2 
L 149.173029 320.1 
" style="fill:none;stroke:#b0b0b0;stroke-linecap:square;stroke-width:0.8;"/>
     </g>
     <g id="line2d_32">
      <g>
       <use style="stroke:#000000;stroke-width:0.8;" x="149.173029" xlink:href="#mbda5ff3c60" y="531.2"/>
      </g>
     </g>
     <g id="text_22">
      <!-- 45.0 -->
      <g transform="translate(138.040217 545.798437)scale(0.1 -0.1)">
       <use xlink:href="#DejaVuSans-34"/>
       <use x="63.623047" xlink:href="#DejaVuSans-35"/>
       <use x="127.246094" xlink:href="#DejaVuSans-2e"/>
       <use x="159.033203" xlink:href="#DejaVuSans-30"/>
      </g>
     </g>
    </g>
    <g id="xtick_12">
     <g id="line2d_33">
      <path clip-path="url(#p1728facf6d)" d="M 200.606575 531.2 
L 200.606575 320.1 
" style="fill:none;stroke:#b0b0b0;stroke-linecap:square;stroke-width:0.8;"/>
     </g>
     <g id="line2d_34">
      <g>
       <use style="stroke:#000000;stroke-width:0.8;" x="200.606575" xlink:href="#mbda5ff3c60" y="531.2"/>
      </g>
     </g>
     <g id="text_23">
      <!-- 45.5 -->
      <g transform="translate(189.473762 545.798437)scale(0.1 -0.1)">
       <use xlink:href="#DejaVuSans-34"/>
       <use x="63.623047" xlink:href="#DejaVuSans-35"/>
       <use x="127.246094" xlink:href="#DejaVuSans-2e"/>
       <use x="159.033203" xlink:href="#DejaVuSans-35"/>
      </g>
     </g>
    </g>
    <g id="xtick_13">
     <g id="line2d_35">
      <path clip-path="url(#p1728facf6d)" d="M 252.04012 531.2 
L 252.04012 320.1 
" style="fill:none;stroke:#b0b0b0;stroke-linecap:square;stroke-width:0.8;"/>
     </g>
     <g id="line2d_36">
      <g>
       <use style="stroke:#000000;stroke-width:0.8;" x="252.04012" xlink:href="#mbda5ff3c60" y="531.2"/>
      </g>
     </g>
     <g id="text_24">
      <!-- 46.0 -->
      <g transform="translate(240.907307 545.798437)scale(0.1 -0.1)">
       <use xlink:href="#DejaVuSans-34"/>
       <use x="63.623047" xlink:href="#DejaVuSans-36"/>
       <use x="127.246094" xlink:href="#DejaVuSans-2e"/>
       <use x="159.033203" xlink:href="#DejaVuSans-30"/>
      </g>
     </g>
    </g>
    <g id="xtick_14">
     <g id="line2d_37">
      <path clip-path="url(#p1728facf6d)" d="M 303.473665 531.2 
L 303.473665 320.1 
" style="fill:none;stroke:#b0b0b0;stroke-linecap:square;stroke-width:0.8;"/>
     </g>
     <g id="line2d_38">
      <g>
       <use style="stroke:#000000;stroke-width:0.8;" x="303.473665" xlink:href="#mbda5ff3c60" y="531.2"/>
      </g>
     </g>
     <g id="text_25">
      <!-- 46.5 -->
      <g transform="translate(292.340853 545.798437)scale(0.1 -0.1)">
       <use xlink:href="#DejaVuSans-34"/>
       <use x="63.623047" xlink:href="#DejaVuSans-36"/>
       <use x="127.246094" xlink:href="#DejaVuSans-2e"/>
       <use x="159.033203" xlink:href="#DejaVuSans-35"/>
      </g>
     </g>
    </g>
    <g id="xtick_15">
     <g id="line2d_39">
      <path clip-path="url(#p1728facf6d)" d="M 354.907211 531.2 
L 354.907211 320.1 
" style="fill:none;stroke:#b0b0b0;stroke-linecap:square;stroke-width:0.8;"/>
     </g>
     <g id="line2d_40">
      <g>
       <use style="stroke:#000000;stroke-width:0.8;" x="354.907211" xlink:href="#mbda5ff3c60" y="531.2"/>
      </g>
     </g>
     <g id="text_26">
      <!-- 47.0 -->
      <g transform="translate(343.774398 545.798437)scale(0.1 -0.1)">
       <defs>
        <path d="M 525 4666 
L 3525 4666 
L 3525 4397 
L 1831 0 
L 1172 0 
L 2766 4134 
L 525 4134 
L 525 4666 
z
" id="DejaVuSans-37" transform="scale(0.015625)"/>
       </defs>
       <use xlink:href="#DejaVuSans-34"/>
       <use x="63.623047" xlink:href="#DejaVuSans-37"/>
       <use x="127.246094" xlink:href="#DejaVuSans-2e"/>
       <use x="159.033203" xlink:href="#DejaVuSans-30"/>
      </g>
     </g>
    </g>
    <g id="xtick_16">
     <g id="line2d_41">
      <path clip-path="url(#p1728facf6d)" d="M 406.340756 531.2 
L 406.340756 320.1 
" style="fill:none;stroke:#b0b0b0;stroke-linecap:square;stroke-width:0.8;"/>
     </g>
     <g id="line2d_42">
      <g>
       <use style="stroke:#000000;stroke-width:0.8;" x="406.340756" xlink:href="#mbda5ff3c60" y="531.2"/>
      </g>
     </g>
     <g id="text_27">
      <!-- 47.5 -->
      <g transform="translate(395.207944 545.798437)scale(0.1 -0.1)">
       <use xlink:href="#DejaVuSans-34"/>
       <use x="63.623047" xlink:href="#DejaVuSans-37"/>
       <use x="127.246094" xlink:href="#DejaVuSans-2e"/>
       <use x="159.033203" xlink:href="#DejaVuSans-35"/>
      </g>
     </g>
    </g>
    <g id="text_28">
     <!-- ln(product) -->
     <g transform="translate(204.336562 560.99625)scale(0.12 -0.12)">
      <defs>
       <path d="M 1984 4856 
Q 1566 4138 1362 3434 
Q 1159 2731 1159 2009 
Q 1159 1288 1364 580 
Q 1569 -128 1984 -844 
L 1484 -844 
Q 1016 -109 783 600 
Q 550 1309 550 2009 
Q 550 2706 781 3412 
Q 1013 4119 1484 4856 
L 1984 4856 
z
" id="DejaVuSans-28" transform="scale(0.015625)"/>
       <path d="M 513 4856 
L 1013 4856 
Q 1481 4119 1714 3412 
Q 1947 2706 1947 2009 
Q 1947 1309 1714 600 
Q 1481 -109 1013 -844 
L 513 -844 
Q 928 -128 1133 580 
Q 1338 1288 1338 2009 
Q 1338 2731 1133 3434 
Q 928 4138 513 4856 
z
" id="DejaVuSans-29" transform="scale(0.015625)"/>
      </defs>
      <use xlink:href="#DejaVuSans-6c"/>
      <use x="27.783203" xlink:href="#DejaVuSans-6e"/>
      <use x="91.162109" xlink:href="#DejaVuSans-28"/>
      <use x="130.175781" xlink:href="#DejaVuSans-70"/>
      <use x="193.652344" xlink:href="#DejaVuSans-72"/>
      <use x="232.515625" xlink:href="#DejaVuSans-6f"/>
      <use x="293.697266" xlink:href="#DejaVuSans-64"/>
      <use x="357.173828" xlink:href="#DejaVuSans-75"/>
      <use x="420.552734" xlink:href="#DejaVuSans-63"/>
      <use x="475.533203" xlink:href="#DejaVuSans-74"/>
      <use x="514.742188" xlink:href="#DejaVuSans-29"/>
     </g>
    </g>
   </g>
   <g id="matplotlib.axis_4">
    <g id="ytick_6">
     <g id="line2d_43">
      <path clip-path="url(#p1728facf6d)" d="M 53.925 531.2 
L 421.2 531.2 
" style="fill:none;stroke:#b0b0b0;stroke-linecap:square;stroke-width:0.8;"/>
     </g>
     <g id="line2d_44">
      <g>
       <use style="stroke:#000000;stroke-width:0.8;" x="53.925" xlink:href="#mfacf653e85" y="531.2"/>
      </g>
     </g>
     <g id="text_29">
      <!-- 0.0 -->
      <g transform="translate(31.021875 534.999219)scale(0.1 -0.1)">
       <use xlink:href="#DejaVuSans-30"/>
       <use x="63.623047" xlink:href="#DejaVuSans-2e"/>
       <use x="95.410156" xlink:href="#DejaVuSans-30"/>
      </g>
     </g>
    </g>
    <g id="ytick_7">
     <g id="line2d_45">
      <path clip-path="url(#p1728facf6d)" d="M 53.925 486.118061 
L 421.2 486.118061 
" style="fill:none;stroke:#b0b0b0;stroke-linecap:square;stroke-width:0.8;"/>
     </g>
     <g id="line2d_46">
      <g>
       <use style="stroke:#000000;stroke-width:0.8;" x="53.925" xlink:href="#mfacf653e85" y="486.118061"/>
      </g>
     </g>
     <g id="text_30">
      <!-- 0.2 -->
      <g transform="translate(31.021875 489.91728)scale(0.1 -0.1)">
       <use xlink:href="#DejaVuSans-30"/>
       <use x="63.623047" xlink:href="#DejaVuSans-2e"/>
       <use x="95.410156" xlink:href="#DejaVuSans-32"/>
      </g>
     </g>
    </g>
    <g id="ytick_8">
     <g id="line2d_47">
      <path clip-path="url(#p1728facf6d)" d="M 53.925 441.036122 
L 421.2 441.036122 
" style="fill:none;stroke:#b0b0b0;stroke-linecap:square;stroke-width:0.8;"/>
     </g>
     <g id="line2d_48">
      <g>
       <use style="stroke:#000000;stroke-width:0.8;" x="53.925" xlink:href="#mfacf653e85" y="441.036122"/>
      </g>
     </g>
     <g id="text_31">
      <!-- 0.4 -->
      <g transform="translate(31.021875 444.835341)scale(0.1 -0.1)">
       <use xlink:href="#DejaVuSans-30"/>
       <use x="63.623047" xlink:href="#DejaVuSans-2e"/>
       <use x="95.410156" xlink:href="#DejaVuSans-34"/>
      </g>
     </g>
    </g>
    <g id="ytick_9">
     <g id="line2d_49">
      <path clip-path="url(#p1728facf6d)" d="M 53.925 395.954183 
L 421.2 395.954183 
" style="fill:none;stroke:#b0b0b0;stroke-linecap:square;stroke-width:0.8;"/>
     </g>
     <g id="line2d_50">
      <g>
       <use style="stroke:#000000;stroke-width:0.8;" x="53.925" xlink:href="#mfacf653e85" y="395.954183"/>
      </g>
     </g>
     <g id="text_32">
      <!-- 0.6 -->
      <g transform="translate(31.021875 399.753402)scale(0.1 -0.1)">
       <use xlink:href="#DejaVuSans-30"/>
       <use x="63.623047" xlink:href="#DejaVuSans-2e"/>
       <use x="95.410156" xlink:href="#DejaVuSans-36"/>
      </g>
     </g>
    </g>
    <g id="ytick_10">
     <g id="line2d_51">
      <path clip-path="url(#p1728facf6d)" d="M 53.925 350.872244 
L 421.2 350.872244 
" style="fill:none;stroke:#b0b0b0;stroke-linecap:square;stroke-width:0.8;"/>
     </g>
     <g id="line2d_52">
      <g>
       <use style="stroke:#000000;stroke-width:0.8;" x="53.925" xlink:href="#mfacf653e85" y="350.872244"/>
      </g>
     </g>
     <g id="text_33">
      <!-- 0.8 -->
      <g transform="translate(31.021875 354.671463)scale(0.1 -0.1)">
       <use xlink:href="#DejaVuSans-30"/>
       <use x="63.623047" xlink:href="#DejaVuSans-2e"/>
       <use x="95.410156" xlink:href="#DejaVuSans-38"/>
      </g>
     </g>
    </g>
    <g id="text_34">
     <!-- relative probability -->
     <g transform="translate(24.52625 482.197187)rotate(-90)scale(0.12 -0.12)">
      <defs>
       <path d="M 191 3500 
L 800 3500 
L 1894 563 
L 2988 3500 
L 3597 3500 
L 2284 0 
L 1503 0 
L 191 3500 
z
" id="DejaVuSans-76" transform="scale(0.015625)"/>
       <path d="M 2059 -325 
Q 1816 -950 1584 -1140 
Q 1353 -1331 966 -1331 
L 506 -1331 
L 506 -850 
L 844 -850 
Q 1081 -850 1212 -737 
Q 1344 -625 1503 -206 
L 1606 56 
L 191 3500 
L 800 3500 
L 1894 763 
L 2988 3500 
L 3597 3500 
L 2059 -325 
z
" id="DejaVuSans-79" transform="scale(0.015625)"/>
      </defs>
      <use xlink:href="#DejaVuSans-72"/>
      <use x="38.863281" xlink:href="#DejaVuSans-65"/>
      <use x="100.386719" xlink:href="#DejaVuSans-6c"/>
      <use x="128.169922" xlink:href="#DejaVuSans-61"/>
      <use x="189.449219" xlink:href="#DejaVuSans-74"/>
      <use x="228.658203" xlink:href="#DejaVuSans-69"/>
      <use x="256.441406" xlink:href="#DejaVuSans-76"/>
      <use x="315.621094" xlink:href="#DejaVuSans-65"/>
      <use x="377.144531" xlink:href="#DejaVuSans-20"/>
      <use x="408.931641" xlink:href="#DejaVuSans-70"/>
      <use x="472.408203" xlink:href="#DejaVuSans-72"/>
      <use x="511.271484" xlink:href="#DejaVuSans-6f"/>
      <use x="572.453125" xlink:href="#DejaVuSans-62"/>
      <use x="635.929688" xlink:href="#DejaVuSans-61"/>
      <use x="697.208984" xlink:href="#DejaVuSans-62"/>
      <use x="760.685547" xlink:href="#DejaVuSans-69"/>
      <use x="788.46875" xlink:href="#DejaVuSans-6c"/>
      <use x="816.251953" xlink:href="#DejaVuSans-69"/>
      <use x="844.035156" xlink:href="#DejaVuSans-74"/>
      <use x="883.244141" xlink:href="#DejaVuSans-79"/>
     </g>
    </g>
   </g>
   <g id="line2d_53">
    <path clip-path="url(#p1728facf6d)" d="M 70.619318 531.030545 
L 77.433326 530.910009 
L 84.247333 530.71417 
L 91.06134 530.403189 
L 97.875348 529.920626 
L 104.689355 529.189006 
L 111.503363 528.105466 
L 118.31737 526.53823 
L 125.131378 524.324923 
L 131.945385 521.273975 
L 138.759392 517.170431 
L 145.5734 511.787369 
L 152.387407 504.903641 
L 159.201415 496.327913 
L 166.015422 485.927822 
L 172.829429 473.661841 
L 179.643437 459.610116 
L 186.457444 443.9996 
L 193.271452 427.218417 
L 200.085459 409.814869 
L 206.899467 392.477891 
L 213.713474 375.998113 
L 220.527481 361.211541 
L 227.341489 348.930921 
L 234.155496 339.872373 
L 240.969504 334.586427 
L 247.783511 333.402668 
L 254.597519 336.395724 
L 261.411526 343.377478 
L 268.225533 353.916641 
L 275.039541 367.382837 
L 281.853548 383.008958 
L 288.667556 399.963202 
L 295.481563 417.421442 
L 302.295571 434.631308 
L 309.109578 450.96139 
L 315.923585 465.931811 
L 322.737593 479.225436 
L 329.5516 490.681694 
L 336.365608 500.276915 
L 343.179615 508.09609 
L 349.993622 514.301068 
L 356.80763 519.099476 
L 363.621637 522.717571 
L 370.435645 525.378869 
L 377.249652 527.2892 
L 384.06366 528.627857 
L 390.877667 529.543866 
L 397.691674 530.15608 
L 404.505682 530.555816 
" style="fill:none;stroke:#ff7f0e;stroke-linecap:square;stroke-width:1.5;"/>
   </g>
   <g id="patch_110">
    <path d="M 53.925 531.2 
L 53.925 320.1 
" style="fill:none;stroke:#000000;stroke-linecap:square;stroke-linejoin:miter;stroke-width:0.8;"/>
   </g>
   <g id="patch_111">
    <path d="M 421.2 531.2 
L 421.2 320.1 
" style="fill:none;stroke:#000000;stroke-linecap:square;stroke-linejoin:miter;stroke-width:0.8;"/>
   </g>
   <g id="patch_112">
    <path d="M 53.925 531.2 
L 421.2 531.2 
" style="fill:none;stroke:#000000;stroke-linecap:square;stroke-linejoin:miter;stroke-width:0.8;"/>
   </g>
   <g id="patch_113">
    <path d="M 53.925 320.1 
L 421.2 320.1 
" style="fill:none;stroke:#000000;stroke-linecap:square;stroke-linejoin:miter;stroke-width:0.8;"/>
   </g>
   <g id="text_35">
    <!-- ln(distribution data)  Parametric Fit -->
    <g transform="translate(106.300781 314.1)scale(0.15 -0.15)">
     <defs>
      <path d="M 1259 4147 
L 1259 2394 
L 2053 2394 
Q 2494 2394 2734 2622 
Q 2975 2850 2975 3272 
Q 2975 3691 2734 3919 
Q 2494 4147 2053 4147 
L 1259 4147 
z
M 628 4666 
L 2053 4666 
Q 2838 4666 3239 4311 
Q 3641 3956 3641 3272 
Q 3641 2581 3239 2228 
Q 2838 1875 2053 1875 
L 1259 1875 
L 1259 0 
L 628 0 
L 628 4666 
z
" id="DejaVuSans-50" transform="scale(0.015625)"/>
      <path d="M 628 4666 
L 3309 4666 
L 3309 4134 
L 1259 4134 
L 1259 2759 
L 3109 2759 
L 3109 2228 
L 1259 2228 
L 1259 0 
L 628 0 
L 628 4666 
z
" id="DejaVuSans-46" transform="scale(0.015625)"/>
     </defs>
     <use xlink:href="#DejaVuSans-6c"/>
     <use x="27.783203" xlink:href="#DejaVuSans-6e"/>
     <use x="91.162109" xlink:href="#DejaVuSans-28"/>
     <use x="130.175781" xlink:href="#DejaVuSans-64"/>
     <use x="193.652344" xlink:href="#DejaVuSans-69"/>
     <use x="221.435547" xlink:href="#DejaVuSans-73"/>
     <use x="273.535156" xlink:href="#DejaVuSans-74"/>
     <use x="312.744141" xlink:href="#DejaVuSans-72"/>
     <use x="353.857422" xlink:href="#DejaVuSans-69"/>
     <use x="381.640625" xlink:href="#DejaVuSans-62"/>
     <use x="445.117188" xlink:href="#DejaVuSans-75"/>
     <use x="508.496094" xlink:href="#DejaVuSans-74"/>
     <use x="547.705078" xlink:href="#DejaVuSans-69"/>
     <use x="575.488281" xlink:href="#DejaVuSans-6f"/>
     <use x="636.669922" xlink:href="#DejaVuSans-6e"/>
     <use x="700.048828" xlink:href="#DejaVuSans-20"/>
     <use x="731.835938" xlink:href="#DejaVuSans-64"/>
     <use x="795.3125" xlink:href="#DejaVuSans-61"/>
     <use x="856.591797" xlink:href="#DejaVuSans-74"/>
     <use x="895.800781" xlink:href="#DejaVuSans-61"/>
     <use x="957.080078" xlink:href="#DejaVuSans-29"/>
     <use x="996.09375" xlink:href="#DejaVuSans-20"/>
     <use x="1027.880859" xlink:href="#DejaVuSans-20"/>
     <use x="1059.667969" xlink:href="#DejaVuSans-50"/>
     <use x="1115.470703" xlink:href="#DejaVuSans-61"/>
     <use x="1176.75" xlink:href="#DejaVuSans-72"/>
     <use x="1217.863281" xlink:href="#DejaVuSans-61"/>
     <use x="1279.142578" xlink:href="#DejaVuSans-6d"/>
     <use x="1376.554688" xlink:href="#DejaVuSans-65"/>
     <use x="1438.078125" xlink:href="#DejaVuSans-74"/>
     <use x="1477.287109" xlink:href="#DejaVuSans-72"/>
     <use x="1518.400391" xlink:href="#DejaVuSans-69"/>
     <use x="1546.183594" xlink:href="#DejaVuSans-63"/>
     <use x="1601.164062" xlink:href="#DejaVuSans-20"/>
     <use x="1632.951172" xlink:href="#DejaVuSans-46"/>
     <use x="1683.220703" xlink:href="#DejaVuSans-69"/>
     <use x="1711.003906" xlink:href="#DejaVuSans-74"/>
    </g>
   </g>
   <g id="legend_2">
    <g id="patch_114">
     <path d="M 318.665625 368.654063 
L 414.2 368.654063 
Q 416.2 368.654063 416.2 366.654063 
L 416.2 327.1 
Q 416.2 325.1 414.2 325.1 
L 318.665625 325.1 
Q 316.665625 325.1 316.665625 327.1 
L 316.665625 366.654063 
Q 316.665625 368.654063 318.665625 368.654063 
z
" style="fill:#ffffff;opacity:0.8;stroke:#cccccc;stroke-linejoin:miter;"/>
    </g>
    <g id="text_36">
     <!-- calculated -->
     <g transform="translate(340.648437 336.698437)scale(0.1 -0.1)">
      <use xlink:href="#DejaVuSans-63"/>
      <use x="54.980469" xlink:href="#DejaVuSans-61"/>
      <use x="116.259766" xlink:href="#DejaVuSans-6c"/>
      <use x="144.042969" xlink:href="#DejaVuSans-63"/>
      <use x="199.023438" xlink:href="#DejaVuSans-75"/>
      <use x="262.402344" xlink:href="#DejaVuSans-6c"/>
      <use x="290.185547" xlink:href="#DejaVuSans-61"/>
      <use x="351.464844" xlink:href="#DejaVuSans-74"/>
      <use x="390.673828" xlink:href="#DejaVuSans-65"/>
      <use x="452.197266" xlink:href="#DejaVuSans-64"/>
     </g>
    </g>
    <g id="line2d_54">
     <path d="M 320.665625 354.515312 
L 340.665625 354.515312 
" style="fill:none;stroke:#ff7f0e;stroke-linecap:square;stroke-width:1.5;"/>
    </g>
    <g id="line2d_55"/>
    <g id="text_37">
     <!-- mean: 45.94 -->
     <g transform="translate(348.665625 351.376562)scale(0.1 -0.1)">
      <defs>
       <path d="M 703 97 
L 703 672 
Q 941 559 1184 500 
Q 1428 441 1663 441 
Q 2288 441 2617 861 
Q 2947 1281 2994 2138 
Q 2813 1869 2534 1725 
Q 2256 1581 1919 1581 
Q 1219 1581 811 2004 
Q 403 2428 403 3163 
Q 403 3881 828 4315 
Q 1253 4750 1959 4750 
Q 2769 4750 3195 4129 
Q 3622 3509 3622 2328 
Q 3622 1225 3098 567 
Q 2575 -91 1691 -91 
Q 1453 -91 1209 -44 
Q 966 3 703 97 
z
M 1959 2075 
Q 2384 2075 2632 2365 
Q 2881 2656 2881 3163 
Q 2881 3666 2632 3958 
Q 2384 4250 1959 4250 
Q 1534 4250 1286 3958 
Q 1038 3666 1038 3163 
Q 1038 2656 1286 2365 
Q 1534 2075 1959 2075 
z
" id="DejaVuSans-39" transform="scale(0.015625)"/>
      </defs>
      <use xlink:href="#DejaVuSans-6d"/>
      <use x="97.412109" xlink:href="#DejaVuSans-65"/>
      <use x="158.935547" xlink:href="#DejaVuSans-61"/>
      <use x="220.214844" xlink:href="#DejaVuSans-6e"/>
      <use x="283.59375" xlink:href="#DejaVuSans-3a"/>
      <use x="317.285156" xlink:href="#DejaVuSans-20"/>
      <use x="349.072266" xlink:href="#DejaVuSans-34"/>
      <use x="412.695312" xlink:href="#DejaVuSans-35"/>
      <use x="476.318359" xlink:href="#DejaVuSans-2e"/>
      <use x="508.105469" xlink:href="#DejaVuSans-39"/>
      <use x="571.728516" xlink:href="#DejaVuSans-34"/>
     </g>
     <!-- sigma: 0.67 -->
     <g transform="translate(348.665625 362.574375)scale(0.1 -0.1)">
      <use xlink:href="#DejaVuSans-73"/>
      <use x="52.099609" xlink:href="#DejaVuSans-69"/>
      <use x="79.882812" xlink:href="#DejaVuSans-67"/>
      <use x="143.359375" xlink:href="#DejaVuSans-6d"/>
      <use x="240.771484" xlink:href="#DejaVuSans-61"/>
      <use x="302.050781" xlink:href="#DejaVuSans-3a"/>
      <use x="335.742188" xlink:href="#DejaVuSans-20"/>
      <use x="367.529297" xlink:href="#DejaVuSans-30"/>
      <use x="431.152344" xlink:href="#DejaVuSans-2e"/>
      <use x="462.939453" xlink:href="#DejaVuSans-36"/>
      <use x="526.5625" xlink:href="#DejaVuSans-37"/>
     </g>
    </g>
   </g>
  </g>
 </g>
 <defs>
  <clipPath id="p5addd5b74d">
   <rect height="211.1" width="367.275" x="53.925" y="46.2"/>
  </clipPath>
  <clipPath id="p1728facf6d">
   <rect height="211.1" width="367.275" x="53.925" y="320.1"/>
  </clipPath>
 </defs>
</svg>
