<?xml version="1.0" encoding="utf-8" standalone="no"?>
<!DOCTYPE svg PUBLIC "-//W3C//DTD SVG 1.1//EN"
  "http://www.w3.org/Graphics/SVG/1.1/DTD/svg11.dtd">
<svg height="288pt" version="1.1" viewBox="0 0 432 288" width="432pt" xmlns="http://www.w3.org/2000/svg" xmlns:xlink="http://www.w3.org/1999/xlink">
 <metadata>
  <rdf:RDF xmlns:cc="http://creativecommons.org/ns#" xmlns:dc="http://purl.org/dc/elements/1.1/" xmlns:rdf="http://www.w3.org/1999/02/22-rdf-syntax-ns#">
   <cc:Work>
    <dc:type rdf:resource="http://purl.org/dc/dcmitype/StillImage"/>
    <dc:date>2022-06-03T16:31:59.618152</dc:date>
    <dc:format>image/svg+xml</dc:format>
    <dc:creator>
     <cc:Agent>
      <dc:title>Matplotlib v3.4.3, https://matplotlib.org/</dc:title>
     </cc:Agent>
    </dc:creator>
   </cc:Work>
  </rdf:RDF>
 </metadata>
 <defs>
  <style type="text/css">*{stroke-linecap:butt;stroke-linejoin:round;}</style>
 </defs>
 <g id="figure_1">
  <g id="patch_1">
   <path d="M 0 288 
L 432 288 
L 432 0 
L 0 0 
z
" style="fill:none;"/>
  </g>
  <g id="axes_1">
   <g id="patch_2">
    <path d="M 54 252 
L 388.8 252 
L 388.8 34.56 
L 54 34.56 
z
" style="fill:#ffffff;"/>
   </g>
   <g id="matplotlib.axis_1">
    <g id="xtick_1">
     <g id="line2d_1">
      <path clip-path="url(#p183fbadae7)" d="M 69.218182 252 
L 69.218182 34.56 
" style="fill:none;stroke:#b0b0b0;stroke-linecap:square;stroke-width:0.8;"/>
     </g>
     <g id="line2d_2">
      <defs>
       <path d="M 0 0 
L 0 3.5 
" id="mf104394d2d" style="stroke:#000000;stroke-width:0.8;"/>
      </defs>
      <g>
       <use style="stroke:#000000;stroke-width:0.8;" x="69.218182" xlink:href="#mf104394d2d" y="252"/>
      </g>
     </g>
     <g id="text_1">
      <!-- 0.0 -->
      <g transform="translate(61.266619 266.598437)scale(0.1 -0.1)">
       <defs>
        <path d="M 2034 4250 
Q 1547 4250 1301 3770 
Q 1056 3291 1056 2328 
Q 1056 1369 1301 889 
Q 1547 409 2034 409 
Q 2525 409 2770 889 
Q 3016 1369 3016 2328 
Q 3016 3291 2770 3770 
Q 2525 4250 2034 4250 
z
M 2034 4750 
Q 2819 4750 3233 4129 
Q 3647 3509 3647 2328 
Q 3647 1150 3233 529 
Q 2819 -91 2034 -91 
Q 1250 -91 836 529 
Q 422 1150 422 2328 
Q 422 3509 836 4129 
Q 1250 4750 2034 4750 
z
" id="DejaVuSans-30" transform="scale(0.015625)"/>
        <path d="M 684 794 
L 1344 794 
L 1344 0 
L 684 0 
L 684 794 
z
" id="DejaVuSans-2e" transform="scale(0.015625)"/>
       </defs>
       <use xlink:href="#DejaVuSans-30"/>
       <use x="63.623047" xlink:href="#DejaVuSans-2e"/>
       <use x="95.410156" xlink:href="#DejaVuSans-30"/>
      </g>
     </g>
    </g>
    <g id="xtick_2">
     <g id="line2d_3">
      <path clip-path="url(#p183fbadae7)" d="M 107.745224 252 
L 107.745224 34.56 
" style="fill:none;stroke:#b0b0b0;stroke-linecap:square;stroke-width:0.8;"/>
     </g>
     <g id="line2d_4">
      <g>
       <use style="stroke:#000000;stroke-width:0.8;" x="107.745224" xlink:href="#mf104394d2d" y="252"/>
      </g>
     </g>
     <g id="text_2">
      <!-- 0.5 -->
      <g transform="translate(99.793662 266.598437)scale(0.1 -0.1)">
       <defs>
        <path d="M 691 4666 
L 3169 4666 
L 3169 4134 
L 1269 4134 
L 1269 2991 
Q 1406 3038 1543 3061 
Q 1681 3084 1819 3084 
Q 2600 3084 3056 2656 
Q 3513 2228 3513 1497 
Q 3513 744 3044 326 
Q 2575 -91 1722 -91 
Q 1428 -91 1123 -41 
Q 819 9 494 109 
L 494 744 
Q 775 591 1075 516 
Q 1375 441 1709 441 
Q 2250 441 2565 725 
Q 2881 1009 2881 1497 
Q 2881 1984 2565 2268 
Q 2250 2553 1709 2553 
Q 1456 2553 1204 2497 
Q 953 2441 691 2322 
L 691 4666 
z
" id="DejaVuSans-35" transform="scale(0.015625)"/>
       </defs>
       <use xlink:href="#DejaVuSans-30"/>
       <use x="63.623047" xlink:href="#DejaVuSans-2e"/>
       <use x="95.410156" xlink:href="#DejaVuSans-35"/>
      </g>
     </g>
    </g>
    <g id="xtick_3">
     <g id="line2d_5">
      <path clip-path="url(#p183fbadae7)" d="M 146.272267 252 
L 146.272267 34.56 
" style="fill:none;stroke:#b0b0b0;stroke-linecap:square;stroke-width:0.8;"/>
     </g>
     <g id="line2d_6">
      <g>
       <use style="stroke:#000000;stroke-width:0.8;" x="146.272267" xlink:href="#mf104394d2d" y="252"/>
      </g>
     </g>
     <g id="text_3">
      <!-- 1.0 -->
      <g transform="translate(138.320704 266.598437)scale(0.1 -0.1)">
       <defs>
        <path d="M 794 531 
L 1825 531 
L 1825 4091 
L 703 3866 
L 703 4441 
L 1819 4666 
L 2450 4666 
L 2450 531 
L 3481 531 
L 3481 0 
L 794 0 
L 794 531 
z
" id="DejaVuSans-31" transform="scale(0.015625)"/>
       </defs>
       <use xlink:href="#DejaVuSans-31"/>
       <use x="63.623047" xlink:href="#DejaVuSans-2e"/>
       <use x="95.410156" xlink:href="#DejaVuSans-30"/>
      </g>
     </g>
    </g>
    <g id="xtick_4">
     <g id="line2d_7">
      <path clip-path="url(#p183fbadae7)" d="M 184.79931 252 
L 184.79931 34.56 
" style="fill:none;stroke:#b0b0b0;stroke-linecap:square;stroke-width:0.8;"/>
     </g>
     <g id="line2d_8">
      <g>
       <use style="stroke:#000000;stroke-width:0.8;" x="184.79931" xlink:href="#mf104394d2d" y="252"/>
      </g>
     </g>
     <g id="text_4">
      <!-- 1.5 -->
      <g transform="translate(176.847747 266.598437)scale(0.1 -0.1)">
       <use xlink:href="#DejaVuSans-31"/>
       <use x="63.623047" xlink:href="#DejaVuSans-2e"/>
       <use x="95.410156" xlink:href="#DejaVuSans-35"/>
      </g>
     </g>
    </g>
    <g id="xtick_5">
     <g id="line2d_9">
      <path clip-path="url(#p183fbadae7)" d="M 223.326352 252 
L 223.326352 34.56 
" style="fill:none;stroke:#b0b0b0;stroke-linecap:square;stroke-width:0.8;"/>
     </g>
     <g id="line2d_10">
      <g>
       <use style="stroke:#000000;stroke-width:0.8;" x="223.326352" xlink:href="#mf104394d2d" y="252"/>
      </g>
     </g>
     <g id="text_5">
      <!-- 2.0 -->
      <g transform="translate(215.37479 266.598437)scale(0.1 -0.1)">
       <defs>
        <path d="M 1228 531 
L 3431 531 
L 3431 0 
L 469 0 
L 469 531 
Q 828 903 1448 1529 
Q 2069 2156 2228 2338 
Q 2531 2678 2651 2914 
Q 2772 3150 2772 3378 
Q 2772 3750 2511 3984 
Q 2250 4219 1831 4219 
Q 1534 4219 1204 4116 
Q 875 4013 500 3803 
L 500 4441 
Q 881 4594 1212 4672 
Q 1544 4750 1819 4750 
Q 2544 4750 2975 4387 
Q 3406 4025 3406 3419 
Q 3406 3131 3298 2873 
Q 3191 2616 2906 2266 
Q 2828 2175 2409 1742 
Q 1991 1309 1228 531 
z
" id="DejaVuSans-32" transform="scale(0.015625)"/>
       </defs>
       <use xlink:href="#DejaVuSans-32"/>
       <use x="63.623047" xlink:href="#DejaVuSans-2e"/>
       <use x="95.410156" xlink:href="#DejaVuSans-30"/>
      </g>
     </g>
    </g>
    <g id="xtick_6">
     <g id="line2d_11">
      <path clip-path="url(#p183fbadae7)" d="M 261.853395 252 
L 261.853395 34.56 
" style="fill:none;stroke:#b0b0b0;stroke-linecap:square;stroke-width:0.8;"/>
     </g>
     <g id="line2d_12">
      <g>
       <use style="stroke:#000000;stroke-width:0.8;" x="261.853395" xlink:href="#mf104394d2d" y="252"/>
      </g>
     </g>
     <g id="text_6">
      <!-- 2.5 -->
      <g transform="translate(253.901832 266.598437)scale(0.1 -0.1)">
       <use xlink:href="#DejaVuSans-32"/>
       <use x="63.623047" xlink:href="#DejaVuSans-2e"/>
       <use x="95.410156" xlink:href="#DejaVuSans-35"/>
      </g>
     </g>
    </g>
    <g id="xtick_7">
     <g id="line2d_13">
      <path clip-path="url(#p183fbadae7)" d="M 300.380437 252 
L 300.380437 34.56 
" style="fill:none;stroke:#b0b0b0;stroke-linecap:square;stroke-width:0.8;"/>
     </g>
     <g id="line2d_14">
      <g>
       <use style="stroke:#000000;stroke-width:0.8;" x="300.380437" xlink:href="#mf104394d2d" y="252"/>
      </g>
     </g>
     <g id="text_7">
      <!-- 3.0 -->
      <g transform="translate(292.428875 266.598437)scale(0.1 -0.1)">
       <defs>
        <path d="M 2597 2516 
Q 3050 2419 3304 2112 
Q 3559 1806 3559 1356 
Q 3559 666 3084 287 
Q 2609 -91 1734 -91 
Q 1441 -91 1130 -33 
Q 819 25 488 141 
L 488 750 
Q 750 597 1062 519 
Q 1375 441 1716 441 
Q 2309 441 2620 675 
Q 2931 909 2931 1356 
Q 2931 1769 2642 2001 
Q 2353 2234 1838 2234 
L 1294 2234 
L 1294 2753 
L 1863 2753 
Q 2328 2753 2575 2939 
Q 2822 3125 2822 3475 
Q 2822 3834 2567 4026 
Q 2313 4219 1838 4219 
Q 1578 4219 1281 4162 
Q 984 4106 628 3988 
L 628 4550 
Q 988 4650 1302 4700 
Q 1616 4750 1894 4750 
Q 2613 4750 3031 4423 
Q 3450 4097 3450 3541 
Q 3450 3153 3228 2886 
Q 3006 2619 2597 2516 
z
" id="DejaVuSans-33" transform="scale(0.015625)"/>
       </defs>
       <use xlink:href="#DejaVuSans-33"/>
       <use x="63.623047" xlink:href="#DejaVuSans-2e"/>
       <use x="95.410156" xlink:href="#DejaVuSans-30"/>
      </g>
     </g>
    </g>
    <g id="xtick_8">
     <g id="line2d_15">
      <path clip-path="url(#p183fbadae7)" d="M 338.90748 252 
L 338.90748 34.56 
" style="fill:none;stroke:#b0b0b0;stroke-linecap:square;stroke-width:0.8;"/>
     </g>
     <g id="line2d_16">
      <g>
       <use style="stroke:#000000;stroke-width:0.8;" x="338.90748" xlink:href="#mf104394d2d" y="252"/>
      </g>
     </g>
     <g id="text_8">
      <!-- 3.5 -->
      <g transform="translate(330.955917 266.598437)scale(0.1 -0.1)">
       <use xlink:href="#DejaVuSans-33"/>
       <use x="63.623047" xlink:href="#DejaVuSans-2e"/>
       <use x="95.410156" xlink:href="#DejaVuSans-35"/>
      </g>
     </g>
    </g>
    <g id="xtick_9">
     <g id="line2d_17">
      <path clip-path="url(#p183fbadae7)" d="M 377.434522 252 
L 377.434522 34.56 
" style="fill:none;stroke:#b0b0b0;stroke-linecap:square;stroke-width:0.8;"/>
     </g>
     <g id="line2d_18">
      <g>
       <use style="stroke:#000000;stroke-width:0.8;" x="377.434522" xlink:href="#mf104394d2d" y="252"/>
      </g>
     </g>
     <g id="text_9">
      <!-- 4.0 -->
      <g transform="translate(369.48296 266.598437)scale(0.1 -0.1)">
       <defs>
        <path d="M 2419 4116 
L 825 1625 
L 2419 1625 
L 2419 4116 
z
M 2253 4666 
L 3047 4666 
L 3047 1625 
L 3713 1625 
L 3713 1100 
L 3047 1100 
L 3047 0 
L 2419 0 
L 2419 1100 
L 313 1100 
L 313 1709 
L 2253 4666 
z
" id="DejaVuSans-34" transform="scale(0.015625)"/>
       </defs>
       <use xlink:href="#DejaVuSans-34"/>
       <use x="63.623047" xlink:href="#DejaVuSans-2e"/>
       <use x="95.410156" xlink:href="#DejaVuSans-30"/>
      </g>
     </g>
    </g>
    <g id="text_10">
     <!-- value -->
     <g transform="translate(205.010625 281.79625)scale(0.12 -0.12)">
      <defs>
       <path d="M 191 3500 
L 800 3500 
L 1894 563 
L 2988 3500 
L 3597 3500 
L 2284 0 
L 1503 0 
L 191 3500 
z
" id="DejaVuSans-76" transform="scale(0.015625)"/>
       <path d="M 2194 1759 
Q 1497 1759 1228 1600 
Q 959 1441 959 1056 
Q 959 750 1161 570 
Q 1363 391 1709 391 
Q 2188 391 2477 730 
Q 2766 1069 2766 1631 
L 2766 1759 
L 2194 1759 
z
M 3341 1997 
L 3341 0 
L 2766 0 
L 2766 531 
Q 2569 213 2275 61 
Q 1981 -91 1556 -91 
Q 1019 -91 701 211 
Q 384 513 384 1019 
Q 384 1609 779 1909 
Q 1175 2209 1959 2209 
L 2766 2209 
L 2766 2266 
Q 2766 2663 2505 2880 
Q 2244 3097 1772 3097 
Q 1472 3097 1187 3025 
Q 903 2953 641 2809 
L 641 3341 
Q 956 3463 1253 3523 
Q 1550 3584 1831 3584 
Q 2591 3584 2966 3190 
Q 3341 2797 3341 1997 
z
" id="DejaVuSans-61" transform="scale(0.015625)"/>
       <path d="M 603 4863 
L 1178 4863 
L 1178 0 
L 603 0 
L 603 4863 
z
" id="DejaVuSans-6c" transform="scale(0.015625)"/>
       <path d="M 544 1381 
L 544 3500 
L 1119 3500 
L 1119 1403 
Q 1119 906 1312 657 
Q 1506 409 1894 409 
Q 2359 409 2629 706 
Q 2900 1003 2900 1516 
L 2900 3500 
L 3475 3500 
L 3475 0 
L 2900 0 
L 2900 538 
Q 2691 219 2414 64 
Q 2138 -91 1772 -91 
Q 1169 -91 856 284 
Q 544 659 544 1381 
z
M 1991 3584 
L 1991 3584 
z
" id="DejaVuSans-75" transform="scale(0.015625)"/>
       <path d="M 3597 1894 
L 3597 1613 
L 953 1613 
Q 991 1019 1311 708 
Q 1631 397 2203 397 
Q 2534 397 2845 478 
Q 3156 559 3463 722 
L 3463 178 
Q 3153 47 2828 -22 
Q 2503 -91 2169 -91 
Q 1331 -91 842 396 
Q 353 884 353 1716 
Q 353 2575 817 3079 
Q 1281 3584 2069 3584 
Q 2775 3584 3186 3129 
Q 3597 2675 3597 1894 
z
M 3022 2063 
Q 3016 2534 2758 2815 
Q 2500 3097 2075 3097 
Q 1594 3097 1305 2825 
Q 1016 2553 972 2059 
L 3022 2063 
z
" id="DejaVuSans-65" transform="scale(0.015625)"/>
      </defs>
      <use xlink:href="#DejaVuSans-76"/>
      <use x="59.179688" xlink:href="#DejaVuSans-61"/>
      <use x="120.458984" xlink:href="#DejaVuSans-6c"/>
      <use x="148.242188" xlink:href="#DejaVuSans-75"/>
      <use x="211.621094" xlink:href="#DejaVuSans-65"/>
     </g>
    </g>
   </g>
   <g id="matplotlib.axis_2">
    <g id="ytick_1">
     <g id="line2d_19">
      <path clip-path="url(#p183fbadae7)" d="M 54 242.116364 
L 388.8 242.116364 
" style="fill:none;stroke:#b0b0b0;stroke-linecap:square;stroke-width:0.8;"/>
     </g>
     <g id="line2d_20">
      <defs>
       <path d="M 0 0 
L -3.5 0 
" id="mc9a414f34f" style="stroke:#000000;stroke-width:0.8;"/>
      </defs>
      <g>
       <use style="stroke:#000000;stroke-width:0.8;" x="54" xlink:href="#mc9a414f34f" y="242.116364"/>
      </g>
     </g>
     <g id="text_11">
      <!-- 0.00 -->
      <g transform="translate(24.734375 245.915582)scale(0.1 -0.1)">
       <use xlink:href="#DejaVuSans-30"/>
       <use x="63.623047" xlink:href="#DejaVuSans-2e"/>
       <use x="95.410156" xlink:href="#DejaVuSans-30"/>
       <use x="159.033203" xlink:href="#DejaVuSans-30"/>
      </g>
     </g>
    </g>
    <g id="ytick_2">
     <g id="line2d_21">
      <path clip-path="url(#p183fbadae7)" d="M 54 212.070731 
L 388.8 212.070731 
" style="fill:none;stroke:#b0b0b0;stroke-linecap:square;stroke-width:0.8;"/>
     </g>
     <g id="line2d_22">
      <g>
       <use style="stroke:#000000;stroke-width:0.8;" x="54" xlink:href="#mc9a414f34f" y="212.070731"/>
      </g>
     </g>
     <g id="text_12">
      <!-- 0.25 -->
      <g transform="translate(24.734375 215.86995)scale(0.1 -0.1)">
       <use xlink:href="#DejaVuSans-30"/>
       <use x="63.623047" xlink:href="#DejaVuSans-2e"/>
       <use x="95.410156" xlink:href="#DejaVuSans-32"/>
       <use x="159.033203" xlink:href="#DejaVuSans-35"/>
      </g>
     </g>
    </g>
    <g id="ytick_3">
     <g id="line2d_23">
      <path clip-path="url(#p183fbadae7)" d="M 54 182.025099 
L 388.8 182.025099 
" style="fill:none;stroke:#b0b0b0;stroke-linecap:square;stroke-width:0.8;"/>
     </g>
     <g id="line2d_24">
      <g>
       <use style="stroke:#000000;stroke-width:0.8;" x="54" xlink:href="#mc9a414f34f" y="182.025099"/>
      </g>
     </g>
     <g id="text_13">
      <!-- 0.50 -->
      <g transform="translate(24.734375 185.824318)scale(0.1 -0.1)">
       <use xlink:href="#DejaVuSans-30"/>
       <use x="63.623047" xlink:href="#DejaVuSans-2e"/>
       <use x="95.410156" xlink:href="#DejaVuSans-35"/>
       <use x="159.033203" xlink:href="#DejaVuSans-30"/>
      </g>
     </g>
    </g>
    <g id="ytick_4">
     <g id="line2d_25">
      <path clip-path="url(#p183fbadae7)" d="M 54 151.979467 
L 388.8 151.979467 
" style="fill:none;stroke:#b0b0b0;stroke-linecap:square;stroke-width:0.8;"/>
     </g>
     <g id="line2d_26">
      <g>
       <use style="stroke:#000000;stroke-width:0.8;" x="54" xlink:href="#mc9a414f34f" y="151.979467"/>
      </g>
     </g>
     <g id="text_14">
      <!-- 0.75 -->
      <g transform="translate(24.734375 155.778685)scale(0.1 -0.1)">
       <defs>
        <path d="M 525 4666 
L 3525 4666 
L 3525 4397 
L 1831 0 
L 1172 0 
L 2766 4134 
L 525 4134 
L 525 4666 
z
" id="DejaVuSans-37" transform="scale(0.015625)"/>
       </defs>
       <use xlink:href="#DejaVuSans-30"/>
       <use x="63.623047" xlink:href="#DejaVuSans-2e"/>
       <use x="95.410156" xlink:href="#DejaVuSans-37"/>
       <use x="159.033203" xlink:href="#DejaVuSans-35"/>
      </g>
     </g>
    </g>
    <g id="ytick_5">
     <g id="line2d_27">
      <path clip-path="url(#p183fbadae7)" d="M 54 121.933834 
L 388.8 121.933834 
" style="fill:none;stroke:#b0b0b0;stroke-linecap:square;stroke-width:0.8;"/>
     </g>
     <g id="line2d_28">
      <g>
       <use style="stroke:#000000;stroke-width:0.8;" x="54" xlink:href="#mc9a414f34f" y="121.933834"/>
      </g>
     </g>
     <g id="text_15">
      <!-- 1.00 -->
      <g transform="translate(24.734375 125.733053)scale(0.1 -0.1)">
       <use xlink:href="#DejaVuSans-31"/>
       <use x="63.623047" xlink:href="#DejaVuSans-2e"/>
       <use x="95.410156" xlink:href="#DejaVuSans-30"/>
       <use x="159.033203" xlink:href="#DejaVuSans-30"/>
      </g>
     </g>
    </g>
    <g id="ytick_6">
     <g id="line2d_29">
      <path clip-path="url(#p183fbadae7)" d="M 54 91.888202 
L 388.8 91.888202 
" style="fill:none;stroke:#b0b0b0;stroke-linecap:square;stroke-width:0.8;"/>
     </g>
     <g id="line2d_30">
      <g>
       <use style="stroke:#000000;stroke-width:0.8;" x="54" xlink:href="#mc9a414f34f" y="91.888202"/>
      </g>
     </g>
     <g id="text_16">
      <!-- 1.25 -->
      <g transform="translate(24.734375 95.687421)scale(0.1 -0.1)">
       <use xlink:href="#DejaVuSans-31"/>
       <use x="63.623047" xlink:href="#DejaVuSans-2e"/>
       <use x="95.410156" xlink:href="#DejaVuSans-32"/>
       <use x="159.033203" xlink:href="#DejaVuSans-35"/>
      </g>
     </g>
    </g>
    <g id="ytick_7">
     <g id="line2d_31">
      <path clip-path="url(#p183fbadae7)" d="M 54 61.84257 
L 388.8 61.84257 
" style="fill:none;stroke:#b0b0b0;stroke-linecap:square;stroke-width:0.8;"/>
     </g>
     <g id="line2d_32">
      <g>
       <use style="stroke:#000000;stroke-width:0.8;" x="54" xlink:href="#mc9a414f34f" y="61.84257"/>
      </g>
     </g>
     <g id="text_17">
      <!-- 1.50 -->
      <g transform="translate(24.734375 65.641788)scale(0.1 -0.1)">
       <use xlink:href="#DejaVuSans-31"/>
       <use x="63.623047" xlink:href="#DejaVuSans-2e"/>
       <use x="95.410156" xlink:href="#DejaVuSans-35"/>
       <use x="159.033203" xlink:href="#DejaVuSans-30"/>
      </g>
     </g>
    </g>
    <g id="text_18">
     <!-- relative probability -->
     <g transform="translate(18.23875 199.827188)rotate(-90)scale(0.12 -0.12)">
      <defs>
       <path d="M 2631 2963 
Q 2534 3019 2420 3045 
Q 2306 3072 2169 3072 
Q 1681 3072 1420 2755 
Q 1159 2438 1159 1844 
L 1159 0 
L 581 0 
L 581 3500 
L 1159 3500 
L 1159 2956 
Q 1341 3275 1631 3429 
Q 1922 3584 2338 3584 
Q 2397 3584 2469 3576 
Q 2541 3569 2628 3553 
L 2631 2963 
z
" id="DejaVuSans-72" transform="scale(0.015625)"/>
       <path d="M 1172 4494 
L 1172 3500 
L 2356 3500 
L 2356 3053 
L 1172 3053 
L 1172 1153 
Q 1172 725 1289 603 
Q 1406 481 1766 481 
L 2356 481 
L 2356 0 
L 1766 0 
Q 1100 0 847 248 
Q 594 497 594 1153 
L 594 3053 
L 172 3053 
L 172 3500 
L 594 3500 
L 594 4494 
L 1172 4494 
z
" id="DejaVuSans-74" transform="scale(0.015625)"/>
       <path d="M 603 3500 
L 1178 3500 
L 1178 0 
L 603 0 
L 603 3500 
z
M 603 4863 
L 1178 4863 
L 1178 4134 
L 603 4134 
L 603 4863 
z
" id="DejaVuSans-69" transform="scale(0.015625)"/>
       <path id="DejaVuSans-20" transform="scale(0.015625)"/>
       <path d="M 1159 525 
L 1159 -1331 
L 581 -1331 
L 581 3500 
L 1159 3500 
L 1159 2969 
Q 1341 3281 1617 3432 
Q 1894 3584 2278 3584 
Q 2916 3584 3314 3078 
Q 3713 2572 3713 1747 
Q 3713 922 3314 415 
Q 2916 -91 2278 -91 
Q 1894 -91 1617 61 
Q 1341 213 1159 525 
z
M 3116 1747 
Q 3116 2381 2855 2742 
Q 2594 3103 2138 3103 
Q 1681 3103 1420 2742 
Q 1159 2381 1159 1747 
Q 1159 1113 1420 752 
Q 1681 391 2138 391 
Q 2594 391 2855 752 
Q 3116 1113 3116 1747 
z
" id="DejaVuSans-70" transform="scale(0.015625)"/>
       <path d="M 1959 3097 
Q 1497 3097 1228 2736 
Q 959 2375 959 1747 
Q 959 1119 1226 758 
Q 1494 397 1959 397 
Q 2419 397 2687 759 
Q 2956 1122 2956 1747 
Q 2956 2369 2687 2733 
Q 2419 3097 1959 3097 
z
M 1959 3584 
Q 2709 3584 3137 3096 
Q 3566 2609 3566 1747 
Q 3566 888 3137 398 
Q 2709 -91 1959 -91 
Q 1206 -91 779 398 
Q 353 888 353 1747 
Q 353 2609 779 3096 
Q 1206 3584 1959 3584 
z
" id="DejaVuSans-6f" transform="scale(0.015625)"/>
       <path d="M 3116 1747 
Q 3116 2381 2855 2742 
Q 2594 3103 2138 3103 
Q 1681 3103 1420 2742 
Q 1159 2381 1159 1747 
Q 1159 1113 1420 752 
Q 1681 391 2138 391 
Q 2594 391 2855 752 
Q 3116 1113 3116 1747 
z
M 1159 2969 
Q 1341 3281 1617 3432 
Q 1894 3584 2278 3584 
Q 2916 3584 3314 3078 
Q 3713 2572 3713 1747 
Q 3713 922 3314 415 
Q 2916 -91 2278 -91 
Q 1894 -91 1617 61 
Q 1341 213 1159 525 
L 1159 0 
L 581 0 
L 581 4863 
L 1159 4863 
L 1159 2969 
z
" id="DejaVuSans-62" transform="scale(0.015625)"/>
       <path d="M 2059 -325 
Q 1816 -950 1584 -1140 
Q 1353 -1331 966 -1331 
L 506 -1331 
L 506 -850 
L 844 -850 
Q 1081 -850 1212 -737 
Q 1344 -625 1503 -206 
L 1606 56 
L 191 3500 
L 800 3500 
L 1894 763 
L 2988 3500 
L 3597 3500 
L 2059 -325 
z
" id="DejaVuSans-79" transform="scale(0.015625)"/>
      </defs>
      <use xlink:href="#DejaVuSans-72"/>
      <use x="38.863281" xlink:href="#DejaVuSans-65"/>
      <use x="100.386719" xlink:href="#DejaVuSans-6c"/>
      <use x="128.169922" xlink:href="#DejaVuSans-61"/>
      <use x="189.449219" xlink:href="#DejaVuSans-74"/>
      <use x="228.658203" xlink:href="#DejaVuSans-69"/>
      <use x="256.441406" xlink:href="#DejaVuSans-76"/>
      <use x="315.621094" xlink:href="#DejaVuSans-65"/>
      <use x="377.144531" xlink:href="#DejaVuSans-20"/>
      <use x="408.931641" xlink:href="#DejaVuSans-70"/>
      <use x="472.408203" xlink:href="#DejaVuSans-72"/>
      <use x="511.271484" xlink:href="#DejaVuSans-6f"/>
      <use x="572.453125" xlink:href="#DejaVuSans-62"/>
      <use x="635.929688" xlink:href="#DejaVuSans-61"/>
      <use x="697.208984" xlink:href="#DejaVuSans-62"/>
      <use x="760.685547" xlink:href="#DejaVuSans-69"/>
      <use x="788.46875" xlink:href="#DejaVuSans-6c"/>
      <use x="816.251953" xlink:href="#DejaVuSans-69"/>
      <use x="844.035156" xlink:href="#DejaVuSans-74"/>
      <use x="883.244141" xlink:href="#DejaVuSans-79"/>
     </g>
    </g>
   </g>
   <g id="line2d_33">
    <path clip-path="url(#p183fbadae7)" d="M 69.218182 242.116364 
L 73.070886 231.326583 
L 76.92359 208.274142 
L 80.776295 189.255619 
L 84.628999 176.464509 
L 88.481703 168.750301 
L 92.334407 164.694387 
L 96.187112 163.165 
L 100.039816 163.343426 
L 103.89252 164.655443 
L 107.745224 166.702298 
L 111.597929 169.207837 
L 115.450633 171.980986 
L 119.303337 174.889758 
L 123.156041 177.843368 
L 127.008746 180.779887 
L 130.86145 183.657685 
L 134.714154 186.449456 
L 138.566858 189.13802 
L 142.419563 191.713352 
L 146.272267 194.170471 
L 150.124971 196.507926 
L 153.977675 198.726714 
L 157.83038 200.829495 
L 161.683084 202.820039 
L 165.535788 204.702809 
L 169.388493 206.48268 
L 173.241197 208.164724 
L 177.093901 209.754065 
L 180.946605 211.255778 
L 184.79931 212.674811 
L 188.652014 214.015944 
L 192.504718 215.283757 
L 196.357422 216.482612 
L 200.210127 217.616643 
L 204.062831 218.689757 
L 207.915535 219.705633 
L 211.768239 220.667733 
L 215.620944 221.579304 
L 219.473648 222.443391 
L 223.326352 223.262847 
L 227.179056 224.040341 
L 231.031761 224.77837 
L 234.884465 225.47927 
L 238.737169 226.145225 
L 242.589873 226.778278 
L 246.442578 227.380338 
L 250.295282 227.953192 
L 254.147986 228.498511 
L 258.00069 229.017857 
L 261.853395 229.512694 
L 265.706099 229.98439 
L 269.558803 230.43423 
L 273.411507 230.863414 
L 277.264212 231.27307 
L 281.116916 231.664252 
L 284.96962 232.037952 
L 288.822325 232.3951 
L 292.675029 232.736569 
L 296.527733 233.063178 
L 300.380437 233.375698 
L 304.233142 233.674854 
L 308.085846 233.961328 
L 311.93855 234.23576 
L 315.791254 234.498756 
L 319.643959 234.750883 
L 323.496663 234.992678 
L 327.349367 235.224647 
L 331.202071 235.447266 
L 335.054776 235.660986 
L 338.90748 235.866231 
L 342.760184 236.063404 
L 346.612888 236.252882 
L 350.465593 236.435026 
L 354.318297 236.610174 
L 358.171001 236.778647 
L 362.023705 236.940749 
L 365.87641 237.096768 
L 369.729114 237.246977 
L 373.581818 237.391634 
" style="fill:none;stroke:#1f77b4;stroke-linecap:square;stroke-width:1.5;"/>
    <defs>
     <path d="M 0 1.5 
C 0.397805 1.5 0.77937 1.341951 1.06066 1.06066 
C 1.341951 0.77937 1.5 0.397805 1.5 0 
C 1.5 -0.397805 1.341951 -0.77937 1.06066 -1.06066 
C 0.77937 -1.341951 0.397805 -1.5 0 -1.5 
C -0.397805 -1.5 -0.77937 -1.341951 -1.06066 -1.06066 
C -1.341951 -0.77937 -1.5 -0.397805 -1.5 0 
C -1.5 0.397805 -1.341951 0.77937 -1.06066 1.06066 
C -0.77937 1.341951 -0.397805 1.5 0 1.5 
z
" id="m87cae25022" style="stroke:#1f77b4;"/>
    </defs>
    <g clip-path="url(#p183fbadae7)">
     <use style="fill:#1f77b4;stroke:#1f77b4;" x="69.218182" xlink:href="#m87cae25022" y="242.116364"/>
     <use style="fill:#1f77b4;stroke:#1f77b4;" x="73.070886" xlink:href="#m87cae25022" y="231.326583"/>
     <use style="fill:#1f77b4;stroke:#1f77b4;" x="76.92359" xlink:href="#m87cae25022" y="208.274142"/>
     <use style="fill:#1f77b4;stroke:#1f77b4;" x="80.776295" xlink:href="#m87cae25022" y="189.255619"/>
     <use style="fill:#1f77b4;stroke:#1f77b4;" x="84.628999" xlink:href="#m87cae25022" y="176.464509"/>
     <use style="fill:#1f77b4;stroke:#1f77b4;" x="88.481703" xlink:href="#m87cae25022" y="168.750301"/>
     <use style="fill:#1f77b4;stroke:#1f77b4;" x="92.334407" xlink:href="#m87cae25022" y="164.694387"/>
     <use style="fill:#1f77b4;stroke:#1f77b4;" x="96.187112" xlink:href="#m87cae25022" y="163.165"/>
     <use style="fill:#1f77b4;stroke:#1f77b4;" x="100.039816" xlink:href="#m87cae25022" y="163.343426"/>
     <use style="fill:#1f77b4;stroke:#1f77b4;" x="103.89252" xlink:href="#m87cae25022" y="164.655443"/>
     <use style="fill:#1f77b4;stroke:#1f77b4;" x="107.745224" xlink:href="#m87cae25022" y="166.702298"/>
     <use style="fill:#1f77b4;stroke:#1f77b4;" x="111.597929" xlink:href="#m87cae25022" y="169.207837"/>
     <use style="fill:#1f77b4;stroke:#1f77b4;" x="115.450633" xlink:href="#m87cae25022" y="171.980986"/>
     <use style="fill:#1f77b4;stroke:#1f77b4;" x="119.303337" xlink:href="#m87cae25022" y="174.889758"/>
     <use style="fill:#1f77b4;stroke:#1f77b4;" x="123.156041" xlink:href="#m87cae25022" y="177.843368"/>
     <use style="fill:#1f77b4;stroke:#1f77b4;" x="127.008746" xlink:href="#m87cae25022" y="180.779887"/>
     <use style="fill:#1f77b4;stroke:#1f77b4;" x="130.86145" xlink:href="#m87cae25022" y="183.657685"/>
     <use style="fill:#1f77b4;stroke:#1f77b4;" x="134.714154" xlink:href="#m87cae25022" y="186.449456"/>
     <use style="fill:#1f77b4;stroke:#1f77b4;" x="138.566858" xlink:href="#m87cae25022" y="189.13802"/>
     <use style="fill:#1f77b4;stroke:#1f77b4;" x="142.419563" xlink:href="#m87cae25022" y="191.713352"/>
     <use style="fill:#1f77b4;stroke:#1f77b4;" x="146.272267" xlink:href="#m87cae25022" y="194.170471"/>
     <use style="fill:#1f77b4;stroke:#1f77b4;" x="150.124971" xlink:href="#m87cae25022" y="196.507926"/>
     <use style="fill:#1f77b4;stroke:#1f77b4;" x="153.977675" xlink:href="#m87cae25022" y="198.726714"/>
     <use style="fill:#1f77b4;stroke:#1f77b4;" x="157.83038" xlink:href="#m87cae25022" y="200.829495"/>
     <use style="fill:#1f77b4;stroke:#1f77b4;" x="161.683084" xlink:href="#m87cae25022" y="202.820039"/>
     <use style="fill:#1f77b4;stroke:#1f77b4;" x="165.535788" xlink:href="#m87cae25022" y="204.702809"/>
     <use style="fill:#1f77b4;stroke:#1f77b4;" x="169.388493" xlink:href="#m87cae25022" y="206.48268"/>
     <use style="fill:#1f77b4;stroke:#1f77b4;" x="173.241197" xlink:href="#m87cae25022" y="208.164724"/>
     <use style="fill:#1f77b4;stroke:#1f77b4;" x="177.093901" xlink:href="#m87cae25022" y="209.754065"/>
     <use style="fill:#1f77b4;stroke:#1f77b4;" x="180.946605" xlink:href="#m87cae25022" y="211.255778"/>
     <use style="fill:#1f77b4;stroke:#1f77b4;" x="184.79931" xlink:href="#m87cae25022" y="212.674811"/>
     <use style="fill:#1f77b4;stroke:#1f77b4;" x="188.652014" xlink:href="#m87cae25022" y="214.015944"/>
     <use style="fill:#1f77b4;stroke:#1f77b4;" x="192.504718" xlink:href="#m87cae25022" y="215.283757"/>
     <use style="fill:#1f77b4;stroke:#1f77b4;" x="196.357422" xlink:href="#m87cae25022" y="216.482612"/>
     <use style="fill:#1f77b4;stroke:#1f77b4;" x="200.210127" xlink:href="#m87cae25022" y="217.616643"/>
     <use style="fill:#1f77b4;stroke:#1f77b4;" x="204.062831" xlink:href="#m87cae25022" y="218.689757"/>
     <use style="fill:#1f77b4;stroke:#1f77b4;" x="207.915535" xlink:href="#m87cae25022" y="219.705633"/>
     <use style="fill:#1f77b4;stroke:#1f77b4;" x="211.768239" xlink:href="#m87cae25022" y="220.667733"/>
     <use style="fill:#1f77b4;stroke:#1f77b4;" x="215.620944" xlink:href="#m87cae25022" y="221.579304"/>
     <use style="fill:#1f77b4;stroke:#1f77b4;" x="219.473648" xlink:href="#m87cae25022" y="222.443391"/>
     <use style="fill:#1f77b4;stroke:#1f77b4;" x="223.326352" xlink:href="#m87cae25022" y="223.262847"/>
     <use style="fill:#1f77b4;stroke:#1f77b4;" x="227.179056" xlink:href="#m87cae25022" y="224.040341"/>
     <use style="fill:#1f77b4;stroke:#1f77b4;" x="231.031761" xlink:href="#m87cae25022" y="224.77837"/>
     <use style="fill:#1f77b4;stroke:#1f77b4;" x="234.884465" xlink:href="#m87cae25022" y="225.47927"/>
     <use style="fill:#1f77b4;stroke:#1f77b4;" x="238.737169" xlink:href="#m87cae25022" y="226.145225"/>
     <use style="fill:#1f77b4;stroke:#1f77b4;" x="242.589873" xlink:href="#m87cae25022" y="226.778278"/>
     <use style="fill:#1f77b4;stroke:#1f77b4;" x="246.442578" xlink:href="#m87cae25022" y="227.380338"/>
     <use style="fill:#1f77b4;stroke:#1f77b4;" x="250.295282" xlink:href="#m87cae25022" y="227.953192"/>
     <use style="fill:#1f77b4;stroke:#1f77b4;" x="254.147986" xlink:href="#m87cae25022" y="228.498511"/>
     <use style="fill:#1f77b4;stroke:#1f77b4;" x="258.00069" xlink:href="#m87cae25022" y="229.017857"/>
     <use style="fill:#1f77b4;stroke:#1f77b4;" x="261.853395" xlink:href="#m87cae25022" y="229.512694"/>
     <use style="fill:#1f77b4;stroke:#1f77b4;" x="265.706099" xlink:href="#m87cae25022" y="229.98439"/>
     <use style="fill:#1f77b4;stroke:#1f77b4;" x="269.558803" xlink:href="#m87cae25022" y="230.43423"/>
     <use style="fill:#1f77b4;stroke:#1f77b4;" x="273.411507" xlink:href="#m87cae25022" y="230.863414"/>
     <use style="fill:#1f77b4;stroke:#1f77b4;" x="277.264212" xlink:href="#m87cae25022" y="231.27307"/>
     <use style="fill:#1f77b4;stroke:#1f77b4;" x="281.116916" xlink:href="#m87cae25022" y="231.664252"/>
     <use style="fill:#1f77b4;stroke:#1f77b4;" x="284.96962" xlink:href="#m87cae25022" y="232.037952"/>
     <use style="fill:#1f77b4;stroke:#1f77b4;" x="288.822325" xlink:href="#m87cae25022" y="232.3951"/>
     <use style="fill:#1f77b4;stroke:#1f77b4;" x="292.675029" xlink:href="#m87cae25022" y="232.736569"/>
     <use style="fill:#1f77b4;stroke:#1f77b4;" x="296.527733" xlink:href="#m87cae25022" y="233.063178"/>
     <use style="fill:#1f77b4;stroke:#1f77b4;" x="300.380437" xlink:href="#m87cae25022" y="233.375698"/>
     <use style="fill:#1f77b4;stroke:#1f77b4;" x="304.233142" xlink:href="#m87cae25022" y="233.674854"/>
     <use style="fill:#1f77b4;stroke:#1f77b4;" x="308.085846" xlink:href="#m87cae25022" y="233.961328"/>
     <use style="fill:#1f77b4;stroke:#1f77b4;" x="311.93855" xlink:href="#m87cae25022" y="234.23576"/>
     <use style="fill:#1f77b4;stroke:#1f77b4;" x="315.791254" xlink:href="#m87cae25022" y="234.498756"/>
     <use style="fill:#1f77b4;stroke:#1f77b4;" x="319.643959" xlink:href="#m87cae25022" y="234.750883"/>
     <use style="fill:#1f77b4;stroke:#1f77b4;" x="323.496663" xlink:href="#m87cae25022" y="234.992678"/>
     <use style="fill:#1f77b4;stroke:#1f77b4;" x="327.349367" xlink:href="#m87cae25022" y="235.224647"/>
     <use style="fill:#1f77b4;stroke:#1f77b4;" x="331.202071" xlink:href="#m87cae25022" y="235.447266"/>
     <use style="fill:#1f77b4;stroke:#1f77b4;" x="335.054776" xlink:href="#m87cae25022" y="235.660986"/>
     <use style="fill:#1f77b4;stroke:#1f77b4;" x="338.90748" xlink:href="#m87cae25022" y="235.866231"/>
     <use style="fill:#1f77b4;stroke:#1f77b4;" x="342.760184" xlink:href="#m87cae25022" y="236.063404"/>
     <use style="fill:#1f77b4;stroke:#1f77b4;" x="346.612888" xlink:href="#m87cae25022" y="236.252882"/>
     <use style="fill:#1f77b4;stroke:#1f77b4;" x="350.465593" xlink:href="#m87cae25022" y="236.435026"/>
     <use style="fill:#1f77b4;stroke:#1f77b4;" x="354.318297" xlink:href="#m87cae25022" y="236.610174"/>
     <use style="fill:#1f77b4;stroke:#1f77b4;" x="358.171001" xlink:href="#m87cae25022" y="236.778647"/>
     <use style="fill:#1f77b4;stroke:#1f77b4;" x="362.023705" xlink:href="#m87cae25022" y="236.940749"/>
     <use style="fill:#1f77b4;stroke:#1f77b4;" x="365.87641" xlink:href="#m87cae25022" y="237.096768"/>
     <use style="fill:#1f77b4;stroke:#1f77b4;" x="369.729114" xlink:href="#m87cae25022" y="237.246977"/>
     <use style="fill:#1f77b4;stroke:#1f77b4;" x="373.581818" xlink:href="#m87cae25022" y="237.391634"/>
    </g>
   </g>
   <g id="line2d_34">
    <path clip-path="url(#p183fbadae7)" d="M 69.218182 242.116364 
L 73.070886 242.116364 
L 76.92359 242.116363 
L 80.776295 242.116331 
L 84.628999 242.11578 
L 88.481703 242.112021 
L 92.334407 242.097067 
L 96.187112 242.054973 
L 100.039816 241.961441 
L 103.89252 241.78599 
L 107.745224 241.4958 
L 111.597929 241.059938 
L 115.450633 240.452973 
L 119.303337 239.65744 
L 123.156041 238.665027 
L 127.008746 237.476652 
L 130.86145 236.101681 
L 134.714154 234.556609 
L 138.566858 232.863463 
L 142.419563 231.048138 
L 146.272267 229.138822 
L 150.124971 227.164591 
L 153.977675 225.154241 
L 157.83038 223.135347 
L 161.683084 221.133571 
L 165.535788 219.172171 
L 169.388493 217.271697 
L 173.241197 215.449851 
L 177.093901 213.721454 
L 180.946605 212.098519 
L 184.79931 210.590391 
L 188.652014 209.203936 
L 192.504718 207.943756 
L 196.357422 206.81243 
L 200.210127 205.81075 
L 204.062831 204.937961 
L 207.915535 204.191991 
L 211.768239 203.569664 
L 215.620944 203.0669 
L 219.473648 202.678897 
L 223.326352 202.400296 
L 227.179056 202.225323 
L 231.031761 202.147917 
L 234.884465 202.161844 
L 238.737169 202.260785 
L 242.589873 202.438425 
L 246.442578 202.688512 
L 250.295282 203.004916 
L 254.147986 203.381677 
L 258.00069 203.813032 
L 261.853395 204.29345 
L 265.706099 204.81765 
L 269.558803 205.380613 
L 273.411507 205.977594 
L 277.264212 206.604122 
L 281.116916 207.256008 
L 284.96962 207.929336 
L 288.822325 208.62046 
L 292.675029 209.326002 
L 296.527733 210.042837 
L 300.380437 210.768088 
L 304.233142 211.499114 
L 308.085846 212.233501 
L 311.93855 212.969046 
L 315.791254 213.703752 
L 319.643959 214.435811 
L 323.496663 215.163596 
L 327.349367 215.885647 
L 331.202071 216.600663 
L 335.054776 217.307487 
L 338.90748 218.0051 
L 342.760184 218.692609 
L 346.612888 219.369237 
L 350.465593 220.034316 
L 354.318297 220.687276 
L 358.171001 221.327637 
L 362.023705 221.955005 
L 365.87641 222.56906 
L 369.729114 223.169553 
L 373.581818 223.756296 
" style="fill:none;stroke:#ff7f0e;stroke-linecap:square;stroke-width:1.5;"/>
    <defs>
     <path d="M 0 1.5 
C 0.397805 1.5 0.77937 1.341951 1.06066 1.06066 
C 1.341951 0.77937 1.5 0.397805 1.5 0 
C 1.5 -0.397805 1.341951 -0.77937 1.06066 -1.06066 
C 0.77937 -1.341951 0.397805 -1.5 0 -1.5 
C -0.397805 -1.5 -0.77937 -1.341951 -1.06066 -1.06066 
C -1.341951 -0.77937 -1.5 -0.397805 -1.5 0 
C -1.5 0.397805 -1.341951 0.77937 -1.06066 1.06066 
C -0.77937 1.341951 -0.397805 1.5 0 1.5 
z
" id="mf3f0fd9fca" style="stroke:#ff7f0e;"/>
    </defs>
    <g clip-path="url(#p183fbadae7)">
     <use style="fill:#ff7f0e;stroke:#ff7f0e;" x="69.218182" xlink:href="#mf3f0fd9fca" y="242.116364"/>
     <use style="fill:#ff7f0e;stroke:#ff7f0e;" x="73.070886" xlink:href="#mf3f0fd9fca" y="242.116364"/>
     <use style="fill:#ff7f0e;stroke:#ff7f0e;" x="76.92359" xlink:href="#mf3f0fd9fca" y="242.116363"/>
     <use style="fill:#ff7f0e;stroke:#ff7f0e;" x="80.776295" xlink:href="#mf3f0fd9fca" y="242.116331"/>
     <use style="fill:#ff7f0e;stroke:#ff7f0e;" x="84.628999" xlink:href="#mf3f0fd9fca" y="242.11578"/>
     <use style="fill:#ff7f0e;stroke:#ff7f0e;" x="88.481703" xlink:href="#mf3f0fd9fca" y="242.112021"/>
     <use style="fill:#ff7f0e;stroke:#ff7f0e;" x="92.334407" xlink:href="#mf3f0fd9fca" y="242.097067"/>
     <use style="fill:#ff7f0e;stroke:#ff7f0e;" x="96.187112" xlink:href="#mf3f0fd9fca" y="242.054973"/>
     <use style="fill:#ff7f0e;stroke:#ff7f0e;" x="100.039816" xlink:href="#mf3f0fd9fca" y="241.961441"/>
     <use style="fill:#ff7f0e;stroke:#ff7f0e;" x="103.89252" xlink:href="#mf3f0fd9fca" y="241.78599"/>
     <use style="fill:#ff7f0e;stroke:#ff7f0e;" x="107.745224" xlink:href="#mf3f0fd9fca" y="241.4958"/>
     <use style="fill:#ff7f0e;stroke:#ff7f0e;" x="111.597929" xlink:href="#mf3f0fd9fca" y="241.059938"/>
     <use style="fill:#ff7f0e;stroke:#ff7f0e;" x="115.450633" xlink:href="#mf3f0fd9fca" y="240.452973"/>
     <use style="fill:#ff7f0e;stroke:#ff7f0e;" x="119.303337" xlink:href="#mf3f0fd9fca" y="239.65744"/>
     <use style="fill:#ff7f0e;stroke:#ff7f0e;" x="123.156041" xlink:href="#mf3f0fd9fca" y="238.665027"/>
     <use style="fill:#ff7f0e;stroke:#ff7f0e;" x="127.008746" xlink:href="#mf3f0fd9fca" y="237.476652"/>
     <use style="fill:#ff7f0e;stroke:#ff7f0e;" x="130.86145" xlink:href="#mf3f0fd9fca" y="236.101681"/>
     <use style="fill:#ff7f0e;stroke:#ff7f0e;" x="134.714154" xlink:href="#mf3f0fd9fca" y="234.556609"/>
     <use style="fill:#ff7f0e;stroke:#ff7f0e;" x="138.566858" xlink:href="#mf3f0fd9fca" y="232.863463"/>
     <use style="fill:#ff7f0e;stroke:#ff7f0e;" x="142.419563" xlink:href="#mf3f0fd9fca" y="231.048138"/>
     <use style="fill:#ff7f0e;stroke:#ff7f0e;" x="146.272267" xlink:href="#mf3f0fd9fca" y="229.138822"/>
     <use style="fill:#ff7f0e;stroke:#ff7f0e;" x="150.124971" xlink:href="#mf3f0fd9fca" y="227.164591"/>
     <use style="fill:#ff7f0e;stroke:#ff7f0e;" x="153.977675" xlink:href="#mf3f0fd9fca" y="225.154241"/>
     <use style="fill:#ff7f0e;stroke:#ff7f0e;" x="157.83038" xlink:href="#mf3f0fd9fca" y="223.135347"/>
     <use style="fill:#ff7f0e;stroke:#ff7f0e;" x="161.683084" xlink:href="#mf3f0fd9fca" y="221.133571"/>
     <use style="fill:#ff7f0e;stroke:#ff7f0e;" x="165.535788" xlink:href="#mf3f0fd9fca" y="219.172171"/>
     <use style="fill:#ff7f0e;stroke:#ff7f0e;" x="169.388493" xlink:href="#mf3f0fd9fca" y="217.271697"/>
     <use style="fill:#ff7f0e;stroke:#ff7f0e;" x="173.241197" xlink:href="#mf3f0fd9fca" y="215.449851"/>
     <use style="fill:#ff7f0e;stroke:#ff7f0e;" x="177.093901" xlink:href="#mf3f0fd9fca" y="213.721454"/>
     <use style="fill:#ff7f0e;stroke:#ff7f0e;" x="180.946605" xlink:href="#mf3f0fd9fca" y="212.098519"/>
     <use style="fill:#ff7f0e;stroke:#ff7f0e;" x="184.79931" xlink:href="#mf3f0fd9fca" y="210.590391"/>
     <use style="fill:#ff7f0e;stroke:#ff7f0e;" x="188.652014" xlink:href="#mf3f0fd9fca" y="209.203936"/>
     <use style="fill:#ff7f0e;stroke:#ff7f0e;" x="192.504718" xlink:href="#mf3f0fd9fca" y="207.943756"/>
     <use style="fill:#ff7f0e;stroke:#ff7f0e;" x="196.357422" xlink:href="#mf3f0fd9fca" y="206.81243"/>
     <use style="fill:#ff7f0e;stroke:#ff7f0e;" x="200.210127" xlink:href="#mf3f0fd9fca" y="205.81075"/>
     <use style="fill:#ff7f0e;stroke:#ff7f0e;" x="204.062831" xlink:href="#mf3f0fd9fca" y="204.937961"/>
     <use style="fill:#ff7f0e;stroke:#ff7f0e;" x="207.915535" xlink:href="#mf3f0fd9fca" y="204.191991"/>
     <use style="fill:#ff7f0e;stroke:#ff7f0e;" x="211.768239" xlink:href="#mf3f0fd9fca" y="203.569664"/>
     <use style="fill:#ff7f0e;stroke:#ff7f0e;" x="215.620944" xlink:href="#mf3f0fd9fca" y="203.0669"/>
     <use style="fill:#ff7f0e;stroke:#ff7f0e;" x="219.473648" xlink:href="#mf3f0fd9fca" y="202.678897"/>
     <use style="fill:#ff7f0e;stroke:#ff7f0e;" x="223.326352" xlink:href="#mf3f0fd9fca" y="202.400296"/>
     <use style="fill:#ff7f0e;stroke:#ff7f0e;" x="227.179056" xlink:href="#mf3f0fd9fca" y="202.225323"/>
     <use style="fill:#ff7f0e;stroke:#ff7f0e;" x="231.031761" xlink:href="#mf3f0fd9fca" y="202.147917"/>
     <use style="fill:#ff7f0e;stroke:#ff7f0e;" x="234.884465" xlink:href="#mf3f0fd9fca" y="202.161844"/>
     <use style="fill:#ff7f0e;stroke:#ff7f0e;" x="238.737169" xlink:href="#mf3f0fd9fca" y="202.260785"/>
     <use style="fill:#ff7f0e;stroke:#ff7f0e;" x="242.589873" xlink:href="#mf3f0fd9fca" y="202.438425"/>
     <use style="fill:#ff7f0e;stroke:#ff7f0e;" x="246.442578" xlink:href="#mf3f0fd9fca" y="202.688512"/>
     <use style="fill:#ff7f0e;stroke:#ff7f0e;" x="250.295282" xlink:href="#mf3f0fd9fca" y="203.004916"/>
     <use style="fill:#ff7f0e;stroke:#ff7f0e;" x="254.147986" xlink:href="#mf3f0fd9fca" y="203.381677"/>
     <use style="fill:#ff7f0e;stroke:#ff7f0e;" x="258.00069" xlink:href="#mf3f0fd9fca" y="203.813032"/>
     <use style="fill:#ff7f0e;stroke:#ff7f0e;" x="261.853395" xlink:href="#mf3f0fd9fca" y="204.29345"/>
     <use style="fill:#ff7f0e;stroke:#ff7f0e;" x="265.706099" xlink:href="#mf3f0fd9fca" y="204.81765"/>
     <use style="fill:#ff7f0e;stroke:#ff7f0e;" x="269.558803" xlink:href="#mf3f0fd9fca" y="205.380613"/>
     <use style="fill:#ff7f0e;stroke:#ff7f0e;" x="273.411507" xlink:href="#mf3f0fd9fca" y="205.977594"/>
     <use style="fill:#ff7f0e;stroke:#ff7f0e;" x="277.264212" xlink:href="#mf3f0fd9fca" y="206.604122"/>
     <use style="fill:#ff7f0e;stroke:#ff7f0e;" x="281.116916" xlink:href="#mf3f0fd9fca" y="207.256008"/>
     <use style="fill:#ff7f0e;stroke:#ff7f0e;" x="284.96962" xlink:href="#mf3f0fd9fca" y="207.929336"/>
     <use style="fill:#ff7f0e;stroke:#ff7f0e;" x="288.822325" xlink:href="#mf3f0fd9fca" y="208.62046"/>
     <use style="fill:#ff7f0e;stroke:#ff7f0e;" x="292.675029" xlink:href="#mf3f0fd9fca" y="209.326002"/>
     <use style="fill:#ff7f0e;stroke:#ff7f0e;" x="296.527733" xlink:href="#mf3f0fd9fca" y="210.042837"/>
     <use style="fill:#ff7f0e;stroke:#ff7f0e;" x="300.380437" xlink:href="#mf3f0fd9fca" y="210.768088"/>
     <use style="fill:#ff7f0e;stroke:#ff7f0e;" x="304.233142" xlink:href="#mf3f0fd9fca" y="211.499114"/>
     <use style="fill:#ff7f0e;stroke:#ff7f0e;" x="308.085846" xlink:href="#mf3f0fd9fca" y="212.233501"/>
     <use style="fill:#ff7f0e;stroke:#ff7f0e;" x="311.93855" xlink:href="#mf3f0fd9fca" y="212.969046"/>
     <use style="fill:#ff7f0e;stroke:#ff7f0e;" x="315.791254" xlink:href="#mf3f0fd9fca" y="213.703752"/>
     <use style="fill:#ff7f0e;stroke:#ff7f0e;" x="319.643959" xlink:href="#mf3f0fd9fca" y="214.435811"/>
     <use style="fill:#ff7f0e;stroke:#ff7f0e;" x="323.496663" xlink:href="#mf3f0fd9fca" y="215.163596"/>
     <use style="fill:#ff7f0e;stroke:#ff7f0e;" x="327.349367" xlink:href="#mf3f0fd9fca" y="215.885647"/>
     <use style="fill:#ff7f0e;stroke:#ff7f0e;" x="331.202071" xlink:href="#mf3f0fd9fca" y="216.600663"/>
     <use style="fill:#ff7f0e;stroke:#ff7f0e;" x="335.054776" xlink:href="#mf3f0fd9fca" y="217.307487"/>
     <use style="fill:#ff7f0e;stroke:#ff7f0e;" x="338.90748" xlink:href="#mf3f0fd9fca" y="218.0051"/>
     <use style="fill:#ff7f0e;stroke:#ff7f0e;" x="342.760184" xlink:href="#mf3f0fd9fca" y="218.692609"/>
     <use style="fill:#ff7f0e;stroke:#ff7f0e;" x="346.612888" xlink:href="#mf3f0fd9fca" y="219.369237"/>
     <use style="fill:#ff7f0e;stroke:#ff7f0e;" x="350.465593" xlink:href="#mf3f0fd9fca" y="220.034316"/>
     <use style="fill:#ff7f0e;stroke:#ff7f0e;" x="354.318297" xlink:href="#mf3f0fd9fca" y="220.687276"/>
     <use style="fill:#ff7f0e;stroke:#ff7f0e;" x="358.171001" xlink:href="#mf3f0fd9fca" y="221.327637"/>
     <use style="fill:#ff7f0e;stroke:#ff7f0e;" x="362.023705" xlink:href="#mf3f0fd9fca" y="221.955005"/>
     <use style="fill:#ff7f0e;stroke:#ff7f0e;" x="365.87641" xlink:href="#mf3f0fd9fca" y="222.56906"/>
     <use style="fill:#ff7f0e;stroke:#ff7f0e;" x="369.729114" xlink:href="#mf3f0fd9fca" y="223.169553"/>
     <use style="fill:#ff7f0e;stroke:#ff7f0e;" x="373.581818" xlink:href="#mf3f0fd9fca" y="223.756296"/>
    </g>
   </g>
   <g id="line2d_35">
    <path clip-path="url(#p183fbadae7)" d="M 69.218182 242.116364 
L 73.070886 242.116364 
L 76.92359 242.116364 
L 80.776295 242.116364 
L 84.628999 242.116363 
L 88.481703 242.116202 
L 92.334407 242.110483 
L 96.187112 242.035162 
L 100.039816 241.535972 
L 103.89252 239.520397 
L 107.745224 233.901948 
L 111.597929 222.132366 
L 115.450633 202.483821 
L 119.303337 175.259161 
L 123.156041 143.097902 
L 127.008746 110.227218 
L 130.86145 81.154625 
L 134.714154 59.463542 
L 138.566858 47.131623 
L 142.419563 44.443636 
L 146.272267 50.332794 
L 150.124971 62.910811 
L 153.977675 79.988538 
L 157.83038 99.474314 
L 161.683084 119.615665 
L 165.535788 139.100851 
L 169.388493 157.059232 
L 173.241197 173.002125 
L 177.093901 186.738124 
L 180.946605 198.285942 
L 184.79931 207.797789 
L 188.652014 215.498741 
L 192.504718 221.642757 
L 196.357422 226.483348 
L 200.210127 230.255923 
L 204.062831 233.168695 
L 207.915535 235.399405 
L 211.768239 237.095736 
L 215.620944 238.377797 
L 219.473648 239.341589 
L 223.326352 240.06276 
L 227.179056 240.600211 
L 231.031761 240.999346 
L 234.884465 241.294868 
L 238.737169 241.513105 
L 242.589873 241.673913 
L 246.442578 241.792179 
L 250.295282 241.879021 
L 254.147986 241.942705 
L 258.00069 241.989356 
L 261.853395 242.023501 
L 265.706099 242.048475 
L 269.558803 242.066734 
L 273.411507 242.080078 
L 277.264212 242.089828 
L 281.116916 242.096953 
L 284.96962 242.102159 
L 288.822325 242.105964 
L 292.675029 242.108745 
L 296.527733 242.11078 
L 300.380437 242.112268 
L 304.233142 242.113358 
L 308.085846 242.114155 
L 311.93855 242.11474 
L 315.791254 242.115169 
L 319.643959 242.115484 
L 323.496663 242.115715 
L 327.349367 242.115885 
L 331.202071 242.11601 
L 335.054776 242.116103 
L 338.90748 242.11617 
L 342.760184 242.116221 
L 346.612888 242.116258 
L 350.465593 242.116285 
L 354.318297 242.116305 
L 358.171001 242.11632 
L 362.023705 242.116331 
L 365.87641 242.116339 
L 369.729114 242.116346 
L 373.581818 242.11635 
" style="fill:none;stroke:#2ca02c;stroke-linecap:square;stroke-width:1.5;"/>
    <defs>
     <path d="M 0 1.5 
C 0.397805 1.5 0.77937 1.341951 1.06066 1.06066 
C 1.341951 0.77937 1.5 0.397805 1.5 0 
C 1.5 -0.397805 1.341951 -0.77937 1.06066 -1.06066 
C 0.77937 -1.341951 0.397805 -1.5 0 -1.5 
C -0.397805 -1.5 -0.77937 -1.341951 -1.06066 -1.06066 
C -1.341951 -0.77937 -1.5 -0.397805 -1.5 0 
C -1.5 0.397805 -1.341951 0.77937 -1.06066 1.06066 
C -0.77937 1.341951 -0.397805 1.5 0 1.5 
z
" id="m61f9ef1399" style="stroke:#2ca02c;"/>
    </defs>
    <g clip-path="url(#p183fbadae7)">
     <use style="fill:#2ca02c;stroke:#2ca02c;" x="69.218182" xlink:href="#m61f9ef1399" y="242.116364"/>
     <use style="fill:#2ca02c;stroke:#2ca02c;" x="73.070886" xlink:href="#m61f9ef1399" y="242.116364"/>
     <use style="fill:#2ca02c;stroke:#2ca02c;" x="76.92359" xlink:href="#m61f9ef1399" y="242.116364"/>
     <use style="fill:#2ca02c;stroke:#2ca02c;" x="80.776295" xlink:href="#m61f9ef1399" y="242.116364"/>
     <use style="fill:#2ca02c;stroke:#2ca02c;" x="84.628999" xlink:href="#m61f9ef1399" y="242.116363"/>
     <use style="fill:#2ca02c;stroke:#2ca02c;" x="88.481703" xlink:href="#m61f9ef1399" y="242.116202"/>
     <use style="fill:#2ca02c;stroke:#2ca02c;" x="92.334407" xlink:href="#m61f9ef1399" y="242.110483"/>
     <use style="fill:#2ca02c;stroke:#2ca02c;" x="96.187112" xlink:href="#m61f9ef1399" y="242.035162"/>
     <use style="fill:#2ca02c;stroke:#2ca02c;" x="100.039816" xlink:href="#m61f9ef1399" y="241.535972"/>
     <use style="fill:#2ca02c;stroke:#2ca02c;" x="103.89252" xlink:href="#m61f9ef1399" y="239.520397"/>
     <use style="fill:#2ca02c;stroke:#2ca02c;" x="107.745224" xlink:href="#m61f9ef1399" y="233.901948"/>
     <use style="fill:#2ca02c;stroke:#2ca02c;" x="111.597929" xlink:href="#m61f9ef1399" y="222.132366"/>
     <use style="fill:#2ca02c;stroke:#2ca02c;" x="115.450633" xlink:href="#m61f9ef1399" y="202.483821"/>
     <use style="fill:#2ca02c;stroke:#2ca02c;" x="119.303337" xlink:href="#m61f9ef1399" y="175.259161"/>
     <use style="fill:#2ca02c;stroke:#2ca02c;" x="123.156041" xlink:href="#m61f9ef1399" y="143.097902"/>
     <use style="fill:#2ca02c;stroke:#2ca02c;" x="127.008746" xlink:href="#m61f9ef1399" y="110.227218"/>
     <use style="fill:#2ca02c;stroke:#2ca02c;" x="130.86145" xlink:href="#m61f9ef1399" y="81.154625"/>
     <use style="fill:#2ca02c;stroke:#2ca02c;" x="134.714154" xlink:href="#m61f9ef1399" y="59.463542"/>
     <use style="fill:#2ca02c;stroke:#2ca02c;" x="138.566858" xlink:href="#m61f9ef1399" y="47.131623"/>
     <use style="fill:#2ca02c;stroke:#2ca02c;" x="142.419563" xlink:href="#m61f9ef1399" y="44.443636"/>
     <use style="fill:#2ca02c;stroke:#2ca02c;" x="146.272267" xlink:href="#m61f9ef1399" y="50.332794"/>
     <use style="fill:#2ca02c;stroke:#2ca02c;" x="150.124971" xlink:href="#m61f9ef1399" y="62.910811"/>
     <use style="fill:#2ca02c;stroke:#2ca02c;" x="153.977675" xlink:href="#m61f9ef1399" y="79.988538"/>
     <use style="fill:#2ca02c;stroke:#2ca02c;" x="157.83038" xlink:href="#m61f9ef1399" y="99.474314"/>
     <use style="fill:#2ca02c;stroke:#2ca02c;" x="161.683084" xlink:href="#m61f9ef1399" y="119.615665"/>
     <use style="fill:#2ca02c;stroke:#2ca02c;" x="165.535788" xlink:href="#m61f9ef1399" y="139.100851"/>
     <use style="fill:#2ca02c;stroke:#2ca02c;" x="169.388493" xlink:href="#m61f9ef1399" y="157.059232"/>
     <use style="fill:#2ca02c;stroke:#2ca02c;" x="173.241197" xlink:href="#m61f9ef1399" y="173.002125"/>
     <use style="fill:#2ca02c;stroke:#2ca02c;" x="177.093901" xlink:href="#m61f9ef1399" y="186.738124"/>
     <use style="fill:#2ca02c;stroke:#2ca02c;" x="180.946605" xlink:href="#m61f9ef1399" y="198.285942"/>
     <use style="fill:#2ca02c;stroke:#2ca02c;" x="184.79931" xlink:href="#m61f9ef1399" y="207.797789"/>
     <use style="fill:#2ca02c;stroke:#2ca02c;" x="188.652014" xlink:href="#m61f9ef1399" y="215.498741"/>
     <use style="fill:#2ca02c;stroke:#2ca02c;" x="192.504718" xlink:href="#m61f9ef1399" y="221.642757"/>
     <use style="fill:#2ca02c;stroke:#2ca02c;" x="196.357422" xlink:href="#m61f9ef1399" y="226.483348"/>
     <use style="fill:#2ca02c;stroke:#2ca02c;" x="200.210127" xlink:href="#m61f9ef1399" y="230.255923"/>
     <use style="fill:#2ca02c;stroke:#2ca02c;" x="204.062831" xlink:href="#m61f9ef1399" y="233.168695"/>
     <use style="fill:#2ca02c;stroke:#2ca02c;" x="207.915535" xlink:href="#m61f9ef1399" y="235.399405"/>
     <use style="fill:#2ca02c;stroke:#2ca02c;" x="211.768239" xlink:href="#m61f9ef1399" y="237.095736"/>
     <use style="fill:#2ca02c;stroke:#2ca02c;" x="215.620944" xlink:href="#m61f9ef1399" y="238.377797"/>
     <use style="fill:#2ca02c;stroke:#2ca02c;" x="219.473648" xlink:href="#m61f9ef1399" y="239.341589"/>
     <use style="fill:#2ca02c;stroke:#2ca02c;" x="223.326352" xlink:href="#m61f9ef1399" y="240.06276"/>
     <use style="fill:#2ca02c;stroke:#2ca02c;" x="227.179056" xlink:href="#m61f9ef1399" y="240.600211"/>
     <use style="fill:#2ca02c;stroke:#2ca02c;" x="231.031761" xlink:href="#m61f9ef1399" y="240.999346"/>
     <use style="fill:#2ca02c;stroke:#2ca02c;" x="234.884465" xlink:href="#m61f9ef1399" y="241.294868"/>
     <use style="fill:#2ca02c;stroke:#2ca02c;" x="238.737169" xlink:href="#m61f9ef1399" y="241.513105"/>
     <use style="fill:#2ca02c;stroke:#2ca02c;" x="242.589873" xlink:href="#m61f9ef1399" y="241.673913"/>
     <use style="fill:#2ca02c;stroke:#2ca02c;" x="246.442578" xlink:href="#m61f9ef1399" y="241.792179"/>
     <use style="fill:#2ca02c;stroke:#2ca02c;" x="250.295282" xlink:href="#m61f9ef1399" y="241.879021"/>
     <use style="fill:#2ca02c;stroke:#2ca02c;" x="254.147986" xlink:href="#m61f9ef1399" y="241.942705"/>
     <use style="fill:#2ca02c;stroke:#2ca02c;" x="258.00069" xlink:href="#m61f9ef1399" y="241.989356"/>
     <use style="fill:#2ca02c;stroke:#2ca02c;" x="261.853395" xlink:href="#m61f9ef1399" y="242.023501"/>
     <use style="fill:#2ca02c;stroke:#2ca02c;" x="265.706099" xlink:href="#m61f9ef1399" y="242.048475"/>
     <use style="fill:#2ca02c;stroke:#2ca02c;" x="269.558803" xlink:href="#m61f9ef1399" y="242.066734"/>
     <use style="fill:#2ca02c;stroke:#2ca02c;" x="273.411507" xlink:href="#m61f9ef1399" y="242.080078"/>
     <use style="fill:#2ca02c;stroke:#2ca02c;" x="277.264212" xlink:href="#m61f9ef1399" y="242.089828"/>
     <use style="fill:#2ca02c;stroke:#2ca02c;" x="281.116916" xlink:href="#m61f9ef1399" y="242.096953"/>
     <use style="fill:#2ca02c;stroke:#2ca02c;" x="284.96962" xlink:href="#m61f9ef1399" y="242.102159"/>
     <use style="fill:#2ca02c;stroke:#2ca02c;" x="288.822325" xlink:href="#m61f9ef1399" y="242.105964"/>
     <use style="fill:#2ca02c;stroke:#2ca02c;" x="292.675029" xlink:href="#m61f9ef1399" y="242.108745"/>
     <use style="fill:#2ca02c;stroke:#2ca02c;" x="296.527733" xlink:href="#m61f9ef1399" y="242.11078"/>
     <use style="fill:#2ca02c;stroke:#2ca02c;" x="300.380437" xlink:href="#m61f9ef1399" y="242.112268"/>
     <use style="fill:#2ca02c;stroke:#2ca02c;" x="304.233142" xlink:href="#m61f9ef1399" y="242.113358"/>
     <use style="fill:#2ca02c;stroke:#2ca02c;" x="308.085846" xlink:href="#m61f9ef1399" y="242.114155"/>
     <use style="fill:#2ca02c;stroke:#2ca02c;" x="311.93855" xlink:href="#m61f9ef1399" y="242.11474"/>
     <use style="fill:#2ca02c;stroke:#2ca02c;" x="315.791254" xlink:href="#m61f9ef1399" y="242.115169"/>
     <use style="fill:#2ca02c;stroke:#2ca02c;" x="319.643959" xlink:href="#m61f9ef1399" y="242.115484"/>
     <use style="fill:#2ca02c;stroke:#2ca02c;" x="323.496663" xlink:href="#m61f9ef1399" y="242.115715"/>
     <use style="fill:#2ca02c;stroke:#2ca02c;" x="327.349367" xlink:href="#m61f9ef1399" y="242.115885"/>
     <use style="fill:#2ca02c;stroke:#2ca02c;" x="331.202071" xlink:href="#m61f9ef1399" y="242.11601"/>
     <use style="fill:#2ca02c;stroke:#2ca02c;" x="335.054776" xlink:href="#m61f9ef1399" y="242.116103"/>
     <use style="fill:#2ca02c;stroke:#2ca02c;" x="338.90748" xlink:href="#m61f9ef1399" y="242.11617"/>
     <use style="fill:#2ca02c;stroke:#2ca02c;" x="342.760184" xlink:href="#m61f9ef1399" y="242.116221"/>
     <use style="fill:#2ca02c;stroke:#2ca02c;" x="346.612888" xlink:href="#m61f9ef1399" y="242.116258"/>
     <use style="fill:#2ca02c;stroke:#2ca02c;" x="350.465593" xlink:href="#m61f9ef1399" y="242.116285"/>
     <use style="fill:#2ca02c;stroke:#2ca02c;" x="354.318297" xlink:href="#m61f9ef1399" y="242.116305"/>
     <use style="fill:#2ca02c;stroke:#2ca02c;" x="358.171001" xlink:href="#m61f9ef1399" y="242.11632"/>
     <use style="fill:#2ca02c;stroke:#2ca02c;" x="362.023705" xlink:href="#m61f9ef1399" y="242.116331"/>
     <use style="fill:#2ca02c;stroke:#2ca02c;" x="365.87641" xlink:href="#m61f9ef1399" y="242.116339"/>
     <use style="fill:#2ca02c;stroke:#2ca02c;" x="369.729114" xlink:href="#m61f9ef1399" y="242.116346"/>
     <use style="fill:#2ca02c;stroke:#2ca02c;" x="373.581818" xlink:href="#m61f9ef1399" y="242.11635"/>
    </g>
   </g>
   <g id="patch_3">
    <path d="M 54 252 
L 54 34.56 
" style="fill:none;stroke:#000000;stroke-linecap:square;stroke-linejoin:miter;stroke-width:0.8;"/>
   </g>
   <g id="patch_4">
    <path d="M 388.8 252 
L 388.8 34.56 
" style="fill:none;stroke:#000000;stroke-linecap:square;stroke-linejoin:miter;stroke-width:0.8;"/>
   </g>
   <g id="patch_5">
    <path d="M 54 252 
L 388.8 252 
" style="fill:none;stroke:#000000;stroke-linecap:square;stroke-linejoin:miter;stroke-width:0.8;"/>
   </g>
   <g id="patch_6">
    <path d="M 54 34.56 
L 388.8 34.56 
" style="fill:none;stroke:#000000;stroke-linecap:square;stroke-linejoin:miter;stroke-width:0.8;"/>
   </g>
   <g id="text_19">
    <!-- lognormal distribution -->
    <g transform="translate(138.563672 28.56)scale(0.15 -0.15)">
     <defs>
      <path d="M 2906 1791 
Q 2906 2416 2648 2759 
Q 2391 3103 1925 3103 
Q 1463 3103 1205 2759 
Q 947 2416 947 1791 
Q 947 1169 1205 825 
Q 1463 481 1925 481 
Q 2391 481 2648 825 
Q 2906 1169 2906 1791 
z
M 3481 434 
Q 3481 -459 3084 -895 
Q 2688 -1331 1869 -1331 
Q 1566 -1331 1297 -1286 
Q 1028 -1241 775 -1147 
L 775 -588 
Q 1028 -725 1275 -790 
Q 1522 -856 1778 -856 
Q 2344 -856 2625 -561 
Q 2906 -266 2906 331 
L 2906 616 
Q 2728 306 2450 153 
Q 2172 0 1784 0 
Q 1141 0 747 490 
Q 353 981 353 1791 
Q 353 2603 747 3093 
Q 1141 3584 1784 3584 
Q 2172 3584 2450 3431 
Q 2728 3278 2906 2969 
L 2906 3500 
L 3481 3500 
L 3481 434 
z
" id="DejaVuSans-67" transform="scale(0.015625)"/>
      <path d="M 3513 2113 
L 3513 0 
L 2938 0 
L 2938 2094 
Q 2938 2591 2744 2837 
Q 2550 3084 2163 3084 
Q 1697 3084 1428 2787 
Q 1159 2491 1159 1978 
L 1159 0 
L 581 0 
L 581 3500 
L 1159 3500 
L 1159 2956 
Q 1366 3272 1645 3428 
Q 1925 3584 2291 3584 
Q 2894 3584 3203 3211 
Q 3513 2838 3513 2113 
z
" id="DejaVuSans-6e" transform="scale(0.015625)"/>
      <path d="M 3328 2828 
Q 3544 3216 3844 3400 
Q 4144 3584 4550 3584 
Q 5097 3584 5394 3201 
Q 5691 2819 5691 2113 
L 5691 0 
L 5113 0 
L 5113 2094 
Q 5113 2597 4934 2840 
Q 4756 3084 4391 3084 
Q 3944 3084 3684 2787 
Q 3425 2491 3425 1978 
L 3425 0 
L 2847 0 
L 2847 2094 
Q 2847 2600 2669 2842 
Q 2491 3084 2119 3084 
Q 1678 3084 1418 2786 
Q 1159 2488 1159 1978 
L 1159 0 
L 581 0 
L 581 3500 
L 1159 3500 
L 1159 2956 
Q 1356 3278 1631 3431 
Q 1906 3584 2284 3584 
Q 2666 3584 2933 3390 
Q 3200 3197 3328 2828 
z
" id="DejaVuSans-6d" transform="scale(0.015625)"/>
      <path d="M 2906 2969 
L 2906 4863 
L 3481 4863 
L 3481 0 
L 2906 0 
L 2906 525 
Q 2725 213 2448 61 
Q 2172 -91 1784 -91 
Q 1150 -91 751 415 
Q 353 922 353 1747 
Q 353 2572 751 3078 
Q 1150 3584 1784 3584 
Q 2172 3584 2448 3432 
Q 2725 3281 2906 2969 
z
M 947 1747 
Q 947 1113 1208 752 
Q 1469 391 1925 391 
Q 2381 391 2643 752 
Q 2906 1113 2906 1747 
Q 2906 2381 2643 2742 
Q 2381 3103 1925 3103 
Q 1469 3103 1208 2742 
Q 947 2381 947 1747 
z
" id="DejaVuSans-64" transform="scale(0.015625)"/>
      <path d="M 2834 3397 
L 2834 2853 
Q 2591 2978 2328 3040 
Q 2066 3103 1784 3103 
Q 1356 3103 1142 2972 
Q 928 2841 928 2578 
Q 928 2378 1081 2264 
Q 1234 2150 1697 2047 
L 1894 2003 
Q 2506 1872 2764 1633 
Q 3022 1394 3022 966 
Q 3022 478 2636 193 
Q 2250 -91 1575 -91 
Q 1294 -91 989 -36 
Q 684 19 347 128 
L 347 722 
Q 666 556 975 473 
Q 1284 391 1588 391 
Q 1994 391 2212 530 
Q 2431 669 2431 922 
Q 2431 1156 2273 1281 
Q 2116 1406 1581 1522 
L 1381 1569 
Q 847 1681 609 1914 
Q 372 2147 372 2553 
Q 372 3047 722 3315 
Q 1072 3584 1716 3584 
Q 2034 3584 2315 3537 
Q 2597 3491 2834 3397 
z
" id="DejaVuSans-73" transform="scale(0.015625)"/>
     </defs>
     <use xlink:href="#DejaVuSans-6c"/>
     <use x="27.783203" xlink:href="#DejaVuSans-6f"/>
     <use x="88.964844" xlink:href="#DejaVuSans-67"/>
     <use x="152.441406" xlink:href="#DejaVuSans-6e"/>
     <use x="215.820312" xlink:href="#DejaVuSans-6f"/>
     <use x="277.001953" xlink:href="#DejaVuSans-72"/>
     <use x="316.365234" xlink:href="#DejaVuSans-6d"/>
     <use x="413.777344" xlink:href="#DejaVuSans-61"/>
     <use x="475.056641" xlink:href="#DejaVuSans-6c"/>
     <use x="502.839844" xlink:href="#DejaVuSans-20"/>
     <use x="534.626953" xlink:href="#DejaVuSans-64"/>
     <use x="598.103516" xlink:href="#DejaVuSans-69"/>
     <use x="625.886719" xlink:href="#DejaVuSans-73"/>
     <use x="677.986328" xlink:href="#DejaVuSans-74"/>
     <use x="717.195312" xlink:href="#DejaVuSans-72"/>
     <use x="758.308594" xlink:href="#DejaVuSans-69"/>
     <use x="786.091797" xlink:href="#DejaVuSans-62"/>
     <use x="849.568359" xlink:href="#DejaVuSans-75"/>
     <use x="912.947266" xlink:href="#DejaVuSans-74"/>
     <use x="952.15625" xlink:href="#DejaVuSans-69"/>
     <use x="979.939453" xlink:href="#DejaVuSans-6f"/>
     <use x="1041.121094" xlink:href="#DejaVuSans-6e"/>
    </g>
   </g>
   <g id="legend_1">
    <g id="patch_7">
     <path d="M 276.296875 153.78125 
L 381.8 153.78125 
Q 383.8 153.78125 383.8 151.78125 
L 383.8 41.56 
Q 383.8 39.56 381.8 39.56 
L 276.296875 39.56 
Q 274.296875 39.56 274.296875 41.56 
L 274.296875 151.78125 
Q 274.296875 153.78125 276.296875 153.78125 
z
" style="fill:#ffffff;opacity:0.8;stroke:#cccccc;stroke-linejoin:miter;"/>
    </g>
    <g id="line2d_36">
     <path d="M 278.296875 59.896094 
L 298.296875 59.896094 
" style="fill:none;stroke:#1f77b4;stroke-linecap:square;stroke-width:1.5;"/>
    </g>
    <g id="line2d_37">
     <g>
      <use style="fill:#1f77b4;stroke:#1f77b4;" x="288.296875" xlink:href="#m87cae25022" y="59.896094"/>
     </g>
    </g>
    <g id="text_20">
     <!-- : 0.00 : 1.00 -->
     <g transform="translate(306.296875 51.158438)scale(0.1 -0.1)">
      <defs>
       <path d="M 544 -1331 
L 544 3500 
L 1119 3500 
L 1119 1325 
Q 1119 872 1334 640 
Q 1550 409 1972 409 
Q 2434 409 2667 671 
Q 2900 934 2900 1459 
L 2900 3500 
L 3475 3500 
L 3475 806 
Q 3475 619 3529 530 
Q 3584 441 3700 441 
Q 3728 441 3778 458 
Q 3828 475 3916 513 
L 3916 50 
Q 3788 -22 3673 -56 
Q 3559 -91 3450 -91 
Q 3234 -91 3106 31 
Q 2978 153 2931 403 
Q 2775 156 2548 32 
Q 2322 -91 2016 -91 
Q 1697 -91 1473 31 
Q 1250 153 1119 397 
L 1119 -1331 
L 544 -1331 
z
" id="DejaVuSans-3bc" transform="scale(0.015625)"/>
       <path d="M 750 794 
L 1409 794 
L 1409 0 
L 750 0 
L 750 794 
z
M 750 3309 
L 1409 3309 
L 1409 2516 
L 750 2516 
L 750 3309 
z
" id="DejaVuSans-3a" transform="scale(0.015625)"/>
       <path d="M 1959 3044 
Q 1484 3044 1228 2700 
Q 959 2341 959 1747 
Q 959 1119 1226 758 
Q 1494 397 1959 397 
Q 2419 397 2687 759 
Q 2956 1122 2956 1747 
Q 2956 2319 2688 2700 
Q 2441 3044 1959 3044 
z
M 1959 3500 
L 3869 3500 
L 3869 2925 
L 3225 2925 
Q 3566 2438 3566 1747 
Q 3566 888 3138 400 
Q 2709 -91 1959 -91 
Q 1206 -91 781 400 
Q 353 888 353 1747 
Q 353 2613 781 3097 
Q 1134 3500 1959 3500 
z
" id="DejaVuSans-3c3" transform="scale(0.015625)"/>
      </defs>
      <use xlink:href="#DejaVuSans-3bc"/>
      <use x="63.623047" xlink:href="#DejaVuSans-3a"/>
      <use x="97.314453" xlink:href="#DejaVuSans-20"/>
      <use x="129.101562" xlink:href="#DejaVuSans-30"/>
      <use x="192.724609" xlink:href="#DejaVuSans-2e"/>
      <use x="224.511719" xlink:href="#DejaVuSans-30"/>
      <use x="288.134766" xlink:href="#DejaVuSans-30"/>
      <use x="351.757812" xlink:href="#DejaVuSans-20"/>
      <use x="383.544922" xlink:href="#DejaVuSans-3c3"/>
      <use x="446.923828" xlink:href="#DejaVuSans-3a"/>
      <use x="480.615234" xlink:href="#DejaVuSans-20"/>
      <use x="512.402344" xlink:href="#DejaVuSans-31"/>
      <use x="576.025391" xlink:href="#DejaVuSans-2e"/>
      <use x="607.8125" xlink:href="#DejaVuSans-30"/>
      <use x="671.435547" xlink:href="#DejaVuSans-30"/>
     </g>
     <!-- mean 1.65 -->
     <g transform="translate(306.296875 62.35625)scale(0.1 -0.1)">
      <defs>
       <path d="M 2113 2584 
Q 1688 2584 1439 2293 
Q 1191 2003 1191 1497 
Q 1191 994 1439 701 
Q 1688 409 2113 409 
Q 2538 409 2786 701 
Q 3034 994 3034 1497 
Q 3034 2003 2786 2293 
Q 2538 2584 2113 2584 
z
M 3366 4563 
L 3366 3988 
Q 3128 4100 2886 4159 
Q 2644 4219 2406 4219 
Q 1781 4219 1451 3797 
Q 1122 3375 1075 2522 
Q 1259 2794 1537 2939 
Q 1816 3084 2150 3084 
Q 2853 3084 3261 2657 
Q 3669 2231 3669 1497 
Q 3669 778 3244 343 
Q 2819 -91 2113 -91 
Q 1303 -91 875 529 
Q 447 1150 447 2328 
Q 447 3434 972 4092 
Q 1497 4750 2381 4750 
Q 2619 4750 2861 4703 
Q 3103 4656 3366 4563 
z
" id="DejaVuSans-36" transform="scale(0.015625)"/>
      </defs>
      <use xlink:href="#DejaVuSans-6d"/>
      <use x="97.412109" xlink:href="#DejaVuSans-65"/>
      <use x="158.935547" xlink:href="#DejaVuSans-61"/>
      <use x="220.214844" xlink:href="#DejaVuSans-6e"/>
      <use x="283.59375" xlink:href="#DejaVuSans-20"/>
      <use x="315.380859" xlink:href="#DejaVuSans-31"/>
      <use x="379.003906" xlink:href="#DejaVuSans-2e"/>
      <use x="410.791016" xlink:href="#DejaVuSans-36"/>
      <use x="474.414062" xlink:href="#DejaVuSans-35"/>
     </g>
     <!-- variance 4.67 -->
     <g transform="translate(306.296875 73.554063)scale(0.1 -0.1)">
      <defs>
       <path d="M 3122 3366 
L 3122 2828 
Q 2878 2963 2633 3030 
Q 2388 3097 2138 3097 
Q 1578 3097 1268 2742 
Q 959 2388 959 1747 
Q 959 1106 1268 751 
Q 1578 397 2138 397 
Q 2388 397 2633 464 
Q 2878 531 3122 666 
L 3122 134 
Q 2881 22 2623 -34 
Q 2366 -91 2075 -91 
Q 1284 -91 818 406 
Q 353 903 353 1747 
Q 353 2603 823 3093 
Q 1294 3584 2113 3584 
Q 2378 3584 2631 3529 
Q 2884 3475 3122 3366 
z
" id="DejaVuSans-63" transform="scale(0.015625)"/>
      </defs>
      <use xlink:href="#DejaVuSans-76"/>
      <use x="59.179688" xlink:href="#DejaVuSans-61"/>
      <use x="120.458984" xlink:href="#DejaVuSans-72"/>
      <use x="161.572266" xlink:href="#DejaVuSans-69"/>
      <use x="189.355469" xlink:href="#DejaVuSans-61"/>
      <use x="250.634766" xlink:href="#DejaVuSans-6e"/>
      <use x="314.013672" xlink:href="#DejaVuSans-63"/>
      <use x="368.994141" xlink:href="#DejaVuSans-65"/>
      <use x="430.517578" xlink:href="#DejaVuSans-20"/>
      <use x="462.304688" xlink:href="#DejaVuSans-34"/>
      <use x="525.927734" xlink:href="#DejaVuSans-2e"/>
      <use x="557.714844" xlink:href="#DejaVuSans-36"/>
      <use x="621.337891" xlink:href="#DejaVuSans-37"/>
     </g>
    </g>
    <g id="line2d_38">
     <path d="M 278.296875 96.969844 
L 298.296875 96.969844 
" style="fill:none;stroke:#ff7f0e;stroke-linecap:square;stroke-width:1.5;"/>
    </g>
    <g id="line2d_39">
     <g>
      <use style="fill:#ff7f0e;stroke:#ff7f0e;" x="288.296875" xlink:href="#mf3f0fd9fca" y="96.969844"/>
     </g>
    </g>
    <g id="text_21">
     <!-- : 1.00 : 0.50 -->
     <g transform="translate(306.296875 88.232188)scale(0.1 -0.1)">
      <use xlink:href="#DejaVuSans-3bc"/>
      <use x="63.623047" xlink:href="#DejaVuSans-3a"/>
      <use x="97.314453" xlink:href="#DejaVuSans-20"/>
      <use x="129.101562" xlink:href="#DejaVuSans-31"/>
      <use x="192.724609" xlink:href="#DejaVuSans-2e"/>
      <use x="224.511719" xlink:href="#DejaVuSans-30"/>
      <use x="288.134766" xlink:href="#DejaVuSans-30"/>
      <use x="351.757812" xlink:href="#DejaVuSans-20"/>
      <use x="383.544922" xlink:href="#DejaVuSans-3c3"/>
      <use x="446.923828" xlink:href="#DejaVuSans-3a"/>
      <use x="480.615234" xlink:href="#DejaVuSans-20"/>
      <use x="512.402344" xlink:href="#DejaVuSans-30"/>
      <use x="576.025391" xlink:href="#DejaVuSans-2e"/>
      <use x="607.8125" xlink:href="#DejaVuSans-35"/>
      <use x="671.435547" xlink:href="#DejaVuSans-30"/>
     </g>
     <!-- mean 3.08 -->
     <g transform="translate(306.296875 99.43)scale(0.1 -0.1)">
      <defs>
       <path d="M 2034 2216 
Q 1584 2216 1326 1975 
Q 1069 1734 1069 1313 
Q 1069 891 1326 650 
Q 1584 409 2034 409 
Q 2484 409 2743 651 
Q 3003 894 3003 1313 
Q 3003 1734 2745 1975 
Q 2488 2216 2034 2216 
z
M 1403 2484 
Q 997 2584 770 2862 
Q 544 3141 544 3541 
Q 544 4100 942 4425 
Q 1341 4750 2034 4750 
Q 2731 4750 3128 4425 
Q 3525 4100 3525 3541 
Q 3525 3141 3298 2862 
Q 3072 2584 2669 2484 
Q 3125 2378 3379 2068 
Q 3634 1759 3634 1313 
Q 3634 634 3220 271 
Q 2806 -91 2034 -91 
Q 1263 -91 848 271 
Q 434 634 434 1313 
Q 434 1759 690 2068 
Q 947 2378 1403 2484 
z
M 1172 3481 
Q 1172 3119 1398 2916 
Q 1625 2713 2034 2713 
Q 2441 2713 2670 2916 
Q 2900 3119 2900 3481 
Q 2900 3844 2670 4047 
Q 2441 4250 2034 4250 
Q 1625 4250 1398 4047 
Q 1172 3844 1172 3481 
z
" id="DejaVuSans-38" transform="scale(0.015625)"/>
      </defs>
      <use xlink:href="#DejaVuSans-6d"/>
      <use x="97.412109" xlink:href="#DejaVuSans-65"/>
      <use x="158.935547" xlink:href="#DejaVuSans-61"/>
      <use x="220.214844" xlink:href="#DejaVuSans-6e"/>
      <use x="283.59375" xlink:href="#DejaVuSans-20"/>
      <use x="315.380859" xlink:href="#DejaVuSans-33"/>
      <use x="379.003906" xlink:href="#DejaVuSans-2e"/>
      <use x="410.791016" xlink:href="#DejaVuSans-30"/>
      <use x="474.414062" xlink:href="#DejaVuSans-38"/>
     </g>
     <!-- variance 2.69 -->
     <g transform="translate(306.296875 110.627813)scale(0.1 -0.1)">
      <defs>
       <path d="M 703 97 
L 703 672 
Q 941 559 1184 500 
Q 1428 441 1663 441 
Q 2288 441 2617 861 
Q 2947 1281 2994 2138 
Q 2813 1869 2534 1725 
Q 2256 1581 1919 1581 
Q 1219 1581 811 2004 
Q 403 2428 403 3163 
Q 403 3881 828 4315 
Q 1253 4750 1959 4750 
Q 2769 4750 3195 4129 
Q 3622 3509 3622 2328 
Q 3622 1225 3098 567 
Q 2575 -91 1691 -91 
Q 1453 -91 1209 -44 
Q 966 3 703 97 
z
M 1959 2075 
Q 2384 2075 2632 2365 
Q 2881 2656 2881 3163 
Q 2881 3666 2632 3958 
Q 2384 4250 1959 4250 
Q 1534 4250 1286 3958 
Q 1038 3666 1038 3163 
Q 1038 2656 1286 2365 
Q 1534 2075 1959 2075 
z
" id="DejaVuSans-39" transform="scale(0.015625)"/>
      </defs>
      <use xlink:href="#DejaVuSans-76"/>
      <use x="59.179688" xlink:href="#DejaVuSans-61"/>
      <use x="120.458984" xlink:href="#DejaVuSans-72"/>
      <use x="161.572266" xlink:href="#DejaVuSans-69"/>
      <use x="189.355469" xlink:href="#DejaVuSans-61"/>
      <use x="250.634766" xlink:href="#DejaVuSans-6e"/>
      <use x="314.013672" xlink:href="#DejaVuSans-63"/>
      <use x="368.994141" xlink:href="#DejaVuSans-65"/>
      <use x="430.517578" xlink:href="#DejaVuSans-20"/>
      <use x="462.304688" xlink:href="#DejaVuSans-32"/>
      <use x="525.927734" xlink:href="#DejaVuSans-2e"/>
      <use x="557.714844" xlink:href="#DejaVuSans-36"/>
      <use x="621.337891" xlink:href="#DejaVuSans-39"/>
     </g>
    </g>
    <g id="line2d_40">
     <path d="M 278.296875 134.043594 
L 298.296875 134.043594 
" style="fill:none;stroke:#2ca02c;stroke-linecap:square;stroke-width:1.5;"/>
    </g>
    <g id="line2d_41">
     <g>
      <use style="fill:#2ca02c;stroke:#2ca02c;" x="288.296875" xlink:href="#m61f9ef1399" y="134.043594"/>
     </g>
    </g>
    <g id="text_22">
     <!-- : 0.00 : 0.25 -->
     <g transform="translate(306.296875 125.305938)scale(0.1 -0.1)">
      <use xlink:href="#DejaVuSans-3bc"/>
      <use x="63.623047" xlink:href="#DejaVuSans-3a"/>
      <use x="97.314453" xlink:href="#DejaVuSans-20"/>
      <use x="129.101562" xlink:href="#DejaVuSans-30"/>
      <use x="192.724609" xlink:href="#DejaVuSans-2e"/>
      <use x="224.511719" xlink:href="#DejaVuSans-30"/>
      <use x="288.134766" xlink:href="#DejaVuSans-30"/>
      <use x="351.757812" xlink:href="#DejaVuSans-20"/>
      <use x="383.544922" xlink:href="#DejaVuSans-3c3"/>
      <use x="446.923828" xlink:href="#DejaVuSans-3a"/>
      <use x="480.615234" xlink:href="#DejaVuSans-20"/>
      <use x="512.402344" xlink:href="#DejaVuSans-30"/>
      <use x="576.025391" xlink:href="#DejaVuSans-2e"/>
      <use x="607.8125" xlink:href="#DejaVuSans-32"/>
      <use x="671.435547" xlink:href="#DejaVuSans-35"/>
     </g>
     <!-- mean 1.03 -->
     <g transform="translate(306.296875 136.50375)scale(0.1 -0.1)">
      <use xlink:href="#DejaVuSans-6d"/>
      <use x="97.412109" xlink:href="#DejaVuSans-65"/>
      <use x="158.935547" xlink:href="#DejaVuSans-61"/>
      <use x="220.214844" xlink:href="#DejaVuSans-6e"/>
      <use x="283.59375" xlink:href="#DejaVuSans-20"/>
      <use x="315.380859" xlink:href="#DejaVuSans-31"/>
      <use x="379.003906" xlink:href="#DejaVuSans-2e"/>
      <use x="410.791016" xlink:href="#DejaVuSans-30"/>
      <use x="474.414062" xlink:href="#DejaVuSans-33"/>
     </g>
     <!-- variance 0.07 -->
     <g transform="translate(306.296875 147.701563)scale(0.1 -0.1)">
      <use xlink:href="#DejaVuSans-76"/>
      <use x="59.179688" xlink:href="#DejaVuSans-61"/>
      <use x="120.458984" xlink:href="#DejaVuSans-72"/>
      <use x="161.572266" xlink:href="#DejaVuSans-69"/>
      <use x="189.355469" xlink:href="#DejaVuSans-61"/>
      <use x="250.634766" xlink:href="#DejaVuSans-6e"/>
      <use x="314.013672" xlink:href="#DejaVuSans-63"/>
      <use x="368.994141" xlink:href="#DejaVuSans-65"/>
      <use x="430.517578" xlink:href="#DejaVuSans-20"/>
      <use x="462.304688" xlink:href="#DejaVuSans-30"/>
      <use x="525.927734" xlink:href="#DejaVuSans-2e"/>
      <use x="557.714844" xlink:href="#DejaVuSans-30"/>
      <use x="621.337891" xlink:href="#DejaVuSans-37"/>
     </g>
    </g>
   </g>
  </g>
 </g>
 <defs>
  <clipPath id="p183fbadae7">
   <rect height="217.44" width="334.8" x="54" y="34.56"/>
  </clipPath>
 </defs>
</svg>
