<?xml version="1.0" encoding="utf-8" standalone="no"?>
<!DOCTYPE svg PUBLIC "-//W3C//DTD SVG 1.1//EN"
  "http://www.w3.org/Graphics/SVG/1.1/DTD/svg11.dtd">
<svg height="288pt" version="1.1" viewBox="0 0 432 288" width="432pt" xmlns="http://www.w3.org/2000/svg" xmlns:xlink="http://www.w3.org/1999/xlink">
 <metadata>
  <rdf:RDF xmlns:cc="http://creativecommons.org/ns#" xmlns:dc="http://purl.org/dc/elements/1.1/" xmlns:rdf="http://www.w3.org/1999/02/22-rdf-syntax-ns#">
   <cc:Work>
    <dc:type rdf:resource="http://purl.org/dc/dcmitype/StillImage"/>
    <dc:date>2022-05-30T15:15:05.930027</dc:date>
    <dc:format>image/svg+xml</dc:format>
    <dc:creator>
     <cc:Agent>
      <dc:title>Matplotlib v3.4.3, https://matplotlib.org/</dc:title>
     </cc:Agent>
    </dc:creator>
   </cc:Work>
  </rdf:RDF>
 </metadata>
 <defs>
  <style type="text/css">*{stroke-linecap:butt;stroke-linejoin:round;}</style>
 </defs>
 <g id="figure_1">
  <g id="patch_1">
   <path d="M 0 288 
L 432 288 
L 432 0 
L 0 0 
z
" style="fill:none;"/>
  </g>
  <g id="axes_1">
   <g id="patch_2">
    <path d="M 54 252 
L 388.8 252 
L 388.8 34.56 
L 54 34.56 
z
" style="fill:#ffffff;"/>
   </g>
   <g id="PathCollection_1">
    <defs>
     <path d="M 0 3 
C 0.795609 3 1.55874 2.683901 2.12132 2.12132 
C 2.683901 1.55874 3 0.795609 3 0 
C 3 -0.795609 2.683901 -1.55874 2.12132 -2.12132 
C 1.55874 -2.683901 0.795609 -3 0 -3 
C -0.795609 -3 -1.55874 -2.683901 -2.12132 -2.12132 
C -2.683901 -1.55874 -3 -0.795609 -3 0 
C -3 0.795609 -2.683901 1.55874 -2.12132 2.12132 
C -1.55874 2.683901 -0.795609 3 0 3 
z
" id="m8fbef15ec9" style="stroke:#ff7f0e;"/>
    </defs>
    <g clip-path="url(#p741f30309b)">
     <use style="fill:#ff7f0e;stroke:#ff7f0e;" x="70.425974" xlink:href="#m8fbef15ec9" y="252"/>
     <use style="fill:#ff7f0e;stroke:#ff7f0e;" x="76.464935" xlink:href="#m8fbef15ec9" y="252"/>
     <use style="fill:#ff7f0e;stroke:#ff7f0e;" x="82.503896" xlink:href="#m8fbef15ec9" y="251.999965"/>
     <use style="fill:#ff7f0e;stroke:#ff7f0e;" x="88.542857" xlink:href="#m8fbef15ec9" y="251.998801"/>
     <use style="fill:#ff7f0e;stroke:#ff7f0e;" x="94.581818" xlink:href="#m8fbef15ec9" y="251.979206"/>
     <use style="fill:#ff7f0e;stroke:#ff7f0e;" x="100.620779" xlink:href="#m8fbef15ec9" y="251.785078"/>
     <use style="fill:#ff7f0e;stroke:#ff7f0e;" x="106.65974" xlink:href="#m8fbef15ec9" y="250.550908"/>
     <use style="fill:#ff7f0e;stroke:#ff7f0e;" x="112.698701" xlink:href="#m8fbef15ec9" y="245.226955"/>
     <use style="fill:#ff7f0e;stroke:#ff7f0e;" x="118.737662" xlink:href="#m8fbef15ec9" y="229.078259"/>
     <use style="fill:#ff7f0e;stroke:#ff7f0e;" x="124.776623" xlink:href="#m8fbef15ec9" y="193.971541"/>
     <use style="fill:#ff7f0e;stroke:#ff7f0e;" x="130.815584" xlink:href="#m8fbef15ec9" y="139.302623"/>
     <use style="fill:#ff7f0e;stroke:#ff7f0e;" x="136.854545" xlink:href="#m8fbef15ec9" y="80.704324"/>
     <use style="fill:#ff7f0e;stroke:#ff7f0e;" x="142.893506" xlink:href="#m8fbef15ec9" y="44.914286"/>
     <use style="fill:#ff7f0e;stroke:#ff7f0e;" x="148.932468" xlink:href="#m8fbef15ec9" y="50.224176"/>
     <use style="fill:#ff7f0e;stroke:#ff7f0e;" x="154.971429" xlink:href="#m8fbef15ec9" y="91.801146"/>
     <use style="fill:#ff7f0e;stroke:#ff7f0e;" x="161.01039" xlink:href="#m8fbef15ec9" y="147.410403"/>
     <use style="fill:#ff7f0e;stroke:#ff7f0e;" x="167.049351" xlink:href="#m8fbef15ec9" y="195.417591"/>
     <use style="fill:#ff7f0e;stroke:#ff7f0e;" x="173.088312" xlink:href="#m8fbef15ec9" y="226.471236"/>
     <use style="fill:#ff7f0e;stroke:#ff7f0e;" x="179.127273" xlink:href="#m8fbef15ec9" y="242.342293"/>
     <use style="fill:#ff7f0e;stroke:#ff7f0e;" x="185.166234" xlink:href="#m8fbef15ec9" y="248.922722"/>
     <use style="fill:#ff7f0e;stroke:#ff7f0e;" x="191.205195" xlink:href="#m8fbef15ec9" y="251.171064"/>
     <use style="fill:#ff7f0e;stroke:#ff7f0e;" x="197.244156" xlink:href="#m8fbef15ec9" y="251.810657"/>
     <use style="fill:#ff7f0e;stroke:#ff7f0e;" x="203.283117" xlink:href="#m8fbef15ec9" y="251.963239"/>
     <use style="fill:#ff7f0e;stroke:#ff7f0e;" x="209.322078" xlink:href="#m8fbef15ec9" y="251.993922"/>
     <use style="fill:#ff7f0e;stroke:#ff7f0e;" x="215.361039" xlink:href="#m8fbef15ec9" y="251.999143"/>
     <use style="fill:#ff7f0e;stroke:#ff7f0e;" x="221.4" xlink:href="#m8fbef15ec9" y="251.999897"/>
     <use style="fill:#ff7f0e;stroke:#ff7f0e;" x="227.438961" xlink:href="#m8fbef15ec9" y="251.999989"/>
     <use style="fill:#ff7f0e;stroke:#ff7f0e;" x="233.477922" xlink:href="#m8fbef15ec9" y="251.999999"/>
     <use style="fill:#ff7f0e;stroke:#ff7f0e;" x="239.516883" xlink:href="#m8fbef15ec9" y="252"/>
     <use style="fill:#ff7f0e;stroke:#ff7f0e;" x="245.555844" xlink:href="#m8fbef15ec9" y="252"/>
     <use style="fill:#ff7f0e;stroke:#ff7f0e;" x="251.594805" xlink:href="#m8fbef15ec9" y="252"/>
     <use style="fill:#ff7f0e;stroke:#ff7f0e;" x="257.633766" xlink:href="#m8fbef15ec9" y="252"/>
     <use style="fill:#ff7f0e;stroke:#ff7f0e;" x="263.672727" xlink:href="#m8fbef15ec9" y="252"/>
     <use style="fill:#ff7f0e;stroke:#ff7f0e;" x="269.711688" xlink:href="#m8fbef15ec9" y="252"/>
     <use style="fill:#ff7f0e;stroke:#ff7f0e;" x="275.750649" xlink:href="#m8fbef15ec9" y="252"/>
     <use style="fill:#ff7f0e;stroke:#ff7f0e;" x="281.78961" xlink:href="#m8fbef15ec9" y="252"/>
     <use style="fill:#ff7f0e;stroke:#ff7f0e;" x="287.828571" xlink:href="#m8fbef15ec9" y="252"/>
     <use style="fill:#ff7f0e;stroke:#ff7f0e;" x="293.867532" xlink:href="#m8fbef15ec9" y="252"/>
     <use style="fill:#ff7f0e;stroke:#ff7f0e;" x="299.906494" xlink:href="#m8fbef15ec9" y="252"/>
     <use style="fill:#ff7f0e;stroke:#ff7f0e;" x="305.945455" xlink:href="#m8fbef15ec9" y="252"/>
     <use style="fill:#ff7f0e;stroke:#ff7f0e;" x="311.984416" xlink:href="#m8fbef15ec9" y="252"/>
     <use style="fill:#ff7f0e;stroke:#ff7f0e;" x="318.023377" xlink:href="#m8fbef15ec9" y="252"/>
     <use style="fill:#ff7f0e;stroke:#ff7f0e;" x="324.062338" xlink:href="#m8fbef15ec9" y="252"/>
     <use style="fill:#ff7f0e;stroke:#ff7f0e;" x="330.101299" xlink:href="#m8fbef15ec9" y="252"/>
     <use style="fill:#ff7f0e;stroke:#ff7f0e;" x="336.14026" xlink:href="#m8fbef15ec9" y="252"/>
     <use style="fill:#ff7f0e;stroke:#ff7f0e;" x="342.179221" xlink:href="#m8fbef15ec9" y="252"/>
     <use style="fill:#ff7f0e;stroke:#ff7f0e;" x="348.218182" xlink:href="#m8fbef15ec9" y="252"/>
     <use style="fill:#ff7f0e;stroke:#ff7f0e;" x="354.257143" xlink:href="#m8fbef15ec9" y="252"/>
     <use style="fill:#ff7f0e;stroke:#ff7f0e;" x="360.296104" xlink:href="#m8fbef15ec9" y="252"/>
     <use style="fill:#ff7f0e;stroke:#ff7f0e;" x="366.335065" xlink:href="#m8fbef15ec9" y="252"/>
     <use style="fill:#ff7f0e;stroke:#ff7f0e;" x="372.374026" xlink:href="#m8fbef15ec9" y="252"/>
    </g>
   </g>
   <g id="patch_3">
    <path clip-path="url(#p741f30309b)" d="M 69.218182 252 
L 71.633766 252 
L 71.633766 252 
L 69.218182 252 
z
" style="fill:#1f77b4;"/>
   </g>
   <g id="patch_4">
    <path clip-path="url(#p741f30309b)" d="M 75.257143 252 
L 77.672727 252 
L 77.672727 252 
L 75.257143 252 
z
" style="fill:#1f77b4;"/>
   </g>
   <g id="patch_5">
    <path clip-path="url(#p741f30309b)" d="M 81.296104 252 
L 83.711688 252 
L 83.711688 251.999965 
L 81.296104 251.999965 
z
" style="fill:#1f77b4;"/>
   </g>
   <g id="patch_6">
    <path clip-path="url(#p741f30309b)" d="M 87.335065 252 
L 89.750649 252 
L 89.750649 251.998801 
L 87.335065 251.998801 
z
" style="fill:#1f77b4;"/>
   </g>
   <g id="patch_7">
    <path clip-path="url(#p741f30309b)" d="M 93.374026 252 
L 95.78961 252 
L 95.78961 251.979206 
L 93.374026 251.979206 
z
" style="fill:#1f77b4;"/>
   </g>
   <g id="patch_8">
    <path clip-path="url(#p741f30309b)" d="M 99.412987 252 
L 101.828571 252 
L 101.828571 251.785078 
L 99.412987 251.785078 
z
" style="fill:#1f77b4;"/>
   </g>
   <g id="patch_9">
    <path clip-path="url(#p741f30309b)" d="M 105.451948 252 
L 107.867532 252 
L 107.867532 250.550908 
L 105.451948 250.550908 
z
" style="fill:#1f77b4;"/>
   </g>
   <g id="patch_10">
    <path clip-path="url(#p741f30309b)" d="M 111.490909 252 
L 113.906494 252 
L 113.906494 245.226955 
L 111.490909 245.226955 
z
" style="fill:#1f77b4;"/>
   </g>
   <g id="patch_11">
    <path clip-path="url(#p741f30309b)" d="M 117.52987 252 
L 119.945455 252 
L 119.945455 229.078259 
L 117.52987 229.078259 
z
" style="fill:#1f77b4;"/>
   </g>
   <g id="patch_12">
    <path clip-path="url(#p741f30309b)" d="M 123.568831 252 
L 125.984416 252 
L 125.984416 193.971541 
L 123.568831 193.971541 
z
" style="fill:#1f77b4;"/>
   </g>
   <g id="patch_13">
    <path clip-path="url(#p741f30309b)" d="M 129.607792 252 
L 132.023377 252 
L 132.023377 139.302623 
L 129.607792 139.302623 
z
" style="fill:#1f77b4;"/>
   </g>
   <g id="patch_14">
    <path clip-path="url(#p741f30309b)" d="M 135.646753 252 
L 138.062338 252 
L 138.062338 80.704324 
L 135.646753 80.704324 
z
" style="fill:#1f77b4;"/>
   </g>
   <g id="patch_15">
    <path clip-path="url(#p741f30309b)" d="M 141.685714 252 
L 144.101299 252 
L 144.101299 44.914286 
L 141.685714 44.914286 
z
" style="fill:#1f77b4;"/>
   </g>
   <g id="patch_16">
    <path clip-path="url(#p741f30309b)" d="M 147.724675 252 
L 150.14026 252 
L 150.14026 50.224176 
L 147.724675 50.224176 
z
" style="fill:#1f77b4;"/>
   </g>
   <g id="patch_17">
    <path clip-path="url(#p741f30309b)" d="M 153.763636 252 
L 156.179221 252 
L 156.179221 91.801146 
L 153.763636 91.801146 
z
" style="fill:#1f77b4;"/>
   </g>
   <g id="patch_18">
    <path clip-path="url(#p741f30309b)" d="M 159.802597 252 
L 162.218182 252 
L 162.218182 147.410403 
L 159.802597 147.410403 
z
" style="fill:#1f77b4;"/>
   </g>
   <g id="patch_19">
    <path clip-path="url(#p741f30309b)" d="M 165.841558 252 
L 168.257143 252 
L 168.257143 195.417591 
L 165.841558 195.417591 
z
" style="fill:#1f77b4;"/>
   </g>
   <g id="patch_20">
    <path clip-path="url(#p741f30309b)" d="M 171.880519 252 
L 174.296104 252 
L 174.296104 226.471236 
L 171.880519 226.471236 
z
" style="fill:#1f77b4;"/>
   </g>
   <g id="patch_21">
    <path clip-path="url(#p741f30309b)" d="M 177.919481 252 
L 180.335065 252 
L 180.335065 242.342293 
L 177.919481 242.342293 
z
" style="fill:#1f77b4;"/>
   </g>
   <g id="patch_22">
    <path clip-path="url(#p741f30309b)" d="M 183.958442 252 
L 186.374026 252 
L 186.374026 248.922722 
L 183.958442 248.922722 
z
" style="fill:#1f77b4;"/>
   </g>
   <g id="patch_23">
    <path clip-path="url(#p741f30309b)" d="M 189.997403 252 
L 192.412987 252 
L 192.412987 251.171064 
L 189.997403 251.171064 
z
" style="fill:#1f77b4;"/>
   </g>
   <g id="patch_24">
    <path clip-path="url(#p741f30309b)" d="M 196.036364 252 
L 198.451948 252 
L 198.451948 251.810657 
L 196.036364 251.810657 
z
" style="fill:#1f77b4;"/>
   </g>
   <g id="patch_25">
    <path clip-path="url(#p741f30309b)" d="M 202.075325 252 
L 204.490909 252 
L 204.490909 251.963239 
L 202.075325 251.963239 
z
" style="fill:#1f77b4;"/>
   </g>
   <g id="patch_26">
    <path clip-path="url(#p741f30309b)" d="M 208.114286 252 
L 210.52987 252 
L 210.52987 251.993922 
L 208.114286 251.993922 
z
" style="fill:#1f77b4;"/>
   </g>
   <g id="patch_27">
    <path clip-path="url(#p741f30309b)" d="M 214.153247 252 
L 216.568831 252 
L 216.568831 251.999143 
L 214.153247 251.999143 
z
" style="fill:#1f77b4;"/>
   </g>
   <g id="patch_28">
    <path clip-path="url(#p741f30309b)" d="M 220.192208 252 
L 222.607792 252 
L 222.607792 251.999897 
L 220.192208 251.999897 
z
" style="fill:#1f77b4;"/>
   </g>
   <g id="patch_29">
    <path clip-path="url(#p741f30309b)" d="M 226.231169 252 
L 228.646753 252 
L 228.646753 251.999989 
L 226.231169 251.999989 
z
" style="fill:#1f77b4;"/>
   </g>
   <g id="patch_30">
    <path clip-path="url(#p741f30309b)" d="M 232.27013 252 
L 234.685714 252 
L 234.685714 251.999999 
L 232.27013 251.999999 
z
" style="fill:#1f77b4;"/>
   </g>
   <g id="patch_31">
    <path clip-path="url(#p741f30309b)" d="M 238.309091 252 
L 240.724675 252 
L 240.724675 252 
L 238.309091 252 
z
" style="fill:#1f77b4;"/>
   </g>
   <g id="patch_32">
    <path clip-path="url(#p741f30309b)" d="M 244.348052 252 
L 246.763636 252 
L 246.763636 252 
L 244.348052 252 
z
" style="fill:#1f77b4;"/>
   </g>
   <g id="patch_33">
    <path clip-path="url(#p741f30309b)" d="M 250.387013 252 
L 252.802597 252 
L 252.802597 252 
L 250.387013 252 
z
" style="fill:#1f77b4;"/>
   </g>
   <g id="patch_34">
    <path clip-path="url(#p741f30309b)" d="M 256.425974 252 
L 258.841558 252 
L 258.841558 252 
L 256.425974 252 
z
" style="fill:#1f77b4;"/>
   </g>
   <g id="patch_35">
    <path clip-path="url(#p741f30309b)" d="M 262.464935 252 
L 264.880519 252 
L 264.880519 252 
L 262.464935 252 
z
" style="fill:#1f77b4;"/>
   </g>
   <g id="patch_36">
    <path clip-path="url(#p741f30309b)" d="M 268.503896 252 
L 270.919481 252 
L 270.919481 252 
L 268.503896 252 
z
" style="fill:#1f77b4;"/>
   </g>
   <g id="patch_37">
    <path clip-path="url(#p741f30309b)" d="M 274.542857 252 
L 276.958442 252 
L 276.958442 252 
L 274.542857 252 
z
" style="fill:#1f77b4;"/>
   </g>
   <g id="patch_38">
    <path clip-path="url(#p741f30309b)" d="M 280.581818 252 
L 282.997403 252 
L 282.997403 252 
L 280.581818 252 
z
" style="fill:#1f77b4;"/>
   </g>
   <g id="patch_39">
    <path clip-path="url(#p741f30309b)" d="M 286.620779 252 
L 289.036364 252 
L 289.036364 252 
L 286.620779 252 
z
" style="fill:#1f77b4;"/>
   </g>
   <g id="patch_40">
    <path clip-path="url(#p741f30309b)" d="M 292.65974 252 
L 295.075325 252 
L 295.075325 252 
L 292.65974 252 
z
" style="fill:#1f77b4;"/>
   </g>
   <g id="patch_41">
    <path clip-path="url(#p741f30309b)" d="M 298.698701 252 
L 301.114286 252 
L 301.114286 252 
L 298.698701 252 
z
" style="fill:#1f77b4;"/>
   </g>
   <g id="patch_42">
    <path clip-path="url(#p741f30309b)" d="M 304.737662 252 
L 307.153247 252 
L 307.153247 252 
L 304.737662 252 
z
" style="fill:#1f77b4;"/>
   </g>
   <g id="patch_43">
    <path clip-path="url(#p741f30309b)" d="M 310.776623 252 
L 313.192208 252 
L 313.192208 252 
L 310.776623 252 
z
" style="fill:#1f77b4;"/>
   </g>
   <g id="patch_44">
    <path clip-path="url(#p741f30309b)" d="M 316.815584 252 
L 319.231169 252 
L 319.231169 252 
L 316.815584 252 
z
" style="fill:#1f77b4;"/>
   </g>
   <g id="patch_45">
    <path clip-path="url(#p741f30309b)" d="M 322.854545 252 
L 325.27013 252 
L 325.27013 252 
L 322.854545 252 
z
" style="fill:#1f77b4;"/>
   </g>
   <g id="patch_46">
    <path clip-path="url(#p741f30309b)" d="M 328.893506 252 
L 331.309091 252 
L 331.309091 252 
L 328.893506 252 
z
" style="fill:#1f77b4;"/>
   </g>
   <g id="patch_47">
    <path clip-path="url(#p741f30309b)" d="M 334.932468 252 
L 337.348052 252 
L 337.348052 252 
L 334.932468 252 
z
" style="fill:#1f77b4;"/>
   </g>
   <g id="patch_48">
    <path clip-path="url(#p741f30309b)" d="M 340.971429 252 
L 343.387013 252 
L 343.387013 252 
L 340.971429 252 
z
" style="fill:#1f77b4;"/>
   </g>
   <g id="patch_49">
    <path clip-path="url(#p741f30309b)" d="M 347.01039 252 
L 349.425974 252 
L 349.425974 252 
L 347.01039 252 
z
" style="fill:#1f77b4;"/>
   </g>
   <g id="patch_50">
    <path clip-path="url(#p741f30309b)" d="M 353.049351 252 
L 355.464935 252 
L 355.464935 252 
L 353.049351 252 
z
" style="fill:#1f77b4;"/>
   </g>
   <g id="patch_51">
    <path clip-path="url(#p741f30309b)" d="M 359.088312 252 
L 361.503896 252 
L 361.503896 252 
L 359.088312 252 
z
" style="fill:#1f77b4;"/>
   </g>
   <g id="patch_52">
    <path clip-path="url(#p741f30309b)" d="M 365.127273 252 
L 367.542857 252 
L 367.542857 252 
L 365.127273 252 
z
" style="fill:#1f77b4;"/>
   </g>
   <g id="patch_53">
    <path clip-path="url(#p741f30309b)" d="M 371.166234 252 
L 373.581818 252 
L 373.581818 252 
L 371.166234 252 
z
" style="fill:#1f77b4;"/>
   </g>
   <g id="matplotlib.axis_1">
    <g id="xtick_1">
     <g id="line2d_1">
      <path clip-path="url(#p741f30309b)" d="M 70.425974 252 
L 70.425974 34.56 
" style="fill:none;stroke:#b0b0b0;stroke-linecap:square;stroke-width:0.8;"/>
     </g>
     <g id="line2d_2">
      <defs>
       <path d="M 0 0 
L 0 3.5 
" id="m4d924e295e" style="stroke:#000000;stroke-width:0.8;"/>
      </defs>
      <g>
       <use style="stroke:#000000;stroke-width:0.8;" x="70.425974" xlink:href="#m4d924e295e" y="252"/>
      </g>
     </g>
     <g id="text_1">
      <!-- 0 -->
      <g transform="translate(67.244724 266.598437)scale(0.1 -0.1)">
       <defs>
        <path d="M 2034 4250 
Q 1547 4250 1301 3770 
Q 1056 3291 1056 2328 
Q 1056 1369 1301 889 
Q 1547 409 2034 409 
Q 2525 409 2770 889 
Q 3016 1369 3016 2328 
Q 3016 3291 2770 3770 
Q 2525 4250 2034 4250 
z
M 2034 4750 
Q 2819 4750 3233 4129 
Q 3647 3509 3647 2328 
Q 3647 1150 3233 529 
Q 2819 -91 2034 -91 
Q 1250 -91 836 529 
Q 422 1150 422 2328 
Q 422 3509 836 4129 
Q 1250 4750 2034 4750 
z
" id="DejaVuSans-30" transform="scale(0.015625)"/>
       </defs>
       <use xlink:href="#DejaVuSans-30"/>
      </g>
     </g>
    </g>
    <g id="xtick_2">
     <g id="line2d_3">
      <path clip-path="url(#p741f30309b)" d="M 130.815584 252 
L 130.815584 34.56 
" style="fill:none;stroke:#b0b0b0;stroke-linecap:square;stroke-width:0.8;"/>
     </g>
     <g id="line2d_4">
      <g>
       <use style="stroke:#000000;stroke-width:0.8;" x="130.815584" xlink:href="#m4d924e295e" y="252"/>
      </g>
     </g>
     <g id="text_2">
      <!-- 20 -->
      <g transform="translate(124.453084 266.598437)scale(0.1 -0.1)">
       <defs>
        <path d="M 1228 531 
L 3431 531 
L 3431 0 
L 469 0 
L 469 531 
Q 828 903 1448 1529 
Q 2069 2156 2228 2338 
Q 2531 2678 2651 2914 
Q 2772 3150 2772 3378 
Q 2772 3750 2511 3984 
Q 2250 4219 1831 4219 
Q 1534 4219 1204 4116 
Q 875 4013 500 3803 
L 500 4441 
Q 881 4594 1212 4672 
Q 1544 4750 1819 4750 
Q 2544 4750 2975 4387 
Q 3406 4025 3406 3419 
Q 3406 3131 3298 2873 
Q 3191 2616 2906 2266 
Q 2828 2175 2409 1742 
Q 1991 1309 1228 531 
z
" id="DejaVuSans-32" transform="scale(0.015625)"/>
       </defs>
       <use xlink:href="#DejaVuSans-32"/>
       <use x="63.623047" xlink:href="#DejaVuSans-30"/>
      </g>
     </g>
    </g>
    <g id="xtick_3">
     <g id="line2d_5">
      <path clip-path="url(#p741f30309b)" d="M 191.205195 252 
L 191.205195 34.56 
" style="fill:none;stroke:#b0b0b0;stroke-linecap:square;stroke-width:0.8;"/>
     </g>
     <g id="line2d_6">
      <g>
       <use style="stroke:#000000;stroke-width:0.8;" x="191.205195" xlink:href="#m4d924e295e" y="252"/>
      </g>
     </g>
     <g id="text_3">
      <!-- 40 -->
      <g transform="translate(184.842695 266.598437)scale(0.1 -0.1)">
       <defs>
        <path d="M 2419 4116 
L 825 1625 
L 2419 1625 
L 2419 4116 
z
M 2253 4666 
L 3047 4666 
L 3047 1625 
L 3713 1625 
L 3713 1100 
L 3047 1100 
L 3047 0 
L 2419 0 
L 2419 1100 
L 313 1100 
L 313 1709 
L 2253 4666 
z
" id="DejaVuSans-34" transform="scale(0.015625)"/>
       </defs>
       <use xlink:href="#DejaVuSans-34"/>
       <use x="63.623047" xlink:href="#DejaVuSans-30"/>
      </g>
     </g>
    </g>
    <g id="xtick_4">
     <g id="line2d_7">
      <path clip-path="url(#p741f30309b)" d="M 251.594805 252 
L 251.594805 34.56 
" style="fill:none;stroke:#b0b0b0;stroke-linecap:square;stroke-width:0.8;"/>
     </g>
     <g id="line2d_8">
      <g>
       <use style="stroke:#000000;stroke-width:0.8;" x="251.594805" xlink:href="#m4d924e295e" y="252"/>
      </g>
     </g>
     <g id="text_4">
      <!-- 60 -->
      <g transform="translate(245.232305 266.598437)scale(0.1 -0.1)">
       <defs>
        <path d="M 2113 2584 
Q 1688 2584 1439 2293 
Q 1191 2003 1191 1497 
Q 1191 994 1439 701 
Q 1688 409 2113 409 
Q 2538 409 2786 701 
Q 3034 994 3034 1497 
Q 3034 2003 2786 2293 
Q 2538 2584 2113 2584 
z
M 3366 4563 
L 3366 3988 
Q 3128 4100 2886 4159 
Q 2644 4219 2406 4219 
Q 1781 4219 1451 3797 
Q 1122 3375 1075 2522 
Q 1259 2794 1537 2939 
Q 1816 3084 2150 3084 
Q 2853 3084 3261 2657 
Q 3669 2231 3669 1497 
Q 3669 778 3244 343 
Q 2819 -91 2113 -91 
Q 1303 -91 875 529 
Q 447 1150 447 2328 
Q 447 3434 972 4092 
Q 1497 4750 2381 4750 
Q 2619 4750 2861 4703 
Q 3103 4656 3366 4563 
z
" id="DejaVuSans-36" transform="scale(0.015625)"/>
       </defs>
       <use xlink:href="#DejaVuSans-36"/>
       <use x="63.623047" xlink:href="#DejaVuSans-30"/>
      </g>
     </g>
    </g>
    <g id="xtick_5">
     <g id="line2d_9">
      <path clip-path="url(#p741f30309b)" d="M 311.984416 252 
L 311.984416 34.56 
" style="fill:none;stroke:#b0b0b0;stroke-linecap:square;stroke-width:0.8;"/>
     </g>
     <g id="line2d_10">
      <g>
       <use style="stroke:#000000;stroke-width:0.8;" x="311.984416" xlink:href="#m4d924e295e" y="252"/>
      </g>
     </g>
     <g id="text_5">
      <!-- 80 -->
      <g transform="translate(305.621916 266.598437)scale(0.1 -0.1)">
       <defs>
        <path d="M 2034 2216 
Q 1584 2216 1326 1975 
Q 1069 1734 1069 1313 
Q 1069 891 1326 650 
Q 1584 409 2034 409 
Q 2484 409 2743 651 
Q 3003 894 3003 1313 
Q 3003 1734 2745 1975 
Q 2488 2216 2034 2216 
z
M 1403 2484 
Q 997 2584 770 2862 
Q 544 3141 544 3541 
Q 544 4100 942 4425 
Q 1341 4750 2034 4750 
Q 2731 4750 3128 4425 
Q 3525 4100 3525 3541 
Q 3525 3141 3298 2862 
Q 3072 2584 2669 2484 
Q 3125 2378 3379 2068 
Q 3634 1759 3634 1313 
Q 3634 634 3220 271 
Q 2806 -91 2034 -91 
Q 1263 -91 848 271 
Q 434 634 434 1313 
Q 434 1759 690 2068 
Q 947 2378 1403 2484 
z
M 1172 3481 
Q 1172 3119 1398 2916 
Q 1625 2713 2034 2713 
Q 2441 2713 2670 2916 
Q 2900 3119 2900 3481 
Q 2900 3844 2670 4047 
Q 2441 4250 2034 4250 
Q 1625 4250 1398 4047 
Q 1172 3844 1172 3481 
z
" id="DejaVuSans-38" transform="scale(0.015625)"/>
       </defs>
       <use xlink:href="#DejaVuSans-38"/>
       <use x="63.623047" xlink:href="#DejaVuSans-30"/>
      </g>
     </g>
    </g>
    <g id="xtick_6">
     <g id="line2d_11">
      <path clip-path="url(#p741f30309b)" d="M 372.374026 252 
L 372.374026 34.56 
" style="fill:none;stroke:#b0b0b0;stroke-linecap:square;stroke-width:0.8;"/>
     </g>
     <g id="line2d_12">
      <g>
       <use style="stroke:#000000;stroke-width:0.8;" x="372.374026" xlink:href="#m4d924e295e" y="252"/>
      </g>
     </g>
     <g id="text_6">
      <!-- 100 -->
      <g transform="translate(362.830276 266.598437)scale(0.1 -0.1)">
       <defs>
        <path d="M 794 531 
L 1825 531 
L 1825 4091 
L 703 3866 
L 703 4441 
L 1819 4666 
L 2450 4666 
L 2450 531 
L 3481 531 
L 3481 0 
L 794 0 
L 794 531 
z
" id="DejaVuSans-31" transform="scale(0.015625)"/>
       </defs>
       <use xlink:href="#DejaVuSans-31"/>
       <use x="63.623047" xlink:href="#DejaVuSans-30"/>
       <use x="127.246094" xlink:href="#DejaVuSans-30"/>
      </g>
     </g>
    </g>
    <g id="text_7">
     <!-- value -->
     <g transform="translate(205.010625 281.79625)scale(0.12 -0.12)">
      <defs>
       <path d="M 191 3500 
L 800 3500 
L 1894 563 
L 2988 3500 
L 3597 3500 
L 2284 0 
L 1503 0 
L 191 3500 
z
" id="DejaVuSans-76" transform="scale(0.015625)"/>
       <path d="M 2194 1759 
Q 1497 1759 1228 1600 
Q 959 1441 959 1056 
Q 959 750 1161 570 
Q 1363 391 1709 391 
Q 2188 391 2477 730 
Q 2766 1069 2766 1631 
L 2766 1759 
L 2194 1759 
z
M 3341 1997 
L 3341 0 
L 2766 0 
L 2766 531 
Q 2569 213 2275 61 
Q 1981 -91 1556 -91 
Q 1019 -91 701 211 
Q 384 513 384 1019 
Q 384 1609 779 1909 
Q 1175 2209 1959 2209 
L 2766 2209 
L 2766 2266 
Q 2766 2663 2505 2880 
Q 2244 3097 1772 3097 
Q 1472 3097 1187 3025 
Q 903 2953 641 2809 
L 641 3341 
Q 956 3463 1253 3523 
Q 1550 3584 1831 3584 
Q 2591 3584 2966 3190 
Q 3341 2797 3341 1997 
z
" id="DejaVuSans-61" transform="scale(0.015625)"/>
       <path d="M 603 4863 
L 1178 4863 
L 1178 0 
L 603 0 
L 603 4863 
z
" id="DejaVuSans-6c" transform="scale(0.015625)"/>
       <path d="M 544 1381 
L 544 3500 
L 1119 3500 
L 1119 1403 
Q 1119 906 1312 657 
Q 1506 409 1894 409 
Q 2359 409 2629 706 
Q 2900 1003 2900 1516 
L 2900 3500 
L 3475 3500 
L 3475 0 
L 2900 0 
L 2900 538 
Q 2691 219 2414 64 
Q 2138 -91 1772 -91 
Q 1169 -91 856 284 
Q 544 659 544 1381 
z
M 1991 3584 
L 1991 3584 
z
" id="DejaVuSans-75" transform="scale(0.015625)"/>
       <path d="M 3597 1894 
L 3597 1613 
L 953 1613 
Q 991 1019 1311 708 
Q 1631 397 2203 397 
Q 2534 397 2845 478 
Q 3156 559 3463 722 
L 3463 178 
Q 3153 47 2828 -22 
Q 2503 -91 2169 -91 
Q 1331 -91 842 396 
Q 353 884 353 1716 
Q 353 2575 817 3079 
Q 1281 3584 2069 3584 
Q 2775 3584 3186 3129 
Q 3597 2675 3597 1894 
z
M 3022 2063 
Q 3016 2534 2758 2815 
Q 2500 3097 2075 3097 
Q 1594 3097 1305 2825 
Q 1016 2553 972 2059 
L 3022 2063 
z
" id="DejaVuSans-65" transform="scale(0.015625)"/>
      </defs>
      <use xlink:href="#DejaVuSans-76"/>
      <use x="59.179688" xlink:href="#DejaVuSans-61"/>
      <use x="120.458984" xlink:href="#DejaVuSans-6c"/>
      <use x="148.242188" xlink:href="#DejaVuSans-75"/>
      <use x="211.621094" xlink:href="#DejaVuSans-65"/>
     </g>
    </g>
   </g>
   <g id="matplotlib.axis_2">
    <g id="ytick_1">
     <g id="line2d_13">
      <path clip-path="url(#p741f30309b)" d="M 54 252 
L 388.8 252 
" style="fill:none;stroke:#b0b0b0;stroke-linecap:square;stroke-width:0.8;"/>
     </g>
     <g id="line2d_14">
      <defs>
       <path d="M 0 0 
L -3.5 0 
" id="mb6f1843a20" style="stroke:#000000;stroke-width:0.8;"/>
      </defs>
      <g>
       <use style="stroke:#000000;stroke-width:0.8;" x="54" xlink:href="#mb6f1843a20" y="252"/>
      </g>
     </g>
     <g id="text_8">
      <!-- 0.00 -->
      <g transform="translate(24.734375 255.799219)scale(0.1 -0.1)">
       <defs>
        <path d="M 684 794 
L 1344 794 
L 1344 0 
L 684 0 
L 684 794 
z
" id="DejaVuSans-2e" transform="scale(0.015625)"/>
       </defs>
       <use xlink:href="#DejaVuSans-30"/>
       <use x="63.623047" xlink:href="#DejaVuSans-2e"/>
       <use x="95.410156" xlink:href="#DejaVuSans-30"/>
       <use x="159.033203" xlink:href="#DejaVuSans-30"/>
      </g>
     </g>
    </g>
    <g id="ytick_2">
     <g id="line2d_15">
      <path clip-path="url(#p741f30309b)" d="M 54 206.281577 
L 388.8 206.281577 
" style="fill:none;stroke:#b0b0b0;stroke-linecap:square;stroke-width:0.8;"/>
     </g>
     <g id="line2d_16">
      <g>
       <use style="stroke:#000000;stroke-width:0.8;" x="54" xlink:href="#mb6f1843a20" y="206.281577"/>
      </g>
     </g>
     <g id="text_9">
      <!-- 0.02 -->
      <g transform="translate(24.734375 210.080796)scale(0.1 -0.1)">
       <use xlink:href="#DejaVuSans-30"/>
       <use x="63.623047" xlink:href="#DejaVuSans-2e"/>
       <use x="95.410156" xlink:href="#DejaVuSans-30"/>
       <use x="159.033203" xlink:href="#DejaVuSans-32"/>
      </g>
     </g>
    </g>
    <g id="ytick_3">
     <g id="line2d_17">
      <path clip-path="url(#p741f30309b)" d="M 54 160.563154 
L 388.8 160.563154 
" style="fill:none;stroke:#b0b0b0;stroke-linecap:square;stroke-width:0.8;"/>
     </g>
     <g id="line2d_18">
      <g>
       <use style="stroke:#000000;stroke-width:0.8;" x="54" xlink:href="#mb6f1843a20" y="160.563154"/>
      </g>
     </g>
     <g id="text_10">
      <!-- 0.04 -->
      <g transform="translate(24.734375 164.362373)scale(0.1 -0.1)">
       <use xlink:href="#DejaVuSans-30"/>
       <use x="63.623047" xlink:href="#DejaVuSans-2e"/>
       <use x="95.410156" xlink:href="#DejaVuSans-30"/>
       <use x="159.033203" xlink:href="#DejaVuSans-34"/>
      </g>
     </g>
    </g>
    <g id="ytick_4">
     <g id="line2d_19">
      <path clip-path="url(#p741f30309b)" d="M 54 114.844731 
L 388.8 114.844731 
" style="fill:none;stroke:#b0b0b0;stroke-linecap:square;stroke-width:0.8;"/>
     </g>
     <g id="line2d_20">
      <g>
       <use style="stroke:#000000;stroke-width:0.8;" x="54" xlink:href="#mb6f1843a20" y="114.844731"/>
      </g>
     </g>
     <g id="text_11">
      <!-- 0.06 -->
      <g transform="translate(24.734375 118.64395)scale(0.1 -0.1)">
       <use xlink:href="#DejaVuSans-30"/>
       <use x="63.623047" xlink:href="#DejaVuSans-2e"/>
       <use x="95.410156" xlink:href="#DejaVuSans-30"/>
       <use x="159.033203" xlink:href="#DejaVuSans-36"/>
      </g>
     </g>
    </g>
    <g id="ytick_5">
     <g id="line2d_21">
      <path clip-path="url(#p741f30309b)" d="M 54 69.126308 
L 388.8 69.126308 
" style="fill:none;stroke:#b0b0b0;stroke-linecap:square;stroke-width:0.8;"/>
     </g>
     <g id="line2d_22">
      <g>
       <use style="stroke:#000000;stroke-width:0.8;" x="54" xlink:href="#mb6f1843a20" y="69.126308"/>
      </g>
     </g>
     <g id="text_12">
      <!-- 0.08 -->
      <g transform="translate(24.734375 72.925527)scale(0.1 -0.1)">
       <use xlink:href="#DejaVuSans-30"/>
       <use x="63.623047" xlink:href="#DejaVuSans-2e"/>
       <use x="95.410156" xlink:href="#DejaVuSans-30"/>
       <use x="159.033203" xlink:href="#DejaVuSans-38"/>
      </g>
     </g>
    </g>
    <g id="text_13">
     <!-- probability -->
     <g transform="translate(18.23875 175.290937)rotate(-90)scale(0.12 -0.12)">
      <defs>
       <path d="M 1159 525 
L 1159 -1331 
L 581 -1331 
L 581 3500 
L 1159 3500 
L 1159 2969 
Q 1341 3281 1617 3432 
Q 1894 3584 2278 3584 
Q 2916 3584 3314 3078 
Q 3713 2572 3713 1747 
Q 3713 922 3314 415 
Q 2916 -91 2278 -91 
Q 1894 -91 1617 61 
Q 1341 213 1159 525 
z
M 3116 1747 
Q 3116 2381 2855 2742 
Q 2594 3103 2138 3103 
Q 1681 3103 1420 2742 
Q 1159 2381 1159 1747 
Q 1159 1113 1420 752 
Q 1681 391 2138 391 
Q 2594 391 2855 752 
Q 3116 1113 3116 1747 
z
" id="DejaVuSans-70" transform="scale(0.015625)"/>
       <path d="M 2631 2963 
Q 2534 3019 2420 3045 
Q 2306 3072 2169 3072 
Q 1681 3072 1420 2755 
Q 1159 2438 1159 1844 
L 1159 0 
L 581 0 
L 581 3500 
L 1159 3500 
L 1159 2956 
Q 1341 3275 1631 3429 
Q 1922 3584 2338 3584 
Q 2397 3584 2469 3576 
Q 2541 3569 2628 3553 
L 2631 2963 
z
" id="DejaVuSans-72" transform="scale(0.015625)"/>
       <path d="M 1959 3097 
Q 1497 3097 1228 2736 
Q 959 2375 959 1747 
Q 959 1119 1226 758 
Q 1494 397 1959 397 
Q 2419 397 2687 759 
Q 2956 1122 2956 1747 
Q 2956 2369 2687 2733 
Q 2419 3097 1959 3097 
z
M 1959 3584 
Q 2709 3584 3137 3096 
Q 3566 2609 3566 1747 
Q 3566 888 3137 398 
Q 2709 -91 1959 -91 
Q 1206 -91 779 398 
Q 353 888 353 1747 
Q 353 2609 779 3096 
Q 1206 3584 1959 3584 
z
" id="DejaVuSans-6f" transform="scale(0.015625)"/>
       <path d="M 3116 1747 
Q 3116 2381 2855 2742 
Q 2594 3103 2138 3103 
Q 1681 3103 1420 2742 
Q 1159 2381 1159 1747 
Q 1159 1113 1420 752 
Q 1681 391 2138 391 
Q 2594 391 2855 752 
Q 3116 1113 3116 1747 
z
M 1159 2969 
Q 1341 3281 1617 3432 
Q 1894 3584 2278 3584 
Q 2916 3584 3314 3078 
Q 3713 2572 3713 1747 
Q 3713 922 3314 415 
Q 2916 -91 2278 -91 
Q 1894 -91 1617 61 
Q 1341 213 1159 525 
L 1159 0 
L 581 0 
L 581 4863 
L 1159 4863 
L 1159 2969 
z
" id="DejaVuSans-62" transform="scale(0.015625)"/>
       <path d="M 603 3500 
L 1178 3500 
L 1178 0 
L 603 0 
L 603 3500 
z
M 603 4863 
L 1178 4863 
L 1178 4134 
L 603 4134 
L 603 4863 
z
" id="DejaVuSans-69" transform="scale(0.015625)"/>
       <path d="M 1172 4494 
L 1172 3500 
L 2356 3500 
L 2356 3053 
L 1172 3053 
L 1172 1153 
Q 1172 725 1289 603 
Q 1406 481 1766 481 
L 2356 481 
L 2356 0 
L 1766 0 
Q 1100 0 847 248 
Q 594 497 594 1153 
L 594 3053 
L 172 3053 
L 172 3500 
L 594 3500 
L 594 4494 
L 1172 4494 
z
" id="DejaVuSans-74" transform="scale(0.015625)"/>
       <path d="M 2059 -325 
Q 1816 -950 1584 -1140 
Q 1353 -1331 966 -1331 
L 506 -1331 
L 506 -850 
L 844 -850 
Q 1081 -850 1212 -737 
Q 1344 -625 1503 -206 
L 1606 56 
L 191 3500 
L 800 3500 
L 1894 763 
L 2988 3500 
L 3597 3500 
L 2059 -325 
z
" id="DejaVuSans-79" transform="scale(0.015625)"/>
      </defs>
      <use xlink:href="#DejaVuSans-70"/>
      <use x="63.476562" xlink:href="#DejaVuSans-72"/>
      <use x="102.339844" xlink:href="#DejaVuSans-6f"/>
      <use x="163.521484" xlink:href="#DejaVuSans-62"/>
      <use x="226.998047" xlink:href="#DejaVuSans-61"/>
      <use x="288.277344" xlink:href="#DejaVuSans-62"/>
      <use x="351.753906" xlink:href="#DejaVuSans-69"/>
      <use x="379.537109" xlink:href="#DejaVuSans-6c"/>
      <use x="407.320312" xlink:href="#DejaVuSans-69"/>
      <use x="435.103516" xlink:href="#DejaVuSans-74"/>
      <use x="474.3125" xlink:href="#DejaVuSans-79"/>
     </g>
    </g>
   </g>
   <g id="patch_54">
    <path d="M 54 252 
L 54 34.56 
" style="fill:none;stroke:#000000;stroke-linecap:square;stroke-linejoin:miter;stroke-width:0.8;"/>
   </g>
   <g id="patch_55">
    <path d="M 388.8 252 
L 388.8 34.56 
" style="fill:none;stroke:#000000;stroke-linecap:square;stroke-linejoin:miter;stroke-width:0.8;"/>
   </g>
   <g id="patch_56">
    <path d="M 54 252 
L 388.8 252 
" style="fill:none;stroke:#000000;stroke-linecap:square;stroke-linejoin:miter;stroke-width:0.8;"/>
   </g>
   <g id="patch_57">
    <path d="M 54 34.56 
L 388.8 34.56 
" style="fill:none;stroke:#000000;stroke-linecap:square;stroke-linejoin:miter;stroke-width:0.8;"/>
   </g>
   <g id="text_14">
    <!-- Binomial Distribution Probability Mass Function -->
    <g transform="translate(68.563672 14.002844)scale(0.13 -0.13)">
     <defs>
      <path d="M 1259 2228 
L 1259 519 
L 2272 519 
Q 2781 519 3026 730 
Q 3272 941 3272 1375 
Q 3272 1813 3026 2020 
Q 2781 2228 2272 2228 
L 1259 2228 
z
M 1259 4147 
L 1259 2741 
L 2194 2741 
Q 2656 2741 2882 2914 
Q 3109 3088 3109 3444 
Q 3109 3797 2882 3972 
Q 2656 4147 2194 4147 
L 1259 4147 
z
M 628 4666 
L 2241 4666 
Q 2963 4666 3353 4366 
Q 3744 4066 3744 3513 
Q 3744 3084 3544 2831 
Q 3344 2578 2956 2516 
Q 3422 2416 3680 2098 
Q 3938 1781 3938 1306 
Q 3938 681 3513 340 
Q 3088 0 2303 0 
L 628 0 
L 628 4666 
z
" id="DejaVuSans-42" transform="scale(0.015625)"/>
      <path d="M 3513 2113 
L 3513 0 
L 2938 0 
L 2938 2094 
Q 2938 2591 2744 2837 
Q 2550 3084 2163 3084 
Q 1697 3084 1428 2787 
Q 1159 2491 1159 1978 
L 1159 0 
L 581 0 
L 581 3500 
L 1159 3500 
L 1159 2956 
Q 1366 3272 1645 3428 
Q 1925 3584 2291 3584 
Q 2894 3584 3203 3211 
Q 3513 2838 3513 2113 
z
" id="DejaVuSans-6e" transform="scale(0.015625)"/>
      <path d="M 3328 2828 
Q 3544 3216 3844 3400 
Q 4144 3584 4550 3584 
Q 5097 3584 5394 3201 
Q 5691 2819 5691 2113 
L 5691 0 
L 5113 0 
L 5113 2094 
Q 5113 2597 4934 2840 
Q 4756 3084 4391 3084 
Q 3944 3084 3684 2787 
Q 3425 2491 3425 1978 
L 3425 0 
L 2847 0 
L 2847 2094 
Q 2847 2600 2669 2842 
Q 2491 3084 2119 3084 
Q 1678 3084 1418 2786 
Q 1159 2488 1159 1978 
L 1159 0 
L 581 0 
L 581 3500 
L 1159 3500 
L 1159 2956 
Q 1356 3278 1631 3431 
Q 1906 3584 2284 3584 
Q 2666 3584 2933 3390 
Q 3200 3197 3328 2828 
z
" id="DejaVuSans-6d" transform="scale(0.015625)"/>
      <path id="DejaVuSans-20" transform="scale(0.015625)"/>
      <path d="M 1259 4147 
L 1259 519 
L 2022 519 
Q 2988 519 3436 956 
Q 3884 1394 3884 2338 
Q 3884 3275 3436 3711 
Q 2988 4147 2022 4147 
L 1259 4147 
z
M 628 4666 
L 1925 4666 
Q 3281 4666 3915 4102 
Q 4550 3538 4550 2338 
Q 4550 1131 3912 565 
Q 3275 0 1925 0 
L 628 0 
L 628 4666 
z
" id="DejaVuSans-44" transform="scale(0.015625)"/>
      <path d="M 2834 3397 
L 2834 2853 
Q 2591 2978 2328 3040 
Q 2066 3103 1784 3103 
Q 1356 3103 1142 2972 
Q 928 2841 928 2578 
Q 928 2378 1081 2264 
Q 1234 2150 1697 2047 
L 1894 2003 
Q 2506 1872 2764 1633 
Q 3022 1394 3022 966 
Q 3022 478 2636 193 
Q 2250 -91 1575 -91 
Q 1294 -91 989 -36 
Q 684 19 347 128 
L 347 722 
Q 666 556 975 473 
Q 1284 391 1588 391 
Q 1994 391 2212 530 
Q 2431 669 2431 922 
Q 2431 1156 2273 1281 
Q 2116 1406 1581 1522 
L 1381 1569 
Q 847 1681 609 1914 
Q 372 2147 372 2553 
Q 372 3047 722 3315 
Q 1072 3584 1716 3584 
Q 2034 3584 2315 3537 
Q 2597 3491 2834 3397 
z
" id="DejaVuSans-73" transform="scale(0.015625)"/>
      <path d="M 1259 4147 
L 1259 2394 
L 2053 2394 
Q 2494 2394 2734 2622 
Q 2975 2850 2975 3272 
Q 2975 3691 2734 3919 
Q 2494 4147 2053 4147 
L 1259 4147 
z
M 628 4666 
L 2053 4666 
Q 2838 4666 3239 4311 
Q 3641 3956 3641 3272 
Q 3641 2581 3239 2228 
Q 2838 1875 2053 1875 
L 1259 1875 
L 1259 0 
L 628 0 
L 628 4666 
z
" id="DejaVuSans-50" transform="scale(0.015625)"/>
      <path d="M 628 4666 
L 1569 4666 
L 2759 1491 
L 3956 4666 
L 4897 4666 
L 4897 0 
L 4281 0 
L 4281 4097 
L 3078 897 
L 2444 897 
L 1241 4097 
L 1241 0 
L 628 0 
L 628 4666 
z
" id="DejaVuSans-4d" transform="scale(0.015625)"/>
      <path d="M 628 4666 
L 3309 4666 
L 3309 4134 
L 1259 4134 
L 1259 2759 
L 3109 2759 
L 3109 2228 
L 1259 2228 
L 1259 0 
L 628 0 
L 628 4666 
z
" id="DejaVuSans-46" transform="scale(0.015625)"/>
      <path d="M 3122 3366 
L 3122 2828 
Q 2878 2963 2633 3030 
Q 2388 3097 2138 3097 
Q 1578 3097 1268 2742 
Q 959 2388 959 1747 
Q 959 1106 1268 751 
Q 1578 397 2138 397 
Q 2388 397 2633 464 
Q 2878 531 3122 666 
L 3122 134 
Q 2881 22 2623 -34 
Q 2366 -91 2075 -91 
Q 1284 -91 818 406 
Q 353 903 353 1747 
Q 353 2603 823 3093 
Q 1294 3584 2113 3584 
Q 2378 3584 2631 3529 
Q 2884 3475 3122 3366 
z
" id="DejaVuSans-63" transform="scale(0.015625)"/>
     </defs>
     <use xlink:href="#DejaVuSans-42"/>
     <use x="68.603516" xlink:href="#DejaVuSans-69"/>
     <use x="96.386719" xlink:href="#DejaVuSans-6e"/>
     <use x="159.765625" xlink:href="#DejaVuSans-6f"/>
     <use x="220.947266" xlink:href="#DejaVuSans-6d"/>
     <use x="318.359375" xlink:href="#DejaVuSans-69"/>
     <use x="346.142578" xlink:href="#DejaVuSans-61"/>
     <use x="407.421875" xlink:href="#DejaVuSans-6c"/>
     <use x="435.205078" xlink:href="#DejaVuSans-20"/>
     <use x="466.992188" xlink:href="#DejaVuSans-44"/>
     <use x="543.994141" xlink:href="#DejaVuSans-69"/>
     <use x="571.777344" xlink:href="#DejaVuSans-73"/>
     <use x="623.876953" xlink:href="#DejaVuSans-74"/>
     <use x="663.085938" xlink:href="#DejaVuSans-72"/>
     <use x="704.199219" xlink:href="#DejaVuSans-69"/>
     <use x="731.982422" xlink:href="#DejaVuSans-62"/>
     <use x="795.458984" xlink:href="#DejaVuSans-75"/>
     <use x="858.837891" xlink:href="#DejaVuSans-74"/>
     <use x="898.046875" xlink:href="#DejaVuSans-69"/>
     <use x="925.830078" xlink:href="#DejaVuSans-6f"/>
     <use x="987.011719" xlink:href="#DejaVuSans-6e"/>
     <use x="1050.390625" xlink:href="#DejaVuSans-20"/>
     <use x="1082.177734" xlink:href="#DejaVuSans-50"/>
     <use x="1140.730469" xlink:href="#DejaVuSans-72"/>
     <use x="1179.59375" xlink:href="#DejaVuSans-6f"/>
     <use x="1240.775391" xlink:href="#DejaVuSans-62"/>
     <use x="1304.251953" xlink:href="#DejaVuSans-61"/>
     <use x="1365.53125" xlink:href="#DejaVuSans-62"/>
     <use x="1429.007812" xlink:href="#DejaVuSans-69"/>
     <use x="1456.791016" xlink:href="#DejaVuSans-6c"/>
     <use x="1484.574219" xlink:href="#DejaVuSans-69"/>
     <use x="1512.357422" xlink:href="#DejaVuSans-74"/>
     <use x="1551.566406" xlink:href="#DejaVuSans-79"/>
     <use x="1610.746094" xlink:href="#DejaVuSans-20"/>
     <use x="1642.533203" xlink:href="#DejaVuSans-4d"/>
     <use x="1728.8125" xlink:href="#DejaVuSans-61"/>
     <use x="1790.091797" xlink:href="#DejaVuSans-73"/>
     <use x="1842.191406" xlink:href="#DejaVuSans-73"/>
     <use x="1894.291016" xlink:href="#DejaVuSans-20"/>
     <use x="1926.078125" xlink:href="#DejaVuSans-46"/>
     <use x="1978.097656" xlink:href="#DejaVuSans-75"/>
     <use x="2041.476562" xlink:href="#DejaVuSans-6e"/>
     <use x="2104.855469" xlink:href="#DejaVuSans-63"/>
     <use x="2159.835938" xlink:href="#DejaVuSans-74"/>
     <use x="2199.044922" xlink:href="#DejaVuSans-69"/>
     <use x="2226.828125" xlink:href="#DejaVuSans-6f"/>
     <use x="2288.009766" xlink:href="#DejaVuSans-6e"/>
    </g>
    <!--     probability 0.25   100 samples -->
    <g transform="translate(114.23125 28.56)scale(0.13 -0.13)">
     <defs>
      <path d="M 691 4666 
L 3169 4666 
L 3169 4134 
L 1269 4134 
L 1269 2991 
Q 1406 3038 1543 3061 
Q 1681 3084 1819 3084 
Q 2600 3084 3056 2656 
Q 3513 2228 3513 1497 
Q 3513 744 3044 326 
Q 2575 -91 1722 -91 
Q 1428 -91 1123 -41 
Q 819 9 494 109 
L 494 744 
Q 775 591 1075 516 
Q 1375 441 1709 441 
Q 2250 441 2565 725 
Q 2881 1009 2881 1497 
Q 2881 1984 2565 2268 
Q 2250 2553 1709 2553 
Q 1456 2553 1204 2497 
Q 953 2441 691 2322 
L 691 4666 
z
" id="DejaVuSans-35" transform="scale(0.015625)"/>
     </defs>
     <use xlink:href="#DejaVuSans-20"/>
     <use x="31.787109" xlink:href="#DejaVuSans-20"/>
     <use x="63.574219" xlink:href="#DejaVuSans-20"/>
     <use x="95.361328" xlink:href="#DejaVuSans-20"/>
     <use x="127.148438" xlink:href="#DejaVuSans-70"/>
     <use x="190.625" xlink:href="#DejaVuSans-72"/>
     <use x="229.488281" xlink:href="#DejaVuSans-6f"/>
     <use x="290.669922" xlink:href="#DejaVuSans-62"/>
     <use x="354.146484" xlink:href="#DejaVuSans-61"/>
     <use x="415.425781" xlink:href="#DejaVuSans-62"/>
     <use x="478.902344" xlink:href="#DejaVuSans-69"/>
     <use x="506.685547" xlink:href="#DejaVuSans-6c"/>
     <use x="534.46875" xlink:href="#DejaVuSans-69"/>
     <use x="562.251953" xlink:href="#DejaVuSans-74"/>
     <use x="601.460938" xlink:href="#DejaVuSans-79"/>
     <use x="660.640625" xlink:href="#DejaVuSans-20"/>
     <use x="692.427734" xlink:href="#DejaVuSans-30"/>
     <use x="756.050781" xlink:href="#DejaVuSans-2e"/>
     <use x="787.837891" xlink:href="#DejaVuSans-32"/>
     <use x="851.460938" xlink:href="#DejaVuSans-35"/>
     <use x="915.083984" xlink:href="#DejaVuSans-20"/>
     <use x="946.871094" xlink:href="#DejaVuSans-20"/>
     <use x="978.658203" xlink:href="#DejaVuSans-20"/>
     <use x="1010.445312" xlink:href="#DejaVuSans-31"/>
     <use x="1074.068359" xlink:href="#DejaVuSans-30"/>
     <use x="1137.691406" xlink:href="#DejaVuSans-30"/>
     <use x="1201.314453" xlink:href="#DejaVuSans-20"/>
     <use x="1233.101562" xlink:href="#DejaVuSans-73"/>
     <use x="1285.201172" xlink:href="#DejaVuSans-61"/>
     <use x="1346.480469" xlink:href="#DejaVuSans-6d"/>
     <use x="1443.892578" xlink:href="#DejaVuSans-70"/>
     <use x="1507.369141" xlink:href="#DejaVuSans-6c"/>
     <use x="1535.152344" xlink:href="#DejaVuSans-65"/>
     <use x="1596.675781" xlink:href="#DejaVuSans-73"/>
    </g>
   </g>
  </g>
 </g>
 <defs>
  <clipPath id="p741f30309b">
   <rect height="217.44" width="334.8" x="54" y="34.56"/>
  </clipPath>
 </defs>
</svg>
