<?xml version="1.0" encoding="utf-8" standalone="no"?>
<!DOCTYPE svg PUBLIC "-//W3C//DTD SVG 1.1//EN"
  "http://www.w3.org/Graphics/SVG/1.1/DTD/svg11.dtd">
<svg height="288pt" version="1.1" viewBox="0 0 432 288" width="432pt" xmlns="http://www.w3.org/2000/svg" xmlns:xlink="http://www.w3.org/1999/xlink">
 <metadata>
  <rdf:RDF xmlns:cc="http://creativecommons.org/ns#" xmlns:dc="http://purl.org/dc/elements/1.1/" xmlns:rdf="http://www.w3.org/1999/02/22-rdf-syntax-ns#">
   <cc:Work>
    <dc:type rdf:resource="http://purl.org/dc/dcmitype/StillImage"/>
    <dc:date>2022-05-30T15:15:06.078186</dc:date>
    <dc:format>image/svg+xml</dc:format>
    <dc:creator>
     <cc:Agent>
      <dc:title>Matplotlib v3.4.3, https://matplotlib.org/</dc:title>
     </cc:Agent>
    </dc:creator>
   </cc:Work>
  </rdf:RDF>
 </metadata>
 <defs>
  <style type="text/css">*{stroke-linecap:butt;stroke-linejoin:round;}</style>
 </defs>
 <g id="figure_1">
  <g id="patch_1">
   <path d="M 0 288 
L 432 288 
L 432 0 
L 0 0 
z
" style="fill:none;"/>
  </g>
  <g id="axes_1">
   <g id="patch_2">
    <path d="M 54 252 
L 388.8 252 
L 388.8 34.56 
L 54 34.56 
z
" style="fill:#ffffff;"/>
   </g>
   <g id="PathCollection_1">
    <defs>
     <path d="M 0 3 
C 0.795609 3 1.55874 2.683901 2.12132 2.12132 
C 2.683901 1.55874 3 0.795609 3 0 
C 3 -0.795609 2.683901 -1.55874 2.12132 -2.12132 
C 1.55874 -2.683901 0.795609 -3 0 -3 
C -0.795609 -3 -1.55874 -2.683901 -2.12132 -2.12132 
C -2.683901 -1.55874 -3 -0.795609 -3 0 
C -3 0.795609 -2.683901 1.55874 -2.12132 2.12132 
C -1.55874 2.683901 -0.795609 3 0 3 
z
" id="m5709cb4c83" style="stroke:#1f77b4;"/>
    </defs>
    <g clip-path="url(#pfccc1e83b0)">
     <use style="fill:#1f77b4;stroke:#1f77b4;" x="69.218182" xlink:href="#m5709cb4c83" y="242.116364"/>
     <use style="fill:#1f77b4;stroke:#1f77b4;" x="75.305455" xlink:href="#m5709cb4c83" y="242.116364"/>
     <use style="fill:#1f77b4;stroke:#1f77b4;" x="81.392727" xlink:href="#m5709cb4c83" y="242.116364"/>
     <use style="fill:#1f77b4;stroke:#1f77b4;" x="87.48" xlink:href="#m5709cb4c83" y="242.116363"/>
     <use style="fill:#1f77b4;stroke:#1f77b4;" x="93.567273" xlink:href="#m5709cb4c83" y="242.116347"/>
     <use style="fill:#1f77b4;stroke:#1f77b4;" x="99.654545" xlink:href="#m5709cb4c83" y="242.116056"/>
     <use style="fill:#1f77b4;stroke:#1f77b4;" x="105.741818" xlink:href="#m5709cb4c83" y="242.112666"/>
     <use style="fill:#1f77b4;stroke:#1f77b4;" x="111.829091" xlink:href="#m5709cb4c83" y="242.085262"/>
     <use style="fill:#1f77b4;stroke:#1f77b4;" x="117.916364" xlink:href="#m5709cb4c83" y="241.924845"/>
     <use style="fill:#1f77b4;stroke:#1f77b4;" x="124.003636" xlink:href="#m5709cb4c83" y="241.222361"/>
     <use style="fill:#1f77b4;stroke:#1f77b4;" x="130.090909" xlink:href="#m5709cb4c83" y="238.862107"/>
     <use style="fill:#1f77b4;stroke:#1f77b4;" x="136.178182" xlink:href="#m5709cb4c83" y="232.654613"/>
     <use style="fill:#1f77b4;stroke:#1f77b4;" x="142.265455" xlink:href="#m5709cb4c83" y="219.666636"/>
     <use style="fill:#1f77b4;stroke:#1f77b4;" x="148.352727" xlink:href="#m5709cb4c83" y="197.758754"/>
     <use style="fill:#1f77b4;stroke:#1f77b4;" x="154.44" xlink:href="#m5709cb4c83" y="167.637593"/>
     <use style="fill:#1f77b4;stroke:#1f77b4;" x="160.527273" xlink:href="#m5709cb4c83" y="133.569604"/>
     <use style="fill:#1f77b4;stroke:#1f77b4;" x="166.614545" xlink:href="#m5709cb4c83" y="101.626688"/>
     <use style="fill:#1f77b4;stroke:#1f77b4;" x="172.701818" xlink:href="#m5709cb4c83" y="76.636278"/>
     <use style="fill:#1f77b4;stroke:#1f77b4;" x="178.789091" xlink:href="#m5709cb4c83" y="60.233742"/>
     <use style="fill:#1f77b4;stroke:#1f77b4;" x="184.876364" xlink:href="#m5709cb4c83" y="51.160358"/>
     <use style="fill:#1f77b4;stroke:#1f77b4;" x="190.963636" xlink:href="#m5709cb4c83" y="46.914231"/>
     <use style="fill:#1f77b4;stroke:#1f77b4;" x="197.050909" xlink:href="#m5709cb4c83" y="45.22796"/>
     <use style="fill:#1f77b4;stroke:#1f77b4;" x="203.138182" xlink:href="#m5709cb4c83" y="44.658259"/>
     <use style="fill:#1f77b4;stroke:#1f77b4;" x="209.225455" xlink:href="#m5709cb4c83" y="44.494207"/>
     <use style="fill:#1f77b4;stroke:#1f77b4;" x="215.312727" xlink:href="#m5709cb4c83" y="44.453888"/>
     <use style="fill:#1f77b4;stroke:#1f77b4;" x="221.4" xlink:href="#m5709cb4c83" y="44.445422"/>
     <use style="fill:#1f77b4;stroke:#1f77b4;" x="227.487273" xlink:href="#m5709cb4c83" y="44.443903"/>
     <use style="fill:#1f77b4;stroke:#1f77b4;" x="233.574545" xlink:href="#m5709cb4c83" y="44.443671"/>
     <use style="fill:#1f77b4;stroke:#1f77b4;" x="239.661818" xlink:href="#m5709cb4c83" y="44.44364"/>
     <use style="fill:#1f77b4;stroke:#1f77b4;" x="245.749091" xlink:href="#m5709cb4c83" y="44.443637"/>
     <use style="fill:#1f77b4;stroke:#1f77b4;" x="251.836364" xlink:href="#m5709cb4c83" y="44.443636"/>
     <use style="fill:#1f77b4;stroke:#1f77b4;" x="257.923636" xlink:href="#m5709cb4c83" y="44.443636"/>
     <use style="fill:#1f77b4;stroke:#1f77b4;" x="264.010909" xlink:href="#m5709cb4c83" y="44.443636"/>
     <use style="fill:#1f77b4;stroke:#1f77b4;" x="270.098182" xlink:href="#m5709cb4c83" y="44.443636"/>
     <use style="fill:#1f77b4;stroke:#1f77b4;" x="276.185455" xlink:href="#m5709cb4c83" y="44.443636"/>
     <use style="fill:#1f77b4;stroke:#1f77b4;" x="282.272727" xlink:href="#m5709cb4c83" y="44.443636"/>
     <use style="fill:#1f77b4;stroke:#1f77b4;" x="288.36" xlink:href="#m5709cb4c83" y="44.443636"/>
     <use style="fill:#1f77b4;stroke:#1f77b4;" x="294.447273" xlink:href="#m5709cb4c83" y="44.443636"/>
     <use style="fill:#1f77b4;stroke:#1f77b4;" x="300.534545" xlink:href="#m5709cb4c83" y="44.443636"/>
     <use style="fill:#1f77b4;stroke:#1f77b4;" x="306.621818" xlink:href="#m5709cb4c83" y="44.443636"/>
     <use style="fill:#1f77b4;stroke:#1f77b4;" x="312.709091" xlink:href="#m5709cb4c83" y="44.443636"/>
     <use style="fill:#1f77b4;stroke:#1f77b4;" x="318.796364" xlink:href="#m5709cb4c83" y="44.443636"/>
     <use style="fill:#1f77b4;stroke:#1f77b4;" x="324.883636" xlink:href="#m5709cb4c83" y="44.443636"/>
     <use style="fill:#1f77b4;stroke:#1f77b4;" x="330.970909" xlink:href="#m5709cb4c83" y="44.443636"/>
     <use style="fill:#1f77b4;stroke:#1f77b4;" x="337.058182" xlink:href="#m5709cb4c83" y="44.443636"/>
     <use style="fill:#1f77b4;stroke:#1f77b4;" x="343.145455" xlink:href="#m5709cb4c83" y="44.443636"/>
     <use style="fill:#1f77b4;stroke:#1f77b4;" x="349.232727" xlink:href="#m5709cb4c83" y="44.443636"/>
     <use style="fill:#1f77b4;stroke:#1f77b4;" x="355.32" xlink:href="#m5709cb4c83" y="44.443636"/>
     <use style="fill:#1f77b4;stroke:#1f77b4;" x="361.407273" xlink:href="#m5709cb4c83" y="44.443636"/>
     <use style="fill:#1f77b4;stroke:#1f77b4;" x="367.494545" xlink:href="#m5709cb4c83" y="44.443636"/>
     <use style="fill:#1f77b4;stroke:#1f77b4;" x="373.581818" xlink:href="#m5709cb4c83" y="44.443636"/>
    </g>
   </g>
   <g id="matplotlib.axis_1">
    <g id="xtick_1">
     <g id="line2d_1">
      <path clip-path="url(#pfccc1e83b0)" d="M 69.218182 252 
L 69.218182 34.56 
" style="fill:none;stroke:#b0b0b0;stroke-linecap:square;stroke-width:0.8;"/>
     </g>
     <g id="line2d_2">
      <defs>
       <path d="M 0 0 
L 0 3.5 
" id="mb5e68b734a" style="stroke:#000000;stroke-width:0.8;"/>
      </defs>
      <g>
       <use style="stroke:#000000;stroke-width:0.8;" x="69.218182" xlink:href="#mb5e68b734a" y="252"/>
      </g>
     </g>
     <g id="text_1">
      <!-- 0 -->
      <g transform="translate(66.036932 266.598437)scale(0.1 -0.1)">
       <defs>
        <path d="M 2034 4250 
Q 1547 4250 1301 3770 
Q 1056 3291 1056 2328 
Q 1056 1369 1301 889 
Q 1547 409 2034 409 
Q 2525 409 2770 889 
Q 3016 1369 3016 2328 
Q 3016 3291 2770 3770 
Q 2525 4250 2034 4250 
z
M 2034 4750 
Q 2819 4750 3233 4129 
Q 3647 3509 3647 2328 
Q 3647 1150 3233 529 
Q 2819 -91 2034 -91 
Q 1250 -91 836 529 
Q 422 1150 422 2328 
Q 422 3509 836 4129 
Q 1250 4750 2034 4750 
z
" id="DejaVuSans-30" transform="scale(0.015625)"/>
       </defs>
       <use xlink:href="#DejaVuSans-30"/>
      </g>
     </g>
    </g>
    <g id="xtick_2">
     <g id="line2d_3">
      <path clip-path="url(#pfccc1e83b0)" d="M 130.090909 252 
L 130.090909 34.56 
" style="fill:none;stroke:#b0b0b0;stroke-linecap:square;stroke-width:0.8;"/>
     </g>
     <g id="line2d_4">
      <g>
       <use style="stroke:#000000;stroke-width:0.8;" x="130.090909" xlink:href="#mb5e68b734a" y="252"/>
      </g>
     </g>
     <g id="text_2">
      <!-- 20 -->
      <g transform="translate(123.728409 266.598437)scale(0.1 -0.1)">
       <defs>
        <path d="M 1228 531 
L 3431 531 
L 3431 0 
L 469 0 
L 469 531 
Q 828 903 1448 1529 
Q 2069 2156 2228 2338 
Q 2531 2678 2651 2914 
Q 2772 3150 2772 3378 
Q 2772 3750 2511 3984 
Q 2250 4219 1831 4219 
Q 1534 4219 1204 4116 
Q 875 4013 500 3803 
L 500 4441 
Q 881 4594 1212 4672 
Q 1544 4750 1819 4750 
Q 2544 4750 2975 4387 
Q 3406 4025 3406 3419 
Q 3406 3131 3298 2873 
Q 3191 2616 2906 2266 
Q 2828 2175 2409 1742 
Q 1991 1309 1228 531 
z
" id="DejaVuSans-32" transform="scale(0.015625)"/>
       </defs>
       <use xlink:href="#DejaVuSans-32"/>
       <use x="63.623047" xlink:href="#DejaVuSans-30"/>
      </g>
     </g>
    </g>
    <g id="xtick_3">
     <g id="line2d_5">
      <path clip-path="url(#pfccc1e83b0)" d="M 190.963636 252 
L 190.963636 34.56 
" style="fill:none;stroke:#b0b0b0;stroke-linecap:square;stroke-width:0.8;"/>
     </g>
     <g id="line2d_6">
      <g>
       <use style="stroke:#000000;stroke-width:0.8;" x="190.963636" xlink:href="#mb5e68b734a" y="252"/>
      </g>
     </g>
     <g id="text_3">
      <!-- 40 -->
      <g transform="translate(184.601136 266.598437)scale(0.1 -0.1)">
       <defs>
        <path d="M 2419 4116 
L 825 1625 
L 2419 1625 
L 2419 4116 
z
M 2253 4666 
L 3047 4666 
L 3047 1625 
L 3713 1625 
L 3713 1100 
L 3047 1100 
L 3047 0 
L 2419 0 
L 2419 1100 
L 313 1100 
L 313 1709 
L 2253 4666 
z
" id="DejaVuSans-34" transform="scale(0.015625)"/>
       </defs>
       <use xlink:href="#DejaVuSans-34"/>
       <use x="63.623047" xlink:href="#DejaVuSans-30"/>
      </g>
     </g>
    </g>
    <g id="xtick_4">
     <g id="line2d_7">
      <path clip-path="url(#pfccc1e83b0)" d="M 251.836364 252 
L 251.836364 34.56 
" style="fill:none;stroke:#b0b0b0;stroke-linecap:square;stroke-width:0.8;"/>
     </g>
     <g id="line2d_8">
      <g>
       <use style="stroke:#000000;stroke-width:0.8;" x="251.836364" xlink:href="#mb5e68b734a" y="252"/>
      </g>
     </g>
     <g id="text_4">
      <!-- 60 -->
      <g transform="translate(245.473864 266.598437)scale(0.1 -0.1)">
       <defs>
        <path d="M 2113 2584 
Q 1688 2584 1439 2293 
Q 1191 2003 1191 1497 
Q 1191 994 1439 701 
Q 1688 409 2113 409 
Q 2538 409 2786 701 
Q 3034 994 3034 1497 
Q 3034 2003 2786 2293 
Q 2538 2584 2113 2584 
z
M 3366 4563 
L 3366 3988 
Q 3128 4100 2886 4159 
Q 2644 4219 2406 4219 
Q 1781 4219 1451 3797 
Q 1122 3375 1075 2522 
Q 1259 2794 1537 2939 
Q 1816 3084 2150 3084 
Q 2853 3084 3261 2657 
Q 3669 2231 3669 1497 
Q 3669 778 3244 343 
Q 2819 -91 2113 -91 
Q 1303 -91 875 529 
Q 447 1150 447 2328 
Q 447 3434 972 4092 
Q 1497 4750 2381 4750 
Q 2619 4750 2861 4703 
Q 3103 4656 3366 4563 
z
" id="DejaVuSans-36" transform="scale(0.015625)"/>
       </defs>
       <use xlink:href="#DejaVuSans-36"/>
       <use x="63.623047" xlink:href="#DejaVuSans-30"/>
      </g>
     </g>
    </g>
    <g id="xtick_5">
     <g id="line2d_9">
      <path clip-path="url(#pfccc1e83b0)" d="M 312.709091 252 
L 312.709091 34.56 
" style="fill:none;stroke:#b0b0b0;stroke-linecap:square;stroke-width:0.8;"/>
     </g>
     <g id="line2d_10">
      <g>
       <use style="stroke:#000000;stroke-width:0.8;" x="312.709091" xlink:href="#mb5e68b734a" y="252"/>
      </g>
     </g>
     <g id="text_5">
      <!-- 80 -->
      <g transform="translate(306.346591 266.598437)scale(0.1 -0.1)">
       <defs>
        <path d="M 2034 2216 
Q 1584 2216 1326 1975 
Q 1069 1734 1069 1313 
Q 1069 891 1326 650 
Q 1584 409 2034 409 
Q 2484 409 2743 651 
Q 3003 894 3003 1313 
Q 3003 1734 2745 1975 
Q 2488 2216 2034 2216 
z
M 1403 2484 
Q 997 2584 770 2862 
Q 544 3141 544 3541 
Q 544 4100 942 4425 
Q 1341 4750 2034 4750 
Q 2731 4750 3128 4425 
Q 3525 4100 3525 3541 
Q 3525 3141 3298 2862 
Q 3072 2584 2669 2484 
Q 3125 2378 3379 2068 
Q 3634 1759 3634 1313 
Q 3634 634 3220 271 
Q 2806 -91 2034 -91 
Q 1263 -91 848 271 
Q 434 634 434 1313 
Q 434 1759 690 2068 
Q 947 2378 1403 2484 
z
M 1172 3481 
Q 1172 3119 1398 2916 
Q 1625 2713 2034 2713 
Q 2441 2713 2670 2916 
Q 2900 3119 2900 3481 
Q 2900 3844 2670 4047 
Q 2441 4250 2034 4250 
Q 1625 4250 1398 4047 
Q 1172 3844 1172 3481 
z
" id="DejaVuSans-38" transform="scale(0.015625)"/>
       </defs>
       <use xlink:href="#DejaVuSans-38"/>
       <use x="63.623047" xlink:href="#DejaVuSans-30"/>
      </g>
     </g>
    </g>
    <g id="xtick_6">
     <g id="line2d_11">
      <path clip-path="url(#pfccc1e83b0)" d="M 373.581818 252 
L 373.581818 34.56 
" style="fill:none;stroke:#b0b0b0;stroke-linecap:square;stroke-width:0.8;"/>
     </g>
     <g id="line2d_12">
      <g>
       <use style="stroke:#000000;stroke-width:0.8;" x="373.581818" xlink:href="#mb5e68b734a" y="252"/>
      </g>
     </g>
     <g id="text_6">
      <!-- 100 -->
      <g transform="translate(364.038068 266.598437)scale(0.1 -0.1)">
       <defs>
        <path d="M 794 531 
L 1825 531 
L 1825 4091 
L 703 3866 
L 703 4441 
L 1819 4666 
L 2450 4666 
L 2450 531 
L 3481 531 
L 3481 0 
L 794 0 
L 794 531 
z
" id="DejaVuSans-31" transform="scale(0.015625)"/>
       </defs>
       <use xlink:href="#DejaVuSans-31"/>
       <use x="63.623047" xlink:href="#DejaVuSans-30"/>
       <use x="127.246094" xlink:href="#DejaVuSans-30"/>
      </g>
     </g>
    </g>
    <g id="text_7">
     <!-- value -->
     <g transform="translate(205.010625 281.79625)scale(0.12 -0.12)">
      <defs>
       <path d="M 191 3500 
L 800 3500 
L 1894 563 
L 2988 3500 
L 3597 3500 
L 2284 0 
L 1503 0 
L 191 3500 
z
" id="DejaVuSans-76" transform="scale(0.015625)"/>
       <path d="M 2194 1759 
Q 1497 1759 1228 1600 
Q 959 1441 959 1056 
Q 959 750 1161 570 
Q 1363 391 1709 391 
Q 2188 391 2477 730 
Q 2766 1069 2766 1631 
L 2766 1759 
L 2194 1759 
z
M 3341 1997 
L 3341 0 
L 2766 0 
L 2766 531 
Q 2569 213 2275 61 
Q 1981 -91 1556 -91 
Q 1019 -91 701 211 
Q 384 513 384 1019 
Q 384 1609 779 1909 
Q 1175 2209 1959 2209 
L 2766 2209 
L 2766 2266 
Q 2766 2663 2505 2880 
Q 2244 3097 1772 3097 
Q 1472 3097 1187 3025 
Q 903 2953 641 2809 
L 641 3341 
Q 956 3463 1253 3523 
Q 1550 3584 1831 3584 
Q 2591 3584 2966 3190 
Q 3341 2797 3341 1997 
z
" id="DejaVuSans-61" transform="scale(0.015625)"/>
       <path d="M 603 4863 
L 1178 4863 
L 1178 0 
L 603 0 
L 603 4863 
z
" id="DejaVuSans-6c" transform="scale(0.015625)"/>
       <path d="M 544 1381 
L 544 3500 
L 1119 3500 
L 1119 1403 
Q 1119 906 1312 657 
Q 1506 409 1894 409 
Q 2359 409 2629 706 
Q 2900 1003 2900 1516 
L 2900 3500 
L 3475 3500 
L 3475 0 
L 2900 0 
L 2900 538 
Q 2691 219 2414 64 
Q 2138 -91 1772 -91 
Q 1169 -91 856 284 
Q 544 659 544 1381 
z
M 1991 3584 
L 1991 3584 
z
" id="DejaVuSans-75" transform="scale(0.015625)"/>
       <path d="M 3597 1894 
L 3597 1613 
L 953 1613 
Q 991 1019 1311 708 
Q 1631 397 2203 397 
Q 2534 397 2845 478 
Q 3156 559 3463 722 
L 3463 178 
Q 3153 47 2828 -22 
Q 2503 -91 2169 -91 
Q 1331 -91 842 396 
Q 353 884 353 1716 
Q 353 2575 817 3079 
Q 1281 3584 2069 3584 
Q 2775 3584 3186 3129 
Q 3597 2675 3597 1894 
z
M 3022 2063 
Q 3016 2534 2758 2815 
Q 2500 3097 2075 3097 
Q 1594 3097 1305 2825 
Q 1016 2553 972 2059 
L 3022 2063 
z
" id="DejaVuSans-65" transform="scale(0.015625)"/>
      </defs>
      <use xlink:href="#DejaVuSans-76"/>
      <use x="59.179688" xlink:href="#DejaVuSans-61"/>
      <use x="120.458984" xlink:href="#DejaVuSans-6c"/>
      <use x="148.242188" xlink:href="#DejaVuSans-75"/>
      <use x="211.621094" xlink:href="#DejaVuSans-65"/>
     </g>
    </g>
   </g>
   <g id="matplotlib.axis_2">
    <g id="ytick_1">
     <g id="line2d_13">
      <path clip-path="url(#pfccc1e83b0)" d="M 54 242.116364 
L 388.8 242.116364 
" style="fill:none;stroke:#b0b0b0;stroke-linecap:square;stroke-width:0.8;"/>
     </g>
     <g id="line2d_14">
      <defs>
       <path d="M 0 0 
L -3.5 0 
" id="mb4f61b4dda" style="stroke:#000000;stroke-width:0.8;"/>
      </defs>
      <g>
       <use style="stroke:#000000;stroke-width:0.8;" x="54" xlink:href="#mb4f61b4dda" y="242.116364"/>
      </g>
     </g>
     <g id="text_8">
      <!-- 0.0 -->
      <g transform="translate(31.096875 245.915582)scale(0.1 -0.1)">
       <defs>
        <path d="M 684 794 
L 1344 794 
L 1344 0 
L 684 0 
L 684 794 
z
" id="DejaVuSans-2e" transform="scale(0.015625)"/>
       </defs>
       <use xlink:href="#DejaVuSans-30"/>
       <use x="63.623047" xlink:href="#DejaVuSans-2e"/>
       <use x="95.410156" xlink:href="#DejaVuSans-30"/>
      </g>
     </g>
    </g>
    <g id="ytick_2">
     <g id="line2d_15">
      <path clip-path="url(#pfccc1e83b0)" d="M 54 202.581818 
L 388.8 202.581818 
" style="fill:none;stroke:#b0b0b0;stroke-linecap:square;stroke-width:0.8;"/>
     </g>
     <g id="line2d_16">
      <g>
       <use style="stroke:#000000;stroke-width:0.8;" x="54" xlink:href="#mb4f61b4dda" y="202.581818"/>
      </g>
     </g>
     <g id="text_9">
      <!-- 0.2 -->
      <g transform="translate(31.096875 206.381037)scale(0.1 -0.1)">
       <use xlink:href="#DejaVuSans-30"/>
       <use x="63.623047" xlink:href="#DejaVuSans-2e"/>
       <use x="95.410156" xlink:href="#DejaVuSans-32"/>
      </g>
     </g>
    </g>
    <g id="ytick_3">
     <g id="line2d_17">
      <path clip-path="url(#pfccc1e83b0)" d="M 54 163.047273 
L 388.8 163.047273 
" style="fill:none;stroke:#b0b0b0;stroke-linecap:square;stroke-width:0.8;"/>
     </g>
     <g id="line2d_18">
      <g>
       <use style="stroke:#000000;stroke-width:0.8;" x="54" xlink:href="#mb4f61b4dda" y="163.047273"/>
      </g>
     </g>
     <g id="text_10">
      <!-- 0.4 -->
      <g transform="translate(31.096875 166.846491)scale(0.1 -0.1)">
       <use xlink:href="#DejaVuSans-30"/>
       <use x="63.623047" xlink:href="#DejaVuSans-2e"/>
       <use x="95.410156" xlink:href="#DejaVuSans-34"/>
      </g>
     </g>
    </g>
    <g id="ytick_4">
     <g id="line2d_19">
      <path clip-path="url(#pfccc1e83b0)" d="M 54 123.512727 
L 388.8 123.512727 
" style="fill:none;stroke:#b0b0b0;stroke-linecap:square;stroke-width:0.8;"/>
     </g>
     <g id="line2d_20">
      <g>
       <use style="stroke:#000000;stroke-width:0.8;" x="54" xlink:href="#mb4f61b4dda" y="123.512727"/>
      </g>
     </g>
     <g id="text_11">
      <!-- 0.6 -->
      <g transform="translate(31.096875 127.311946)scale(0.1 -0.1)">
       <use xlink:href="#DejaVuSans-30"/>
       <use x="63.623047" xlink:href="#DejaVuSans-2e"/>
       <use x="95.410156" xlink:href="#DejaVuSans-36"/>
      </g>
     </g>
    </g>
    <g id="ytick_5">
     <g id="line2d_21">
      <path clip-path="url(#pfccc1e83b0)" d="M 54 83.978182 
L 388.8 83.978182 
" style="fill:none;stroke:#b0b0b0;stroke-linecap:square;stroke-width:0.8;"/>
     </g>
     <g id="line2d_22">
      <g>
       <use style="stroke:#000000;stroke-width:0.8;" x="54" xlink:href="#mb4f61b4dda" y="83.978182"/>
      </g>
     </g>
     <g id="text_12">
      <!-- 0.8 -->
      <g transform="translate(31.096875 87.777401)scale(0.1 -0.1)">
       <use xlink:href="#DejaVuSans-30"/>
       <use x="63.623047" xlink:href="#DejaVuSans-2e"/>
       <use x="95.410156" xlink:href="#DejaVuSans-38"/>
      </g>
     </g>
    </g>
    <g id="ytick_6">
     <g id="line2d_23">
      <path clip-path="url(#pfccc1e83b0)" d="M 54 44.443636 
L 388.8 44.443636 
" style="fill:none;stroke:#b0b0b0;stroke-linecap:square;stroke-width:0.8;"/>
     </g>
     <g id="line2d_24">
      <g>
       <use style="stroke:#000000;stroke-width:0.8;" x="54" xlink:href="#mb4f61b4dda" y="44.443636"/>
      </g>
     </g>
     <g id="text_13">
      <!-- 1.0 -->
      <g transform="translate(31.096875 48.242855)scale(0.1 -0.1)">
       <use xlink:href="#DejaVuSans-31"/>
       <use x="63.623047" xlink:href="#DejaVuSans-2e"/>
       <use x="95.410156" xlink:href="#DejaVuSans-30"/>
      </g>
     </g>
    </g>
    <g id="text_14">
     <!-- cumulative probability -->
     <g transform="translate(24.60125 210.552188)rotate(-90)scale(0.12 -0.12)">
      <defs>
       <path d="M 3122 3366 
L 3122 2828 
Q 2878 2963 2633 3030 
Q 2388 3097 2138 3097 
Q 1578 3097 1268 2742 
Q 959 2388 959 1747 
Q 959 1106 1268 751 
Q 1578 397 2138 397 
Q 2388 397 2633 464 
Q 2878 531 3122 666 
L 3122 134 
Q 2881 22 2623 -34 
Q 2366 -91 2075 -91 
Q 1284 -91 818 406 
Q 353 903 353 1747 
Q 353 2603 823 3093 
Q 1294 3584 2113 3584 
Q 2378 3584 2631 3529 
Q 2884 3475 3122 3366 
z
" id="DejaVuSans-63" transform="scale(0.015625)"/>
       <path d="M 3328 2828 
Q 3544 3216 3844 3400 
Q 4144 3584 4550 3584 
Q 5097 3584 5394 3201 
Q 5691 2819 5691 2113 
L 5691 0 
L 5113 0 
L 5113 2094 
Q 5113 2597 4934 2840 
Q 4756 3084 4391 3084 
Q 3944 3084 3684 2787 
Q 3425 2491 3425 1978 
L 3425 0 
L 2847 0 
L 2847 2094 
Q 2847 2600 2669 2842 
Q 2491 3084 2119 3084 
Q 1678 3084 1418 2786 
Q 1159 2488 1159 1978 
L 1159 0 
L 581 0 
L 581 3500 
L 1159 3500 
L 1159 2956 
Q 1356 3278 1631 3431 
Q 1906 3584 2284 3584 
Q 2666 3584 2933 3390 
Q 3200 3197 3328 2828 
z
" id="DejaVuSans-6d" transform="scale(0.015625)"/>
       <path d="M 1172 4494 
L 1172 3500 
L 2356 3500 
L 2356 3053 
L 1172 3053 
L 1172 1153 
Q 1172 725 1289 603 
Q 1406 481 1766 481 
L 2356 481 
L 2356 0 
L 1766 0 
Q 1100 0 847 248 
Q 594 497 594 1153 
L 594 3053 
L 172 3053 
L 172 3500 
L 594 3500 
L 594 4494 
L 1172 4494 
z
" id="DejaVuSans-74" transform="scale(0.015625)"/>
       <path d="M 603 3500 
L 1178 3500 
L 1178 0 
L 603 0 
L 603 3500 
z
M 603 4863 
L 1178 4863 
L 1178 4134 
L 603 4134 
L 603 4863 
z
" id="DejaVuSans-69" transform="scale(0.015625)"/>
       <path id="DejaVuSans-20" transform="scale(0.015625)"/>
       <path d="M 1159 525 
L 1159 -1331 
L 581 -1331 
L 581 3500 
L 1159 3500 
L 1159 2969 
Q 1341 3281 1617 3432 
Q 1894 3584 2278 3584 
Q 2916 3584 3314 3078 
Q 3713 2572 3713 1747 
Q 3713 922 3314 415 
Q 2916 -91 2278 -91 
Q 1894 -91 1617 61 
Q 1341 213 1159 525 
z
M 3116 1747 
Q 3116 2381 2855 2742 
Q 2594 3103 2138 3103 
Q 1681 3103 1420 2742 
Q 1159 2381 1159 1747 
Q 1159 1113 1420 752 
Q 1681 391 2138 391 
Q 2594 391 2855 752 
Q 3116 1113 3116 1747 
z
" id="DejaVuSans-70" transform="scale(0.015625)"/>
       <path d="M 2631 2963 
Q 2534 3019 2420 3045 
Q 2306 3072 2169 3072 
Q 1681 3072 1420 2755 
Q 1159 2438 1159 1844 
L 1159 0 
L 581 0 
L 581 3500 
L 1159 3500 
L 1159 2956 
Q 1341 3275 1631 3429 
Q 1922 3584 2338 3584 
Q 2397 3584 2469 3576 
Q 2541 3569 2628 3553 
L 2631 2963 
z
" id="DejaVuSans-72" transform="scale(0.015625)"/>
       <path d="M 1959 3097 
Q 1497 3097 1228 2736 
Q 959 2375 959 1747 
Q 959 1119 1226 758 
Q 1494 397 1959 397 
Q 2419 397 2687 759 
Q 2956 1122 2956 1747 
Q 2956 2369 2687 2733 
Q 2419 3097 1959 3097 
z
M 1959 3584 
Q 2709 3584 3137 3096 
Q 3566 2609 3566 1747 
Q 3566 888 3137 398 
Q 2709 -91 1959 -91 
Q 1206 -91 779 398 
Q 353 888 353 1747 
Q 353 2609 779 3096 
Q 1206 3584 1959 3584 
z
" id="DejaVuSans-6f" transform="scale(0.015625)"/>
       <path d="M 3116 1747 
Q 3116 2381 2855 2742 
Q 2594 3103 2138 3103 
Q 1681 3103 1420 2742 
Q 1159 2381 1159 1747 
Q 1159 1113 1420 752 
Q 1681 391 2138 391 
Q 2594 391 2855 752 
Q 3116 1113 3116 1747 
z
M 1159 2969 
Q 1341 3281 1617 3432 
Q 1894 3584 2278 3584 
Q 2916 3584 3314 3078 
Q 3713 2572 3713 1747 
Q 3713 922 3314 415 
Q 2916 -91 2278 -91 
Q 1894 -91 1617 61 
Q 1341 213 1159 525 
L 1159 0 
L 581 0 
L 581 4863 
L 1159 4863 
L 1159 2969 
z
" id="DejaVuSans-62" transform="scale(0.015625)"/>
       <path d="M 2059 -325 
Q 1816 -950 1584 -1140 
Q 1353 -1331 966 -1331 
L 506 -1331 
L 506 -850 
L 844 -850 
Q 1081 -850 1212 -737 
Q 1344 -625 1503 -206 
L 1606 56 
L 191 3500 
L 800 3500 
L 1894 763 
L 2988 3500 
L 3597 3500 
L 2059 -325 
z
" id="DejaVuSans-79" transform="scale(0.015625)"/>
      </defs>
      <use xlink:href="#DejaVuSans-63"/>
      <use x="54.980469" xlink:href="#DejaVuSans-75"/>
      <use x="118.359375" xlink:href="#DejaVuSans-6d"/>
      <use x="215.771484" xlink:href="#DejaVuSans-75"/>
      <use x="279.150391" xlink:href="#DejaVuSans-6c"/>
      <use x="306.933594" xlink:href="#DejaVuSans-61"/>
      <use x="368.212891" xlink:href="#DejaVuSans-74"/>
      <use x="407.421875" xlink:href="#DejaVuSans-69"/>
      <use x="435.205078" xlink:href="#DejaVuSans-76"/>
      <use x="494.384766" xlink:href="#DejaVuSans-65"/>
      <use x="555.908203" xlink:href="#DejaVuSans-20"/>
      <use x="587.695312" xlink:href="#DejaVuSans-70"/>
      <use x="651.171875" xlink:href="#DejaVuSans-72"/>
      <use x="690.035156" xlink:href="#DejaVuSans-6f"/>
      <use x="751.216797" xlink:href="#DejaVuSans-62"/>
      <use x="814.693359" xlink:href="#DejaVuSans-61"/>
      <use x="875.972656" xlink:href="#DejaVuSans-62"/>
      <use x="939.449219" xlink:href="#DejaVuSans-69"/>
      <use x="967.232422" xlink:href="#DejaVuSans-6c"/>
      <use x="995.015625" xlink:href="#DejaVuSans-69"/>
      <use x="1022.798828" xlink:href="#DejaVuSans-74"/>
      <use x="1062.007812" xlink:href="#DejaVuSans-79"/>
     </g>
    </g>
   </g>
   <g id="line2d_25">
    <path clip-path="url(#pfccc1e83b0)" d="M 69.218182 242.116364 
L 75.305455 242.116364 
L 81.392727 242.116364 
L 87.48 242.116363 
L 93.567273 242.116347 
L 99.654545 242.116056 
L 105.741818 242.112666 
L 111.829091 242.085262 
L 117.916364 241.924845 
L 124.003636 241.222361 
L 130.090909 238.862107 
L 136.178182 232.654613 
L 142.265455 219.666636 
L 148.352727 197.758754 
L 154.44 167.637593 
L 160.527273 133.569604 
L 166.614545 101.626688 
L 172.701818 76.636278 
L 178.789091 60.233742 
L 184.876364 51.160358 
L 190.963636 46.914231 
L 197.050909 45.22796 
L 203.138182 44.658259 
L 209.225455 44.494207 
L 215.312727 44.453888 
L 221.4 44.445422 
L 227.487273 44.443903 
L 233.574545 44.443671 
L 239.661818 44.44364 
L 245.749091 44.443637 
L 251.836364 44.443636 
L 257.923636 44.443636 
L 264.010909 44.443636 
L 270.098182 44.443636 
L 276.185455 44.443636 
L 282.272727 44.443636 
L 288.36 44.443636 
L 294.447273 44.443636 
L 300.534545 44.443636 
L 306.621818 44.443636 
L 312.709091 44.443636 
L 318.796364 44.443636 
L 324.883636 44.443636 
L 330.970909 44.443636 
L 337.058182 44.443636 
L 343.145455 44.443636 
L 349.232727 44.443636 
L 355.32 44.443636 
L 361.407273 44.443636 
L 367.494545 44.443636 
L 373.581818 44.443636 
" style="fill:none;stroke:#1f77b4;stroke-linecap:square;stroke-width:1.5;"/>
   </g>
   <g id="patch_3">
    <path d="M 54 252 
L 54 34.56 
" style="fill:none;stroke:#000000;stroke-linecap:square;stroke-linejoin:miter;stroke-width:0.8;"/>
   </g>
   <g id="patch_4">
    <path d="M 388.8 252 
L 388.8 34.56 
" style="fill:none;stroke:#000000;stroke-linecap:square;stroke-linejoin:miter;stroke-width:0.8;"/>
   </g>
   <g id="patch_5">
    <path d="M 54 252 
L 388.8 252 
" style="fill:none;stroke:#000000;stroke-linecap:square;stroke-linejoin:miter;stroke-width:0.8;"/>
   </g>
   <g id="patch_6">
    <path d="M 54 34.56 
L 388.8 34.56 
" style="fill:none;stroke:#000000;stroke-linecap:square;stroke-linejoin:miter;stroke-width:0.8;"/>
   </g>
   <g id="text_15">
    <!-- Binomial Cumulative Distribution Function -->
    <g transform="translate(84.252031 14.002844)scale(0.13 -0.13)">
     <defs>
      <path d="M 1259 2228 
L 1259 519 
L 2272 519 
Q 2781 519 3026 730 
Q 3272 941 3272 1375 
Q 3272 1813 3026 2020 
Q 2781 2228 2272 2228 
L 1259 2228 
z
M 1259 4147 
L 1259 2741 
L 2194 2741 
Q 2656 2741 2882 2914 
Q 3109 3088 3109 3444 
Q 3109 3797 2882 3972 
Q 2656 4147 2194 4147 
L 1259 4147 
z
M 628 4666 
L 2241 4666 
Q 2963 4666 3353 4366 
Q 3744 4066 3744 3513 
Q 3744 3084 3544 2831 
Q 3344 2578 2956 2516 
Q 3422 2416 3680 2098 
Q 3938 1781 3938 1306 
Q 3938 681 3513 340 
Q 3088 0 2303 0 
L 628 0 
L 628 4666 
z
" id="DejaVuSans-42" transform="scale(0.015625)"/>
      <path d="M 3513 2113 
L 3513 0 
L 2938 0 
L 2938 2094 
Q 2938 2591 2744 2837 
Q 2550 3084 2163 3084 
Q 1697 3084 1428 2787 
Q 1159 2491 1159 1978 
L 1159 0 
L 581 0 
L 581 3500 
L 1159 3500 
L 1159 2956 
Q 1366 3272 1645 3428 
Q 1925 3584 2291 3584 
Q 2894 3584 3203 3211 
Q 3513 2838 3513 2113 
z
" id="DejaVuSans-6e" transform="scale(0.015625)"/>
      <path d="M 4122 4306 
L 4122 3641 
Q 3803 3938 3442 4084 
Q 3081 4231 2675 4231 
Q 1875 4231 1450 3742 
Q 1025 3253 1025 2328 
Q 1025 1406 1450 917 
Q 1875 428 2675 428 
Q 3081 428 3442 575 
Q 3803 722 4122 1019 
L 4122 359 
Q 3791 134 3420 21 
Q 3050 -91 2638 -91 
Q 1578 -91 968 557 
Q 359 1206 359 2328 
Q 359 3453 968 4101 
Q 1578 4750 2638 4750 
Q 3056 4750 3426 4639 
Q 3797 4528 4122 4306 
z
" id="DejaVuSans-43" transform="scale(0.015625)"/>
      <path d="M 1259 4147 
L 1259 519 
L 2022 519 
Q 2988 519 3436 956 
Q 3884 1394 3884 2338 
Q 3884 3275 3436 3711 
Q 2988 4147 2022 4147 
L 1259 4147 
z
M 628 4666 
L 1925 4666 
Q 3281 4666 3915 4102 
Q 4550 3538 4550 2338 
Q 4550 1131 3912 565 
Q 3275 0 1925 0 
L 628 0 
L 628 4666 
z
" id="DejaVuSans-44" transform="scale(0.015625)"/>
      <path d="M 2834 3397 
L 2834 2853 
Q 2591 2978 2328 3040 
Q 2066 3103 1784 3103 
Q 1356 3103 1142 2972 
Q 928 2841 928 2578 
Q 928 2378 1081 2264 
Q 1234 2150 1697 2047 
L 1894 2003 
Q 2506 1872 2764 1633 
Q 3022 1394 3022 966 
Q 3022 478 2636 193 
Q 2250 -91 1575 -91 
Q 1294 -91 989 -36 
Q 684 19 347 128 
L 347 722 
Q 666 556 975 473 
Q 1284 391 1588 391 
Q 1994 391 2212 530 
Q 2431 669 2431 922 
Q 2431 1156 2273 1281 
Q 2116 1406 1581 1522 
L 1381 1569 
Q 847 1681 609 1914 
Q 372 2147 372 2553 
Q 372 3047 722 3315 
Q 1072 3584 1716 3584 
Q 2034 3584 2315 3537 
Q 2597 3491 2834 3397 
z
" id="DejaVuSans-73" transform="scale(0.015625)"/>
      <path d="M 628 4666 
L 3309 4666 
L 3309 4134 
L 1259 4134 
L 1259 2759 
L 3109 2759 
L 3109 2228 
L 1259 2228 
L 1259 0 
L 628 0 
L 628 4666 
z
" id="DejaVuSans-46" transform="scale(0.015625)"/>
     </defs>
     <use xlink:href="#DejaVuSans-42"/>
     <use x="68.603516" xlink:href="#DejaVuSans-69"/>
     <use x="96.386719" xlink:href="#DejaVuSans-6e"/>
     <use x="159.765625" xlink:href="#DejaVuSans-6f"/>
     <use x="220.947266" xlink:href="#DejaVuSans-6d"/>
     <use x="318.359375" xlink:href="#DejaVuSans-69"/>
     <use x="346.142578" xlink:href="#DejaVuSans-61"/>
     <use x="407.421875" xlink:href="#DejaVuSans-6c"/>
     <use x="435.205078" xlink:href="#DejaVuSans-20"/>
     <use x="466.992188" xlink:href="#DejaVuSans-43"/>
     <use x="536.816406" xlink:href="#DejaVuSans-75"/>
     <use x="600.195312" xlink:href="#DejaVuSans-6d"/>
     <use x="697.607422" xlink:href="#DejaVuSans-75"/>
     <use x="760.986328" xlink:href="#DejaVuSans-6c"/>
     <use x="788.769531" xlink:href="#DejaVuSans-61"/>
     <use x="850.048828" xlink:href="#DejaVuSans-74"/>
     <use x="889.257812" xlink:href="#DejaVuSans-69"/>
     <use x="917.041016" xlink:href="#DejaVuSans-76"/>
     <use x="976.220703" xlink:href="#DejaVuSans-65"/>
     <use x="1037.744141" xlink:href="#DejaVuSans-20"/>
     <use x="1069.53125" xlink:href="#DejaVuSans-44"/>
     <use x="1146.533203" xlink:href="#DejaVuSans-69"/>
     <use x="1174.316406" xlink:href="#DejaVuSans-73"/>
     <use x="1226.416016" xlink:href="#DejaVuSans-74"/>
     <use x="1265.625" xlink:href="#DejaVuSans-72"/>
     <use x="1306.738281" xlink:href="#DejaVuSans-69"/>
     <use x="1334.521484" xlink:href="#DejaVuSans-62"/>
     <use x="1397.998047" xlink:href="#DejaVuSans-75"/>
     <use x="1461.376953" xlink:href="#DejaVuSans-74"/>
     <use x="1500.585938" xlink:href="#DejaVuSans-69"/>
     <use x="1528.369141" xlink:href="#DejaVuSans-6f"/>
     <use x="1589.550781" xlink:href="#DejaVuSans-6e"/>
     <use x="1652.929688" xlink:href="#DejaVuSans-20"/>
     <use x="1684.716797" xlink:href="#DejaVuSans-46"/>
     <use x="1736.736328" xlink:href="#DejaVuSans-75"/>
     <use x="1800.115234" xlink:href="#DejaVuSans-6e"/>
     <use x="1863.494141" xlink:href="#DejaVuSans-63"/>
     <use x="1918.474609" xlink:href="#DejaVuSans-74"/>
     <use x="1957.683594" xlink:href="#DejaVuSans-69"/>
     <use x="1985.466797" xlink:href="#DejaVuSans-6f"/>
     <use x="2046.648438" xlink:href="#DejaVuSans-6e"/>
    </g>
    <!--     probability 0.3   100 samples -->
    <g transform="translate(118.366875 28.56)scale(0.13 -0.13)">
     <defs>
      <path d="M 2597 2516 
Q 3050 2419 3304 2112 
Q 3559 1806 3559 1356 
Q 3559 666 3084 287 
Q 2609 -91 1734 -91 
Q 1441 -91 1130 -33 
Q 819 25 488 141 
L 488 750 
Q 750 597 1062 519 
Q 1375 441 1716 441 
Q 2309 441 2620 675 
Q 2931 909 2931 1356 
Q 2931 1769 2642 2001 
Q 2353 2234 1838 2234 
L 1294 2234 
L 1294 2753 
L 1863 2753 
Q 2328 2753 2575 2939 
Q 2822 3125 2822 3475 
Q 2822 3834 2567 4026 
Q 2313 4219 1838 4219 
Q 1578 4219 1281 4162 
Q 984 4106 628 3988 
L 628 4550 
Q 988 4650 1302 4700 
Q 1616 4750 1894 4750 
Q 2613 4750 3031 4423 
Q 3450 4097 3450 3541 
Q 3450 3153 3228 2886 
Q 3006 2619 2597 2516 
z
" id="DejaVuSans-33" transform="scale(0.015625)"/>
     </defs>
     <use xlink:href="#DejaVuSans-20"/>
     <use x="31.787109" xlink:href="#DejaVuSans-20"/>
     <use x="63.574219" xlink:href="#DejaVuSans-20"/>
     <use x="95.361328" xlink:href="#DejaVuSans-20"/>
     <use x="127.148438" xlink:href="#DejaVuSans-70"/>
     <use x="190.625" xlink:href="#DejaVuSans-72"/>
     <use x="229.488281" xlink:href="#DejaVuSans-6f"/>
     <use x="290.669922" xlink:href="#DejaVuSans-62"/>
     <use x="354.146484" xlink:href="#DejaVuSans-61"/>
     <use x="415.425781" xlink:href="#DejaVuSans-62"/>
     <use x="478.902344" xlink:href="#DejaVuSans-69"/>
     <use x="506.685547" xlink:href="#DejaVuSans-6c"/>
     <use x="534.46875" xlink:href="#DejaVuSans-69"/>
     <use x="562.251953" xlink:href="#DejaVuSans-74"/>
     <use x="601.460938" xlink:href="#DejaVuSans-79"/>
     <use x="660.640625" xlink:href="#DejaVuSans-20"/>
     <use x="692.427734" xlink:href="#DejaVuSans-30"/>
     <use x="756.050781" xlink:href="#DejaVuSans-2e"/>
     <use x="787.837891" xlink:href="#DejaVuSans-33"/>
     <use x="851.460938" xlink:href="#DejaVuSans-20"/>
     <use x="883.248047" xlink:href="#DejaVuSans-20"/>
     <use x="915.035156" xlink:href="#DejaVuSans-20"/>
     <use x="946.822266" xlink:href="#DejaVuSans-31"/>
     <use x="1010.445312" xlink:href="#DejaVuSans-30"/>
     <use x="1074.068359" xlink:href="#DejaVuSans-30"/>
     <use x="1137.691406" xlink:href="#DejaVuSans-20"/>
     <use x="1169.478516" xlink:href="#DejaVuSans-73"/>
     <use x="1221.578125" xlink:href="#DejaVuSans-61"/>
     <use x="1282.857422" xlink:href="#DejaVuSans-6d"/>
     <use x="1380.269531" xlink:href="#DejaVuSans-70"/>
     <use x="1443.746094" xlink:href="#DejaVuSans-6c"/>
     <use x="1471.529297" xlink:href="#DejaVuSans-65"/>
     <use x="1533.052734" xlink:href="#DejaVuSans-73"/>
    </g>
   </g>
  </g>
 </g>
 <defs>
  <clipPath id="pfccc1e83b0">
   <rect height="217.44" width="334.8" x="54" y="34.56"/>
  </clipPath>
 </defs>
</svg>
