<?xml version="1.0" encoding="utf-8" standalone="no"?>
<!DOCTYPE svg PUBLIC "-//W3C//DTD SVG 1.1//EN"
  "http://www.w3.org/Graphics/SVG/1.1/DTD/svg11.dtd">
<svg height="288pt" version="1.1" viewBox="0 0 432 288" width="432pt" xmlns="http://www.w3.org/2000/svg" xmlns:xlink="http://www.w3.org/1999/xlink">
 <metadata>
  <rdf:RDF xmlns:cc="http://creativecommons.org/ns#" xmlns:dc="http://purl.org/dc/elements/1.1/" xmlns:rdf="http://www.w3.org/1999/02/22-rdf-syntax-ns#">
   <cc:Work>
    <dc:type rdf:resource="http://purl.org/dc/dcmitype/StillImage"/>
    <dc:date>2022-06-01T16:39:52.044174</dc:date>
    <dc:format>image/svg+xml</dc:format>
    <dc:creator>
     <cc:Agent>
      <dc:title>Matplotlib v3.4.3, https://matplotlib.org/</dc:title>
     </cc:Agent>
    </dc:creator>
   </cc:Work>
  </rdf:RDF>
 </metadata>
 <defs>
  <style type="text/css">*{stroke-linecap:butt;stroke-linejoin:round;}</style>
 </defs>
 <g id="figure_1">
  <g id="patch_1">
   <path d="M 0 288 
L 432 288 
L 432 0 
L 0 0 
z
" style="fill:none;"/>
  </g>
  <g id="axes_1">
   <g id="patch_2">
    <path d="M 54 252 
L 388.8 252 
L 388.8 34.56 
L 54 34.56 
z
" style="fill:#ffffff;"/>
   </g>
   <g id="matplotlib.axis_1">
    <g id="xtick_1">
     <g id="line2d_1">
      <path clip-path="url(#p680cbe01ff)" d="M 69.218182 252 
L 69.218182 34.56 
" style="fill:none;stroke:#b0b0b0;stroke-linecap:square;stroke-width:0.8;"/>
     </g>
     <g id="line2d_2">
      <defs>
       <path d="M 0 0 
L 0 3.5 
" id="me8326f2187" style="stroke:#000000;stroke-width:0.8;"/>
      </defs>
      <g>
       <use style="stroke:#000000;stroke-width:0.8;" x="69.218182" xlink:href="#me8326f2187" y="252"/>
      </g>
     </g>
     <g id="text_1">
      <!-- 0 -->
      <g transform="translate(66.036932 266.598437)scale(0.1 -0.1)">
       <defs>
        <path d="M 2034 4250 
Q 1547 4250 1301 3770 
Q 1056 3291 1056 2328 
Q 1056 1369 1301 889 
Q 1547 409 2034 409 
Q 2525 409 2770 889 
Q 3016 1369 3016 2328 
Q 3016 3291 2770 3770 
Q 2525 4250 2034 4250 
z
M 2034 4750 
Q 2819 4750 3233 4129 
Q 3647 3509 3647 2328 
Q 3647 1150 3233 529 
Q 2819 -91 2034 -91 
Q 1250 -91 836 529 
Q 422 1150 422 2328 
Q 422 3509 836 4129 
Q 1250 4750 2034 4750 
z
" id="DejaVuSans-30" transform="scale(0.015625)"/>
       </defs>
       <use xlink:href="#DejaVuSans-30"/>
      </g>
     </g>
    </g>
    <g id="xtick_2">
     <g id="line2d_3">
      <path clip-path="url(#p680cbe01ff)" d="M 133.294737 252 
L 133.294737 34.56 
" style="fill:none;stroke:#b0b0b0;stroke-linecap:square;stroke-width:0.8;"/>
     </g>
     <g id="line2d_4">
      <g>
       <use style="stroke:#000000;stroke-width:0.8;" x="133.294737" xlink:href="#me8326f2187" y="252"/>
      </g>
     </g>
     <g id="text_2">
      <!-- 2 -->
      <g transform="translate(130.113487 266.598437)scale(0.1 -0.1)">
       <defs>
        <path d="M 1228 531 
L 3431 531 
L 3431 0 
L 469 0 
L 469 531 
Q 828 903 1448 1529 
Q 2069 2156 2228 2338 
Q 2531 2678 2651 2914 
Q 2772 3150 2772 3378 
Q 2772 3750 2511 3984 
Q 2250 4219 1831 4219 
Q 1534 4219 1204 4116 
Q 875 4013 500 3803 
L 500 4441 
Q 881 4594 1212 4672 
Q 1544 4750 1819 4750 
Q 2544 4750 2975 4387 
Q 3406 4025 3406 3419 
Q 3406 3131 3298 2873 
Q 3191 2616 2906 2266 
Q 2828 2175 2409 1742 
Q 1991 1309 1228 531 
z
" id="DejaVuSans-32" transform="scale(0.015625)"/>
       </defs>
       <use xlink:href="#DejaVuSans-32"/>
      </g>
     </g>
    </g>
    <g id="xtick_3">
     <g id="line2d_5">
      <path clip-path="url(#p680cbe01ff)" d="M 197.371292 252 
L 197.371292 34.56 
" style="fill:none;stroke:#b0b0b0;stroke-linecap:square;stroke-width:0.8;"/>
     </g>
     <g id="line2d_6">
      <g>
       <use style="stroke:#000000;stroke-width:0.8;" x="197.371292" xlink:href="#me8326f2187" y="252"/>
      </g>
     </g>
     <g id="text_3">
      <!-- 4 -->
      <g transform="translate(194.190042 266.598437)scale(0.1 -0.1)">
       <defs>
        <path d="M 2419 4116 
L 825 1625 
L 2419 1625 
L 2419 4116 
z
M 2253 4666 
L 3047 4666 
L 3047 1625 
L 3713 1625 
L 3713 1100 
L 3047 1100 
L 3047 0 
L 2419 0 
L 2419 1100 
L 313 1100 
L 313 1709 
L 2253 4666 
z
" id="DejaVuSans-34" transform="scale(0.015625)"/>
       </defs>
       <use xlink:href="#DejaVuSans-34"/>
      </g>
     </g>
    </g>
    <g id="xtick_4">
     <g id="line2d_7">
      <path clip-path="url(#p680cbe01ff)" d="M 261.447847 252 
L 261.447847 34.56 
" style="fill:none;stroke:#b0b0b0;stroke-linecap:square;stroke-width:0.8;"/>
     </g>
     <g id="line2d_8">
      <g>
       <use style="stroke:#000000;stroke-width:0.8;" x="261.447847" xlink:href="#me8326f2187" y="252"/>
      </g>
     </g>
     <g id="text_4">
      <!-- 6 -->
      <g transform="translate(258.266597 266.598437)scale(0.1 -0.1)">
       <defs>
        <path d="M 2113 2584 
Q 1688 2584 1439 2293 
Q 1191 2003 1191 1497 
Q 1191 994 1439 701 
Q 1688 409 2113 409 
Q 2538 409 2786 701 
Q 3034 994 3034 1497 
Q 3034 2003 2786 2293 
Q 2538 2584 2113 2584 
z
M 3366 4563 
L 3366 3988 
Q 3128 4100 2886 4159 
Q 2644 4219 2406 4219 
Q 1781 4219 1451 3797 
Q 1122 3375 1075 2522 
Q 1259 2794 1537 2939 
Q 1816 3084 2150 3084 
Q 2853 3084 3261 2657 
Q 3669 2231 3669 1497 
Q 3669 778 3244 343 
Q 2819 -91 2113 -91 
Q 1303 -91 875 529 
Q 447 1150 447 2328 
Q 447 3434 972 4092 
Q 1497 4750 2381 4750 
Q 2619 4750 2861 4703 
Q 3103 4656 3366 4563 
z
" id="DejaVuSans-36" transform="scale(0.015625)"/>
       </defs>
       <use xlink:href="#DejaVuSans-36"/>
      </g>
     </g>
    </g>
    <g id="xtick_5">
     <g id="line2d_9">
      <path clip-path="url(#p680cbe01ff)" d="M 325.524402 252 
L 325.524402 34.56 
" style="fill:none;stroke:#b0b0b0;stroke-linecap:square;stroke-width:0.8;"/>
     </g>
     <g id="line2d_10">
      <g>
       <use style="stroke:#000000;stroke-width:0.8;" x="325.524402" xlink:href="#me8326f2187" y="252"/>
      </g>
     </g>
     <g id="text_5">
      <!-- 8 -->
      <g transform="translate(322.343152 266.598437)scale(0.1 -0.1)">
       <defs>
        <path d="M 2034 2216 
Q 1584 2216 1326 1975 
Q 1069 1734 1069 1313 
Q 1069 891 1326 650 
Q 1584 409 2034 409 
Q 2484 409 2743 651 
Q 3003 894 3003 1313 
Q 3003 1734 2745 1975 
Q 2488 2216 2034 2216 
z
M 1403 2484 
Q 997 2584 770 2862 
Q 544 3141 544 3541 
Q 544 4100 942 4425 
Q 1341 4750 2034 4750 
Q 2731 4750 3128 4425 
Q 3525 4100 3525 3541 
Q 3525 3141 3298 2862 
Q 3072 2584 2669 2484 
Q 3125 2378 3379 2068 
Q 3634 1759 3634 1313 
Q 3634 634 3220 271 
Q 2806 -91 2034 -91 
Q 1263 -91 848 271 
Q 434 634 434 1313 
Q 434 1759 690 2068 
Q 947 2378 1403 2484 
z
M 1172 3481 
Q 1172 3119 1398 2916 
Q 1625 2713 2034 2713 
Q 2441 2713 2670 2916 
Q 2900 3119 2900 3481 
Q 2900 3844 2670 4047 
Q 2441 4250 2034 4250 
Q 1625 4250 1398 4047 
Q 1172 3844 1172 3481 
z
" id="DejaVuSans-38" transform="scale(0.015625)"/>
       </defs>
       <use xlink:href="#DejaVuSans-38"/>
      </g>
     </g>
    </g>
    <g id="text_6">
     <!-- value -->
     <g transform="translate(205.010625 281.79625)scale(0.12 -0.12)">
      <defs>
       <path d="M 191 3500 
L 800 3500 
L 1894 563 
L 2988 3500 
L 3597 3500 
L 2284 0 
L 1503 0 
L 191 3500 
z
" id="DejaVuSans-76" transform="scale(0.015625)"/>
       <path d="M 2194 1759 
Q 1497 1759 1228 1600 
Q 959 1441 959 1056 
Q 959 750 1161 570 
Q 1363 391 1709 391 
Q 2188 391 2477 730 
Q 2766 1069 2766 1631 
L 2766 1759 
L 2194 1759 
z
M 3341 1997 
L 3341 0 
L 2766 0 
L 2766 531 
Q 2569 213 2275 61 
Q 1981 -91 1556 -91 
Q 1019 -91 701 211 
Q 384 513 384 1019 
Q 384 1609 779 1909 
Q 1175 2209 1959 2209 
L 2766 2209 
L 2766 2266 
Q 2766 2663 2505 2880 
Q 2244 3097 1772 3097 
Q 1472 3097 1187 3025 
Q 903 2953 641 2809 
L 641 3341 
Q 956 3463 1253 3523 
Q 1550 3584 1831 3584 
Q 2591 3584 2966 3190 
Q 3341 2797 3341 1997 
z
" id="DejaVuSans-61" transform="scale(0.015625)"/>
       <path d="M 603 4863 
L 1178 4863 
L 1178 0 
L 603 0 
L 603 4863 
z
" id="DejaVuSans-6c" transform="scale(0.015625)"/>
       <path d="M 544 1381 
L 544 3500 
L 1119 3500 
L 1119 1403 
Q 1119 906 1312 657 
Q 1506 409 1894 409 
Q 2359 409 2629 706 
Q 2900 1003 2900 1516 
L 2900 3500 
L 3475 3500 
L 3475 0 
L 2900 0 
L 2900 538 
Q 2691 219 2414 64 
Q 2138 -91 1772 -91 
Q 1169 -91 856 284 
Q 544 659 544 1381 
z
M 1991 3584 
L 1991 3584 
z
" id="DejaVuSans-75" transform="scale(0.015625)"/>
       <path d="M 3597 1894 
L 3597 1613 
L 953 1613 
Q 991 1019 1311 708 
Q 1631 397 2203 397 
Q 2534 397 2845 478 
Q 3156 559 3463 722 
L 3463 178 
Q 3153 47 2828 -22 
Q 2503 -91 2169 -91 
Q 1331 -91 842 396 
Q 353 884 353 1716 
Q 353 2575 817 3079 
Q 1281 3584 2069 3584 
Q 2775 3584 3186 3129 
Q 3597 2675 3597 1894 
z
M 3022 2063 
Q 3016 2534 2758 2815 
Q 2500 3097 2075 3097 
Q 1594 3097 1305 2825 
Q 1016 2553 972 2059 
L 3022 2063 
z
" id="DejaVuSans-65" transform="scale(0.015625)"/>
      </defs>
      <use xlink:href="#DejaVuSans-76"/>
      <use x="59.179688" xlink:href="#DejaVuSans-61"/>
      <use x="120.458984" xlink:href="#DejaVuSans-6c"/>
      <use x="148.242188" xlink:href="#DejaVuSans-75"/>
      <use x="211.621094" xlink:href="#DejaVuSans-65"/>
     </g>
    </g>
   </g>
   <g id="matplotlib.axis_2">
    <g id="ytick_1">
     <g id="line2d_11">
      <path clip-path="url(#p680cbe01ff)" d="M 54 242.116364 
L 388.8 242.116364 
" style="fill:none;stroke:#b0b0b0;stroke-linecap:square;stroke-width:0.8;"/>
     </g>
     <g id="line2d_12">
      <defs>
       <path d="M 0 0 
L -3.5 0 
" id="m5f1a5412de" style="stroke:#000000;stroke-width:0.8;"/>
      </defs>
      <g>
       <use style="stroke:#000000;stroke-width:0.8;" x="54" xlink:href="#m5f1a5412de" y="242.116364"/>
      </g>
     </g>
     <g id="text_7">
      <!-- 0.0 -->
      <g transform="translate(31.096875 245.915582)scale(0.1 -0.1)">
       <defs>
        <path d="M 684 794 
L 1344 794 
L 1344 0 
L 684 0 
L 684 794 
z
" id="DejaVuSans-2e" transform="scale(0.015625)"/>
       </defs>
       <use xlink:href="#DejaVuSans-30"/>
       <use x="63.623047" xlink:href="#DejaVuSans-2e"/>
       <use x="95.410156" xlink:href="#DejaVuSans-30"/>
      </g>
     </g>
    </g>
    <g id="ytick_2">
     <g id="line2d_13">
      <path clip-path="url(#p680cbe01ff)" d="M 54 202.581793 
L 388.8 202.581793 
" style="fill:none;stroke:#b0b0b0;stroke-linecap:square;stroke-width:0.8;"/>
     </g>
     <g id="line2d_14">
      <g>
       <use style="stroke:#000000;stroke-width:0.8;" x="54" xlink:href="#m5f1a5412de" y="202.581793"/>
      </g>
     </g>
     <g id="text_8">
      <!-- 0.2 -->
      <g transform="translate(31.096875 206.381011)scale(0.1 -0.1)">
       <use xlink:href="#DejaVuSans-30"/>
       <use x="63.623047" xlink:href="#DejaVuSans-2e"/>
       <use x="95.410156" xlink:href="#DejaVuSans-32"/>
      </g>
     </g>
    </g>
    <g id="ytick_3">
     <g id="line2d_15">
      <path clip-path="url(#p680cbe01ff)" d="M 54 163.047222 
L 388.8 163.047222 
" style="fill:none;stroke:#b0b0b0;stroke-linecap:square;stroke-width:0.8;"/>
     </g>
     <g id="line2d_16">
      <g>
       <use style="stroke:#000000;stroke-width:0.8;" x="54" xlink:href="#m5f1a5412de" y="163.047222"/>
      </g>
     </g>
     <g id="text_9">
      <!-- 0.4 -->
      <g transform="translate(31.096875 166.84644)scale(0.1 -0.1)">
       <use xlink:href="#DejaVuSans-30"/>
       <use x="63.623047" xlink:href="#DejaVuSans-2e"/>
       <use x="95.410156" xlink:href="#DejaVuSans-34"/>
      </g>
     </g>
    </g>
    <g id="ytick_4">
     <g id="line2d_17">
      <path clip-path="url(#p680cbe01ff)" d="M 54 123.51265 
L 388.8 123.51265 
" style="fill:none;stroke:#b0b0b0;stroke-linecap:square;stroke-width:0.8;"/>
     </g>
     <g id="line2d_18">
      <g>
       <use style="stroke:#000000;stroke-width:0.8;" x="54" xlink:href="#m5f1a5412de" y="123.51265"/>
      </g>
     </g>
     <g id="text_10">
      <!-- 0.6 -->
      <g transform="translate(31.096875 127.311869)scale(0.1 -0.1)">
       <use xlink:href="#DejaVuSans-30"/>
       <use x="63.623047" xlink:href="#DejaVuSans-2e"/>
       <use x="95.410156" xlink:href="#DejaVuSans-36"/>
      </g>
     </g>
    </g>
    <g id="ytick_5">
     <g id="line2d_19">
      <path clip-path="url(#p680cbe01ff)" d="M 54 83.978079 
L 388.8 83.978079 
" style="fill:none;stroke:#b0b0b0;stroke-linecap:square;stroke-width:0.8;"/>
     </g>
     <g id="line2d_20">
      <g>
       <use style="stroke:#000000;stroke-width:0.8;" x="54" xlink:href="#m5f1a5412de" y="83.978079"/>
      </g>
     </g>
     <g id="text_11">
      <!-- 0.8 -->
      <g transform="translate(31.096875 87.777298)scale(0.1 -0.1)">
       <use xlink:href="#DejaVuSans-30"/>
       <use x="63.623047" xlink:href="#DejaVuSans-2e"/>
       <use x="95.410156" xlink:href="#DejaVuSans-38"/>
      </g>
     </g>
    </g>
    <g id="ytick_6">
     <g id="line2d_21">
      <path clip-path="url(#p680cbe01ff)" d="M 54 44.443508 
L 388.8 44.443508 
" style="fill:none;stroke:#b0b0b0;stroke-linecap:square;stroke-width:0.8;"/>
     </g>
     <g id="line2d_22">
      <g>
       <use style="stroke:#000000;stroke-width:0.8;" x="54" xlink:href="#m5f1a5412de" y="44.443508"/>
      </g>
     </g>
     <g id="text_12">
      <!-- 1.0 -->
      <g transform="translate(31.096875 48.242727)scale(0.1 -0.1)">
       <defs>
        <path d="M 794 531 
L 1825 531 
L 1825 4091 
L 703 3866 
L 703 4441 
L 1819 4666 
L 2450 4666 
L 2450 531 
L 3481 531 
L 3481 0 
L 794 0 
L 794 531 
z
" id="DejaVuSans-31" transform="scale(0.015625)"/>
       </defs>
       <use xlink:href="#DejaVuSans-31"/>
       <use x="63.623047" xlink:href="#DejaVuSans-2e"/>
       <use x="95.410156" xlink:href="#DejaVuSans-30"/>
      </g>
     </g>
    </g>
    <g id="text_13">
     <!-- probability -->
     <g transform="translate(24.60125 175.290937)rotate(-90)scale(0.12 -0.12)">
      <defs>
       <path d="M 1159 525 
L 1159 -1331 
L 581 -1331 
L 581 3500 
L 1159 3500 
L 1159 2969 
Q 1341 3281 1617 3432 
Q 1894 3584 2278 3584 
Q 2916 3584 3314 3078 
Q 3713 2572 3713 1747 
Q 3713 922 3314 415 
Q 2916 -91 2278 -91 
Q 1894 -91 1617 61 
Q 1341 213 1159 525 
z
M 3116 1747 
Q 3116 2381 2855 2742 
Q 2594 3103 2138 3103 
Q 1681 3103 1420 2742 
Q 1159 2381 1159 1747 
Q 1159 1113 1420 752 
Q 1681 391 2138 391 
Q 2594 391 2855 752 
Q 3116 1113 3116 1747 
z
" id="DejaVuSans-70" transform="scale(0.015625)"/>
       <path d="M 2631 2963 
Q 2534 3019 2420 3045 
Q 2306 3072 2169 3072 
Q 1681 3072 1420 2755 
Q 1159 2438 1159 1844 
L 1159 0 
L 581 0 
L 581 3500 
L 1159 3500 
L 1159 2956 
Q 1341 3275 1631 3429 
Q 1922 3584 2338 3584 
Q 2397 3584 2469 3576 
Q 2541 3569 2628 3553 
L 2631 2963 
z
" id="DejaVuSans-72" transform="scale(0.015625)"/>
       <path d="M 1959 3097 
Q 1497 3097 1228 2736 
Q 959 2375 959 1747 
Q 959 1119 1226 758 
Q 1494 397 1959 397 
Q 2419 397 2687 759 
Q 2956 1122 2956 1747 
Q 2956 2369 2687 2733 
Q 2419 3097 1959 3097 
z
M 1959 3584 
Q 2709 3584 3137 3096 
Q 3566 2609 3566 1747 
Q 3566 888 3137 398 
Q 2709 -91 1959 -91 
Q 1206 -91 779 398 
Q 353 888 353 1747 
Q 353 2609 779 3096 
Q 1206 3584 1959 3584 
z
" id="DejaVuSans-6f" transform="scale(0.015625)"/>
       <path d="M 3116 1747 
Q 3116 2381 2855 2742 
Q 2594 3103 2138 3103 
Q 1681 3103 1420 2742 
Q 1159 2381 1159 1747 
Q 1159 1113 1420 752 
Q 1681 391 2138 391 
Q 2594 391 2855 752 
Q 3116 1113 3116 1747 
z
M 1159 2969 
Q 1341 3281 1617 3432 
Q 1894 3584 2278 3584 
Q 2916 3584 3314 3078 
Q 3713 2572 3713 1747 
Q 3713 922 3314 415 
Q 2916 -91 2278 -91 
Q 1894 -91 1617 61 
Q 1341 213 1159 525 
L 1159 0 
L 581 0 
L 581 4863 
L 1159 4863 
L 1159 2969 
z
" id="DejaVuSans-62" transform="scale(0.015625)"/>
       <path d="M 603 3500 
L 1178 3500 
L 1178 0 
L 603 0 
L 603 3500 
z
M 603 4863 
L 1178 4863 
L 1178 4134 
L 603 4134 
L 603 4863 
z
" id="DejaVuSans-69" transform="scale(0.015625)"/>
       <path d="M 1172 4494 
L 1172 3500 
L 2356 3500 
L 2356 3053 
L 1172 3053 
L 1172 1153 
Q 1172 725 1289 603 
Q 1406 481 1766 481 
L 2356 481 
L 2356 0 
L 1766 0 
Q 1100 0 847 248 
Q 594 497 594 1153 
L 594 3053 
L 172 3053 
L 172 3500 
L 594 3500 
L 594 4494 
L 1172 4494 
z
" id="DejaVuSans-74" transform="scale(0.015625)"/>
       <path d="M 2059 -325 
Q 1816 -950 1584 -1140 
Q 1353 -1331 966 -1331 
L 506 -1331 
L 506 -850 
L 844 -850 
Q 1081 -850 1212 -737 
Q 1344 -625 1503 -206 
L 1606 56 
L 191 3500 
L 800 3500 
L 1894 763 
L 2988 3500 
L 3597 3500 
L 2059 -325 
z
" id="DejaVuSans-79" transform="scale(0.015625)"/>
      </defs>
      <use xlink:href="#DejaVuSans-70"/>
      <use x="63.476562" xlink:href="#DejaVuSans-72"/>
      <use x="102.339844" xlink:href="#DejaVuSans-6f"/>
      <use x="163.521484" xlink:href="#DejaVuSans-62"/>
      <use x="226.998047" xlink:href="#DejaVuSans-61"/>
      <use x="288.277344" xlink:href="#DejaVuSans-62"/>
      <use x="351.753906" xlink:href="#DejaVuSans-69"/>
      <use x="379.537109" xlink:href="#DejaVuSans-6c"/>
      <use x="407.320312" xlink:href="#DejaVuSans-69"/>
      <use x="435.103516" xlink:href="#DejaVuSans-74"/>
      <use x="474.3125" xlink:href="#DejaVuSans-79"/>
     </g>
    </g>
   </g>
   <g id="line2d_23">
    <path clip-path="url(#p680cbe01ff)" d="M 69.218182 242.116364 
L 85.237321 198.391283 
L 101.256459 164.338156 
L 117.275598 137.817554 
L 133.294737 117.163288 
L 149.313876 101.07773 
L 165.333014 88.550284 
L 181.352153 78.7939 
L 197.371292 71.19562 
L 213.390431 65.278074 
L 229.409569 60.669484 
L 245.428708 57.080311 
L 261.447847 54.28506 
L 277.466986 52.108117 
L 293.486124 50.412711 
L 309.505263 49.092328 
L 325.524402 48.064013 
L 341.543541 47.26316 
L 357.562679 46.639455 
L 373.581818 46.153714 
" style="fill:none;stroke:#1f77b4;stroke-linecap:square;stroke-width:1.5;"/>
    <defs>
     <path d="M 0 1.5 
C 0.397805 1.5 0.77937 1.341951 1.06066 1.06066 
C 1.341951 0.77937 1.5 0.397805 1.5 0 
C 1.5 -0.397805 1.341951 -0.77937 1.06066 -1.06066 
C 0.77937 -1.341951 0.397805 -1.5 0 -1.5 
C -0.397805 -1.5 -0.77937 -1.341951 -1.06066 -1.06066 
C -1.341951 -0.77937 -1.5 -0.397805 -1.5 0 
C -1.5 0.397805 -1.341951 0.77937 -1.06066 1.06066 
C -0.77937 1.341951 -0.397805 1.5 0 1.5 
z
" id="m9c6c7b6e59" style="stroke:#1f77b4;"/>
    </defs>
    <g clip-path="url(#p680cbe01ff)">
     <use style="fill:#1f77b4;stroke:#1f77b4;" x="69.218182" xlink:href="#m9c6c7b6e59" y="242.116364"/>
     <use style="fill:#1f77b4;stroke:#1f77b4;" x="85.237321" xlink:href="#m9c6c7b6e59" y="198.391283"/>
     <use style="fill:#1f77b4;stroke:#1f77b4;" x="101.256459" xlink:href="#m9c6c7b6e59" y="164.338156"/>
     <use style="fill:#1f77b4;stroke:#1f77b4;" x="117.275598" xlink:href="#m9c6c7b6e59" y="137.817554"/>
     <use style="fill:#1f77b4;stroke:#1f77b4;" x="133.294737" xlink:href="#m9c6c7b6e59" y="117.163288"/>
     <use style="fill:#1f77b4;stroke:#1f77b4;" x="149.313876" xlink:href="#m9c6c7b6e59" y="101.07773"/>
     <use style="fill:#1f77b4;stroke:#1f77b4;" x="165.333014" xlink:href="#m9c6c7b6e59" y="88.550284"/>
     <use style="fill:#1f77b4;stroke:#1f77b4;" x="181.352153" xlink:href="#m9c6c7b6e59" y="78.7939"/>
     <use style="fill:#1f77b4;stroke:#1f77b4;" x="197.371292" xlink:href="#m9c6c7b6e59" y="71.19562"/>
     <use style="fill:#1f77b4;stroke:#1f77b4;" x="213.390431" xlink:href="#m9c6c7b6e59" y="65.278074"/>
     <use style="fill:#1f77b4;stroke:#1f77b4;" x="229.409569" xlink:href="#m9c6c7b6e59" y="60.669484"/>
     <use style="fill:#1f77b4;stroke:#1f77b4;" x="245.428708" xlink:href="#m9c6c7b6e59" y="57.080311"/>
     <use style="fill:#1f77b4;stroke:#1f77b4;" x="261.447847" xlink:href="#m9c6c7b6e59" y="54.28506"/>
     <use style="fill:#1f77b4;stroke:#1f77b4;" x="277.466986" xlink:href="#m9c6c7b6e59" y="52.108117"/>
     <use style="fill:#1f77b4;stroke:#1f77b4;" x="293.486124" xlink:href="#m9c6c7b6e59" y="50.412711"/>
     <use style="fill:#1f77b4;stroke:#1f77b4;" x="309.505263" xlink:href="#m9c6c7b6e59" y="49.092328"/>
     <use style="fill:#1f77b4;stroke:#1f77b4;" x="325.524402" xlink:href="#m9c6c7b6e59" y="48.064013"/>
     <use style="fill:#1f77b4;stroke:#1f77b4;" x="341.543541" xlink:href="#m9c6c7b6e59" y="47.26316"/>
     <use style="fill:#1f77b4;stroke:#1f77b4;" x="357.562679" xlink:href="#m9c6c7b6e59" y="46.639455"/>
     <use style="fill:#1f77b4;stroke:#1f77b4;" x="373.581818" xlink:href="#m9c6c7b6e59" y="46.153714"/>
    </g>
   </g>
   <g id="line2d_24">
    <path clip-path="url(#p680cbe01ff)" d="M 69.218182 242.116364 
L 85.237321 164.338156 
L 101.256459 117.163288 
L 117.275598 88.550284 
L 133.294737 71.19562 
L 149.313876 60.669484 
L 165.333014 54.28506 
L 181.352153 50.412711 
L 197.371292 48.064013 
L 213.390431 46.639455 
L 229.409569 45.775418 
L 245.428708 45.251352 
L 261.447847 44.93349 
L 277.466986 44.740697 
L 293.486124 44.623763 
L 309.505263 44.552838 
L 325.524402 44.50982 
L 341.543541 44.483729 
L 357.562679 44.467903 
L 373.581818 44.458305 
" style="fill:none;stroke:#ff7f0e;stroke-linecap:square;stroke-width:1.5;"/>
    <defs>
     <path d="M 0 1.5 
C 0.397805 1.5 0.77937 1.341951 1.06066 1.06066 
C 1.341951 0.77937 1.5 0.397805 1.5 0 
C 1.5 -0.397805 1.341951 -0.77937 1.06066 -1.06066 
C 0.77937 -1.341951 0.397805 -1.5 0 -1.5 
C -0.397805 -1.5 -0.77937 -1.341951 -1.06066 -1.06066 
C -1.341951 -0.77937 -1.5 -0.397805 -1.5 0 
C -1.5 0.397805 -1.341951 0.77937 -1.06066 1.06066 
C -0.77937 1.341951 -0.397805 1.5 0 1.5 
z
" id="mc0083bde4b" style="stroke:#ff7f0e;"/>
    </defs>
    <g clip-path="url(#p680cbe01ff)">
     <use style="fill:#ff7f0e;stroke:#ff7f0e;" x="69.218182" xlink:href="#mc0083bde4b" y="242.116364"/>
     <use style="fill:#ff7f0e;stroke:#ff7f0e;" x="85.237321" xlink:href="#mc0083bde4b" y="164.338156"/>
     <use style="fill:#ff7f0e;stroke:#ff7f0e;" x="101.256459" xlink:href="#mc0083bde4b" y="117.163288"/>
     <use style="fill:#ff7f0e;stroke:#ff7f0e;" x="117.275598" xlink:href="#mc0083bde4b" y="88.550284"/>
     <use style="fill:#ff7f0e;stroke:#ff7f0e;" x="133.294737" xlink:href="#mc0083bde4b" y="71.19562"/>
     <use style="fill:#ff7f0e;stroke:#ff7f0e;" x="149.313876" xlink:href="#mc0083bde4b" y="60.669484"/>
     <use style="fill:#ff7f0e;stroke:#ff7f0e;" x="165.333014" xlink:href="#mc0083bde4b" y="54.28506"/>
     <use style="fill:#ff7f0e;stroke:#ff7f0e;" x="181.352153" xlink:href="#mc0083bde4b" y="50.412711"/>
     <use style="fill:#ff7f0e;stroke:#ff7f0e;" x="197.371292" xlink:href="#mc0083bde4b" y="48.064013"/>
     <use style="fill:#ff7f0e;stroke:#ff7f0e;" x="213.390431" xlink:href="#mc0083bde4b" y="46.639455"/>
     <use style="fill:#ff7f0e;stroke:#ff7f0e;" x="229.409569" xlink:href="#mc0083bde4b" y="45.775418"/>
     <use style="fill:#ff7f0e;stroke:#ff7f0e;" x="245.428708" xlink:href="#mc0083bde4b" y="45.251352"/>
     <use style="fill:#ff7f0e;stroke:#ff7f0e;" x="261.447847" xlink:href="#mc0083bde4b" y="44.93349"/>
     <use style="fill:#ff7f0e;stroke:#ff7f0e;" x="277.466986" xlink:href="#mc0083bde4b" y="44.740697"/>
     <use style="fill:#ff7f0e;stroke:#ff7f0e;" x="293.486124" xlink:href="#mc0083bde4b" y="44.623763"/>
     <use style="fill:#ff7f0e;stroke:#ff7f0e;" x="309.505263" xlink:href="#mc0083bde4b" y="44.552838"/>
     <use style="fill:#ff7f0e;stroke:#ff7f0e;" x="325.524402" xlink:href="#mc0083bde4b" y="44.50982"/>
     <use style="fill:#ff7f0e;stroke:#ff7f0e;" x="341.543541" xlink:href="#mc0083bde4b" y="44.483729"/>
     <use style="fill:#ff7f0e;stroke:#ff7f0e;" x="357.562679" xlink:href="#mc0083bde4b" y="44.467903"/>
     <use style="fill:#ff7f0e;stroke:#ff7f0e;" x="373.581818" xlink:href="#mc0083bde4b" y="44.458305"/>
    </g>
   </g>
   <g id="line2d_25">
    <path clip-path="url(#p680cbe01ff)" d="M 69.218182 242.116364 
L 85.237321 137.817554 
L 101.256459 88.550284 
L 117.275598 65.278074 
L 133.294737 54.28506 
L 149.313876 49.092328 
L 165.333014 46.639455 
L 181.352153 45.4808 
L 197.371292 44.93349 
L 213.390431 44.674959 
L 229.409569 44.552838 
L 245.428708 44.495152 
L 261.447847 44.467903 
L 277.466986 44.455032 
L 293.486124 44.448952 
L 309.505263 44.44608 
L 325.524402 44.444723 
L 341.543541 44.444082 
L 357.562679 44.443779 
L 373.581818 44.443636 
" style="fill:none;stroke:#2ca02c;stroke-linecap:square;stroke-width:1.5;"/>
    <defs>
     <path d="M 0 1.5 
C 0.397805 1.5 0.77937 1.341951 1.06066 1.06066 
C 1.341951 0.77937 1.5 0.397805 1.5 0 
C 1.5 -0.397805 1.341951 -0.77937 1.06066 -1.06066 
C 0.77937 -1.341951 0.397805 -1.5 0 -1.5 
C -0.397805 -1.5 -0.77937 -1.341951 -1.06066 -1.06066 
C -1.341951 -0.77937 -1.5 -0.397805 -1.5 0 
C -1.5 0.397805 -1.341951 0.77937 -1.06066 1.06066 
C -0.77937 1.341951 -0.397805 1.5 0 1.5 
z
" id="m382743e088" style="stroke:#2ca02c;"/>
    </defs>
    <g clip-path="url(#p680cbe01ff)">
     <use style="fill:#2ca02c;stroke:#2ca02c;" x="69.218182" xlink:href="#m382743e088" y="242.116364"/>
     <use style="fill:#2ca02c;stroke:#2ca02c;" x="85.237321" xlink:href="#m382743e088" y="137.817554"/>
     <use style="fill:#2ca02c;stroke:#2ca02c;" x="101.256459" xlink:href="#m382743e088" y="88.550284"/>
     <use style="fill:#2ca02c;stroke:#2ca02c;" x="117.275598" xlink:href="#m382743e088" y="65.278074"/>
     <use style="fill:#2ca02c;stroke:#2ca02c;" x="133.294737" xlink:href="#m382743e088" y="54.28506"/>
     <use style="fill:#2ca02c;stroke:#2ca02c;" x="149.313876" xlink:href="#m382743e088" y="49.092328"/>
     <use style="fill:#2ca02c;stroke:#2ca02c;" x="165.333014" xlink:href="#m382743e088" y="46.639455"/>
     <use style="fill:#2ca02c;stroke:#2ca02c;" x="181.352153" xlink:href="#m382743e088" y="45.4808"/>
     <use style="fill:#2ca02c;stroke:#2ca02c;" x="197.371292" xlink:href="#m382743e088" y="44.93349"/>
     <use style="fill:#2ca02c;stroke:#2ca02c;" x="213.390431" xlink:href="#m382743e088" y="44.674959"/>
     <use style="fill:#2ca02c;stroke:#2ca02c;" x="229.409569" xlink:href="#m382743e088" y="44.552838"/>
     <use style="fill:#2ca02c;stroke:#2ca02c;" x="245.428708" xlink:href="#m382743e088" y="44.495152"/>
     <use style="fill:#2ca02c;stroke:#2ca02c;" x="261.447847" xlink:href="#m382743e088" y="44.467903"/>
     <use style="fill:#2ca02c;stroke:#2ca02c;" x="277.466986" xlink:href="#m382743e088" y="44.455032"/>
     <use style="fill:#2ca02c;stroke:#2ca02c;" x="293.486124" xlink:href="#m382743e088" y="44.448952"/>
     <use style="fill:#2ca02c;stroke:#2ca02c;" x="309.505263" xlink:href="#m382743e088" y="44.44608"/>
     <use style="fill:#2ca02c;stroke:#2ca02c;" x="325.524402" xlink:href="#m382743e088" y="44.444723"/>
     <use style="fill:#2ca02c;stroke:#2ca02c;" x="341.543541" xlink:href="#m382743e088" y="44.444082"/>
     <use style="fill:#2ca02c;stroke:#2ca02c;" x="357.562679" xlink:href="#m382743e088" y="44.443779"/>
     <use style="fill:#2ca02c;stroke:#2ca02c;" x="373.581818" xlink:href="#m382743e088" y="44.443636"/>
    </g>
   </g>
   <g id="patch_3">
    <path d="M 54 252 
L 54 34.56 
" style="fill:none;stroke:#000000;stroke-linecap:square;stroke-linejoin:miter;stroke-width:0.8;"/>
   </g>
   <g id="patch_4">
    <path d="M 388.8 252 
L 388.8 34.56 
" style="fill:none;stroke:#000000;stroke-linecap:square;stroke-linejoin:miter;stroke-width:0.8;"/>
   </g>
   <g id="patch_5">
    <path d="M 54 252 
L 388.8 252 
" style="fill:none;stroke:#000000;stroke-linecap:square;stroke-linejoin:miter;stroke-width:0.8;"/>
   </g>
   <g id="patch_6">
    <path d="M 54 34.56 
L 388.8 34.56 
" style="fill:none;stroke:#000000;stroke-linecap:square;stroke-linejoin:miter;stroke-width:0.8;"/>
   </g>
   <g id="text_14">
    <!-- exponential cumulative distribution function -->
    <g transform="translate(55.082813 28.56)scale(0.15 -0.15)">
     <defs>
      <path d="M 3513 3500 
L 2247 1797 
L 3578 0 
L 2900 0 
L 1881 1375 
L 863 0 
L 184 0 
L 1544 1831 
L 300 3500 
L 978 3500 
L 1906 2253 
L 2834 3500 
L 3513 3500 
z
" id="DejaVuSans-78" transform="scale(0.015625)"/>
      <path d="M 3513 2113 
L 3513 0 
L 2938 0 
L 2938 2094 
Q 2938 2591 2744 2837 
Q 2550 3084 2163 3084 
Q 1697 3084 1428 2787 
Q 1159 2491 1159 1978 
L 1159 0 
L 581 0 
L 581 3500 
L 1159 3500 
L 1159 2956 
Q 1366 3272 1645 3428 
Q 1925 3584 2291 3584 
Q 2894 3584 3203 3211 
Q 3513 2838 3513 2113 
z
" id="DejaVuSans-6e" transform="scale(0.015625)"/>
      <path id="DejaVuSans-20" transform="scale(0.015625)"/>
      <path d="M 3122 3366 
L 3122 2828 
Q 2878 2963 2633 3030 
Q 2388 3097 2138 3097 
Q 1578 3097 1268 2742 
Q 959 2388 959 1747 
Q 959 1106 1268 751 
Q 1578 397 2138 397 
Q 2388 397 2633 464 
Q 2878 531 3122 666 
L 3122 134 
Q 2881 22 2623 -34 
Q 2366 -91 2075 -91 
Q 1284 -91 818 406 
Q 353 903 353 1747 
Q 353 2603 823 3093 
Q 1294 3584 2113 3584 
Q 2378 3584 2631 3529 
Q 2884 3475 3122 3366 
z
" id="DejaVuSans-63" transform="scale(0.015625)"/>
      <path d="M 3328 2828 
Q 3544 3216 3844 3400 
Q 4144 3584 4550 3584 
Q 5097 3584 5394 3201 
Q 5691 2819 5691 2113 
L 5691 0 
L 5113 0 
L 5113 2094 
Q 5113 2597 4934 2840 
Q 4756 3084 4391 3084 
Q 3944 3084 3684 2787 
Q 3425 2491 3425 1978 
L 3425 0 
L 2847 0 
L 2847 2094 
Q 2847 2600 2669 2842 
Q 2491 3084 2119 3084 
Q 1678 3084 1418 2786 
Q 1159 2488 1159 1978 
L 1159 0 
L 581 0 
L 581 3500 
L 1159 3500 
L 1159 2956 
Q 1356 3278 1631 3431 
Q 1906 3584 2284 3584 
Q 2666 3584 2933 3390 
Q 3200 3197 3328 2828 
z
" id="DejaVuSans-6d" transform="scale(0.015625)"/>
      <path d="M 2906 2969 
L 2906 4863 
L 3481 4863 
L 3481 0 
L 2906 0 
L 2906 525 
Q 2725 213 2448 61 
Q 2172 -91 1784 -91 
Q 1150 -91 751 415 
Q 353 922 353 1747 
Q 353 2572 751 3078 
Q 1150 3584 1784 3584 
Q 2172 3584 2448 3432 
Q 2725 3281 2906 2969 
z
M 947 1747 
Q 947 1113 1208 752 
Q 1469 391 1925 391 
Q 2381 391 2643 752 
Q 2906 1113 2906 1747 
Q 2906 2381 2643 2742 
Q 2381 3103 1925 3103 
Q 1469 3103 1208 2742 
Q 947 2381 947 1747 
z
" id="DejaVuSans-64" transform="scale(0.015625)"/>
      <path d="M 2834 3397 
L 2834 2853 
Q 2591 2978 2328 3040 
Q 2066 3103 1784 3103 
Q 1356 3103 1142 2972 
Q 928 2841 928 2578 
Q 928 2378 1081 2264 
Q 1234 2150 1697 2047 
L 1894 2003 
Q 2506 1872 2764 1633 
Q 3022 1394 3022 966 
Q 3022 478 2636 193 
Q 2250 -91 1575 -91 
Q 1294 -91 989 -36 
Q 684 19 347 128 
L 347 722 
Q 666 556 975 473 
Q 1284 391 1588 391 
Q 1994 391 2212 530 
Q 2431 669 2431 922 
Q 2431 1156 2273 1281 
Q 2116 1406 1581 1522 
L 1381 1569 
Q 847 1681 609 1914 
Q 372 2147 372 2553 
Q 372 3047 722 3315 
Q 1072 3584 1716 3584 
Q 2034 3584 2315 3537 
Q 2597 3491 2834 3397 
z
" id="DejaVuSans-73" transform="scale(0.015625)"/>
      <path d="M 2375 4863 
L 2375 4384 
L 1825 4384 
Q 1516 4384 1395 4259 
Q 1275 4134 1275 3809 
L 1275 3500 
L 2222 3500 
L 2222 3053 
L 1275 3053 
L 1275 0 
L 697 0 
L 697 3053 
L 147 3053 
L 147 3500 
L 697 3500 
L 697 3744 
Q 697 4328 969 4595 
Q 1241 4863 1831 4863 
L 2375 4863 
z
" id="DejaVuSans-66" transform="scale(0.015625)"/>
     </defs>
     <use xlink:href="#DejaVuSans-65"/>
     <use x="59.773438" xlink:href="#DejaVuSans-78"/>
     <use x="118.953125" xlink:href="#DejaVuSans-70"/>
     <use x="182.429688" xlink:href="#DejaVuSans-6f"/>
     <use x="243.611328" xlink:href="#DejaVuSans-6e"/>
     <use x="306.990234" xlink:href="#DejaVuSans-65"/>
     <use x="368.513672" xlink:href="#DejaVuSans-6e"/>
     <use x="431.892578" xlink:href="#DejaVuSans-74"/>
     <use x="471.101562" xlink:href="#DejaVuSans-69"/>
     <use x="498.884766" xlink:href="#DejaVuSans-61"/>
     <use x="560.164062" xlink:href="#DejaVuSans-6c"/>
     <use x="587.947266" xlink:href="#DejaVuSans-20"/>
     <use x="619.734375" xlink:href="#DejaVuSans-63"/>
     <use x="674.714844" xlink:href="#DejaVuSans-75"/>
     <use x="738.09375" xlink:href="#DejaVuSans-6d"/>
     <use x="835.505859" xlink:href="#DejaVuSans-75"/>
     <use x="898.884766" xlink:href="#DejaVuSans-6c"/>
     <use x="926.667969" xlink:href="#DejaVuSans-61"/>
     <use x="987.947266" xlink:href="#DejaVuSans-74"/>
     <use x="1027.15625" xlink:href="#DejaVuSans-69"/>
     <use x="1054.939453" xlink:href="#DejaVuSans-76"/>
     <use x="1114.119141" xlink:href="#DejaVuSans-65"/>
     <use x="1175.642578" xlink:href="#DejaVuSans-20"/>
     <use x="1207.429688" xlink:href="#DejaVuSans-64"/>
     <use x="1270.90625" xlink:href="#DejaVuSans-69"/>
     <use x="1298.689453" xlink:href="#DejaVuSans-73"/>
     <use x="1350.789062" xlink:href="#DejaVuSans-74"/>
     <use x="1389.998047" xlink:href="#DejaVuSans-72"/>
     <use x="1431.111328" xlink:href="#DejaVuSans-69"/>
     <use x="1458.894531" xlink:href="#DejaVuSans-62"/>
     <use x="1522.371094" xlink:href="#DejaVuSans-75"/>
     <use x="1585.75" xlink:href="#DejaVuSans-74"/>
     <use x="1624.958984" xlink:href="#DejaVuSans-69"/>
     <use x="1652.742188" xlink:href="#DejaVuSans-6f"/>
     <use x="1713.923828" xlink:href="#DejaVuSans-6e"/>
     <use x="1777.302734" xlink:href="#DejaVuSans-20"/>
     <use x="1809.089844" xlink:href="#DejaVuSans-66"/>
     <use x="1844.294922" xlink:href="#DejaVuSans-75"/>
     <use x="1907.673828" xlink:href="#DejaVuSans-6e"/>
     <use x="1971.052734" xlink:href="#DejaVuSans-63"/>
     <use x="2026.033203" xlink:href="#DejaVuSans-74"/>
     <use x="2065.242188" xlink:href="#DejaVuSans-69"/>
     <use x="2093.025391" xlink:href="#DejaVuSans-6f"/>
     <use x="2154.207031" xlink:href="#DejaVuSans-6e"/>
    </g>
   </g>
   <g id="legend_1">
    <g id="patch_7">
     <path d="M 283.515625 247 
L 381.8 247 
Q 383.8 247 383.8 245 
L 383.8 153.694063 
Q 383.8 151.694063 381.8 151.694063 
L 283.515625 151.694063 
Q 281.515625 151.694063 281.515625 153.694063 
L 281.515625 245 
Q 281.515625 247 283.515625 247 
z
" style="fill:#ffffff;opacity:0.8;stroke:#cccccc;stroke-linejoin:miter;"/>
    </g>
    <g id="text_15">
     <!-- parameters -->
     <g transform="translate(303.65625 163.2925)scale(0.1 -0.1)">
      <use xlink:href="#DejaVuSans-70"/>
      <use x="63.476562" xlink:href="#DejaVuSans-61"/>
      <use x="124.755859" xlink:href="#DejaVuSans-72"/>
      <use x="165.869141" xlink:href="#DejaVuSans-61"/>
      <use x="227.148438" xlink:href="#DejaVuSans-6d"/>
      <use x="324.560547" xlink:href="#DejaVuSans-65"/>
      <use x="386.083984" xlink:href="#DejaVuSans-74"/>
      <use x="425.292969" xlink:href="#DejaVuSans-65"/>
      <use x="486.816406" xlink:href="#DejaVuSans-72"/>
      <use x="527.929688" xlink:href="#DejaVuSans-73"/>
     </g>
    </g>
    <g id="line2d_26">
     <path d="M 285.515625 181.109375 
L 305.515625 181.109375 
" style="fill:none;stroke:#1f77b4;stroke-linecap:square;stroke-width:1.5;"/>
    </g>
    <g id="line2d_27">
     <g>
      <use style="fill:#1f77b4;stroke:#1f77b4;" x="295.515625" xlink:href="#m9c6c7b6e59" y="181.109375"/>
     </g>
    </g>
    <g id="text_16">
     <!-- lambda: 0.50 -->
     <g transform="translate(313.515625 177.970625)scale(0.1 -0.1)">
      <defs>
       <path d="M 750 794 
L 1409 794 
L 1409 0 
L 750 0 
L 750 794 
z
M 750 3309 
L 1409 3309 
L 1409 2516 
L 750 2516 
L 750 3309 
z
" id="DejaVuSans-3a" transform="scale(0.015625)"/>
       <path d="M 691 4666 
L 3169 4666 
L 3169 4134 
L 1269 4134 
L 1269 2991 
Q 1406 3038 1543 3061 
Q 1681 3084 1819 3084 
Q 2600 3084 3056 2656 
Q 3513 2228 3513 1497 
Q 3513 744 3044 326 
Q 2575 -91 1722 -91 
Q 1428 -91 1123 -41 
Q 819 9 494 109 
L 494 744 
Q 775 591 1075 516 
Q 1375 441 1709 441 
Q 2250 441 2565 725 
Q 2881 1009 2881 1497 
Q 2881 1984 2565 2268 
Q 2250 2553 1709 2553 
Q 1456 2553 1204 2497 
Q 953 2441 691 2322 
L 691 4666 
z
" id="DejaVuSans-35" transform="scale(0.015625)"/>
      </defs>
      <use xlink:href="#DejaVuSans-6c"/>
      <use x="27.783203" xlink:href="#DejaVuSans-61"/>
      <use x="89.0625" xlink:href="#DejaVuSans-6d"/>
      <use x="186.474609" xlink:href="#DejaVuSans-62"/>
      <use x="249.951172" xlink:href="#DejaVuSans-64"/>
      <use x="313.427734" xlink:href="#DejaVuSans-61"/>
      <use x="374.707031" xlink:href="#DejaVuSans-3a"/>
      <use x="408.398438" xlink:href="#DejaVuSans-20"/>
      <use x="440.185547" xlink:href="#DejaVuSans-30"/>
      <use x="503.808594" xlink:href="#DejaVuSans-2e"/>
      <use x="535.595703" xlink:href="#DejaVuSans-35"/>
      <use x="599.21875" xlink:href="#DejaVuSans-30"/>
     </g>
     <!-- beta: 2.00 -->
     <g transform="translate(313.515625 189.168437)scale(0.1 -0.1)">
      <use xlink:href="#DejaVuSans-62"/>
      <use x="63.476562" xlink:href="#DejaVuSans-65"/>
      <use x="125" xlink:href="#DejaVuSans-74"/>
      <use x="164.208984" xlink:href="#DejaVuSans-61"/>
      <use x="225.488281" xlink:href="#DejaVuSans-3a"/>
      <use x="259.179688" xlink:href="#DejaVuSans-20"/>
      <use x="290.966797" xlink:href="#DejaVuSans-32"/>
      <use x="354.589844" xlink:href="#DejaVuSans-2e"/>
      <use x="386.376953" xlink:href="#DejaVuSans-30"/>
      <use x="450" xlink:href="#DejaVuSans-30"/>
     </g>
    </g>
    <g id="line2d_28">
     <path d="M 285.515625 206.985312 
L 305.515625 206.985312 
" style="fill:none;stroke:#ff7f0e;stroke-linecap:square;stroke-width:1.5;"/>
    </g>
    <g id="line2d_29">
     <g>
      <use style="fill:#ff7f0e;stroke:#ff7f0e;" x="295.515625" xlink:href="#mc0083bde4b" y="206.985312"/>
     </g>
    </g>
    <g id="text_17">
     <!-- lambda: 1.00 -->
     <g transform="translate(313.515625 203.846563)scale(0.1 -0.1)">
      <use xlink:href="#DejaVuSans-6c"/>
      <use x="27.783203" xlink:href="#DejaVuSans-61"/>
      <use x="89.0625" xlink:href="#DejaVuSans-6d"/>
      <use x="186.474609" xlink:href="#DejaVuSans-62"/>
      <use x="249.951172" xlink:href="#DejaVuSans-64"/>
      <use x="313.427734" xlink:href="#DejaVuSans-61"/>
      <use x="374.707031" xlink:href="#DejaVuSans-3a"/>
      <use x="408.398438" xlink:href="#DejaVuSans-20"/>
      <use x="440.185547" xlink:href="#DejaVuSans-31"/>
      <use x="503.808594" xlink:href="#DejaVuSans-2e"/>
      <use x="535.595703" xlink:href="#DejaVuSans-30"/>
      <use x="599.21875" xlink:href="#DejaVuSans-30"/>
     </g>
     <!-- beta: 1.00 -->
     <g transform="translate(313.515625 215.044375)scale(0.1 -0.1)">
      <use xlink:href="#DejaVuSans-62"/>
      <use x="63.476562" xlink:href="#DejaVuSans-65"/>
      <use x="125" xlink:href="#DejaVuSans-74"/>
      <use x="164.208984" xlink:href="#DejaVuSans-61"/>
      <use x="225.488281" xlink:href="#DejaVuSans-3a"/>
      <use x="259.179688" xlink:href="#DejaVuSans-20"/>
      <use x="290.966797" xlink:href="#DejaVuSans-31"/>
      <use x="354.589844" xlink:href="#DejaVuSans-2e"/>
      <use x="386.376953" xlink:href="#DejaVuSans-30"/>
      <use x="450" xlink:href="#DejaVuSans-30"/>
     </g>
    </g>
    <g id="line2d_30">
     <path d="M 285.515625 232.86125 
L 305.515625 232.86125 
" style="fill:none;stroke:#2ca02c;stroke-linecap:square;stroke-width:1.5;"/>
    </g>
    <g id="line2d_31">
     <g>
      <use style="fill:#2ca02c;stroke:#2ca02c;" x="295.515625" xlink:href="#m382743e088" y="232.86125"/>
     </g>
    </g>
    <g id="text_18">
     <!-- lambda: 1.50 -->
     <g transform="translate(313.515625 229.7225)scale(0.1 -0.1)">
      <use xlink:href="#DejaVuSans-6c"/>
      <use x="27.783203" xlink:href="#DejaVuSans-61"/>
      <use x="89.0625" xlink:href="#DejaVuSans-6d"/>
      <use x="186.474609" xlink:href="#DejaVuSans-62"/>
      <use x="249.951172" xlink:href="#DejaVuSans-64"/>
      <use x="313.427734" xlink:href="#DejaVuSans-61"/>
      <use x="374.707031" xlink:href="#DejaVuSans-3a"/>
      <use x="408.398438" xlink:href="#DejaVuSans-20"/>
      <use x="440.185547" xlink:href="#DejaVuSans-31"/>
      <use x="503.808594" xlink:href="#DejaVuSans-2e"/>
      <use x="535.595703" xlink:href="#DejaVuSans-35"/>
      <use x="599.21875" xlink:href="#DejaVuSans-30"/>
     </g>
     <!-- beta: 0.67 -->
     <g transform="translate(313.515625 240.920312)scale(0.1 -0.1)">
      <defs>
       <path d="M 525 4666 
L 3525 4666 
L 3525 4397 
L 1831 0 
L 1172 0 
L 2766 4134 
L 525 4134 
L 525 4666 
z
" id="DejaVuSans-37" transform="scale(0.015625)"/>
      </defs>
      <use xlink:href="#DejaVuSans-62"/>
      <use x="63.476562" xlink:href="#DejaVuSans-65"/>
      <use x="125" xlink:href="#DejaVuSans-74"/>
      <use x="164.208984" xlink:href="#DejaVuSans-61"/>
      <use x="225.488281" xlink:href="#DejaVuSans-3a"/>
      <use x="259.179688" xlink:href="#DejaVuSans-20"/>
      <use x="290.966797" xlink:href="#DejaVuSans-30"/>
      <use x="354.589844" xlink:href="#DejaVuSans-2e"/>
      <use x="386.376953" xlink:href="#DejaVuSans-36"/>
      <use x="450" xlink:href="#DejaVuSans-37"/>
     </g>
    </g>
   </g>
  </g>
 </g>
 <defs>
  <clipPath id="p680cbe01ff">
   <rect height="217.44" width="334.8" x="54" y="34.56"/>
  </clipPath>
 </defs>
</svg>
